<?xml version="1.0" standalone="no"?>
<!DOCTYPE svg PUBLIC "-//W3C//DTD SVG 1.1//EN" "http://www.w3.org/Graphics/SVG/1.1/DTD/svg11.dtd">
<svg width="104mm" height="507mm" viewBox="-25 -2121 104 507" xmlns="http://www.w3.org/2000/svg" version="1.1">
<title>OpenSCAD Model</title>
<path d="
M -25,-1615 L 62.2964,-1615 L 63.8586,-1617.03 L 64.6801,-1618.04 L 67.4293,-1621.97 L 67.7461,-1622.4
 L 69.8959,-1625.79 L 70.5191,-1626.77 L 70.5912,-1626.9 L 73.0536,-1631.22 L 73.4119,-1631.95 L 75.3838,-1635.79
 L 75.9868,-1637.17 L 77.5395,-1640.53 L 78.3562,-1642.61 L 78.7372,-1643.53 L 78.7595,-2120 L 32.2976,-2120
 L 6.60083,-1648.89 L 6.58166,-1648.67 L 6.54962,-1648.3 L 6.51653,-1648.08 L 6.46118,-1647.71 L 6.41429,-1647.49
 L 6.33587,-1647.12 L 6.27535,-1646.91 L 6.17415,-1646.55 L 6.10027,-1646.34 L 5.97668,-1645.99 L 5.88971,-1645.78
 L 5.74423,-1645.44 L 5.64453,-1645.24 L 5.47774,-1644.9 L 5.36569,-1644.71 L 5.17822,-1644.39 L 5.05428,-1644.2
 L 4.84689,-1643.89 L 4.71155,-1643.71 L 4.48504,-1643.42 L 4.33884,-1643.25 L 4.09411,-1642.97 L 3.93762,-1642.81
 L 3.67563,-1642.54 L 3.50948,-1642.39 L 3.23124,-1642.14 L 3.05609,-1642 L 2.76273,-1641.77 L 2.57927,-1641.65
 L 2.27192,-1641.43 L 2.08088,-1641.32 L 1.76076,-1641.12 L 1.56288,-1641.02 L 1.23125,-1640.85 L 1.22287,-1640.85
 L -25,-1642.28 z
" stroke="black" fill="lightgray" stroke-width="0.5"/>
</svg>
