<?xml version="1.0" standalone="no"?>
<!DOCTYPE svg PUBLIC "-//W3C//DTD SVG 1.1//EN" "http://www.w3.org/Graphics/SVG/1.1/DTD/svg11.dtd">
<svg width="103mm" height="507mm" viewBox="-25 -2121 103 507" xmlns="http://www.w3.org/2000/svg" version="1.1">
<title>OpenSCAD Model</title>
<path d="
M -25,-1615 L 53.1703,-1615 L 55.2861,-1617.43 L 56.4565,-1618.69 L 59.0094,-1621.93 L 59.6592,-1622.71
 L 62.2978,-1626.42 L 62.5374,-1626.74 L 64.3685,-1629.61 L 65.1524,-1630.84 L 65.234,-1631 L 67.5547,-1635.08
 L 67.8838,-1635.76 L 69.7742,-1639.49 L 70.3209,-1640.76 L 71.8357,-1644.12 L 72.5764,-1646.05 L 73.7565,-1648.99
 L 74.6708,-1651.67 L 75.5484,-1654.12 L 76.6174,-1657.63 L 77.0906,-1659.12 L 77.1468,-2120 L 32.5821,-2120
 L 6.81578,-1648.78 L 6.7873,-1648.45 L 6.7645,-1648.18 L 6.71534,-1647.85 L 6.67598,-1647.59 L 6.60635,-1647.27
 L 6.55059,-1647.01 L 6.46075,-1646.69 L 6.3888,-1646.43 L 6.27911,-1646.12 L 6.19126,-1645.87 L 6.06215,-1645.57
 L 5.95874,-1645.32 L 5.81073,-1645.02 L 5.69217,-1644.79 L 5.52585,-1644.5 L 5.39259,-1644.27 L 5.20861,-1644
 L 5.06119,-1643.78 L 4.86028,-1643.51 L 4.69928,-1643.3 L 4.48224,-1643.05 L 4.30829,-1642.85 L 4.07598,-1642.61
 L 3.88975,-1642.42 L 3.64309,-1642.2 L 3.44532,-1642.03 L 3.18529,-1641.82 L 2.97676,-1641.66 L 2.70438,-1641.47
 L 2.4859,-1641.32 L 2.20225,-1641.15 L 1.9747,-1641.01 L 1.6809,-1640.86 L 1.49375,-1640.76 L -25,-1642.21
 z
" stroke="black" fill="lightgray" stroke-width="0.5"/>
</svg>
