<?xml version="1.0" standalone="no"?>
<!DOCTYPE svg PUBLIC "-//W3C//DTD SVG 1.1//EN" "http://www.w3.org/Graphics/SVG/1.1/DTD/svg11.dtd">
<svg width="83mm" height="507mm" viewBox="-25 -2121 83 507" xmlns="http://www.w3.org/2000/svg" version="1.1">
<title>OpenSCAD Model</title>
<path d="
M -25,-1615 L -12.2194,-1615 L -11.1211,-1615.43 L -8.20876,-1616.53 L -3.73845,-1618.52 L -1.3493,-1619.56
 L 2.65841,-1621.61 L 4.60879,-1622.58 L 8.18176,-1624.7 L 9.76347,-1625.62 L 12.9474,-1627.8 L 14.22,-1628.66
 L 17.0732,-1630.94 L 18.0879,-1631.73 L 20.6749,-1634.14 L 21.4747,-1634.87 L 23.8591,-1637.46 L 24.4786,-1638.12
 L 26.7161,-1640.95 L 27.1814,-1641.53 L 29.3153,-1644.68 L 29.6446,-1645.16 L 31.7033,-1648.71 L 31.9094,-1649.06
 L 33.9071,-1653.09 L 33.9995,-1653.27 L 35.6936,-1657.27 L 35.9271,-1657.82 L 35.9377,-1657.85 L 37.6988,-1662.73
 L 37.7928,-1663.04 L 39.3127,-1667.98 L 39.4773,-1668.63 L 40.769,-1673.58 L 40.9901,-1674.61 L 42.0691,-1679.52
 L 42.3315,-1680.96 L 43.2158,-1685.77 L 43.5045,-1687.68 L 44.2139,-1692.31 L 44.5141,-1694.73 L 45.0694,-1699.13
 L 45.3674,-1702.08 L 45.7897,-1706.2 L 46.0731,-1709.71 L 46.383,-1713.5 L 46.6405,-1717.6 L 46.8578,-1721.01
 L 47.08,-1725.71 L 47.2232,-1728.71 L 47.4019,-1734.04 L 47.4882,-1736.59 L 47.6168,-1742.55 L 47.6617,-1744.62
 L 47.7351,-1751.21 L 47.7523,-1752.78 L 47.7667,-1760.02 L 47.7685,-1761.05 L 47.7215,-1768.94 L 47.7184,-1769.43
 L 47.6236,-1776.8 L 47.6102,-1777.89 L 47.6089,-1777.97 L 47.4541,-1786.42 L 47.4395,-1787.06 L 47.2536,-1795
 L 47.2208,-1796.22 L 47.0153,-1803.62 L 46.9604,-1805.42 L 46.7451,-1812.26 L 46.6657,-1814.63 L 46.4489,-1820.91
 L 46.3433,-1823.85 L 46.132,-1829.56 L 45.9995,-1833.06 L 45.7994,-1838.19 L 45.6402,-1842.23 L 45.4557,-1846.79
 L 45.2707,-1851.36 L 45.1053,-1855.35 L 44.8963,-1860.44 L 44.7523,-1863.85 L 44.5214,-1869.44 L 44.4003,-1872.29
 L 44.1505,-1878.35 L 44.053,-1880.66 L 43.7875,-1887.17 L 43.7136,-1888.93 L 43.4361,-1895.87 L 43.3851,-1897.12
 L 43.0999,-1904.46 L 43.0704,-1905.19 L 42.782,-1912.91 L 42.7723,-1913.16 L 42.6224,-1917.37 L 42.4951,-1921.01
 L 42.4884,-1921.21 L 42.2415,-1928.72 L 42.2226,-1929.36 L 42.0116,-1936.31 L 41.9836,-1937.36 L 41.8076,-1943.75
 L 41.774,-1945.18 L 41.6316,-1951.05 L 41.5959,-1952.84 L 41.4856,-1958.2 L 41.4519,-1960.33 L 41.3716,-1965.19
 L 41.344,-1967.64 L 41.2917,-1972.03 L 41.2745,-1974.77 L 41.2478,-1978.72 L 41.2457,-1981.72 L 41.2419,-1985.25
 L 41.2597,-1988.5 L 41.276,-1991.61 L 41.3188,-1995.09 L 41.3522,-1997.83 L 41.4253,-2001.51 L 41.4726,-2003.88
 L 41.5817,-2007.75 L 41.6395,-2009.78 L 41.7906,-2013.82 L 41.8552,-2015.54 L 42.0545,-2019.73 L 42.1222,-2021.14
 L 42.3763,-2025.48 L 42.4429,-2026.6 L 42.7589,-2031.08 L 42.8199,-2031.93 L 43.2054,-2036.53 L 43.256,-2037.13
 L 43.719,-2041.84 L 43.754,-2042.19 L 44.3027,-2047.02 L 44.3166,-2047.14 L 44.6566,-2049.74 L 44.9478,-2051.97
 L 44.9619,-2052.06 L 45.6504,-2056.68 L 45.6998,-2056.98 L 46.4249,-2061.29 L 46.5162,-2061.79 L 47.2729,-2065.8
 L 47.4129,-2066.48 L 48.1955,-2070.2 L 48.3911,-2071.06 L 49.1929,-2074.5 L 49.4508,-2075.53 L 50.2642,-2078.71
 L 50.5909,-2079.9 L 51.4074,-2082.81 L 51.8085,-2084.15 L 52.6191,-2086.81 L 53.0991,-2088.3 L 53.8945,-2090.71
 L 54.4565,-2092.33 L 55.2272,-2094.5 L 55.8725,-2096.23 L 56.6094,-2098.18 L 57.3209,-2099.98 L 57.3224,-2120
 L 34.2326,-2120 L 8.10259,-1648.83 L 8.093,-1648.72 L 8.05085,-1648.24 L 8.03436,-1648.13 L 7.96188,-1647.65
 L 7.93856,-1647.54 L 7.83604,-1647.07 L 7.80597,-1646.96 L 7.67382,-1646.49 L 7.63712,-1646.39 L 7.47585,-1645.93
 L 7.43267,-1645.83 L 7.24291,-1645.38 L 7.19343,-1645.28 L 6.97594,-1644.85 L 6.92035,-1644.75 L 6.67597,-1644.33
 L 6.61449,-1644.24 L 6.3442,-1643.83 L 6.27707,-1643.75 L 5.98194,-1643.36 L 5.90944,-1643.28 L 5.59062,-1642.91
 L 5.51302,-1642.83 L 5.17178,-1642.48 L 5.08939,-1642.41 L 4.72705,-1642.09 L 4.6402,-1642.02 L 4.25823,-1641.72
 L 4.16726,-1641.65 L 3.76713,-1641.38 L 3.67241,-1641.32 L 3.25572,-1641.07 L 3.15761,-1641.02 L 2.72598,-1640.8
 L 2.62489,-1640.75 L 2.18005,-1640.56 L 2.07636,-1640.52 L 1.62005,-1640.35 L 1.60156,-1640.34 L -25,-1641.82
 z
" stroke="black" fill="lightgray" stroke-width="0.5"/>
</svg>
