<?xml version="1.0" standalone="no"?>
<!DOCTYPE svg PUBLIC "-//W3C//DTD SVG 1.1//EN" "http://www.w3.org/Graphics/SVG/1.1/DTD/svg11.dtd">
<svg width="82mm" height="507mm" viewBox="-25 -2121 82 507" xmlns="http://www.w3.org/2000/svg" version="1.1">
<title>OpenSCAD Model</title>
<path d="
M -25,-1615 L -15.5618,-1615 L -13.1853,-1615.87 L -12.1878,-1616.23 L -5.74893,-1618.93 L -4.99493,-1619.24
 L 0.702448,-1622 L 1.2615,-1622.27 L 6.27649,-1625.08 L 6.67755,-1625.3 L 11.0859,-1628.18 L 11.3572,-1628.35
 L 15.2469,-1631.31 L 15.4103,-1631.43 L 18.875,-1634.5 L 18.9464,-1634.56 L 21.6805,-1637.4 L 22.0685,-1637.8
 L 22.0764,-1637.81 L 24.8656,-1641.18 L 24.9385,-1641.28 L 27.4041,-1644.77 L 27.5393,-1645 L 29.7308,-1648.62
 L 29.9258,-1649 L 31.874,-1652.77 L 32.1247,-1653.35 L 33.8482,-1657.26 L 34.1483,-1658.07 L 35.6591,-1662.09
 L 36.0002,-1663.18 L 37.3082,-1667.28 L 37.6801,-1668.68 L 38.7959,-1672.82 L 39.1871,-1674.57 L 40.1232,-1678.69
 L 40.5219,-1680.82 L 41.2926,-1684.89 L 41.6871,-1687.43 L 42.3086,-1691.38 L 42.6877,-1694.36 L 43.177,-1698.15
 L 43.5306,-1701.58 L 43.905,-1705.18 L 44.2242,-1709.09 L 44.5009,-1712.44 L 44.7777,-1716.84 L 44.9732,-1719.92
 L 45.2013,-1724.82 L 45.3312,-1727.59 L 45.5054,-1733.01 L 45.5841,-1735.43 L 45.7003,-1741.37 L 45.741,-1743.43
 L 45.7965,-1749.89 L 45.8108,-1751.57 L 45.8039,-1758.55 L 45.8024,-1759.83 L 45.7322,-1767.32 L 45.7239,-1768.18
 L 45.5909,-1776.19 L 45.5836,-1776.62 L 45.3924,-1784.98 L 45.3889,-1785.14 L 45.3887,-1785.14 L 45.1499,-1793.7
 L 45.1355,-1794.15 L 44.8706,-1802.31 L 44.8386,-1803.2 L 44.5575,-1810.93 L 44.5053,-1812.28 L 44.2164,-1819.57
 L 44.1424,-1821.36 L 43.853,-1828.21 L 43.7565,-1830.43 L 43.4727,-1836.83 L 43.3534,-1839.47 L 43.0803,-1845.42
 L 42.9387,-1848.48 L 42.6804,-1853.97 L 42.5177,-1857.43 L 42.2773,-1862.46 L 42.0952,-1866.32 L 41.8752,-1870.89
 L 41.6757,-1875.12 L 41.4776,-1879.25 L 41.2634,-1883.84 L 41.0881,-1887.52 L 40.8621,-1892.45 L 40.7101,-1895.7
 L 40.4755,-1900.94 L 40.3465,-1903.77 L 40.107,-1909.32 L 40.0003,-1911.74 L 39.7597,-1917.55 L 39.6743,-1919.58
 L 39.4366,-1925.65 L 39.3711,-1927.29 L 39.1407,-1933.6 L 39.0931,-1934.87 L 38.8745,-1941.39 L 38.8427,-1942.32
 L 38.6406,-1949.02 L 38.6224,-1949.62 L 38.4417,-1956.49 L 38.4342,-1956.77 L 38.2903,-1963.32 L 38.2806,-1963.77
 L 38.2803,-1963.78 L 38.1663,-1970.61 L 38.1631,-1970.9 L 38.0908,-1977.3 L 38.0881,-1977.85 L 38.0563,-1983.84
 L 38.0575,-1984.62 L 38.065,-1990.21 L 38.0739,-1991.22 L 38.1193,-1996.43 L 38.1397,-1997.64 L 38.2216,-2002.5
 L 38.2576,-2003.9 L 38.3743,-2008.42 L 38.4304,-2010 L 38.5801,-2014.19 L 38.6607,-2015.94 L 38.8416,-2019.81
 L 38.9518,-2021.72 L 39.1617,-2025.3 L 39.3067,-2027.35 L 39.5434,-2030.65 L 39.7288,-2032.83 L 39.9896,-2035.87
 L 40.2214,-2038.18 L 40.5035,-2040.96 L 40.788,-2043.4 L 41.0883,-2045.94 L 41.4321,-2048.5 L 41.7469,-2050.8
 L 42.157,-2053.47 L 42.4821,-2055.56 L 42.9656,-2058.33 L 43.2965,-2060.21 L 43.8605,-2063.08 L 44.192,-2064.75
 L 44.8434,-2067.73 L 45.1697,-2069.19 L 45.915,-2072.26 L 46.2299,-2073.54 L 47.0748,-2076.69 L 47.3716,-2077.78
 L 48.3207,-2081.01 L 48.5926,-2081.92 L 49.6488,-2085.22 L 49.8892,-2085.96 L 51.0535,-2089.32 L 51.2558,-2089.89
 L 52.5271,-2093.3 L 52.6854,-2093.71 L 54.06,-2097.15 L 54.1694,-2097.42 L 55.6406,-2100.88 L 55.6973,-2101.01
 L 56.4954,-2102.79 L 56.4961,-2120 L 34.3143,-2120 L 8.1458,-1648.47 L 8.12683,-1648.25 L 8.09404,-1647.87
 L 8.06143,-1647.66 L 8.00505,-1647.28 L 7.95894,-1647.07 L 7.8792,-1646.7 L 7.81975,-1646.49 L 7.71696,-1646.13
 L 7.64441,-1645.92 L 7.51897,-1645.56 L 7.43362,-1645.36 L 7.28602,-1645.01 L 7.1882,-1644.82 L 7.01904,-1644.48
 L 6.90913,-1644.29 L 6.71906,-1643.96 L 6.5975,-1643.78 L 6.38727,-1643.47 L 6.25455,-1643.29 L 6.025,-1642.99
 L 5.88163,-1642.83 L 5.63367,-1642.54 L 5.48022,-1642.39 L 5.21481,-1642.12 L 5.05189,-1641.97 L 4.77008,-1641.72
 L 4.59833,-1641.59 L 4.30125,-1641.35 L 4.12135,-1641.23 L 3.81014,-1641.01 L 3.62281,-1640.9 L 3.29871,-1640.71
 L 3.10468,-1640.61 L 2.76898,-1640.43 L 2.56902,-1640.34 L 2.42204,-1640.28 L -25,-1641.8 z
" stroke="black" fill="lightgray" stroke-width="0.5"/>
</svg>
