<?xml version="1.0" standalone="no"?>
<!DOCTYPE svg PUBLIC "-//W3C//DTD SVG 1.1//EN" "http://www.w3.org/Graphics/SVG/1.1/DTD/svg11.dtd">
<svg width="81mm" height="507mm" viewBox="-25 -2121 81 507" xmlns="http://www.w3.org/2000/svg" version="1.1">
<title>OpenSCAD Model</title>
<path d="
M -25,-1615 L -18.0081,-1615 L -15.2564,-1615.96 L -14.6202,-1616.22 L -7.79792,-1618.97 L -7.17284,-1619.26
 L -1.30287,-1621.99 L -0.703226,-1622.32 L 4.32346,-1625.03 L 4.89193,-1625.4 L 9.18405,-1628.09 L 9.72227,-1628.49
 L 13.3885,-1631.18 L 13.9022,-1631.62 L 17.048,-1634.32 L 17.5457,-1634.82 L 20.2682,-1637.54 L 20.7593,-1638.12
 L 23.1409,-1640.91 L 23.6341,-1641.59 L 25.739,-1644.47 L 26.2405,-1645.28 L 28.1139,-1648.29 L 28.6268,-1649.26
 L 30.2975,-1652.4 L 30.8216,-1653.56 L 32.3068,-1656.83 L 32.8387,-1658.23 L 34.1492,-1661.62 L 34.683,-1663.27
 L 35.8266,-1666.76 L 36.355,-1668.69 L 37.3397,-1672.25 L 37.8542,-1674.49 L 38.6891,-1678.08 L 39.1815,-1680.64
 L 39.8774,-1684.23 L 40.3395,-1687.14 L 40.9085,-1690.69 L 41.3331,-1693.95 L 41.7882,-1697.42 L 42.169,-1701.06
 L 42.5236,-1704.42 L 42.8552,-1708.43 L 43.1228,-1711.65 L 43.401,-1716.05 L 43.5948,-1719.1 L 43.8161,-1723.9
 L 43.9485,-1726.75 L 44.1108,-1731.94 L 44.1935,-1734.57 L 44.2953,-1740.16 L 44.3391,-1742.55 L 44.3799,-1748.53
 L 44.3943,-1750.67 L 44.3743,-1757.04 L 44.3683,-1758.9 L 44.2884,-1765.67 L 44.2694,-1767.25 L 44.1312,-1774.39
 L 44.106,-1775.67 L 43.9117,-1783.19 L 43.886,-1784.17 L 43.638,-1792.05 L 43.6166,-1792.72 L 43.3182,-1800.96
 L 43.3051,-1801.32 L 42.9596,-1809.89 L 42.9579,-1809.94 L 42.9063,-1811.12 L 42.583,-1818.56 L 42.5707,-1818.84
 L 42.1849,-1827.19 L 42.1571,-1827.77 L 41.7687,-1835.8 L 41.7248,-1836.69 L 41.3397,-1844.38 L 41.2795,-1845.58
 L 40.9026,-1852.93 L 40.8263,-1854.41 L 40.4619,-1861.42 L 40.3704,-1863.19 L 40.0218,-1869.84 L 39.9162,-1871.89
 L 39.5863,-1878.19 L 39.468,-1880.5 L 39.159,-1886.46 L 39.0299,-1889.02 L 38.7434,-1894.63 L 38.6055,-1897.44
 L 38.3428,-1902.7 L 38.1985,-1905.73 L 37.9602,-1910.66 L 37.812,-1913.9 L 37.5986,-1918.5 L 37.4493,-1921.94
 L 37.2608,-1926.22 L 37.1132,-1929.84 L 36.9493,-1933.8 L 36.8066,-1937.58 L 36.6668,-1941.24 L 36.5322,-1945.18
 L 36.4156,-1948.54 L 36.2926,-1952.62 L 36.1983,-1955.69 L 36.0904,-1959.89 L 36.0172,-1962.69 L 35.9281,-1967
 L 35.8746,-1969.54 L 35.8082,-1973.95 L 35.773,-1976.24 L 35.7333,-1980.73 L 35.7147,-1982.78 L 35.7059,-1987.34
 L 35.7021,-1989.16 L 35.7286,-1993.78 L 35.7377,-1995.39 L 35.8043,-2000.07 L 35.8242,-2001.47 L 35.9356,-2006.19
 L 35.9642,-2007.4 L 36.1255,-2012.15 L 36.1605,-2013.18 L 36.3773,-2017.97 L 36.4161,-2018.82 L 36.6941,-2023.63
 L 36.734,-2024.32 L 37.0794,-2029.16 L 37.1176,-2029.69 L 37.5368,-2034.55 L 37.5701,-2034.93 L 38.07,-2039.81
 L 38.0949,-2040.05 L 38.6826,-2044.94 L 38.6954,-2045.05 L 39.2483,-2049.03 L 39.3753,-2049.94 L 39.379,-2049.96
 L 40.1387,-2054.72 L 40.1645,-2054.86 L 40.9869,-2059.4 L 41.0395,-2059.66 L 41.922,-2063.97 L 42.0062,-2064.34
 L 42.9453,-2068.44 L 43.0659,-2068.92 L 44.0571,-2072.82 L 44.2189,-2073.4 L 45.2563,-2077.09 L 45.4637,-2077.77
 L 46.5405,-2081.26 L 46.7974,-2082.04 L 47.9054,-2085.33 L 48.2149,-2086.19 L 49.3452,-2089.29 L 49.7095,-2090.22
 L 50.8523,-2093.13 L 51.2722,-2094.14 L 52.4172,-2096.86 L 52.8921,-2097.93 L 54.0288,-2100.47 L 54.5565,-2101.59
 L 55.6744,-2103.95 L 55.7369,-2104.08 L 55.7376,-2120 L 34.3756,-2120 L 8.18899,-1648.39 L 8.16065,-1648.06
 L 8.13722,-1647.79 L 8.08849,-1647.47 L 8.04821,-1647.2 L 7.97931,-1646.88 L 7.92235,-1646.62 L 7.83352,-1646.3
 L 7.76009,-1646.04 L 7.6517,-1645.74 L 7.56209,-1645.48 L 7.43456,-1645.18 L 7.32912,-1644.93 L 7.18297,-1644.64
 L 7.06213,-1644.4 L 6.89791,-1644.12 L 6.76213,-1643.88 L 6.58051,-1643.61 L 6.43033,-1643.39 L 6.23203,-1643.13
 L 6.06805,-1642.91 L 5.85384,-1642.67 L 5.6767,-1642.46 L 5.44743,-1642.23 L 5.25784,-1642.04 L 5.01441,-1641.82
 L 4.81309,-1641.64 L 4.55648,-1641.44 L 4.34425,-1641.27 L 4.07545,-1641.09 L 3.85314,-1640.93 L 3.57322,-1640.77
 L 3.3417,-1640.63 L 3.05177,-1640.48 L 2.81196,-1640.35 L 2.58739,-1640.25 L -25,-1641.78 z
" stroke="black" fill="lightgray" stroke-width="0.5"/>
</svg>
