<?xml version="1.0" standalone="no"?>
<!DOCTYPE svg PUBLIC "-//W3C//DTD SVG 1.1//EN" "http://www.w3.org/Graphics/SVG/1.1/DTD/svg11.dtd">
<svg width="81mm" height="507mm" viewBox="-25 -2121 81 507" xmlns="http://www.w3.org/2000/svg" version="1.1">
<title>OpenSCAD Model</title>
<path d="
M -25,-1615 L -19.5941,-1615 L -17.3368,-1615.77 L -15.3352,-1616.56 L -9.69617,-1618.77 L -7.9094,-1619.58
 L -3.03684,-1621.79 L -1.45317,-1622.63 L 2.73485,-1624.84 L 4.13386,-1625.71 L 7.72108,-1627.91 L 8.95918,-1628.8
 L 12.0312,-1631 L 13.1354,-1631.93 L 15.777,-1634.14 L 16.7751,-1635.12 L 19.066,-1637.36 L 19.9835,-1638.42
 L 21.9928,-1640.72 L 22.851,-1641.88 L 24.6335,-1644.27 L 25.4476,-1645.56 L 27.0425,-1648.06 L 27.8219,-1649.51
 L 29.2547,-1652.15 L 30.0031,-1653.77 L 31.2888,-1656.56 L 32.006,-1658.39 L 33.1532,-1661.31 L 33.8361,-1663.37
 L 34.8504,-1666.42 L 35.4948,-1668.72 L 36.3812,-1671.88 L 36.9821,-1674.44 L 37.7463,-1677.67 L 38.299,-1680.5
 L 38.948,-1683.8 L 39.4483,-1686.89 L 39.99,-1690.22 L 40.4347,-1693.59 L 40.878,-1696.94 L 41.2646,-1700.58
 L 41.6192,-1703.91 L 41.9461,-1707.83 L 42.2215,-1711.12 L 42.488,-1715.32 L 42.6938,-1718.55 L 42.8998,-1723.03
 L 43.0454,-1726.18 L 43.1915,-1730.94 L 43.2858,-1733.99 L 43.373,-1739.01 L 43.4243,-1741.96 L 43.4544,-1747.24
 L 43.4704,-1750.06 L 43.4454,-1755.61 L 43.4331,-1758.29 L 43.3553,-1764.09 L 43.321,-1766.62 L 43.1932,-1772.67
 L 43.1427,-1775.04 L 42.9679,-1781.32 L 42.906,-1783.53 L 42.6874,-1790.04 L 42.6187,-1792.07 L 42.3597,-1798.8
 L 42.2878,-1800.66 L 41.9919,-1807.6 L 41.9201,-1809.27 L 41.5911,-1816.41 L 41.5221,-1817.89 L 41.1638,-1825.21
 L 41.0997,-1826.51 L 40.7159,-1834.01 L 40.6585,-1835.12 L 40.2532,-1842.77 L 40.2039,-1843.7 L 39.781,-1851.49
 L 39.7406,-1852.23 L 39.3043,-1860.16 L 39.2735,-1860.72 L 38.8278,-1868.76 L 38.8068,-1869.14 L 38.3557,-1877.29
 L 38.3445,-1877.49 L 37.8922,-1885.72 L 37.8906,-1885.75 L 37.8124,-1887.2 L 37.4494,-1893.92 L 37.4424,-1894.06
 L 37.0238,-1901.99 L 37.0091,-1902.28 L 36.6166,-1909.95 L 36.5951,-1910.39 L 36.2309,-1917.79 L 36.2038,-1918.37
 L 35.8696,-1925.5 L 35.8382,-1926.22 L 35.5354,-1933.08 L 35.5011,-1933.92 L 35.231,-1940.52 L 35.1954,-1941.48
 L 34.959,-1947.82 L 34.9237,-1948.9 L 34.7219,-1954.97 L 34.6886,-1956.15 L 34.5221,-1961.98 L 34.4927,-1963.25
 L 34.3623,-1968.83 L 34.3386,-1970.19 L 34.2447,-1975.53 L 34.2289,-1976.97 L 34.172,-1982.07 L 34.1661,-1983.58
 L 34.1467,-1988.46 L 34.153,-1990.04 L 34.1714,-1994.69 L 34.1923,-1996.34 L 34.2488,-2000.78 L 34.2868,-2002.48
 L 34.3818,-2006.71 L 34.4395,-2008.46 L 34.5733,-2012.5 L 34.6536,-2014.3 L 34.8264,-2018.15 L 34.9323,-2019.99
 L 35.1445,-2023.67 L 35.2791,-2025.55 L 35.5309,-2029.05 L 35.6976,-2030.97 L 35.9891,-2034.3 L 36.1915,-2036.26
 L 36.5228,-2039.44 L 36.7647,-2041.42 L 37.1356,-2044.45 L 37.4209,-2046.47 L 37.8309,-2049.36 L 38.1637,-2051.41
 L 38.6122,-2054.16 L 38.9964,-2056.24 L 39.4821,-2058.86 L 39.9218,-2060.97 L 40.4431,-2063.45 L 40.9418,-2065.59
 L 41.4964,-2067.95 L 42.0574,-2070.11 L 42.6423,-2072.34 L 43.2682,-2074.52 L 43.8796,-2076.63 L 44.5722,-2078.83
 L 45.2059,-2080.82 L 45.9656,-2083.03 L 46.6165,-2084.91 L 47.4428,-2087.12 L 48.1054,-2088.88 L 48.9961,-2091.09
 L 49.6644,-2092.74 L 50.6159,-2094.95 L 51.2838,-2096.49 L 52.2906,-2098.68 L 52.9519,-2100.11 L 54.0069,-2102.27
 L 54.6553,-2103.6 L 55.3453,-2104.95 L 55.3456,-2120 L 34.4165,-2120 L 8.23218,-1648.59 L 8.19446,-1648.16
 L 8.18039,-1648 L 8.11555,-1647.57 L 8.09138,-1647.41 L 7.99968,-1646.98 L 7.96549,-1646.82 L 7.84729,-1646.41
 L 7.80322,-1646.25 L 7.65899,-1645.84 L 7.60521,-1645.69 L 7.43551,-1645.29 L 7.37223,-1645.14 L 7.17774,-1644.75
 L 7.10522,-1644.6 L 6.88669,-1644.23 L 6.80521,-1644.09 L 6.56352,-1643.73 L 6.4734,-1643.59 L 6.20951,-1643.25
 L 6.1111,-1643.12 L 5.82605,-1642.79 L 5.71974,-1642.67 L 5.41465,-1642.36 L 5.30087,-1642.24 L 4.97693,-1641.95
 L 4.85611,-1641.85 L 4.51462,-1641.58 L 4.38726,-1641.48 L 4.02955,-1641.23 L 3.89614,-1641.14 L 3.52364,-1640.91
 L 3.38469,-1640.83 L 2.99886,-1640.63 L 2.85494,-1640.56 L 2.45732,-1640.38 L 2.30899,-1640.32 L 2.17287,-1640.27
 L -25,-1641.77 z
" stroke="black" fill="lightgray" stroke-width="0.5"/>
</svg>
