<?xml version="1.0" standalone="no"?>
<!DOCTYPE svg PUBLIC "-//W3C//DTD SVG 1.1//EN" "http://www.w3.org/Graphics/SVG/1.1/DTD/svg11.dtd">
<svg width="81mm" height="507mm" viewBox="-25 -2121 81 507" xmlns="http://www.w3.org/2000/svg" version="1.1">
<title>OpenSCAD Model</title>
<path d="
M -25,-1615 L -20.367,-1615 L -18.3904,-1615.67 L -13.9284,-1617.39 L -10.6566,-1618.66 L -6.77995,-1620.4
 L -3.91309,-1621.69 L -0.563856,-1623.44 L 1.93328,-1624.74 L 4.81651,-1626.49 L 6.98423,-1627.81 L 9.46604,-1629.57
 L 11.3489,-1630.91 L 13.4948,-1632.68 L 15.1396,-1634.05 L 17.0121,-1635.86 L 18.4643,-1637.27 L 20.1188,-1639.15
 L 21.4193,-1640.63 L 22.9,-1642.6 L 24.0821,-1644.17 L 25.4212,-1646.26 L 26.509,-1647.95 L 27.7272,-1650.18
 L 28.736,-1652.02 L 29.845,-1654.4 L 30.7828,-1656.42 L 31.7887,-1658.95 L 32.6585,-1661.15 L 33.5643,-1663.85
 L 34.366,-1666.25 L 35.1735,-1669.1 L 35.906,-1671.69 L 36.6174,-1674.68 L 37.2792,-1677.47 L 37.8974,-1680.59
 L 38.4877,-1683.58 L 39.0168,-1686.82 L 39.5355,-1689.99 L 39.9801,-1693.33 L 40.428,-1696.69 L 40.7936,-1700.11
 L 41.1722,-1703.66 L 41.4648,-1707.14 L 41.7762,-1710.86 L 42.002,-1714.4 L 42.249,-1718.28 L 42.414,-1721.86
 L 42.5998,-1725.9 L 42.7101,-1729.51 L 42.838,-1733.7 L 42.8997,-1737.33 L 42.9732,-1741.66 L 42.9919,-1745.3
 L 43.0149,-1749.76 L 42.9959,-1753.39 L 42.972,-1757.98 L 42.9204,-1761.6 L 42.8535,-1766.31 L 42.774,-1769.9
 L 42.6678,-1774.72 L 42.5648,-1778.29 L 42.423,-1783.21 L 42.3005,-1786.73 L 42.1267,-1791.75 L 41.9884,-1795.23
 L 41.7863,-1800.33 L 41.6354,-1803.76 L 41.4085,-1808.94 L 41.2482,-1812.31 L 40.9998,-1817.56 L 40.8328,-1820.87
 L 40.5663,-1826.17 L 40.3951,-1829.42 L 40.1136,-1834.78 L 39.9405,-1837.95 L 39.6472,-1843.35 L 39.4741,-1846.46
 L 39.172,-1851.89 L 39.0008,-1854.91 L 38.6927,-1860.37 L 38.5249,-1863.32 L 38.2138,-1868.79 L 38.0507,-1871.65
 L 37.7393,-1877.14 L 37.5821,-1879.92 L 37.2731,-1885.4 L 37.123,-1888.09 L 36.8188,-1893.57 L 36.6767,-1896.18
 L 36.38,-1901.63 L 36.2467,-1904.16 L 35.9599,-1909.59 L 35.8359,-1912.02 L 35.5614,-1917.43 L 35.4476,-1919.77
 L 35.1877,-1925.14 L 35.0843,-1927.4 L 34.8415,-1932.72 L 34.7491,-1934.89 L 34.5254,-1940.16 L 34.4444,-1942.25
 L 34.2423,-1947.46 L 34.1728,-1949.46 L 33.9946,-1954.62 L 33.937,-1956.54 L 33.7848,-1961.62 L 33.7393,-1963.46
 L 33.6155,-1968.47 L 33.5823,-1970.23 L 33.4893,-1975.17 L 33.4686,-1976.85 L 33.4087,-1981.72 L 33.4005,-1983.32
 L 33.3763,-1988.11 L 33.3809,-1989.64 L 33.3948,-1994.34 L 33.4122,-1995.81 L 33.4671,-2000.43 L 33.4974,-2001.83
 L 33.5959,-2006.37 L 33.6393,-2007.71 L 33.7844,-2012.17 L 33.841,-2013.44 L 34.0357,-2017.82 L 34.1056,-2019.03
 L 34.3533,-2023.34 L 34.4365,-2024.5 L 34.7406,-2028.73 L 34.8372,-2029.83 L 35.2012,-2033.99 L 35.3112,-2035.04
 L 35.7388,-2039.13 L 35.8623,-2040.13 L 36.3573,-2044.16 L 36.4939,-2045.11 L 37.0601,-2049.07 L 37.2098,-2049.98
 L 37.8508,-2053.88 L 38.0131,-2054.75 L 38.7322,-2058.59 L 38.9065,-2059.41 L 39.7066,-2063.19 L 39.8922,-2063.98
 L 40.7755,-2067.7 L 40.9714,-2068.44 L 41.9391,-2072.1 L 42.1441,-2072.8 L 43.1963,-2076.41 L 43.4088,-2077.07
 L 44.5443,-2080.61 L 44.7626,-2081.23 L 45.9785,-2084.7 L 46.2008,-2085.28 L 47.4927,-2088.68 L 47.7169,-2089.23
 L 49.0785,-2092.55 L 49.3026,-2093.06 L 50.7258,-2096.3 L 50.9476,-2096.77 L 52.4228,-2099.92 L 52.6403,-2100.36
 L 54.1558,-2103.42 L 54.3668,-2103.82 L 55.0954,-2105.22 L 55.0956,-2120 L 34.4369,-2120 L 8.2754,-1649.08
 L 8.2707,-1649.03 L 8.22359,-1648.49 L 8.21552,-1648.44 L 8.13456,-1647.9 L 8.12315,-1647.85 L 8.00866,-1647.32
 L 7.99395,-1647.26 L 7.84637,-1646.74 L 7.82843,-1646.69 L 7.64834,-1646.18 L 7.62723,-1646.13 L 7.41535,-1645.63
 L 7.39115,-1645.58 L 7.14832,-1645.1 L 7.12114,-1645.05 L 6.8483,-1644.58 L 6.81823,-1644.53 L 6.51648,-1644.08
 L 6.48365,-1644.04 L 6.15417,-1643.61 L 6.11871,-1643.57 L 5.7628,-1643.16 L 5.72484,-1643.12 L 5.34391,-1642.73
 L 5.30361,-1642.7 L 4.89915,-1642.34 L 4.85666,-1642.3 L 4.43029,-1641.97 L 4.38578,-1641.94 L 3.93915,-1641.63
 L 3.89281,-1641.6 L 3.4277,-1641.32 L 3.3797,-1641.3 L 2.89794,-1641.05 L 2.84847,-1641.02 L 2.35198,-1640.8
 L 2.30123,-1640.79 L 1.79197,-1640.6 L 1.74014,-1640.58 L 1.2201,-1640.43 L 1.1674,-1640.42 L 0.824307,-1640.34
 L -25,-1641.77 z
" stroke="black" fill="lightgray" stroke-width="0.5"/>
</svg>
