<?xml version="1.0" standalone="no"?>
<!DOCTYPE svg PUBLIC "-//W3C//DTD SVG 1.1//EN" "http://www.w3.org/Graphics/SVG/1.1/DTD/svg11.dtd">
<svg width="81mm" height="507mm" viewBox="-25 -2121 81 507" xmlns="http://www.w3.org/2000/svg" version="1.1">
<title>OpenSCAD Model</title>
<path d="
M -25,-1615 L -19.5766,-1615 L -17.3368,-1615.77 L -11.7217,-1617.97 L -9.69617,-1618.77 L -4.84303,-1620.97
 L -3.03684,-1621.79 L 1.1348,-1623.99 L 2.73485,-1624.84 L 6.30771,-1627.03 L 7.72108,-1627.91 L 10.78,-1630.1
 L 12.0312,-1631 L 14.6607,-1633.2 L 15.777,-1634.14 L 18.0565,-1636.37 L 19.066,-1637.36 L 21.0645,-1639.65
 L 21.9928,-1640.72 L 23.7652,-1643.1 L 24.6335,-1644.27 L 26.219,-1646.76 L 27.0425,-1648.06 L 28.4669,-1650.69
 L 29.2547,-1652.15 L 30.533,-1654.91 L 31.2888,-1656.56 L 32.4298,-1659.46 L 33.1532,-1661.31 L 34.1626,-1664.34
 L 34.8504,-1666.42 L 35.7333,-1669.56 L 36.3812,-1671.88 L 37.1431,-1675.1 L 37.7463,-1677.67 L 38.394,-1680.97
 L 38.948,-1683.8 L 39.4893,-1687.13 L 39.99,-1690.22 L 40.4337,-1693.57 L 40.878,-1696.94 L 41.2334,-1700.27
 L 41.6192,-1703.91 L 41.8957,-1707.21 L 42.2215,-1711.12 L 42.4286,-1714.37 L 42.6938,-1718.55 L 42.8407,-1721.73
 L 43.0454,-1726.18 L 43.1408,-1729.28 L 43.2858,-1733.99 L 43.3378,-1736.98 L 43.4243,-1741.96 L 43.4406,-1744.83
 L 43.4704,-1750.06 L 43.4578,-1752.8 L 43.4331,-1758.29 L 43.3979,-1760.89 L 43.321,-1766.62 L 43.2688,-1769.07
 L 43.1427,-1775.04 L 43.0784,-1777.33 L 42.906,-1783.53 L 42.8341,-1785.66 L 42.6187,-1792.07 L 42.5429,-1794.03
 L 42.2878,-1800.66 L 42.2113,-1802.44 L 41.9201,-1809.27 L 41.8457,-1810.87 L 41.5221,-1817.89 L 41.4519,-1819.32
 L 41.0997,-1826.51 L 41.0356,-1827.76 L 40.6585,-1835.12 L 40.6019,-1836.18 L 40.2039,-1843.7 L 40.1557,-1844.58
 L 39.7406,-1852.23 L 39.7016,-1852.94 L 39.2735,-1860.72 L 39.244,-1861.25 L 38.8068,-1869.14 L 38.7868,-1869.5
 L 38.3445,-1877.49 L 38.334,-1877.68 L 37.8906,-1885.75 L 37.889,-1885.78 L 37.8124,-1887.2 L 37.4564,-1893.79
 L 37.4494,-1893.92 L 37.0386,-1901.71 L 37.0238,-1901.99 L 36.6384,-1909.52 L 36.6166,-1909.95 L 36.2587,-1917.22
 L 36.2309,-1917.79 L 35.9022,-1924.8 L 35.8696,-1925.5 L 35.5716,-1932.25 L 35.5354,-1933.08 L 35.2694,-1939.57
 L 35.231,-1940.52 L 34.9981,-1946.76 L 34.959,-1947.82 L 34.76,-1953.81 L 34.7219,-1954.97 L 34.5577,-1960.72
 L 34.5221,-1961.98 L 34.3934,-1967.48 L 34.3623,-1968.83 L 34.2695,-1974.1 L 34.2447,-1975.53 L 34.1885,-1980.57
 L 34.172,-1982.07 L 34.1527,-1986.89 L 34.1467,-1988.46 L 34.1648,-1993.06 L 34.1714,-1994.69 L 34.2273,-1999.09
 L 34.2488,-2000.78 L 34.3429,-2004.97 L 34.3818,-2006.71 L 34.5144,-2010.72 L 34.5733,-2012.5 L 34.7448,-2016.32
 L 34.8264,-2018.15 L 35.0371,-2021.8 L 35.1445,-2023.67 L 35.3947,-2027.14 L 35.5309,-2029.05 L 35.8207,-2032.36
 L 35.9891,-2034.3 L 36.3186,-2037.46 L 36.5228,-2039.44 L 36.892,-2042.45 L 37.1356,-2044.45 L 37.544,-2047.33
 L 37.8309,-2049.36 L 38.2779,-2052.1 L 38.6122,-2054.16 L 39.0967,-2056.77 L 39.4821,-2058.86 L 40.0026,-2061.34
 L 40.4431,-2063.45 L 40.9972,-2065.81 L 41.4964,-2067.95 L 42.0814,-2070.18 L 42.6423,-2072.34 L 43.2546,-2074.46
 L 43.8796,-2076.63 L 44.515,-2078.63 L 45.2059,-2080.82 L 45.8593,-2082.71 L 46.6165,-2084.91 L 47.2826,-2086.68
 L 48.1054,-2088.88 L 48.7782,-2090.54 L 49.6644,-2092.74 L 50.3378,-2094.29 L 51.2838,-2096.49 L 51.9514,-2097.93
 L 52.9519,-2100.11 L 53.6074,-2101.44 L 54.6553,-2103.6 L 55.2927,-2104.83 L 55.3417,-2104.93 L 55.3419,-2120
 L 34.4165,-2120 L 8.23218,-1648.59 L 8.21811,-1648.43 L 8.18039,-1648 L 8.15621,-1647.84 L 8.09138,-1647.41
 L 8.05717,-1647.25 L 7.96549,-1646.82 L 7.9214,-1646.67 L 7.80322,-1646.25 L 7.74941,-1646.1 L 7.60521,-1645.69
 L 7.5419,-1645.54 L 7.37223,-1645.14 L 7.29967,-1644.99 L 7.10522,-1644.6 L 7.02369,-1644.46 L 6.80521,-1644.09
 L 6.71504,-1643.95 L 6.4734,-1643.59 L 6.37495,-1643.46 L 6.1111,-1643.12 L 6.00475,-1643 L 5.71974,-1642.67
 L 5.60591,-1642.55 L 5.30087,-1642.24 L 5.18001,-1642.14 L 4.85611,-1641.85 L 4.7287,-1641.75 L 4.38726,-1641.48
 L 4.2538,-1641.39 L 3.89614,-1641.14 L 3.75715,-1641.05 L 3.38469,-1640.83 L 3.24073,-1640.76 L 2.85494,-1640.56
 L 2.70658,-1640.49 L 2.30899,-1640.32 L 2.17287,-1640.27 L -25,-1641.77 z
" stroke="black" fill="lightgray" stroke-width="0.5"/>
</svg>
