<?xml version="1.0" standalone="no"?>
<!DOCTYPE svg PUBLIC "-//W3C//DTD SVG 1.1//EN" "http://www.w3.org/Graphics/SVG/1.1/DTD/svg11.dtd">
<svg width="81mm" height="507mm" viewBox="-25 -2121 81 507" xmlns="http://www.w3.org/2000/svg" version="1.1">
<title>OpenSCAD Model</title>
<path d="
M -25,-1615 L -17.999,-1615 L -15.9656,-1615.71 L -15.2564,-1615.96 L -8.50081,-1618.68 L -7.79792,-1618.97
 L -1.98122,-1621.67 L -1.30287,-1621.99 L 3.67911,-1624.68 L 4.32346,-1625.03 L 8.57608,-1627.71 L 9.18405,-1628.09
 L 12.8138,-1630.75 L 13.3885,-1631.18 L 16.4997,-1633.84 L 17.048,-1634.32 L 19.737,-1637 L 20.2682,-1637.54
 L 22.6174,-1640.29 L 23.1409,-1640.91 L 25.2148,-1643.75 L 25.739,-1644.47 L 27.5831,-1647.43 L 28.1139,-1648.29
 L 29.7577,-1651.37 L 30.2975,-1652.4 L 31.7589,-1655.62 L 32.3068,-1656.83 L 33.597,-1660.18 L 34.1492,-1661.62
 L 35.2763,-1665.06 L 35.8266,-1666.76 L 36.7986,-1670.28 L 37.3397,-1672.25 L 38.1656,-1675.81 L 38.6891,-1678.08
 L 39.3793,-1681.64 L 39.8774,-1684.23 L 40.4435,-1687.76 L 40.9085,-1690.69 L 41.363,-1694.15 L 41.7882,-1697.42
 L 42.144,-1700.79 L 42.5236,-1704.42 L 42.7936,-1707.66 L 43.1228,-1711.65 L 43.3197,-1714.74 L 43.5948,-1719.1
 L 43.7303,-1722.01 L 43.9485,-1726.75 L 44.034,-1729.46 L 44.1935,-1734.57 L 44.2393,-1737.07 L 44.3391,-1742.55
 L 44.3544,-1744.81 L 44.3943,-1750.67 L 44.3877,-1752.68 L 44.3683,-1758.9 L 44.3471,-1760.66 L 44.2694,-1767.25
 L 44.2403,-1768.73 L 44.106,-1775.67 L 44.0745,-1776.88 L 43.886,-1784.17 L 43.8567,-1785.09 L 43.6166,-1792.72
 L 43.5936,-1793.35 L 43.3051,-1801.32 L 43.2914,-1801.65 L 42.9579,-1809.94 L 42.9561,-1809.98 L 42.9063,-1811.12
 L 42.5938,-1818.31 L 42.583,-1818.56 L 42.2097,-1826.65 L 42.1849,-1827.19 L 41.8085,-1834.97 L 41.7687,-1835.8
 L 41.3949,-1843.27 L 41.3397,-1844.38 L 40.9732,-1851.53 L 40.9026,-1852.93 L 40.5475,-1859.75 L 40.4619,-1861.42
 L 40.1216,-1867.91 L 40.0218,-1869.84 L 39.699,-1876.01 L 39.5863,-1878.19 L 39.2832,-1884.03 L 39.159,-1886.46
 L 38.8774,-1891.97 L 38.7434,-1894.63 L 38.4845,-1899.82 L 38.3428,-1902.7 L 38.1074,-1907.58 L 37.9602,-1910.66
 L 37.7488,-1915.22 L 37.5986,-1918.5 L 37.4112,-1922.75 L 37.2608,-1926.22 L 37.0973,-1930.17 L 36.9493,-1933.8
 L 36.8093,-1937.46 L 36.6668,-1941.24 L 36.5496,-1944.62 L 36.4156,-1948.54 L 36.3204,-1951.64 L 36.1983,-1955.69
 L 36.1241,-1958.53 L 36.0172,-1962.69 L 35.9627,-1965.28 L 35.8746,-1969.54 L 35.8385,-1971.89 L 35.773,-1976.24
 L 35.7538,-1978.35 L 35.7147,-1982.78 L 35.7107,-1984.67 L 35.7021,-1989.16 L 35.7116,-1990.85 L 35.7377,-1995.39
 L 35.7589,-1996.88 L 35.8242,-2001.47 L 35.8549,-2002.77 L 35.9642,-2007.4 L 36.0023,-2008.51 L 36.1605,-2013.18
 L 36.2038,-2014.13 L 36.4161,-2018.82 L 36.462,-2019.61 L 36.734,-2024.32 L 36.7799,-2024.96 L 37.1176,-2029.69
 L 37.1605,-2030.18 L 37.5701,-2034.93 L 37.6068,-2035.28 L 38.0949,-2040.05 L 38.122,-2040.27 L 38.6954,-2045.05
 L 38.7092,-2045.15 L 39.2483,-2049.03 L 39.3723,-2049.92 L 39.3753,-2049.94 L 40.1166,-2054.58 L 40.1387,-2054.72
 L 40.9416,-2059.14 L 40.9869,-2059.4 L 41.849,-2063.61 L 41.922,-2063.97 L 42.8401,-2067.98 L 42.9453,-2068.44
 L 43.915,-2072.25 L 44.0571,-2072.82 L 45.0729,-2076.43 L 45.2563,-2077.09 L 46.3116,-2080.51 L 46.5405,-2081.26
 L 47.6275,-2084.49 L 47.9054,-2085.33 L 49.0156,-2088.37 L 49.3452,-2089.29 L 50.4692,-2092.14 L 50.8523,-2093.13
 L 51.9801,-2095.81 L 52.4172,-2096.86 L 53.5386,-2099.36 L 54.0288,-2100.47 L 55.1335,-2102.8 L 55.6744,-2103.95
 L 55.7418,-2104.09 L 55.7425,-2120 L 34.3756,-2120 L 8.18899,-1648.39 L 8.16555,-1648.12 L 8.13722,-1647.79
 L 8.09692,-1647.52 L 8.04821,-1647.2 L 7.99123,-1646.94 L 7.92235,-1646.62 L 7.84888,-1646.36 L 7.76009,-1646.04
 L 7.67044,-1645.79 L 7.56209,-1645.48 L 7.45661,-1645.23 L 7.32912,-1644.93 L 7.20824,-1644.69 L 7.06213,-1644.4
 L 6.9263,-1644.17 L 6.76213,-1643.88 L 6.6119,-1643.66 L 6.43033,-1643.39 L 6.2663,-1643.17 L 6.06805,-1642.91
 L 5.89086,-1642.71 L 5.6767,-1642.46 L 5.48705,-1642.27 L 5.25784,-1642.04 L 5.05647,-1641.86 L 4.81309,-1641.64
 L 4.60081,-1641.47 L 4.34425,-1641.27 L 4.12188,-1641.12 L 3.85314,-1640.93 L 3.62156,-1640.79 L 3.3417,-1640.63
 L 3.10184,-1640.5 L 2.81196,-1640.35 L 2.58739,-1640.25 L -25,-1641.78 z
" stroke="black" fill="lightgray" stroke-width="0.5"/>
</svg>
