<?xml version="1.0" standalone="no"?>
<!DOCTYPE svg PUBLIC "-//W3C//DTD SVG 1.1//EN" "http://www.w3.org/Graphics/SVG/1.1/DTD/svg11.dtd">
<svg width="82mm" height="507mm" viewBox="-25 -2121 82 507" xmlns="http://www.w3.org/2000/svg" version="1.1">
<title>OpenSCAD Model</title>
<path d="
M -25,-1615 L -15.5444,-1615 L -12.1878,-1616.23 L -11.3427,-1616.58 L -4.99493,-1619.24 L -4.35861,-1619.54
 L 1.2615,-1622.27 L 1.73141,-1622.53 L 6.67755,-1625.3 L 7.01374,-1625.52 L 11.3572,-1628.35 L 11.5847,-1628.52
 L 15.4103,-1631.43 L 15.5476,-1631.55 L 18.9464,-1634.56 L 19.007,-1634.63 L 21.6805,-1637.4 L 22.0602,-1637.79
 L 22.0685,-1637.8 L 24.7899,-1641.09 L 24.8656,-1641.18 L 27.2657,-1644.57 L 27.4041,-1644.77 L 29.5333,-1648.29
 L 29.7308,-1648.62 L 31.6214,-1652.27 L 31.874,-1652.77 L 33.5459,-1656.56 L 33.8482,-1657.26 L 35.3143,-1661.16
 L 35.6591,-1662.09 L 36.93,-1666.08 L 37.3082,-1667.28 L 38.3946,-1671.31 L 38.7959,-1672.82 L 39.71,-1676.85
 L 40.1232,-1678.69 L 40.8788,-1682.68 L 41.2926,-1684.89 L 41.9049,-1688.78 L 42.3086,-1691.38 L 42.7936,-1695.14
 L 43.177,-1698.15 L 43.551,-1701.74 L 43.905,-1705.18 L 44.184,-1708.56 L 44.5009,-1712.44 L 44.7004,-1715.58
 L 44.9732,-1719.92 L 45.1078,-1722.78 L 45.3312,-1727.59 L 45.4145,-1730.16 L 45.5841,-1735.43 L 45.6283,-1737.68
 L 45.741,-1743.43 L 45.7572,-1745.34 L 45.8108,-1751.57 L 45.809,-1753.12 L 45.8024,-1759.83 L 45.791,-1761
 L 45.7239,-1768.18 L 45.7106,-1768.97 L 45.5836,-1776.62 L 45.5744,-1777.02 L 45.3924,-1784.98 L 45.3891,-1785.13
 L 45.3889,-1785.14 L 45.1611,-1793.29 L 45.1499,-1793.7 L 44.8965,-1801.49 L 44.8706,-1802.31 L 44.6008,-1809.72
 L 44.5575,-1810.93 L 44.2792,-1817.95 L 44.2164,-1819.57 L 43.9366,-1826.19 L 43.853,-1828.21 L 43.5775,-1834.41
 L 43.4727,-1836.83 L 43.2063,-1842.62 L 43.0803,-1845.42 L 42.8269,-1850.79 L 42.6804,-1853.97 L 42.4432,-1858.92
 L 42.2773,-1862.46 L 42.0587,-1867 L 41.8752,-1870.89 L 41.6767,-1875.02 L 41.4776,-1879.25 L 41.3003,-1882.97
 L 41.0881,-1887.52 L 40.9326,-1890.84 L 40.7101,-1895.7 L 40.5763,-1898.63 L 40.3465,-1903.77 L 40.234,-1906.32
 L 40.0003,-1911.74 L 39.9083,-1913.92 L 39.6743,-1919.58 L 39.6014,-1921.4 L 39.3711,-1927.29 L 39.3158,-1928.77
 L 39.0931,-1934.87 L 39.0536,-1936.02 L 38.8427,-1942.32 L 38.817,-1943.15 L 38.6224,-1949.62 L 38.6079,-1950.15
 L 38.4342,-1956.77 L 38.4285,-1957.02 L 38.2903,-1963.32 L 38.281,-1963.75 L 38.2806,-1963.77 L 38.1707,-1970.34
 L 38.1663,-1970.61 L 38.0964,-1976.79 L 38.0908,-1977.3 L 38.0599,-1983.09 L 38.0563,-1983.84 L 38.0635,-1989.26
 L 38.065,-1990.21 L 38.1091,-1995.28 L 38.1193,-1996.43 L 38.1991,-2001.16 L 38.2216,-2002.5 L 38.3356,-2006.91
 L 38.3743,-2008.42 L 38.5209,-2012.52 L 38.5801,-2014.19 L 38.7577,-2017.99 L 38.8416,-2019.81 L 39.0483,-2023.34
 L 39.1617,-2025.3 L 39.3955,-2028.56 L 39.5434,-2030.65 L 39.8019,-2033.65 L 39.9896,-2035.87 L 40.2704,-2038.63
 L 40.5035,-2040.96 L 40.8037,-2043.5 L 41.0883,-2045.94 L 41.4045,-2048.26 L 41.7469,-2050.8 L 42.0754,-2052.91
 L 42.4821,-2055.56 L 42.8188,-2057.46 L 43.2965,-2060.21 L 43.6366,-2061.91 L 44.192,-2064.75 L 44.5301,-2066.27
 L 45.1697,-2069.19 L 45.5001,-2070.53 L 46.2299,-2073.54 L 46.5464,-2074.7 L 47.3716,-2077.78 L 47.6679,-2078.77
 L 48.5926,-2081.92 L 48.8622,-2082.75 L 49.8892,-2085.96 L 50.1256,-2086.63 L 51.2558,-2089.89 L 51.4533,-2090.41
 L 52.6854,-2093.71 L 52.8389,-2094.09 L 54.1694,-2097.42 L 54.2747,-2097.67 L 55.6973,-2101.01 L 55.7515,-2101.13
 L 56.4906,-2102.78 L 56.4913,-2120 L 34.3143,-2120 L 8.1458,-1648.47 L 8.113,-1648.09 L 8.09404,-1647.87
 L 8.03765,-1647.5 L 8.00505,-1647.28 L 7.9253,-1646.91 L 7.8792,-1646.7 L 7.77638,-1646.34 L 7.71696,-1646.13
 L 7.59149,-1645.77 L 7.51897,-1645.56 L 7.37134,-1645.21 L 7.28602,-1645.01 L 7.11682,-1644.68 L 7.01904,-1644.48
 L 6.82892,-1644.15 L 6.71906,-1643.96 L 6.50879,-1643.65 L 6.38727,-1643.47 L 6.15768,-1643.17 L 6.025,-1642.99
 L 5.77699,-1642.71 L 5.63367,-1642.54 L 5.36821,-1642.27 L 5.21481,-1642.12 L 4.93295,-1641.87 L 4.77008,-1641.72
 L 4.47294,-1641.49 L 4.30125,-1641.35 L 3.98998,-1641.14 L 3.81014,-1641.01 L 3.486,-1640.82 L 3.29871,-1640.71
 L 2.96296,-1640.53 L 2.76898,-1640.43 L 2.42295,-1640.28 L 2.42204,-1640.28 L -25,-1641.8 z
" stroke="black" fill="lightgray" stroke-width="0.5"/>
</svg>
