<?xml version="1.0" standalone="no"?>
<!DOCTYPE svg PUBLIC "-//W3C//DTD SVG 1.1//EN" "http://www.w3.org/Graphics/SVG/1.1/DTD/svg11.dtd">
<svg width="83mm" height="507mm" viewBox="-25 -2121 83 507" xmlns="http://www.w3.org/2000/svg" version="1.1">
<title>OpenSCAD Model</title>
<path d="
M -25,-1615 L -12.1535,-1615 L -8.20876,-1616.53 L -5.77222,-1617.59 L -1.3493,-1619.56 L 0.644512,-1620.56
 L 4.60879,-1622.58 L 6.23186,-1623.53 L 9.76347,-1625.62 L 11.0775,-1626.5 L 14.22,-1628.66 L 15.278,-1629.49
 L 18.0879,-1631.73 L 18.9347,-1632.51 L 21.4747,-1634.87 L 22.1465,-1635.58 L 24.4786,-1638.12 L 25.0028,-1638.77
 L 27.1814,-1641.53 L 27.5772,-1642.1 L 29.6446,-1645.16 L 29.9252,-1645.63 L 31.9094,-1649.06 L 32.0844,-1649.41
 L 33.9995,-1653.27 L 34.0775,-1653.45 L 35.6936,-1657.27 L 35.9167,-1657.8 L 35.9271,-1657.82 L 37.606,-1662.47
 L 37.6988,-1662.73 L 39.1491,-1667.44 L 39.3127,-1667.98 L 40.5477,-1672.72 L 40.769,-1673.58 L 41.8039,-1678.29
 L 42.0691,-1679.52 L 42.9209,-1684.14 L 43.2158,-1685.77 L 43.9031,-1690.25 L 44.2139,-1692.31 L 44.7558,-1696.6
 L 45.0694,-1699.13 L 45.4853,-1703.18 L 45.7897,-1706.2 L 46.0986,-1709.97 L 46.383,-1713.5 L 46.603,-1716.95
 L 46.8578,-1721.01 L 47.0059,-1724.11 L 47.2232,-1728.71 L 47.3151,-1731.43 L 47.4882,-1736.59 L 47.538,-1738.89
 L 47.6617,-1744.62 L 47.6822,-1746.47 L 47.7523,-1752.78 L 47.7547,-1754.18 L 47.7685,-1761.05 L 47.7627,-1761.98
 L 47.7184,-1769.43 L 47.7126,-1769.87 L 47.6236,-1776.8 L 47.611,-1777.83 L 47.6102,-1777.89 L 47.4641,-1785.86
 L 47.4541,-1786.42 L 47.2779,-1793.93 L 47.2536,-1795 L 47.0578,-1802.04 L 47.0153,-1803.62 L 46.8089,-1810.17
 L 46.7451,-1812.26 L 46.5359,-1818.32 L 46.4489,-1820.91 L 46.2433,-1826.46 L 46.132,-1829.56 L 45.9353,-1834.6
 L 45.7994,-1838.19 L 45.6159,-1842.72 L 45.4557,-1846.79 L 45.2887,-1850.81 L 45.1053,-1855.35 L 44.9572,-1858.86
 L 44.7523,-1863.85 L 44.6246,-1866.86 L 44.4003,-1872.29 L 44.2939,-1874.8 L 44.053,-1880.66 L 43.9681,-1882.68
 L 43.7136,-1888.93 L 43.6497,-1890.49 L 43.3851,-1897.12 L 43.3414,-1898.21 L 43.0704,-1905.19 L 43.0455,-1905.84
 L 42.7723,-1913.16 L 42.7642,-1913.38 L 42.6224,-1917.37 L 42.5015,-1920.82 L 42.4951,-1921.01 L 42.2601,-1928.14
 L 42.2415,-1928.72 L 42.0398,-1935.34 L 42.0116,-1936.31 L 41.8426,-1942.43 L 41.8076,-1943.75 L 41.6702,-1949.39
 L 41.6316,-1951.05 L 41.5246,-1956.23 L 41.4856,-1958.2 L 41.4073,-1962.93 L 41.3716,-1965.19 L 41.3203,-1969.5
 L 41.2917,-1972.03 L 41.2652,-1975.93 L 41.2478,-1978.72 L 41.2439,-1982.22 L 41.2419,-1985.25 L 41.2581,-1988.37
 L 41.276,-1991.61 L 41.3097,-1994.38 L 41.3522,-1997.83 L 41.4006,-2000.26 L 41.4726,-2003.88 L 41.5327,-2005.99
 L 41.6395,-2009.78 L 41.708,-2011.59 L 41.8552,-2015.54 L 41.9287,-2017.06 L 42.1222,-2021.14 L 42.1969,-2022.4
 L 42.4429,-2026.6 L 42.5148,-2027.61 L 42.8199,-2031.93 L 42.8848,-2032.69 L 43.256,-2037.13 L 43.3092,-2037.66
 L 43.754,-2042.19 L 43.7904,-2042.51 L 44.3166,-2047.14 L 44.3309,-2047.25 L 44.6566,-2049.74 L 44.9362,-2051.88
 L 44.9478,-2051.97 L 45.6094,-2056.4 L 45.6504,-2056.68 L 46.3486,-2060.83 L 46.4249,-2061.29 L 47.1552,-2065.16
 L 47.2729,-2065.8 L 48.03,-2069.4 L 48.1955,-2070.2 L 48.9733,-2073.54 L 49.1929,-2074.5 L 49.9843,-2077.59
 L 50.2642,-2078.71 L 51.0616,-2081.55 L 51.4074,-2082.81 L 52.2024,-2085.41 L 52.6191,-2086.81 L 53.403,-2089.18
 L 53.8945,-2090.71 L 54.6584,-2092.86 L 55.2272,-2094.5 L 55.9623,-2096.43 L 56.6094,-2098.18 L 57.3073,-2099.9
 L 57.3227,-2099.94 L 57.3242,-2120 L 34.2326,-2120 L 8.10259,-1648.83 L 8.06044,-1648.35 L 8.05085,-1648.24
 L 7.97837,-1647.76 L 7.96188,-1647.65 L 7.85936,-1647.17 L 7.83604,-1647.07 L 7.70387,-1646.6 L 7.67382,-1646.49
 L 7.51252,-1646.03 L 7.47585,-1645.93 L 7.28606,-1645.48 L 7.24291,-1645.38 L 7.02539,-1644.94 L 6.97594,-1644.85
 L 6.73153,-1644.43 L 6.67597,-1644.33 L 6.40565,-1643.93 L 6.3442,-1643.83 L 6.04904,-1643.45 L 5.98194,-1643.36
 L 5.66309,-1642.99 L 5.59062,-1642.91 L 5.24934,-1642.56 L 5.17178,-1642.48 L 4.8094,-1642.16 L 4.72705,-1642.09
 L 4.34504,-1641.79 L 4.25823,-1641.72 L 3.85806,-1641.44 L 3.76713,-1641.38 L 3.3504,-1641.13 L 3.25572,-1641.07
 L 2.82405,-1640.85 L 2.72598,-1640.8 L 2.28111,-1640.6 L 2.18005,-1640.56 L 1.72371,-1640.39 L 1.62005,-1640.35
 L 1.60156,-1640.34 L -25,-1641.82 z
" stroke="black" fill="lightgray" stroke-width="0.5"/>
</svg>
