<?xml version="1.0" standalone="no"?>
<!DOCTYPE svg PUBLIC "-//W3C//DTD SVG 1.1//EN" "http://www.w3.org/Graphics/SVG/1.1/DTD/svg11.dtd">
<svg width="100mm" height="507mm" viewBox="-25 -2121 100 507" xmlns="http://www.w3.org/2000/svg" version="1.1">
<title>OpenSCAD Model</title>
<path d="
M -25,-1615 L 44.0559,-1615 L 44.688,-1615.55 L 46.6249,-1617.52 L 48.5053,-1619.32 L 50.5793,-1621.66
 L 51.8799,-1623.04 L 54.0471,-1625.77 L 54.8919,-1626.78 L 57.1329,-1629.95 L 57.6104,-1630.59 L 59.9202,-1634.27
 L 60.0916,-1634.53 L 61.5343,-1637.12 L 62.3806,-1638.64 L 62.4632,-1638.82 L 64.5094,-1642.97 L 64.8018,-1643.68
 L 66.4926,-1647.56 L 66.9748,-1648.87 L 68.3424,-1652.43 L 68.9957,-1654.44 L 70.0669,-1657.59 L 70.8729,-1660.38
 L 71.6718,-1663.05 L 72.6118,-1666.72 L 73.1621,-1668.79 L 74.2174,-1673.44 L 74.5424,-1674.83 L 74.8527,-1676.37
 L 74.9294,-2120 L 32.8464,-2120 L 7.03074,-1648.95 L 6.99292,-1648.51 L 6.97938,-1648.35 L 6.91414,-1647.92
 L 6.89079,-1647.76 L 6.7984,-1647.33 L 6.76532,-1647.18 L 6.64613,-1646.76 L 6.60346,-1646.6 L 6.45794,-1646.19
 L 6.40584,-1646.04 L 6.23458,-1645.64 L 6.17325,-1645.49 L 5.97692,-1645.1 L 5.90661,-1644.96 L 5.68599,-1644.58
 L 5.60696,-1644.44 L 5.36292,-1644.08 L 5.2755,-1643.95 L 5.00901,-1643.6 L 4.91353,-1643.47 L 4.62564,-1643.14
 L 4.52248,-1643.02 L 4.21433,-1642.71 L 4.10389,-1642.59 L 3.77669,-1642.3 L 3.6594,-1642.2 L 3.31447,-1641.92
 L 3.19079,-1641.83 L 2.82948,-1641.58 L 2.69989,-1641.49 L 2.32363,-1641.26 L 2.18865,-1641.18 L 1.79891,-1640.98
 L 1.65907,-1640.9 L 1.25742,-1640.73 L 1.21945,-1640.71 L -25,-1642.15 z
" stroke="black" fill="lightgray" stroke-width="0.5"/>
</svg>
