<?xml version="1.0" standalone="no"?>
<!DOCTYPE svg PUBLIC "-//W3C//DTD SVG 1.1//EN" "http://www.w3.org/Graphics/SVG/1.1/DTD/svg11.dtd">
<svg width="84mm" height="507mm" viewBox="-25 -2121 84 507" xmlns="http://www.w3.org/2000/svg" version="1.1">
<title>OpenSCAD Model</title>
<path d="
M -25,-1615 L -7.87097,-1615 L -5.9422,-1615.78 L -3.42415,-1616.84 L 0.677098,-1618.75 L 3.0495,-1619.88
 L 6.46344,-1621.71 L 8.66455,-1622.92 L 11.4962,-1624.67 L 13.5212,-1625.95 L 15.8648,-1627.63 L 17.7258,-1628.99
 L 19.6656,-1630.6 L 21.3868,-1632.07 L 22.996,-1633.62 L 24.6083,-1635.22 L 25.9466,-1636.72 L 27.4825,-1638.49
 L 28.5954,-1639.95 L 30.0837,-1641.95 L 31.0035,-1643.35 L 32.466,-1645.64 L 33.2144,-1646.97 L 34.6639,-1649.61
 L 35.256,-1650.84 L 36.6966,-1653.91 L 37.1445,-1654.99 L 38.5727,-1658.54 L 38.8882,-1659.44 L 40.2949,-1663.53
 L 40.4911,-1664.19 L 41.8637,-1668.87 L 41.9553,-1669.23 L 43.2798,-1674.55 L 43.2827,-1674.56 L 43.326,-1674.77
 L 44.4739,-1680.19 L 44.5492,-1680.56 L 45.534,-1686.09 L 45.671,-1686.87 L 46.4679,-1692.23 L 46.6502,-1693.48
 L 47.2811,-1698.6 L 47.4929,-1700.36 L 47.9801,-1705.19 L 48.2068,-1707.48 L 48.5717,-1711.97 L 48.7998,-1714.83
 L 49.063,-1718.93 L 49.2806,-1722.38 L 49.4611,-1726.06 L 49.6579,-1730.12 L 49.7734,-1733.34 L 49.9404,-1738.03
 L 50.0068,-1740.75 L 50.1367,-1746.09 L 50.1682,-1748.29 L 50.2553,-1754.28 L 50.2645,-1755.93 L 50.3041,-1762.59
 L 50.3019,-1763.67 L 50.2909,-1770.99 L 50.2866,-1771.49 L 50.2339,-1778.11 L 50.2245,-1779.38 L 50.2238,-1779.48
 L 50.1218,-1787.33 L 50.1135,-1788.03 L 49.9836,-1795.33 L 49.9619,-1796.63 L 49.8147,-1803.36 L 49.7753,-1805.26
 L 49.6198,-1811.42 L 49.5594,-1813.92 L 49.4031,-1819.48 L 49.3196,-1822.59 L 49.1687,-1827.55 L 49.0609,-1831.25
 L 48.9205,-1835.6 L 48.7879,-1839.89 L 48.6619,-1843.64 L 48.5051,-1848.5 L 48.3962,-1851.65 L 48.2163,-1857.07
 L 48.1266,-1859.62 L 47.9254,-1865.59 L 47.856,-1867.55 L 47.6358,-1874.04 L 47.587,-1875.42 L 47.3508,-1882.41
 L 47.3221,-1883.23 L 47.0733,-1890.69 L 47.0639,-1890.97 L 46.9338,-1894.96 L 46.8164,-1898.63 L 46.8087,-1898.88
 L 46.5824,-1906.2 L 46.5599,-1906.97 L 46.3616,-1913.68 L 46.3263,-1914.94 L 46.156,-1921.06 L 46.1104,-1922.79
 L 45.9673,-1928.33 L 45.9141,-1930.51 L 45.7973,-1935.49 L 45.7397,-1938.09 L 45.6475,-1942.54 L 45.5889,-1945.53
 L 45.5195,-1949.46 L 45.4637,-1952.83 L 45.4149,-1956.26 L 45.3658,-1959.98 L 45.3352,-1962.93 L 45.297,-1966.97
 L 45.2819,-1969.47 L 45.2591,-1973.81 L 45.2565,-1975.88 L 45.2537,-1980.49 L 45.2605,-1982.15 L 45.2826,-1987.01
 L 45.2954,-1988.28 L 45.3477,-1993.36 L 45.3627,-1994.28 L 45.4506,-1999.56 L 45.4641,-2000.13 L 45.5932,-2005.6
 L 45.6012,-2005.85 L 45.7465,-2010.5 L 45.7767,-2011.44 L 45.7783,-2011.49 L 45.9972,-2016.88 L 46.0106,-2017.22
 L 46.2591,-2022.2 L 46.2887,-2022.8 L 46.5642,-2027.39 L 46.6146,-2028.24 L 46.9146,-2032.45 L 46.9907,-2033.54
 L 47.3122,-2037.39 L 47.4191,-2038.7 L 47.7589,-2042.21 L 47.9024,-2043.73 L 48.2569,-2046.92 L 48.4428,-2048.64
 L 48.808,-2051.52 L 49.0426,-2053.43 L 49.414,-2056.02 L 49.7038,-2058.1 L 50.0765,-2060.42 L 50.4284,-2062.67
 L 50.7969,-2064.71 L 51.2178,-2067.12 L 51.5759,-2068.92 L 52.0727,-2071.48 L 52.4142,-2073.02 L 52.9935,-2075.73
 L 53.3113,-2077.04 L 53.9792,-2079.88 L 54.2665,-2080.97 L 55.0283,-2083.94 L 55.2778,-2084.8 L 56.1378,-2087.89
 L 56.3426,-2088.55 L 57.3034,-2091.74 L 57.4574,-2092.2 L 58.5197,-2095.49 L 58.5883,-2095.68 L 58.5901,-2120
 L 34.1305,-2120 L 8.05936,-1649.49 L 8.00785,-1648.89 L 8.00764,-1648.89 L 7.91905,-1648.3 L 7.91868,-1648.3
 L 7.79338,-1647.72 L 7.79286,-1647.72 L 7.63132,-1647.15 L 7.63065,-1647.14 L 7.43351,-1646.58 L 7.43269,-1646.58
 L 7.20073,-1646.03 L 7.19977,-1646.03 L 6.93392,-1645.5 L 6.93282,-1645.5 L 6.6341,-1644.98 L 6.63286,-1644.98
 L 6.30246,-1644.49 L 6.3011,-1644.49 L 5.94034,-1644.01 L 5.93886,-1644.01 L 5.54914,-1643.56 L 5.54754,-1643.56
 L 5.13041,-1643.14 L 5.12871,-1643.14 L 4.6858,-1642.74 L 4.684,-1642.74 L 4.21707,-1642.37 L 4.21519,-1642.37
 L 3.72607,-1642.03 L 3.7241,-1642.03 L 3.21473,-1641.72 L 3.21269,-1641.72 L 2.68507,-1641.45 L 2.68297,-1641.45
 L 2.13919,-1641.21 L 2.13704,-1641.21 L 1.57925,-1641 L 1.57705,-1641 L 1.00744,-1640.83 L 1.0052,-1640.83
 L 0.426023,-1640.69 L 0.42376,-1640.69 L -0.162699,-1640.6 L -0.164979,-1640.6 L -0.756416,-1640.54 L -0.758703,-1640.54
 L -1.14559,-1640.52 L -25,-1641.84 z
" stroke="black" fill="lightgray" stroke-width="0.5"/>
</svg>
