<?xml version="1.0" standalone="no"?>
<!DOCTYPE svg PUBLIC "-//W3C//DTD SVG 1.1//EN" "http://www.w3.org/Graphics/SVG/1.1/DTD/svg11.dtd">
<svg width="85mm" height="507mm" viewBox="-25 -2121 85 507" xmlns="http://www.w3.org/2000/svg" version="1.1">
<title>OpenSCAD Model</title>
<path d="
M -25,-1615 L -2.68898,-1615 L -0.493709,-1615.98 L 1.97057,-1617.07 L 2.06055,-1617.12 L 7.84091,-1620.04
 L 8.11386,-1620.19 L 12.9616,-1623 L 13.3585,-1623.24 L 17.4155,-1625.94 L 17.8969,-1626.28 L 21.2934,-1628.89
 L 21.8358,-1629.33 L 24.6895,-1631.87 L 25.2814,-1632.42 L 27.694,-1634.92 L 28.3326,-1635.6 L 30.3861,-1638.07
 L 31.0739,-1638.92 L 32.8297,-1641.37 L 33.5709,-1642.44 L 35.0717,-1644.88 L 35.8693,-1646.21 L 37.1431,-1648.62
 L 37.9969,-1650.28 L 39.0629,-1652.63 L 39.9682,-1654.68 L 40.8412,-1656.92 L 41.7892,-1659.42 L 42.4834,-1661.5
 L 43.4617,-1664.51 L 43.9922,-1666.37 L 44.9859,-1669.95 L 45.3697,-1671.53 L 46.3628,-1675.73 L 46.6182,-1676.96
 L 47.5947,-1681.82 L 47.7409,-1682.66 L 48.6855,-1688.22 L 48.742,-1688.6 L 49.4272,-1693.4 L 49.6263,-1694.79
 L 49.6419,-1694.9 L 50.3988,-1701.2 L 50.4739,-1701.84 L 51.0667,-1707.81 L 51.1842,-1709.02 L 51.6368,-1714.61
 L 51.781,-1716.43 L 52.1157,-1721.58 L 52.2726,-1724.03 L 52.5105,-1728.7 L 52.6675,-1731.82 L 52.8278,-1735.96
 L 52.9741,-1739.77 L 53.0742,-1743.35 L 53.2007,-1747.87 L 53.2562,-1750.85 L 53.3552,-1756.1 L 53.3799,-1758.45
 L 53.4453,-1764.43 L 53.451,-1766.14 L 53.4782,-1772.86 L 53.4753,-1773.9 L 53.4609,-1781.38 L 53.458,-1781.74
 L 53.4287,-1785.87 L 53.4047,-1789.62 L 53.403,-1789.95 L 53.3208,-1797.56 L 53.311,-1798.57 L 53.2098,-1805.52
 L 53.1871,-1807.23 L 53.0759,-1813.51 L 53.0367,-1815.91 L 52.9231,-1821.5 L 52.8647,-1824.59 L 52.7548,-1829.49
 L 52.6758,-1833.27 L 52.5744,-1837.48 L 52.4742,-1841.93 L 52.3852,-1845.44 L 52.2639,-1850.56 L 52.1899,-1853.38
 L 52.0486,-1859.14 L 51.9913,-1861.28 L 51.8315,-1867.66 L 51.7919,-1869.14 L 51.616,-1876.12 L 51.594,-1876.94
 L 51.4047,-1884.51 L 51.4,-1884.69 L 51.3452,-1886.92 L 51.2151,-1892.36 L 51.2053,-1892.8 L 51.0396,-1899.96
 L 51.0173,-1901 L 50.8742,-1907.47 L 50.841,-1909.09 L 50.7203,-1914.89 L 50.6786,-1917.06 L 50.5797,-1922.21
 L 50.532,-1924.92 L 50.4538,-1929.44 L 50.403,-1932.64 L 50.344,-1936.55 L 50.2935,-1940.23 L 50.2516,-1943.55
 L 50.205,-1947.67 L 50.178,-1950.43 L 50.1392,-1954.97 L 50.1245,-1957.19 L 50.0975,-1962.11 L 50.0923,-1963.83
 L 50.0815,-1969.1 L 50.0826,-1970.33 L 50.0925,-1975.93 L 50.0966,-1976.7 L 50.1321,-1982.6 L 50.1356,-1982.94
 L 50.1905,-1988.07 L 50.2019,-1989.05 L 50.2027,-1989.11 L 50.3018,-1995.01 L 50.3094,-1995.46 L 50.4308,-2000.84
 L 50.4491,-2001.64 L 50.5904,-2006.53 L 50.6231,-2007.67 L 50.7819,-2012.09 L 50.8333,-2013.53 L 51.0066,-2017.51
 L 51.0811,-2019.24 L 51.2662,-2022.8 L 51.3684,-2024.8 L 51.5621,-2027.96 L 51.697,-2030.21 L 51.8959,-2032.99
 L 52.0688,-2035.48 L 52.2691,-2037.9 L 52.4855,-2040.6 L 52.6834,-2042.7 L 52.9492,-2045.6 L 53.1404,-2047.37
 L 53.4619,-2050.46 L 53.6416,-2051.94 L 54.0252,-2055.2 L 54.1884,-2056.4 L 54.641,-2059.83 L 54.7823,-2060.75
 L 55.3107,-2064.34 L 55.4243,-2065.01 L 56.0354,-2068.74 L 56.1152,-2069.17 L 56.8159,-2073.04 L 56.8556,-2073.23
 L 57.5366,-2076.65 L 57.647,-2077.2 L 57.6528,-2077.23 L 58.4975,-2081.08 L 58.5488,-2081.33 L 59.3961,-2084.88
 L 59.4985,-2085.32 L 59.9338,-2087.01 L 59.9373,-2120 L 34.008,-2120 L 7.93188,-1648.9 L 7.92273,-1648.8
 L 7.8802,-1648.31 L 7.86445,-1648.21 L 7.79128,-1647.72 L 7.76901,-1647.62 L 7.6655,-1647.14 L 7.63679,-1647.04
 L 7.50333,-1646.56 L 7.46829,-1646.46 L 7.30542,-1646 L 7.26418,-1645.9 L 7.07253,-1645.45 L 7.02527,-1645.36
 L 6.80561,-1644.92 L 6.7525,-1644.83 L 6.50569,-1644.4 L 6.44694,-1644.31 L 6.17397,-1643.9 L 6.10981,-1643.82
 L 5.81175,-1643.43 L 5.74244,-1643.35 L 5.42047,-1642.98 L 5.34628,-1642.9 L 5.00166,-1642.55 L 4.92288,-1642.48
 L 4.55697,-1642.16 L 4.47391,-1642.09 L 4.08818,-1641.79 L 4.00116,-1641.73 L 3.59711,-1641.45 L 3.50648,-1641.39
 L 3.08571,-1641.14 L 2.99183,-1641.09 L 2.556,-1640.87 L 2.45923,-1640.82 L 2.01008,-1640.63 L 1.91081,-1640.59
 L 1.4501,-1640.42 L 1.41997,-1640.41 L -25,-1641.87 z
" stroke="black" fill="lightgray" stroke-width="0.5"/>
</svg>
