<?xml version="1.0" standalone="no"?>
<!DOCTYPE svg PUBLIC "-//W3C//DTD SVG 1.1//EN" "http://www.w3.org/Graphics/SVG/1.1/DTD/svg11.dtd">
<svg width="87mm" height="507mm" viewBox="-25 -2121 87 507" xmlns="http://www.w3.org/2000/svg" version="1.1">
<title>OpenSCAD Model</title>
<path d="
M -25,-1615 L 3.51622,-1615 L 4.47357,-1615.46 L 8.16608,-1617.29 L 10.3316,-1618.46 L 13.7805,-1620.4
 L 15.4592,-1621.44 L 18.643,-1623.48 L 19.932,-1624.4 L 22.8573,-1626.55 L 23.8343,-1627.35 L 26.5289,-1629.63
 L 27.2545,-1630.31 L 29.76,-1632.76 L 30.2792,-1633.33 L 32.6421,-1636 L 32.9865,-1636.43 L 35.2504,-1639.4
 L 35.4412,-1639.68 L 37.641,-1643.01 L 37.6922,-1643.1 L 38.4779,-1644.48 L 39.7741,-1646.75 L 39.8544,-1646.89
 L 41.7082,-1650.66 L 41.9111,-1651.08 L 43.5052,-1654.84 L 43.8197,-1655.6 L 45.1709,-1659.3 L 45.584,-1660.47
 L 46.7084,-1664.05 L 47.2052,-1665.68 L 48.12,-1669.08 L 48.6839,-1671.24 L 49.4082,-1674.38 L 50.0217,-1677.12
 L 50.5761,-1679.94 L 51.2215,-1683.31 L 51.6275,-1685.74 L 52.2878,-1689.8 L 52.5672,-1691.78 L 53.2263,-1696.57
 L 53.4005,-1698.03 L 54.0438,-1703.58 L 54.1333,-1704.49 L 54.7479,-1710.84 L 54.7718,-1711.13 L 55.0206,-1714.23
 L 55.3227,-1717.95 L 55.3505,-1718.3 L 55.7924,-1724.94 L 55.8592,-1725.97 L 56.1872,-1732.08 L 56.2787,-1733.8
 L 56.5134,-1739.34 L 56.6171,-1741.8 L 56.7771,-1746.72 L 56.8821,-1749.94 L 56.9842,-1754.2 L 57.0813,-1758.21
 L 57.1401,-1761.78 L 57.2218,-1766.58 L 57.2503,-1769.44 L 57.3105,-1775.05 L 57.3197,-1777.16 L 57.3537,-1783.59
 L 57.353,-1784.95 L 57.3575,-1792.19 L 57.3547,-1792.79 L 57.3343,-1798.83 L 57.3296,-1800.66 L 57.3294,-1800.84
 L 57.2833,-1808.57 L 57.279,-1809.52 L 57.2175,-1816.5 L 57.205,-1818.22 L 57.1357,-1824.43 L 57.1119,-1826.93
 L 57.0409,-1832.36 L 57.0038,-1835.63 L 56.936,-1840.28 L 56.8847,-1844.3 L 56.8239,-1848.19 L 56.758,-1852.94
 L 56.7069,-1856.06 L 56.6271,-1861.54 L 56.5875,-1863.89 L 56.4948,-1870.08 L 56.4677,-1871.68 L 56.3641,-1878.55
 L 56.3495,-1879.42 L 56.2372,-1886.94 L 56.2347,-1887.1 L 56.2101,-1888.8 L 56.1293,-1894.71 L 56.123,-1895.25
 L 56.0323,-1902.25 L 56.0188,-1903.46 L 55.9439,-1909.7 L 55.9249,-1911.55 L 55.8655,-1917.06 L 55.8431,-1919.54
 L 55.7985,-1924.33 L 55.7751,-1927.39 L 55.7439,-1931.5 L 55.7222,-1935.12 L 55.703,-1938.56 L 55.6861,-1942.71
 L 55.6768,-1945.51 L 55.6679,-1950.16 L 55.6663,-1952.34 L 55.6691,-1957.45 L 55.6725,-1959.06 L 55.6907,-1964.6
 L 55.6964,-1965.65 L 55.7341,-1971.58 L 55.7389,-1972.12 L 55.8004,-1978.41 L 55.8009,-1978.45 L 55.8086,-1979.02
 L 55.8904,-1984.65 L 55.8968,-1985.07 L 56.0025,-1990.71 L 56.0189,-1991.57 L 56.1375,-1996.64 L 56.1673,-1997.9
 L 56.2964,-2002.43 L 56.3431,-2004.07 L 56.4802,-2008.09 L 56.5475,-2010.08 L 56.6901,-2013.61 L 56.782,-2015.93
 L 56.9271,-2019 L 57.0477,-2021.61 L 57.1923,-2024.26 L 57.3461,-2027.14 L 57.487,-2029.39 L 57.6785,-2032.52
 L 57.8123,-2034.38 L 58.0466,-2037.75 L 58.1694,-2039.26 L 58.4518,-2042.84 L 58.5597,-2044.01 L 58.8956,-2047.79
 L 58.9842,-2048.65 L 59.3795,-2052.61 L 59.4443,-2053.17 L 59.905,-2057.3 L 59.941,-2057.58 L 60.4733,-2061.87
 L 60.4754,-2061.89 L 60.5081,-2062.12 L 61.0591,-2066.09 L 61.0906,-2066.33 L 61.6835,-2070.19 L 61.753,-2070.67
 L 61.7544,-2070.68 L 61.7597,-2120 L 33.8651,-2120 L 7.80248,-1648.57 L 7.78398,-1648.36 L 7.75084,-1647.98
 L 7.71902,-1647.77 L 7.66198,-1647.39 L 7.61694,-1647.18 L 7.53624,-1646.81 L 7.47818,-1646.6 L 7.37412,-1646.23
 L 7.30324,-1646.03 L 7.17624,-1645.67 L 7.09285,-1645.47 L 6.9434,-1645.12 L 6.84781,-1644.93 L 6.67653,-1644.59
 L 6.56911,-1644.4 L 6.37665,-1644.07 L 6.25783,-1643.89 L 6.04496,-1643.57 L 5.91522,-1643.41 L 5.68278,-1643.1
 L 5.54262,-1642.94 L 5.29153,-1642.65 L 5.1415,-1642.5 L 4.87276,-1642.23 L 4.71345,-1642.08 L 4.4281,-1641.83
 L 4.26014,-1641.7 L 3.95934,-1641.46 L 3.78339,-1641.34 L 3.46829,-1641.12 L 3.28505,-1641.01 L 2.95692,-1640.81
 L 2.76711,-1640.71 L 2.42723,-1640.54 L 2.2316,-1640.45 L 2.13456,-1640.41 L -25,-1641.91 z
" stroke="black" fill="lightgray" stroke-width="0.5"/>
</svg>
