<?xml version="1.0" standalone="no"?>
<!DOCTYPE svg PUBLIC "-//W3C//DTD SVG 1.1//EN" "http://www.w3.org/Graphics/SVG/1.1/DTD/svg11.dtd">
<svg width="89mm" height="507mm" viewBox="-25 -2121 89 507" xmlns="http://www.w3.org/2000/svg" version="1.1">
<title>OpenSCAD Model</title>
<path d="
M -25,-1615 L 10.4398,-1615 L 14.0416,-1616.93 L 14.7571,-1617.34 L 19.0717,-1619.96 L 19.9413,-1620.51
 L 23.4738,-1622.94 L 24.435,-1623.64 L 27.3269,-1625.91 L 28.3422,-1626.75 L 30.7143,-1628.89 L 31.7656,-1629.88
 L 33.7177,-1631.91 L 34.8009,-1633.09 L 36.4112,-1635.02 L 37.5308,-1636.41 L 38.8568,-1638.25 L 40.0201,-1639.92
 L 41.1017,-1641.65 L 42.315,-1643.66 L 43.1791,-1645.26 L 44.4447,-1647.69 L 45.1104,-1649.11 L 46.4255,-1652.02
 L 46.9082,-1653.22 L 48.2647,-1656.69 L 48.5797,-1657.6 L 49.9652,-1661.71 L 50.1288,-1662.25 L 51.5282,-1667.06
 L 51.5582,-1667.17 L 51.876,-1668.44 L 52.8723,-1672.38 L 52.9608,-1672.74 L 54.0723,-1677.84 L 54.2616,-1678.74
 L 55.1612,-1683.55 L 55.4323,-1685.05 L 56.1439,-1689.49 L 56.4779,-1691.64 L 57.0253,-1695.64 L 57.4046,-1698.49
 L 57.8112,-1701.99 L 58.2192,-1705.59 L 58.5075,-1708.52 L 58.9293,-1712.92 L 59.1202,-1715.23 L 59.5426,-1720.46
 L 59.6555,-1722.1 L 60.0668,-1728.18 L 60.1194,-1729.11 L 60.5098,-1736.08 L 60.5179,-1736.25 L 60.5924,-1737.88
 L 60.8583,-1743.53 L 60.8863,-1744.13 L 61.1452,-1750.92 L 61.1985,-1752.32 L 61.3833,-1758.4 L 61.4515,-1760.62
 L 61.5776,-1765.97 L 61.6519,-1769.04 L 61.733,-1773.61 L 61.806,-1777.54 L 61.8537,-1781.32 L 61.9196,-1786.11
 L 61.9441,-1789.07 L 61.9982,-1794.75 L 62.0079,-1796.87 L 62.047,-1803.43 L 62.0488,-1804.7 L 62.0707,-1812.14
 L 62.0702,-1812.56 L 62.0718,-1816.47 L 62.0772,-1820.44 L 62.0785,-1820.86 L 62.0731,-1828.32 L 62.0744,-1829.59
 L 62.0585,-1836.2 L 62.0574,-1838.31 L 62.036,-1844.06 L 62.0307,-1847 L 62.0078,-1851.91 L 61.9976,-1855.66
 L 61.976,-1859.72 L 61.9609,-1864.28 L 61.9426,-1867.49 L 61.923,-1872.83 L 61.9093,-1875.22 L 61.8865,-1881.32
 L 61.8777,-1882.9 L 61.8533,-1889.72 L 61.8493,-1890.52 L 61.8255,-1898.04 L 61.8254,-1898.07 L 61.8247,-1898.35
 L 61.8132,-1905.54 L 61.8135,-1906.25 L 61.8086,-1912.93 L 61.8103,-1914.36 L 61.8125,-1920.24 L 61.8172,-1922.35
 L 61.8257,-1927.45 L 61.8353,-1930.22 L 61.8493,-1934.56 L 61.8659,-1937.95 L 61.884,-1941.57 L 61.9101,-1945.54
 L 61.9306,-1948.46 L 61.9689,-1952.99 L 61.9898,-1955.25 L 62.0433,-1960.28 L 62.0625,-1961.91 L 62.1342,-1967.43
 L 62.1493,-1968.45 L 62.2425,-1974.41 L 62.2508,-1974.87 L 62.3523,-1980.33 L 62.3687,-1981.16 L 62.3701,-1981.23
 L 62.5098,-1987.31 L 62.5233,-1987.88 L 62.6682,-1993.33 L 62.6963,-1994.37 L 62.8445,-1999.22 L 62.89,-2000.7
 L 63.0396,-2004.97 L 63.1053,-2006.85 L 63.2541,-2010.58 L 63.3432,-2012.84 L 63.4889,-2016.07 L 63.6045,-2018.66
 L 63.7447,-2021.41 L 63.749,-2021.5 L 63.763,-2120 L 33.7019,-2120 L 7.6731,-1648.53 L 7.64529,-1648.21
 L 7.62152,-1647.93 L 7.57363,-1647.62 L 7.5327,-1647.34 L 7.46493,-1647.03 L 7.40701,-1646.76 L 7.31962,-1646.45
 L 7.24493,-1646.19 L 7.13826,-1645.88 L 7.0471,-1645.62 L 6.92157,-1645.33 L 6.8143,-1645.08 L 6.67042,-1644.79
 L 6.54747,-1644.54 L 6.38578,-1644.26 L 6.24763,-1644.03 L 6.06879,-1643.76 L 5.91598,-1643.53 L 5.72069,-1643.27
 L 5.55384,-1643.06 L 5.34286,-1642.81 L 5.16263,-1642.61 L 4.9368,-1642.38 L 4.74389,-1642.18 L 4.50409,-1641.97
 L 4.29926,-1641.78 L 4.04645,-1641.58 L 3.83052,-1641.41 L 3.56568,-1641.23 L 3.33951,-1641.07 L 3.06369,-1640.91
 L 2.82816,-1640.77 L 2.54245,-1640.62 L 2.29849,-1640.49 L 2.18882,-1640.44 L -25,-1641.95 z
" stroke="black" fill="lightgray" stroke-width="0.5"/>
</svg>
