<?xml version="1.0" standalone="no"?>
<!DOCTYPE svg PUBLIC "-//W3C//DTD SVG 1.1//EN" "http://www.w3.org/Graphics/SVG/1.1/DTD/svg11.dtd">
<svg width="92mm" height="507mm" viewBox="-25 -2121 92 507" xmlns="http://www.w3.org/2000/svg" version="1.1">
<title>OpenSCAD Model</title>
<path d="
M -25,-1615 L 18.1946,-1615 L 18.8379,-1615.38 L 21.7682,-1617.2 L 23.7075,-1618.48 L 26.5429,-1620.46
 L 27.9852,-1621.54 L 30.6916,-1623.67 L 31.7436,-1624.56 L 34.316,-1626.86 L 35.0597,-1627.59 L 37.5134,-1630.09
 L 38.0089,-1630.65 L 40.3712,-1633.41 L 40.6603,-1633.78 L 42.9615,-1636.86 L 43.0719,-1637.03 L 44.5627,-1639.33
 L 45.29,-1640.44 L 45.3407,-1640.52 L 47.3488,-1644.06 L 47.5486,-1644.42 L 49.267,-1647.91 L 49.6035,-1648.62
 L 51.0565,-1652.01 L 51.5173,-1653.13 L 52.7243,-1656.37 L 53.2956,-1657.97 L 54.2745,-1660.99 L 54.9409,-1663.14
 L 55.7102,-1665.88 L 56.4548,-1668.64 L 57.0344,-1671.03 L 57.8395,-1674.47 L 58.2502,-1676.42 L 59.0983,-1680.6
 L 59.3615,-1682.05 L 60.2355,-1687.03 L 60.3729,-1687.91 L 61.2567,-1693.73 L 61.2891,-1693.97 L 61.5791,-1696.18
 L 62.1179,-1700.24 L 62.1745,-1700.68 L 62.8636,-1706.71 L 62.9932,-1707.87 L 63.5308,-1713.34 L 63.7168,-1715.28
 L 64.1253,-1720.13 L 64.3526,-1722.89 L 64.6528,-1727.07 L 64.9083,-1730.68 L 65.119,-1734.13 L 65.391,-1738.64
 L 65.5293,-1741.32 L 65.8079,-1746.75 L 65.8889,-1748.62 L 66.1261,-1754.08 L 66.1782,-2120 L 33.5184,-2120
 L 7.54372,-1648.77 L 7.5066,-1648.34 L 7.49218,-1648.18 L 7.42824,-1647.75 L 7.4034,-1647.59 L 7.31292,-1647.17
 L 7.27776,-1647 L 7.16106,-1646.59 L 7.11573,-1646.43 L 6.97328,-1646.02 L 6.91794,-1645.87 L 6.7503,-1645.47
 L 6.68519,-1645.32 L 6.49303,-1644.93 L 6.41839,-1644.78 L 6.20246,-1644.41 L 6.1186,-1644.27 L 5.87974,-1643.91
 L 5.78699,-1643.77 L 5.52616,-1643.43 L 5.42488,-1643.3 L 5.1431,-1642.97 L 5.0337,-1642.85 L 4.73209,-1642.54
 L 4.615,-1642.42 L 4.29472,-1642.13 L 4.1704,-1642.02 L 3.83274,-1641.76 L 3.7017,-1641.65 L 3.34797,-1641.41
 L 3.21071,-1641.31 L 2.84232,-1641.09 L 2.69938,-1641.01 L 2.31778,-1640.81 L 2.16974,-1640.73 L 1.77643,-1640.56
 L 1.68179,-1640.52 L -25,-1641.99 z
" stroke="black" fill="lightgray" stroke-width="0.5"/>
</svg>
