<?xml version="1.0" standalone="no"?>
<!DOCTYPE svg PUBLIC "-//W3C//DTD SVG 1.1//EN" "http://www.w3.org/Graphics/SVG/1.1/DTD/svg11.dtd">
<svg width="94mm" height="507mm" viewBox="-25 -2121 94 507" xmlns="http://www.w3.org/2000/svg" version="1.1">
<title>OpenSCAD Model</title>
<path d="
M -25,-1615 L 26.4072,-1615 L 29.1133,-1616.87 L 29.3148,-1617.01 L 31.9388,-1619.03 L 33.4149,-1620.16
 L 33.518,-1620.25 L 37.0311,-1623.27 L 37.3648,-1623.57 L 40.2394,-1626.37 L 40.7481,-1626.89 L 43.1091,-1629.5
 L 43.7572,-1630.26 L 45.7024,-1632.71 L 46.4693,-1633.73 L 48.071,-1636.03 L 48.9455,-1637.36 L 50.2549,-1639.52
 L 51.2303,-1641.2 L 52.2829,-1643.19 L 53.353,-1645.31 L 54.174,-1647.08 L 55.3311,-1649.7 L 55.9402,-1651.21
 L 57.174,-1654.41 L 57.5893,-1655.59 L 58.8865,-1659.44 L 59.1259,-1660.22 L 60.4715,-1664.79 L 60.5537,-1665.1
 L 61.3138,-1668.06 L 61.8786,-1670.23 L 61.9356,-1670.46 L 63.1046,-1675.62 L 63.2836,-1676.44 L 64.2321,-1681.23
 L 64.5144,-1682.71 L 65.2658,-1687.06 L 65.633,-1689.27 L 66.2105,-1693.1 L 66.6454,-1696.08 L 67.0715,-1699.32
 L 67.5581,-1703.14 L 67.8544,-1705.73 L 68.378,-1710.43 L 68.5645,-1712.3 L 68.8394,-1715.12 L 68.9086,-2120
 L 33.3147,-2120 L 7.41427,-1649.3 L 7.36786,-1648.76 L 7.36278,-1648.7 L 7.28281,-1648.17 L 7.27405,-1648.11
 L 7.16085,-1647.59 L 7.14845,-1647.53 L 7.00245,-1647.01 L 6.98646,-1646.96 L 6.80823,-1646.45 L 6.78872,-1646.39
 L 6.57897,-1645.9 L 6.55601,-1645.84 L 6.31557,-1645.36 L 6.28926,-1645.31 L 6.01906,-1644.84 L 5.9895,-1644.79
 L 5.69062,-1644.35 L 5.65793,-1644.3 L 5.33156,-1643.87 L 5.29587,-1643.82 L 4.94327,-1643.42 L 4.90472,-1643.37
 L 4.5273,-1642.99 L 4.48605,-1642.95 L 4.08527,-1642.59 L 4.04148,-1642.55 L 3.61895,-1642.22 L 3.57281,-1642.18
 L 3.13017,-1641.87 L 3.08184,-1641.84 L 2.62086,-1641.56 L 2.57055,-1641.53 L 2.09302,-1641.28 L 2.04092,-1641.26
 L 1.54875,-1641.04 L 1.49508,-1641.02 L 0.990196,-1640.83 L 0.935159,-1640.81 L 0.419551,-1640.66 L 0.368652,-1640.64
 L -25,-1642.04 z
" stroke="black" fill="lightgray" stroke-width="0.5"/>
</svg>
