<?xml version="1.0" standalone="no"?>
<!DOCTYPE svg PUBLIC "-//W3C//DTD SVG 1.1//EN" "http://www.w3.org/Graphics/SVG/1.1/DTD/svg11.dtd">
<svg width="97mm" height="507mm" viewBox="-25 -2121 97 507" xmlns="http://www.w3.org/2000/svg" version="1.1">
<title>OpenSCAD Model</title>
<path d="
M -25,-1615 L 35.136,-1615 L 35.7445,-1615.46 L 36.7663,-1616.3 L 39.6408,-1618.75 L 40.853,-1619.85
 L 43.1021,-1621.99 L 44.4409,-1623.35 L 46.1918,-1625.22 L 47.6196,-1626.85 L 48.971,-1628.49 L 50.4687,-1630.41
 L 51.494,-1631.82 L 53.0547,-1634.09 L 53.8062,-1635.26 L 55.4283,-1637.94 L 55.943,-1638.86 L 57.6259,-1642.01
 L 57.9299,-1642.63 L 59.6707,-1646.35 L 59.7848,-1646.61 L 60.9075,-1649.34 L 61.5218,-1650.82 L 61.5801,-1650.97
 L 63.1509,-1655.27 L 63.3651,-1655.89 L 64.6723,-1659.97 L 65.0252,-1661.12 L 66.09,-1664.91 L 66.5641,-1666.67
 L 67.4078,-1670.08 L 67.9855,-1672.52 L 68.6297,-1675.48 L 69.2937,-1678.66 L 69.7598,-1681.1 L 70.4935,-1685.08
 L 70.803,-1686.92 L 71.5907,-1691.77 L 71.7315,-1692.72 L 71.8039,-2120 L 33.0907,-2120 L 7.24579,-1649.4
 L 7.24154,-1649.35 L 7.19435,-1648.81 L 7.18703,-1648.76 L 7.10568,-1648.22 L 7.09532,-1648.17 L 6.98013,-1647.63
 L 6.96677,-1647.59 L 6.8182,-1647.06 L 6.80188,-1647.01 L 6.62051,-1646.5 L 6.6013,-1646.45 L 6.38784,-1645.95
 L 6.36582,-1645.9 L 6.12114,-1645.41 L 6.09638,-1645.37 L 5.82142,-1644.9 L 5.79402,-1644.86 L 5.48989,-1644.4
 L 5.45996,-1644.36 L 5.12786,-1643.93 L 5.09552,-1643.89 L 4.73675,-1643.48 L 4.70212,-1643.44 L 4.3181,-1643.05
 L 4.28132,-1643.02 L 3.87356,-1642.65 L 3.83477,-1642.62 L 3.40491,-1642.28 L 3.36425,-1642.25 L 2.91396,-1641.94
 L 2.87161,-1641.92 L 2.40268,-1641.63 L 2.35878,-1641.61 L 1.87307,-1641.36 L 1.8278,-1641.34 L 1.32723,-1641.12
 L 1.28078,-1641.1 L 0.767313,-1640.91 L 0.719856,-1640.9 L 0.195521,-1640.74 L 0.147244,-1640.73 L 0.0837982,-1640.71
 L -11.5293,-1641.35 L -25,-1642.09 z
" stroke="black" fill="lightgray" stroke-width="0.5"/>
</svg>
