<?xml version="1.0" standalone="no"?>
<!DOCTYPE svg PUBLIC "-//W3C//DTD SVG 1.1//EN" "http://www.w3.org/Graphics/SVG/1.1/DTD/svg11.dtd">
<svg width="100mm" height="507mm" viewBox="-25 -2121 100 507" xmlns="http://www.w3.org/2000/svg" version="1.1">
<title>OpenSCAD Model</title>
<path d="
M -25,-1615 L 44.0978,-1615 L 44.688,-1615.55 L 46.593,-1617.36 L 48.5053,-1619.32 L 49.8886,-1620.78
 L 51.8799,-1623.04 L 52.8499,-1624.19 L 54.8919,-1626.78 L 55.5297,-1627.63 L 57.6104,-1630.59 L 57.9745,-1631.14
 L 60.0916,-1634.53 L 60.2231,-1634.75 L 61.5343,-1637.12 L 62.3081,-1638.5 L 62.3806,-1638.64 L 64.2551,-1642.43
 L 64.5094,-1642.97 L 66.0761,-1646.56 L 66.4926,-1647.56 L 67.7813,-1650.9 L 68.3424,-1652.43 L 69.378,-1655.47
 L 70.0669,-1657.59 L 70.8717,-1660.26 L 71.6718,-1663.05 L 72.267,-1665.28 L 73.1621,-1668.79 L 73.5684,-1670.51
 L 74.5424,-1674.83 L 74.6011,-1675.11 L 74.6764,-2120 L 32.8464,-2120 L 7.03074,-1648.95 L 7.0172,-1648.79
 L 6.97938,-1648.35 L 6.95602,-1648.2 L 6.89079,-1647.76 L 6.8577,-1647.61 L 6.76532,-1647.18 L 6.72263,-1647.03
 L 6.60346,-1646.6 L 6.55133,-1646.46 L 6.40584,-1646.04 L 6.34449,-1645.9 L 6.17325,-1645.49 L 6.10291,-1645.35
 L 5.90661,-1644.96 L 5.82756,-1644.82 L 5.60696,-1644.44 L 5.5195,-1644.31 L 5.2755,-1643.95 L 5.17998,-1643.82
 L 4.91353,-1643.47 L 4.81033,-1643.35 L 4.52248,-1643.02 L 4.41199,-1642.91 L 4.10389,-1642.59 L 3.98656,-1642.49
 L 3.6594,-1642.2 L 3.53569,-1642.1 L 3.19079,-1641.83 L 3.06118,-1641.74 L 2.69989,-1641.49 L 2.56489,-1641.41
 L 2.18865,-1641.18 L 2.04878,-1641.11 L 1.65907,-1640.9 L 1.51489,-1640.84 L 1.21945,-1640.71 L -25,-1642.15
 z
" stroke="black" fill="lightgray" stroke-width="0.5"/>
</svg>
