<?xml version="1.0" standalone="no"?>
<!DOCTYPE svg PUBLIC "-//W3C//DTD SVG 1.1//EN" "http://www.w3.org/Graphics/SVG/1.1/DTD/svg11.dtd">
<svg width="102mm" height="507mm" viewBox="-25 -2121 102 507" xmlns="http://www.w3.org/2000/svg" version="1.1">
<title>OpenSCAD Model</title>
<path d="
M -25,-1615 L 53.1925,-1615 L 54.1725,-1616.05 L 56.4565,-1618.69 L 57.3035,-1619.7 L 59.6592,-1622.71
 L 60.1364,-1623.34 L 62.5374,-1626.74 L 62.7155,-1627 L 64.3685,-1629.61 L 65.081,-1630.73 L 65.1524,-1630.84
 L 67.2689,-1634.55 L 67.5547,-1635.08 L 69.3029,-1638.51 L 69.7742,-1639.49 L 71.2016,-1642.64 L 71.8357,-1644.12
 L 72.9786,-1646.95 L 73.7565,-1648.99 L 74.6438,-1651.46 L 75.5484,-1654.12 L 76.2047,-1656.18 L 76.9079,-1658.5
 L 76.9626,-2120 L 32.5821,-2120 L 6.81578,-1648.78 L 6.79297,-1648.51 L 6.7645,-1648.18 L 6.72512,-1647.92
 L 6.67598,-1647.59 L 6.6202,-1647.33 L 6.55059,-1647.01 L 6.47861,-1646.75 L 6.3888,-1646.43 L 6.30092,-1646.18
 L 6.19126,-1645.87 L 6.08781,-1645.63 L 5.95874,-1645.32 L 5.84013,-1645.08 L 5.69217,-1644.79 L 5.55887,-1644.56
 L 5.39259,-1644.27 L 5.24512,-1644.05 L 5.06119,-1643.78 L 4.90013,-1643.56 L 4.69928,-1643.3 L 4.52527,-1643.1
 L 4.30829,-1642.85 L 4.12201,-1642.66 L 3.88975,-1642.42 L 3.69193,-1642.25 L 3.44532,-1642.03 L 3.23674,-1641.86
 L 2.97676,-1641.66 L 2.75824,-1641.51 L 2.4859,-1641.32 L 2.2583,-1641.18 L 1.9747,-1641.01 L 1.73891,-1640.89
 L 1.49375,-1640.76 L -25,-1642.21 z
" stroke="black" fill="lightgray" stroke-width="0.5"/>
</svg>
