<?xml version="1.0" standalone="no"?>
<!DOCTYPE svg PUBLIC "-//W3C//DTD SVG 1.1//EN" "http://www.w3.org/Graphics/SVG/1.1/DTD/svg11.dtd">
<svg width="104mm" height="507mm" viewBox="-25 -2121 104 507" xmlns="http://www.w3.org/2000/svg" version="1.1">
<title>OpenSCAD Model</title>
<path d="
M -25,-1615 L 62.3662,-1615 L 64.6801,-1618.04 L 65.2654,-1618.82 L 67.7461,-1622.4 L 67.9752,-1622.73
 L 69.8959,-1625.79 L 70.457,-1626.67 L 70.5191,-1626.77 L 72.7463,-1630.65 L 73.0536,-1631.22 L 74.8693,-1634.73
 L 75.3838,-1635.79 L 76.8468,-1638.95 L 77.5395,-1640.53 L 78.6951,-1643.31 L 78.7243,-1643.39 L 78.7458,-2120
 L 32.2976,-2120 L 6.60083,-1648.89 L 6.56878,-1648.52 L 6.54962,-1648.3 L 6.49426,-1647.93 L 6.46118,-1647.71
 L 6.38274,-1647.34 L 6.33587,-1647.12 L 6.23464,-1646.76 L 6.17415,-1646.55 L 6.05054,-1646.2 L 5.97668,-1645.99
 L 5.83117,-1645.64 L 5.74423,-1645.44 L 5.5774,-1645.1 L 5.47774,-1644.9 L 5.29022,-1644.58 L 5.17822,-1644.39
 L 4.97077,-1644.08 L 4.84689,-1643.89 L 4.62032,-1643.59 L 4.48504,-1643.42 L 4.24025,-1643.13 L 4.09411,-1642.97
 L 3.83206,-1642.7 L 3.67563,-1642.54 L 3.39734,-1642.29 L 3.23124,-1642.14 L 2.93783,-1641.91 L 2.76273,-1641.77
 L 2.45533,-1641.56 L 2.27192,-1641.43 L 1.95175,-1641.24 L 1.76076,-1641.12 L 1.42907,-1640.95 L 1.23125,-1640.85
 L 1.22287,-1640.85 L -25,-1642.28 z
" stroke="black" fill="lightgray" stroke-width="0.5"/>
</svg>
