<?xml version="1.0" standalone="no"?>
<!DOCTYPE svg PUBLIC "-//W3C//DTD SVG 1.1//EN" "http://www.w3.org/Graphics/SVG/1.1/DTD/svg11.dtd">
<svg width="97mm" height="507mm" viewBox="-25 -2121 97 507" xmlns="http://www.w3.org/2000/svg" version="1.1">
<title>OpenSCAD Model</title>
<path d="
M -25,-1615 L 35.0713,-1615 L 36.7663,-1616.3 L 37.8452,-1617.28 L 40.853,-1619.85 L 42.1284,-1621.14
 L 44.4409,-1623.35 L 45.8554,-1624.95 L 47.6196,-1626.85 L 49.1432,-1628.8 L 50.4687,-1630.41 L 52.0893,-1632.76
 L 53.0547,-1634.09 L 54.7689,-1636.91 L 55.4283,-1637.94 L 57.2355,-1641.32 L 57.6259,-1642.01 L 59.5235,-1646.05
 L 59.6707,-1646.35 L 60.9075,-1649.34 L 61.5801,-1650.97 L 61.647,-1651.16 L 63.3651,-1655.89 L 63.612,-1656.69
 L 65.0252,-1661.12 L 65.4333,-1662.63 L 66.5641,-1666.67 L 67.1139,-1668.98 L 67.9855,-1672.52 L 68.6571,-1675.72
 L 69.2937,-1678.66 L 70.0672,-1682.84 L 70.4935,-1685.08 L 71.3499,-1690.33 L 71.5907,-1691.77 L 71.9243,-1694.08
 L 71.9979,-2120 L 33.0907,-2120 L 7.24579,-1649.4 L 7.19859,-1648.86 L 7.19435,-1648.81 L 7.11299,-1648.27
 L 7.10568,-1648.22 L 6.99049,-1647.68 L 6.98013,-1647.63 L 6.83156,-1647.11 L 6.8182,-1647.06 L 6.63682,-1646.54
 L 6.62051,-1646.5 L 6.40704,-1645.99 L 6.38784,-1645.95 L 6.14315,-1645.46 L 6.12114,-1645.41 L 5.84617,-1644.94
 L 5.82142,-1644.9 L 5.51727,-1644.44 L 5.48989,-1644.4 L 5.15777,-1643.97 L 5.12786,-1643.93 L 4.76908,-1643.51
 L 4.73675,-1643.48 L 4.35272,-1643.08 L 4.3181,-1643.05 L 3.91034,-1642.68 L 3.87356,-1642.65 L 3.4437,-1642.31
 L 3.40491,-1642.28 L 2.95462,-1641.97 L 2.91396,-1641.94 L 2.44504,-1641.66 L 2.40268,-1641.63 L 1.91696,-1641.38
 L 1.87307,-1641.36 L 1.37249,-1641.14 L 1.32723,-1641.12 L 0.813769,-1640.93 L 0.767313,-1640.91 L 0.242987,-1640.75
 L 0.195521,-1640.74 L 0.0837985,-1640.71 L -11.5293,-1641.35 L -25,-1642.09 z
" stroke="black" fill="lightgray" stroke-width="0.5"/>
</svg>
