<?xml version="1.0" standalone="no"?>
<!DOCTYPE svg PUBLIC "-//W3C//DTD SVG 1.1//EN" "http://www.w3.org/Graphics/SVG/1.1/DTD/svg11.dtd">
<svg width="95mm" height="507mm" viewBox="-25 -2121 95 507" xmlns="http://www.w3.org/2000/svg" version="1.1">
<title>OpenSCAD Model</title>
<path d="
M -25,-1615 L 26.3811,-1615 L 28.8464,-1616.69 L 29.1133,-1616.87 L 31.9388,-1619.03 L 33.518,-1620.25
 L 33.6234,-1620.34 L 37.3648,-1623.57 L 37.7073,-1623.92 L 40.7481,-1626.89 L 41.2756,-1627.51 L 43.7572,-1630.26
 L 44.4399,-1631.16 L 46.4693,-1633.73 L 47.2915,-1634.97 L 48.9455,-1637.36 L 49.899,-1639 L 51.2303,-1641.2
 L 52.3092,-1643.33 L 53.353,-1645.31 L 54.55,-1648.01 L 55.3311,-1649.7 L 56.6359,-1653.07 L 57.174,-1654.41
 L 58.5727,-1658.54 L 58.8865,-1659.44 L 60.3625,-1664.43 L 60.4715,-1664.79 L 61.3138,-1668.06 L 61.9356,-1670.46
 L 62.0006,-1670.76 L 63.2836,-1676.44 L 63.4881,-1677.51 L 64.5144,-1682.71 L 64.837,-1684.64 L 65.633,-1689.27
 L 66.0529,-1692.14 L 66.6454,-1696.08 L 67.1427,-1699.97 L 67.5581,-1703.14 L 68.1145,-1708.12 L 68.378,-1710.43
 L 68.9767,-1716.56 L 68.9812,-1716.6 L 69.0514,-2120 L 33.3147,-2120 L 7.41427,-1649.3 L 7.40918,-1649.24
 L 7.36278,-1648.7 L 7.35401,-1648.64 L 7.27405,-1648.11 L 7.26164,-1648.06 L 7.14845,-1647.53 L 7.13245,-1647.47
 L 6.98646,-1646.96 L 6.96693,-1646.9 L 6.78872,-1646.39 L 6.76574,-1646.34 L 6.55601,-1645.84 L 6.52968,-1645.79
 L 6.28926,-1645.31 L 6.25968,-1645.26 L 5.9895,-1644.79 L 5.95678,-1644.74 L 5.65793,-1644.3 L 5.62221,-1644.25
 L 5.29587,-1643.82 L 5.25729,-1643.78 L 4.90472,-1643.37 L 4.86344,-1643.33 L 4.48605,-1642.95 L 4.44223,-1642.91
 L 4.04148,-1642.55 L 3.9953,-1642.51 L 3.57281,-1642.18 L 3.52445,-1642.15 L 3.08184,-1641.84 L 3.0315,-1641.81
 L 2.57055,-1641.53 L 2.51842,-1641.51 L 2.04092,-1641.26 L 1.98722,-1641.23 L 1.49508,-1641.02 L 1.44001,-1641
 L 0.935159,-1640.81 L 0.878946,-1640.79 L 0.368652,-1640.64 L -25,-1642.04 z
" stroke="black" fill="lightgray" stroke-width="0.5"/>
</svg>
