<?xml version="1.0" standalone="no"?>
<!DOCTYPE svg PUBLIC "-//W3C//DTD SVG 1.1//EN" "http://www.w3.org/Graphics/SVG/1.1/DTD/svg11.dtd">
<svg width="92mm" height="507mm" viewBox="-25 -2121 92 507" xmlns="http://www.w3.org/2000/svg" version="1.1">
<title>OpenSCAD Model</title>
<path d="
M -25,-1615 L 18.0964,-1615 L 19.2468,-1615.71 L 21.7682,-1617.2 L 24.682,-1619.22 L 26.5429,-1620.46
 L 29.3446,-1622.66 L 30.6916,-1623.67 L 33.3716,-1626.06 L 34.316,-1626.86 L 36.8895,-1629.48 L 37.5134,-1630.09
 L 40.0098,-1633 L 40.3712,-1633.41 L 42.8239,-1636.69 L 42.9615,-1636.86 L 44.5627,-1639.33 L 45.3407,-1640.52
 L 45.3956,-1640.62 L 47.5486,-1644.42 L 47.768,-1644.89 L 49.6035,-1648.62 L 49.9764,-1649.52 L 51.5173,-1653.13
 L 52.031,-1654.56 L 53.2956,-1657.97 L 53.9346,-1660.02 L 54.9409,-1663.14 L 55.6874,-1665.9 L 56.4548,-1668.64
 L 57.2893,-1672.2 L 57.8395,-1674.47 L 58.7415,-1678.9 L 59.0983,-1680.6 L 60.0473,-1685.99 L 60.2355,-1687.03
 L 61.2119,-1693.44 L 61.2567,-1693.73 L 61.5791,-1696.18 L 62.1745,-1700.68 L 62.2375,-1701.25 L 62.9932,-1707.87
 L 63.1371,-1709.37 L 63.7168,-1715.28 L 63.9226,-1717.77 L 64.3526,-1722.89 L 64.6033,-1726.43 L 64.9083,-1730.68
 L 65.1888,-1735.33 L 65.391,-1738.64 L 65.6881,-1744.43 L 65.8079,-1746.75 L 66.1104,-1753.71 L 66.1657,-1754.99
 L 66.2173,-1756.4 L 66.2699,-2120 L 33.5184,-2120 L 7.54372,-1648.77 L 7.52929,-1648.6 L 7.49218,-1648.18
 L 7.46732,-1648.01 L 7.4034,-1647.59 L 7.36823,-1647.42 L 7.27776,-1647 L 7.2324,-1646.84 L 7.11573,-1646.43
 L 7.06036,-1646.27 L 6.91794,-1645.87 L 6.85279,-1645.71 L 6.68519,-1645.32 L 6.61052,-1645.17 L 6.41839,-1644.78
 L 6.33449,-1644.64 L 6.1186,-1644.27 L 6.0258,-1644.13 L 5.78699,-1643.77 L 5.68566,-1643.64 L 5.42488,-1643.3
 L 5.31543,-1643.17 L 5.0337,-1642.85 L 4.91656,-1642.73 L 4.615,-1642.42 L 4.49063,-1642.31 L 4.1704,-1642.02
 L 4.0393,-1641.92 L 3.7017,-1641.65 L 3.56438,-1641.56 L 3.21071,-1641.31 L 3.06772,-1641.23 L 2.69938,-1641.01
 L 2.55129,-1640.93 L 2.16974,-1640.73 L 2.01713,-1640.67 L 1.68179,-1640.52 L -25,-1641.99 z
" stroke="black" fill="lightgray" stroke-width="0.5"/>
</svg>
