<?xml version="1.0" standalone="no"?>
<!DOCTYPE svg PUBLIC "-//W3C//DTD SVG 1.1//EN" "http://www.w3.org/Graphics/SVG/1.1/DTD/svg11.dtd">
<svg width="89mm" height="507mm" viewBox="-25 -2121 89 507" xmlns="http://www.w3.org/2000/svg" version="1.1">
<title>OpenSCAD Model</title>
<path d="
M -25,-1615 L 10.4142,-1615 L 14.7571,-1617.34 L 15.4538,-1617.78 L 19.9413,-1620.51 L 20.7816,-1621.11
 L 24.435,-1623.64 L 25.3645,-1624.4 L 28.3422,-1626.75 L 29.3328,-1627.68 L 31.7656,-1629.88 L 32.8081,-1631.01
 L 34.8009,-1633.09 L 35.8979,-1634.45 L 37.5308,-1636.41 L 38.6898,-1638.08 L 40.0201,-1639.92 L 41.2488,-1641.96
 L 42.315,-1643.66 L 43.6174,-1646.16 L 44.4447,-1647.69 L 45.8192,-1650.73 L 46.4255,-1652.02 L 47.8641,-1655.7
 L 48.2647,-1656.69 L 49.7545,-1661.1 L 49.9652,-1661.71 L 51.4891,-1666.93 L 51.5282,-1667.06 L 51.876,-1668.44
 L 52.9608,-1672.74 L 53.0581,-1673.2 L 54.2616,-1678.74 L 54.4689,-1679.88 L 55.4323,-1685.05 L 55.728,-1686.95
 L 56.4779,-1691.64 L 56.8409,-1694.36 L 57.4046,-1698.49 L 57.8148,-1702.11 L 58.2192,-1705.59 L 58.658,-1710.16
 L 58.9293,-1712.92 L 59.3798,-1718.48 L 59.5426,-1720.46 L 59.9898,-1727.06 L 60.0668,-1728.18 L 60.4979,-1735.87
 L 60.5098,-1736.08 L 60.5924,-1737.88 L 60.8863,-1744.13 L 60.9151,-1744.88 L 61.1985,-1752.32 L 61.2525,-1754.07
 L 61.4515,-1760.62 L 61.519,-1763.42 L 61.6519,-1769.04 L 61.7231,-1772.89 L 61.806,-1777.54 L 61.873,-1782.46
 L 61.9196,-1786.11 L 61.9762,-1792.12 L 61.9982,-1794.75 L 62.0396,-1801.84 L 62.047,-1803.43 L 62.0699,-1811.61
 L 62.0707,-1812.14 L 62.0718,-1816.47 L 62.0785,-1820.86 L 62.079,-1821.39 L 62.0744,-1829.59 L 62.0733,-1831.16
 L 62.0574,-1838.31 L 62.0522,-1840.91 L 62.0307,-1847 L 62.0202,-1850.62 L 61.9976,-1855.66 L 61.9814,-1860.28
 L 61.9609,-1864.28 L 61.9393,-1869.86 L 61.923,-1872.83 L 61.8974,-1879.35 L 61.8865,-1881.32 L 61.8586,-1888.74
 L 61.8533,-1889.72 L 61.8257,-1898 L 61.8255,-1898.04 L 61.8247,-1898.35 L 61.8135,-1906.25 L 61.8143,-1907.11
 L 61.8103,-1914.36 L 61.8138,-1916.07 L 61.8172,-1922.35 L 61.8255,-1924.87 L 61.8353,-1930.22 L 61.8509,-1933.5
 L 61.8659,-1937.95 L 61.8917,-1941.96 L 61.9101,-1945.54 L 61.9492,-1950.22 L 61.9689,-1952.99 L 62.0247,-1958.3
 L 62.0433,-1960.28 L 62.1193,-1966.17 L 62.1342,-1967.43 L 62.2343,-1973.85 L 62.2425,-1974.41 L 62.3523,-1980.33
 L 62.3701,-1981.23 L 62.372,-1981.31 L 62.5233,-1987.88 L 62.541,-1988.54 L 62.6963,-1994.37 L 62.7329,-1995.56
 L 62.89,-2000.7 L 62.9488,-2002.38 L 63.1053,-2006.85 L 63.1897,-2008.99 L 63.3432,-2012.84 L 63.4567,-2015.39
 L 63.6045,-2018.66 L 63.751,-2021.59 L 63.8014,-2022.58 L 63.8155,-2120 L 33.7019,-2120 L 7.6731,-1648.53
 L 7.64932,-1648.25 L 7.62152,-1647.93 L 7.58057,-1647.66 L 7.5327,-1647.34 L 7.47476,-1647.08 L 7.40701,-1646.76
 L 7.33229,-1646.5 L 7.24493,-1646.19 L 7.15373,-1645.93 L 7.0471,-1645.62 L 6.93979,-1645.37 L 6.8143,-1645.08
 L 6.69131,-1644.83 L 6.54747,-1644.54 L 6.40926,-1644.3 L 6.24763,-1644.03 L 6.09477,-1643.8 L 5.91598,-1643.53
 L 5.74908,-1643.31 L 5.55384,-1643.06 L 5.37355,-1642.85 L 5.16263,-1642.61 L 4.96966,-1642.41 L 4.74389,-1642.18
 L 4.539,-1642 L 4.29926,-1641.78 L 4.08328,-1641.61 L 3.83052,-1641.41 L 3.60429,-1641.26 L 3.33951,-1641.07
 L 3.10392,-1640.93 L 2.82816,-1640.77 L 2.58415,-1640.64 L 2.29849,-1640.49 L 2.18882,-1640.44 L -25,-1641.95
 z
" stroke="black" fill="lightgray" stroke-width="0.5"/>
</svg>
