<?xml version="1.0" standalone="no"?>
<!DOCTYPE svg PUBLIC "-//W3C//DTD SVG 1.1//EN" "http://www.w3.org/Graphics/SVG/1.1/DTD/svg11.dtd">
<svg width="87mm" height="507mm" viewBox="-25 -2121 87 507" xmlns="http://www.w3.org/2000/svg" version="1.1">
<title>OpenSCAD Model</title>
<path d="
M -25,-1615 L 3.44485,-1615 L 5.45512,-1616 L 8.16608,-1617.29 L 11.6849,-1619.27 L 13.7805,-1620.4
 L 17.038,-1622.49 L 18.643,-1623.48 L 21.6451,-1625.69 L 22.8573,-1626.55 L 25.6334,-1628.89 L 26.5289,-1629.63
 L 29.1232,-1632.16 L 29.76,-1632.76 L 32.222,-1635.54 L 32.6421,-1636 L 35.0184,-1639.1 L 35.2504,-1639.4
 L 37.5787,-1642.92 L 37.641,-1643.01 L 38.4779,-1644.48 L 39.8544,-1646.89 L 39.9399,-1647.07 L 41.9111,-1651.08
 L 42.129,-1651.61 L 43.8197,-1655.6 L 44.1588,-1656.56 L 45.584,-1660.47 L 46.0299,-1661.93 L 47.2052,-1665.68
 L 47.7408,-1667.73 L 48.6839,-1671.24 L 49.2902,-1673.94 L 50.0217,-1677.12 L 50.6786,-1680.55 L 51.2215,-1683.31
 L 51.9091,-1687.53 L 52.2878,-1689.8 L 52.9869,-1694.87 L 53.2263,-1696.57 L 53.919,-1702.53 L 54.0438,-1703.58
 L 54.7139,-1710.49 L 54.7479,-1710.84 L 55.0206,-1714.23 L 55.3505,-1718.3 L 55.3788,-1718.74 L 55.8592,-1725.97
 L 55.9262,-1727.23 L 56.2787,-1733.8 L 56.3686,-1735.94 L 56.6171,-1741.8 L 56.7161,-1744.85 L 56.8821,-1749.94
 L 56.9785,-1753.92 L 57.0813,-1758.21 L 57.165,-1763.14 L 57.2218,-1766.58 L 57.2848,-1772.49 L 57.3105,-1775.05
 L 57.3464,-1781.94 L 57.3537,-1783.59 L 57.3578,-1791.47 L 57.3575,-1792.19 L 57.3343,-1798.83 L 57.3294,-1800.84
 L 57.3284,-1801.06 L 57.279,-1809.52 L 57.2705,-1810.68 L 57.205,-1818.22 L 57.1847,-1820.32 L 57.1119,-1826.93
 L 57.0771,-1829.96 L 57.0038,-1835.63 L 56.9528,-1839.57 L 56.8847,-1844.3 L 56.8168,-1849.15 L 56.758,-1852.94
 L 56.6736,-1858.67 L 56.6271,-1861.54 L 56.5274,-1868.13 L 56.4948,-1870.08 L 56.3818,-1877.49 L 56.3641,-1878.55
 L 56.2404,-1886.76 L 56.2372,-1886.94 L 56.2101,-1888.8 L 56.123,-1895.25 L 56.1158,-1895.89 L 56.0188,-1903.46
 L 56.004,-1904.88 L 55.9249,-1911.55 L 55.9049,-1913.74 L 55.8431,-1919.54 L 55.8206,-1922.44 L 55.7751,-1927.39
 L 55.7532,-1930.97 L 55.7222,-1935.12 L 55.7045,-1939.34 L 55.6861,-1942.71 L 55.6764,-1947.53 L 55.6679,-1950.16
 L 55.6703,-1955.52 L 55.6691,-1957.45 L 55.6879,-1963.33 L 55.6907,-1964.6 L 55.7306,-1970.94 L 55.7341,-1971.58
 L 55.7999,-1978.36 L 55.8004,-1978.41 L 55.8086,-1979.02 L 55.8968,-1985.07 L 55.906,-1985.55 L 56.0189,-1991.57
 L 56.0417,-1992.54 L 56.1673,-1997.9 L 56.2077,-1999.32 L 56.3431,-2004.07 L 56.4053,-2005.91 L 56.5475,-2010.08
 L 56.6359,-2012.3 L 56.782,-2015.93 L 56.9012,-2018.5 L 57.0477,-2021.61 L 57.2026,-2024.51 L 57.3461,-2027.14
 L 57.5418,-2030.34 L 57.6785,-2032.52 L 57.9206,-2035.99 L 58.0466,-2037.75 L 58.3407,-2041.48 L 58.4518,-2042.84
 L 58.8041,-2046.8 L 58.8956,-2047.79 L 59.3124,-2051.96 L 59.3795,-2052.61 L 59.8675,-2056.98 L 59.905,-2057.3
 L 60.4711,-2061.86 L 60.4733,-2061.87 L 60.5081,-2062.12 L 61.0906,-2066.33 L 61.1288,-2066.59 L 61.753,-2070.67
 L 61.7899,-2070.9 L 61.7953,-2120 L 33.8651,-2120 L 7.80248,-1648.57 L 7.76932,-1648.19 L 7.75084,-1647.98
 L 7.69379,-1647.6 L 7.66198,-1647.39 L 7.58125,-1647.01 L 7.53624,-1646.81 L 7.43216,-1646.44 L 7.37412,-1646.23
 L 7.24708,-1645.87 L 7.17624,-1645.67 L 7.02676,-1645.32 L 6.9434,-1645.12 L 6.77208,-1644.78 L 6.67653,-1644.59
 L 6.48402,-1644.26 L 6.37665,-1644.07 L 6.16373,-1643.75 L 6.04496,-1643.57 L 5.81247,-1643.27 L 5.68278,-1643.1
 L 5.43164,-1642.81 L 5.29153,-1642.65 L 5.02274,-1642.38 L 4.87276,-1642.23 L 4.58736,-1641.97 L 4.4281,-1641.83
 L 4.12724,-1641.59 L 3.95934,-1641.46 L 3.64419,-1641.24 L 3.46829,-1641.12 L 3.14012,-1640.92 L 2.95692,-1640.81
 L 2.61701,-1640.64 L 2.42723,-1640.54 L 2.13456,-1640.41 L -25,-1641.91 z
" stroke="black" fill="lightgray" stroke-width="0.5"/>
</svg>
