<?xml version="1.0" standalone="no"?>
<!DOCTYPE svg PUBLIC "-//W3C//DTD SVG 1.1//EN" "http://www.w3.org/Graphics/SVG/1.1/DTD/svg11.dtd">
<svg width="85mm" height="507mm" viewBox="-25 -2121 85 507" xmlns="http://www.w3.org/2000/svg" version="1.1">
<title>OpenSCAD Model</title>
<path d="
M -25,-1615 L -2.69179,-1615 L -0.493709,-1615.98 L 2.06055,-1617.12 L 2.14503,-1617.16 L 8.11386,-1620.19
 L 8.3677,-1620.34 L 13.3585,-1623.24 L 13.7265,-1623.49 L 17.8969,-1626.28 L 18.3454,-1626.63 L 21.8358,-1629.33
 L 22.3474,-1629.8 L 25.2814,-1632.42 L 25.8505,-1633.02 L 28.3326,-1635.6 L 28.9609,-1636.37 L 31.0739,-1638.92
 L 31.7662,-1639.91 L 33.5709,-1642.44 L 34.3319,-1643.71 L 35.8693,-1646.21 L 36.7003,-1647.83 L 37.9969,-1650.28
 L 38.8949,-1652.31 L 39.9682,-1654.68 L 40.925,-1657.2 L 41.7892,-1659.42 L 42.7921,-1662.5 L 43.4617,-1664.51
 L 44.4948,-1668.23 L 44.9859,-1669.95 L 46.0314,-1674.36 L 46.3628,-1675.73 L 47.4023,-1680.89 L 47.5947,-1681.82
 L 48.61,-1687.78 L 48.6855,-1688.22 L 49.4272,-1693.4 L 49.6419,-1694.9 L 49.6579,-1695.03 L 50.4739,-1701.84
 L 50.5498,-1702.62 L 51.1842,-1709.02 L 51.3013,-1710.5 L 51.781,-1716.43 L 51.9222,-1718.63 L 52.2726,-1724.03
 L 52.4225,-1727.01 L 52.6675,-1731.82 L 52.8127,-1735.6 L 52.9741,-1739.77 L 53.1031,-1744.38 L 53.2007,-1747.87
 L 53.3036,-1753.33 L 53.3552,-1756.1 L 53.4241,-1762.42 L 53.4453,-1764.43 L 53.474,-1771.64 L 53.4782,-1772.86
 L 53.462,-1780.95 L 53.4609,-1781.38 L 53.4287,-1785.87 L 53.403,-1789.95 L 53.3992,-1790.34 L 53.311,-1798.57
 L 53.2948,-1799.79 L 53.1871,-1807.23 L 53.1537,-1809.27 L 53.0367,-1815.91 L 52.9825,-1818.77 L 52.8647,-1824.59
 L 52.7876,-1828.27 L 52.6758,-1833.27 L 52.5746,-1837.75 L 52.4742,-1841.93 L 52.3488,-1847.19 L 52.2639,-1850.56
 L 52.1152,-1856.58 L 52.0486,-1859.14 L 51.8783,-1865.91 L 51.8315,-1867.66 L 51.6421,-1875.15 L 51.616,-1876.12
 L 51.4105,-1884.29 L 51.4047,-1884.51 L 51.3452,-1886.92 L 51.2053,-1892.8 L 51.1943,-1893.31 L 51.0173,-1901
 L 50.9925,-1902.2 L 50.841,-1909.09 L 50.8049,-1910.96 L 50.6786,-1917.06 L 50.6342,-1919.56 L 50.532,-1924.92
 L 50.4826,-1928.01 L 50.403,-1932.64 L 50.3525,-1936.3 L 50.2935,-1940.23 L 50.2458,-1944.41 L 50.205,-1947.67
 L 50.1646,-1952.35 L 50.1392,-1954.97 L 50.1106,-1960.1 L 50.0975,-1962.11 L 50.0857,-1967.66 L 50.0815,-1969.1
 L 50.0916,-1975.03 L 50.0925,-1975.93 L 50.13,-1982.21 L 50.1321,-1982.6 L 50.1905,-1988.07 L 50.2027,-1989.11
 L 50.2039,-1989.18 L 50.3094,-1995.46 L 50.3206,-1995.96 L 50.4491,-2001.64 L 50.4746,-2002.53 L 50.6231,-2007.67
 L 50.6677,-2008.92 L 50.8333,-2013.53 L 50.9017,-2015.13 L 51.0811,-2019.24 L 51.1785,-2021.15 L 51.3684,-2024.8
 L 51.5002,-2027 L 51.697,-2030.21 L 51.8689,-2032.68 L 52.0688,-2035.48 L 52.2869,-2038.19 L 52.4855,-2040.6
 L 52.7563,-2043.55 L 52.9492,-2045.6 L 53.2796,-2048.76 L 53.4619,-2050.46 L 53.8588,-2053.83 L 54.0252,-2055.2
 L 54.4963,-2058.77 L 54.641,-2059.83 L 55.1938,-2063.57 L 55.3107,-2064.34 L 55.9529,-2068.25 L 56.0354,-2068.74
 L 56.7747,-2072.82 L 56.8159,-2073.04 L 57.5366,-2076.65 L 57.6528,-2077.23 L 57.6598,-2077.27 L 58.5488,-2081.33
 L 58.6098,-2081.59 L 59.4985,-2085.32 L 59.6194,-2085.81 L 59.9451,-2087.07 L 59.9487,-2120 L 34.008,-2120
 L 7.93188,-1648.9 L 7.88934,-1648.42 L 7.8802,-1648.31 L 7.80702,-1647.82 L 7.79128,-1647.72 L 7.68776,-1647.24
 L 7.6655,-1647.14 L 7.53203,-1646.66 L 7.50333,-1646.56 L 7.34044,-1646.1 L 7.30542,-1646 L 7.11375,-1645.55
 L 7.07253,-1645.45 L 6.85286,-1645.01 L 6.80561,-1644.92 L 6.55878,-1644.49 L 6.50569,-1644.4 L 6.23269,-1643.99
 L 6.17397,-1643.9 L 5.87588,-1643.51 L 5.81175,-1643.43 L 5.48975,-1643.06 L 5.42047,-1642.98 L 5.07583,-1642.63
 L 5.00166,-1642.55 L 4.63573,-1642.23 L 4.55697,-1642.16 L 4.17121,-1641.85 L 4.08818,-1641.79 L 3.6841,-1641.51
 L 3.59711,-1641.45 L 3.17632,-1641.2 L 3.08571,-1641.14 L 2.64987,-1640.91 L 2.556,-1640.87 L 2.10683,-1640.67
 L 2.01008,-1640.63 L 1.54936,-1640.46 L 1.4501,-1640.42 L 1.41998,-1640.41 L -25,-1641.87 z
" stroke="black" fill="lightgray" stroke-width="0.5"/>
</svg>
