<?xml version="1.0" standalone="no"?>
<!DOCTYPE svg PUBLIC "-//W3C//DTD SVG 1.1//EN" "http://www.w3.org/Graphics/SVG/1.1/DTD/svg11.dtd">
<svg width="84mm" height="507mm" viewBox="-25 -2121 84 507" xmlns="http://www.w3.org/2000/svg" version="1.1">
<title>OpenSCAD Model</title>
<path d="
M -25,-1615 L -7.94316,-1615 L -3.42415,-1616.84 L -1.09364,-1617.96 L 3.0495,-1619.88 L 5.22391,-1621.08
 L 8.66455,-1622.92 L 10.673,-1624.19 L 13.5212,-1625.95 L 15.3731,-1627.31 L 17.7258,-1628.99 L 19.4444,-1630.45
 L 21.3868,-1632.07 L 23.0031,-1633.67 L 24.6083,-1635.22 L 26.1554,-1637 L 27.4825,-1638.49 L 28.9904,-1640.51
 L 30.0837,-1641.95 L 31.5755,-1644.28 L 32.466,-1645.64 L 33.9555,-1648.35 L 34.6639,-1649.61 L 36.1558,-1652.78
 L 36.6966,-1653.91 L 38.1872,-1657.6 L 38.5727,-1658.54 L 40.052,-1662.84 L 40.2949,-1663.53 L 41.7488,-1668.49
 L 41.8637,-1668.87 L 43.276,-1674.54 L 43.2798,-1674.55 L 43.326,-1674.77 L 44.5492,-1680.56 L 44.6256,-1681
 L 45.671,-1686.87 L 45.8088,-1687.82 L 46.6502,-1693.48 L 46.8313,-1694.98 L 47.4929,-1700.36 L 47.7005,-1702.45
 L 48.2068,-1707.48 L 48.425,-1710.21 L 48.7998,-1714.83 L 49.0144,-1718.23 L 49.2806,-1722.38 L 49.479,-1726.48
 L 49.6579,-1730.12 L 49.8292,-1734.94 L 49.9404,-1738.03 L 50.0754,-1743.59 L 50.1367,-1746.09 L 50.2281,-1752.4
 L 50.2553,-1754.28 L 50.2971,-1761.35 L 50.3041,-1762.59 L 50.292,-1770.42 L 50.2909,-1770.99 L 50.2339,-1778.11
 L 50.2238,-1779.48 L 50.2225,-1779.59 L 50.1135,-1788.03 L 50.0999,-1788.83 L 49.9619,-1796.63 L 49.9305,-1798.14
 L 49.7753,-1805.26 L 49.7219,-1807.48 L 49.5594,-1813.92 L 49.481,-1816.83 L 49.3196,-1822.59 L 49.2144,-1826.19
 L 49.0609,-1831.25 L 48.9281,-1835.54 L 48.7879,-1839.89 L 48.6279,-1844.84 L 48.5051,-1848.5 L 48.3187,-1854.11
 L 48.2163,-1857.07 L 48.0056,-1863.3 L 47.9254,-1865.59 L 47.6928,-1872.42 L 47.6358,-1874.04 L 47.3845,-1881.45
 L 47.3508,-1882.41 L 47.0845,-1890.37 L 47.0733,-1890.69 L 46.9338,-1894.96 L 46.8087,-1898.88 L 46.8003,-1899.17
 L 46.5599,-1906.97 L 46.5355,-1907.83 L 46.3263,-1914.94 L 46.2888,-1916.35 L 46.1104,-1922.79 L 46.0628,-1924.72
 L 45.9141,-1930.51 L 45.86,-1932.94 L 45.7397,-1938.09 L 45.6828,-1940.99 L 45.5889,-1945.53 L 45.5335,-1948.87
 L 45.4637,-1952.83 L 45.4141,-1956.57 L 45.3658,-1959.98 L 45.3267,-1964.09 L 45.297,-1966.97 L 45.2734,-1971.42
 L 45.2591,-1973.81 L 45.256,-1978.57 L 45.2537,-1980.49 L 45.2766,-1985.54 L 45.2826,-1987.01 L 45.3372,-1992.31
 L 45.3477,-1993.36 L 45.4397,-1998.91 L 45.4506,-1999.56 L 45.5864,-2005.32 L 45.5932,-2005.6 L 45.7465,-2010.5
 L 45.7783,-2011.49 L 45.7805,-2011.54 L 46.0106,-2017.22 L 46.0285,-2017.58 L 46.2887,-2022.8 L 46.3272,-2023.46
 L 46.6146,-2028.24 L 46.6791,-2029.17 L 46.9907,-2033.54 L 47.0868,-2034.72 L 47.4191,-2038.7 L 47.5529,-2040.12
 L 47.9024,-2043.73 L 48.0802,-2045.37 L 48.4428,-2048.64 L 48.6714,-2050.49 L 49.0426,-2053.43 L 49.3292,-2055.48
 L 49.7038,-2058.1 L 50.0559,-2060.35 L 50.4284,-2062.67 L 50.8535,-2065.09 L 51.2178,-2067.12 L 51.7234,-2069.73
 L 52.0727,-2071.48 L 52.6663,-2074.24 L 52.9935,-2075.73 L 53.6818,-2078.65 L 53.9792,-2079.88 L 54.7683,-2082.95
 L 55.0283,-2083.94 L 55.9229,-2087.14 L 56.1378,-2087.89 L 57.1409,-2091.22 L 57.3034,-2091.74 L 58.416,-2095.18
 L 58.5197,-2095.49 L 58.6006,-2095.72 L 58.6024,-2120 L 34.1305,-2120 L 8.05936,-1649.49 L 8.05915,-1649.48
 L 8.00764,-1648.89 L 8.00727,-1648.89 L 7.91868,-1648.3 L 7.91816,-1648.3 L 7.79286,-1647.72 L 7.79219,-1647.72
 L 7.63065,-1647.14 L 7.62983,-1647.14 L 7.43269,-1646.58 L 7.43173,-1646.58 L 7.19977,-1646.03 L 7.19867,-1646.03
 L 6.93282,-1645.5 L 6.93158,-1645.49 L 6.63286,-1644.98 L 6.6315,-1644.98 L 6.3011,-1644.49 L 6.29962,-1644.48
 L 5.93886,-1644.01 L 5.93726,-1644.01 L 5.54754,-1643.56 L 5.54584,-1643.56 L 5.12871,-1643.14 L 5.12691,-1643.13
 L 4.684,-1642.74 L 4.6821,-1642.74 L 4.21519,-1642.37 L 4.21321,-1642.37 L 3.7241,-1642.03 L 3.72205,-1642.03
 L 3.21269,-1641.72 L 3.21058,-1641.72 L 2.68297,-1641.45 L 2.6808,-1641.45 L 2.13704,-1641.21 L 2.13482,-1641.2
 L 1.57705,-1641 L 1.5748,-1641 L 1.0052,-1640.83 L 1.00292,-1640.83 L 0.42376,-1640.69 L 0.421468,-1640.69
 L -0.164979,-1640.6 L -0.167278,-1640.6 L -0.758703,-1640.54 L -0.761001,-1640.54 L -1.14559,-1640.52 L -25,-1641.84
 z
" stroke="black" fill="lightgray" stroke-width="0.5"/>
</svg>
