<?xml version="1.0" standalone="no"?>
<!DOCTYPE svg PUBLIC "-//W3C//DTD SVG 1.1//EN" "http://www.w3.org/Graphics/SVG/1.1/DTD/svg11.dtd">
<svg width="104mm" height="507mm" viewBox="-25 -2121 104 507" xmlns="http://www.w3.org/2000/svg" version="1.1">
<title>OpenSCAD Model</title>
<path d="
M -25,-1624.98 L -24.9999,-1624.98 L -24.9999,-1624.93 L -24.9995,-1624.89 L -24.9988,-1624.83 L -24.998,-1624.79
 L -24.9968,-1624.73 L -24.9956,-1624.69 L -24.9937,-1624.63 L -24.9921,-1624.59 L -24.9897,-1624.53 L -24.9877,-1624.49
 L -24.9846,-1624.42 L -24.9821,-1624.39 L -24.9784,-1624.32 L -24.9756,-1624.28 L -24.9713,-1624.22 L -24.9681,-1624.18
 L -24.9632,-1624.12 L -24.9595,-1624.08 L -24.954,-1624.02 L -24.95,-1623.98 L -24.9438,-1623.92 L -24.9394,-1623.88
 L -24.9326,-1623.82 L -24.9278,-1623.78 L -24.9204,-1623.72 L -24.9152,-1623.68 L -24.9072,-1623.62 L -24.9015,-1623.58
 L -24.8929,-1623.52 L -24.8869,-1623.48 L -24.8777,-1623.42 L -24.8713,-1623.38 L -24.8614,-1623.32 L -24.8546,-1623.28
 L -24.8441,-1623.22 L -24.837,-1623.18 L -24.8259,-1623.12 L -24.8183,-1623.08 L -24.8066,-1623.02 L -24.7986,-1622.98
 L -24.7863,-1622.92 L -24.778,-1622.89 L -24.7651,-1622.83 L -24.7563,-1622.79 L -24.7428,-1622.73 L -24.7336,-1622.69
 L -24.7195,-1622.63 L -24.71,-1622.59 L -24.6953,-1622.53 L -24.6854,-1622.49 L -24.6701,-1622.43 L -24.6597,-1622.39
 L -24.6438,-1622.34 L -24.6331,-1622.3 L -24.6166,-1622.24 L -24.6055,-1622.2 L -24.5884,-1622.14 L -24.5769,-1622.1
 L -24.5593,-1622.04 L -24.5474,-1622.01 L -24.5291,-1621.95 L -24.5169,-1621.91 L -24.498,-1621.85 L -24.4854,-1621.81
 L -24.4659,-1621.76 L -24.4529,-1621.72 L -24.4328,-1621.66 L -24.4194,-1621.62 L -24.3988,-1621.57 L -24.3851,-1621.53
 L -24.3639,-1621.47 L -24.3497,-1621.43 L -24.3279,-1621.38 L -24.3134,-1621.34 L -24.291,-1621.28 L -24.2761,-1621.25
 L -24.2532,-1621.19 L -24.2379,-1621.15 L -24.2144,-1621.1 L -24.1988,-1621.06 L -24.1747,-1621 L -24.1587,-1620.97
 L -24.1341,-1620.91 L -24.1177,-1620.87 L -24.0925,-1620.82 L -24.0758,-1620.78 L -24.05,-1620.73 L -24.0329,-1620.69
 L -24.0065,-1620.63 L -23.9891,-1620.6 L -23.9622,-1620.54 L -23.9444,-1620.51 L -23.9169,-1620.45 L -23.8987,-1620.42
 L -23.8707,-1620.36 L -23.8522,-1620.33 L -23.8237,-1620.27 L -23.8048,-1620.24 L -23.7757,-1620.19 L -23.7564,-1620.15
 L -23.7268,-1620.1 L -23.7072,-1620.06 L -23.677,-1620.01 L -23.6571,-1619.97 L -23.6264,-1619.92 L -23.6061,-1619.89
 L -23.5748,-1619.84 L -23.5542,-1619.8 L -23.5224,-1619.75 L -23.5014,-1619.71 L -23.4691,-1619.66 L -23.4478,-1619.63
 L -23.415,-1619.58 L -23.3933,-1619.54 L -23.36,-1619.49 L -23.338,-1619.46 L -23.3042,-1619.41 L -23.2818,-1619.38
 L -23.2475,-1619.33 L -23.2248,-1619.29 L -23.1899,-1619.24 L -23.1669,-1619.21 L -23.1315,-1619.16 L -23.1082,-1619.13
 L -23.0723,-1619.08 L -23.0487,-1619.05 L -23.0123,-1619 L -22.9883,-1618.96 L -22.9514,-1618.92 L -22.9271,-1618.88
 L -22.8898,-1618.84 L -22.8652,-1618.8 L -22.8273,-1618.76 L -22.8024,-1618.73 L -22.764,-1618.68 L -22.7388,-1618.65
 L -22.7,-1618.6 L -22.6744,-1618.57 L -22.6351,-1618.52 L -22.6093,-1618.49 L -22.5695,-1618.45 L -22.5433,-1618.42
 L -22.5031,-1618.37 L -22.4767,-1618.34 L -22.4359,-1618.29 L -22.4092,-1618.26 L -22.368,-1618.22 L -22.341,-1618.19
 L -22.2993,-1618.15 L -22.272,-1618.12 L -22.2299,-1618.07 L -22.2023,-1618.04 L -22.1598,-1618 L -22.1319,-1617.97
 L -22.0889,-1617.93 L -22.0607,-1617.9 L -22.0173,-1617.86 L -21.9888,-1617.83 L -21.945,-1617.79 L -21.9162,-1617.76
 L -21.8719,-1617.72 L -21.8429,-1617.69 L -21.7982,-1617.65 L -21.7689,-1617.62 L -21.7238,-1617.58 L -21.6942,-1617.55
 L -21.6487,-1617.51 L -21.6188,-1617.48 L -21.5729,-1617.44 L -21.5427,-1617.42 L -21.4964,-1617.38 L -21.466,-1617.35
 L -21.4193,-1617.31 L -21.3886,-1617.29 L -21.3415,-1617.25 L -21.3106,-1617.22 L -21.2631,-1617.18 L -21.2319,-1617.16
 L -21.184,-1617.12 L -21.1526,-1617.1 L -21.1043,-1617.06 L -21.0727,-1617.04 L -21.024,-1617 L -20.9921,-1616.97
 L -20.943,-1616.94 L -20.9109,-1616.91 L -20.8615,-1616.88 L -20.8291,-1616.86 L -20.7793,-1616.82 L -20.7468,-1616.8
 L -20.6966,-1616.76 L -20.6638,-1616.74 L -20.6133,-1616.7 L -20.5803,-1616.68 L -20.5294,-1616.65 L -20.4962,-1616.63
 L -20.445,-1616.59 L -20.4115,-1616.57 L -20.36,-1616.54 L -20.3263,-1616.52 L -20.2744,-1616.48 L -20.2405,-1616.46
 L -20.1883,-1616.43 L -20.1542,-1616.41 L -20.1017,-1616.38 L -20.0674,-1616.36 L -20.0146,-1616.33 L -19.98,-1616.31
 L -19.9269,-1616.28 L -19.8922,-1616.26 L -19.8388,-1616.23 L -19.8038,-1616.21 L -19.7501,-1616.18 L -19.715,-1616.16
 L -19.661,-1616.13 L -19.6257,-1616.11 L -19.5714,-1616.09 L -19.5359,-1616.07 L -19.4813,-1616.04 L -19.4456,-1616.02
 L -19.3908,-1616 L -19.3549,-1615.98 L -19.2998,-1615.95 L -19.2638,-1615.93 L -19.2084,-1615.91 L -19.1722,-1615.89
 L -19.1165,-1615.87 L -19.0802,-1615.85 L -19.0242,-1615.83 L -18.9877,-1615.81 L -18.9316,-1615.79 L -18.8949,-1615.77
 L -18.8385,-1615.75 L -18.8017,-1615.73 L -18.745,-1615.71 L -18.708,-1615.69 L -18.6512,-1615.67 L -18.614,-1615.66
 L -18.5569,-1615.63 L -18.5197,-1615.62 L -18.4623,-1615.6 L -18.4249,-1615.59 L -18.3674,-1615.56 L -18.3299,-1615.55
 L -18.2721,-1615.53 L -18.2345,-1615.52 L -18.1765,-1615.5 L -18.1387,-1615.49 L -18.0806,-1615.47 L -18.0426,-1615.45
 L -17.9843,-1615.44 L -17.9463,-1615.42 L -17.8877,-1615.41 L -17.8496,-1615.4 L -17.7909,-1615.38 L -17.7526,-1615.37
 L -17.6937,-1615.35 L -17.6554,-1615.34 L -17.5963,-1615.32 L -17.5578,-1615.31 L -17.4986,-1615.3 L -17.46,-1615.29
 L -17.4007,-1615.27 L -17.362,-1615.26 L -17.3025,-1615.25 L -17.2637,-1615.24 L -17.2041,-1615.23 L -17.1652,-1615.22
 L -17.1055,-1615.2 L -17.0665,-1615.2 L -17.0066,-1615.18 L -16.9676,-1615.18 L -16.9075,-1615.16 L -16.8684,-1615.16
 L -16.8083,-1615.15 L -16.7691,-1615.14 L -16.7088,-1615.13 L -16.6696,-1615.12 L -16.6092,-1615.11 L -16.5699,-1615.1
 L -16.5094,-1615.09 L -16.4701,-1615.09 L -16.4095,-1615.08 L -16.3701,-1615.07 L -16.3094,-1615.07 L -16.27,-1615.06
 L -16.2092,-1615.05 L -16.1697,-1615.05 L -16.1089,-1615.04 L -16.0693,-1615.04 L -16.0084,-1615.03 L -15.9688,-1615.03
 L -15.9079,-1615.02 L -15.8682,-1615.02 L -15.8072,-1615.01 L -15.7676,-1615.01 L -15.7065,-1615.01 L -15.6668,-1615
 L -15.6158,-1615 L 62.2964,-1615 L 63.8586,-1617.03 L 64.6801,-1618.04 L 67.4293,-1621.97 L 67.7461,-1622.4
 L 69.8959,-1625.79 L 70.5191,-1626.77 L 70.5912,-1626.9 L 73.0536,-1631.22 L 73.4119,-1631.95 L 75.3838,-1635.79
 L 75.9868,-1637.17 L 77.5395,-1640.53 L 78.3562,-1642.61 L 78.7372,-1643.53 L 78.7595,-2120 L 32.2976,-2120
 L 6.6387,-1649.59 L 6.63532,-1649.53 L 6.63298,-1649.49 L 6.62904,-1649.43 L 6.62629,-1649.39 L 6.62179,-1649.34
 L 6.61866,-1649.3 L 6.61357,-1649.24 L 6.61004,-1649.2 L 6.6044,-1649.15 L 6.60047,-1649.11 L 6.59425,-1649.05
 L 6.58992,-1649.01 L 6.58314,-1648.96 L 6.57842,-1648.92 L 6.57107,-1648.86 L 6.56596,-1648.82 L 6.55804,-1648.77
 L 6.55252,-1648.73 L 6.54405,-1648.67 L 6.53815,-1648.63 L 6.5291,-1648.58 L 6.5228,-1648.54 L 6.51319,-1648.48
 L 6.5065,-1648.44 L 6.49633,-1648.39 L 6.48925,-1648.35 L 6.47851,-1648.29 L 6.47104,-1648.25 L 6.45974,-1648.2
 L 6.45188,-1648.16 L 6.44002,-1648.1 L 6.43177,-1648.07 L 6.41936,-1648.01 L 6.41072,-1647.97 L 6.39775,-1647.92
 L 6.38872,-1647.88 L 6.3752,-1647.82 L 6.36578,-1647.79 L 6.35171,-1647.73 L 6.34191,-1647.69 L 6.32727,-1647.64
 L 6.31708,-1647.6 L 6.3019,-1647.54 L 6.29133,-1647.51 L 6.2756,-1647.45 L 6.26464,-1647.41 L 6.24836,-1647.36
 L 6.23702,-1647.32 L 6.2202,-1647.27 L 6.20848,-1647.23 L 6.19111,-1647.18 L 6.17901,-1647.14 L 6.16111,-1647.09
 L 6.14863,-1647.05 L 6.13018,-1647 L 6.11732,-1646.96 L 6.09833,-1646.9 L 6.08509,-1646.87 L 6.06558,-1646.81
 L 6.05197,-1646.78 L 6.03191,-1646.72 L 6.01793,-1646.69 L 5.99734,-1646.64 L 5.98298,-1646.6 L 5.96186,-1646.55
 L 5.94713,-1646.51 L 5.92548,-1646.46 L 5.91039,-1646.42 L 5.88822,-1646.37 L 5.87276,-1646.33 L 5.85006,-1646.28
 L 5.83422,-1646.24 L 5.81101,-1646.19 L 5.79482,-1646.16 L 5.77108,-1646.11 L 5.75452,-1646.07 L 5.73026,-1646.02
 L 5.71334,-1645.98 L 5.68858,-1645.93 L 5.6713,-1645.9 L 5.64602,-1645.85 L 5.62838,-1645.81 L 5.6026,-1645.76
 L 5.5846,-1645.73 L 5.55831,-1645.68 L 5.53996,-1645.64 L 5.51317,-1645.59 L 5.49447,-1645.56 L 5.46717,-1645.51
 L 5.44812,-1645.47 L 5.42033,-1645.42 L 5.40092,-1645.39 L 5.37264,-1645.34 L 5.35288,-1645.31 L 5.32411,-1645.26
 L 5.30401,-1645.22 L 5.27475,-1645.17 L 5.25431,-1645.14 L 5.22456,-1645.09 L 5.20377,-1645.06 L 5.17354,-1645.01
 L 5.15241,-1644.98 L 5.12171,-1644.93 L 5.10025,-1644.9 L 5.06907,-1644.85 L 5.04727,-1644.82 L 5.01561,-1644.77
 L 4.99348,-1644.74 L 4.96136,-1644.69 L 4.93889,-1644.66 L 4.90631,-1644.61 L 4.88351,-1644.58 L 4.85046,-1644.53
 L 4.82734,-1644.5 L 4.79383,-1644.46 L 4.77039,-1644.43 L 4.73642,-1644.38 L 4.71265,-1644.35 L 4.67824,-1644.3
 L 4.65416,-1644.27 L 4.6193,-1644.23 L 4.59489,-1644.2 L 4.55958,-1644.15 L 4.53485,-1644.12 L 4.49911,-1644.08
 L 4.47408,-1644.05 L 4.43789,-1644 L 4.41255,-1643.97 L 4.37593,-1643.93 L 4.35028,-1643.9 L 4.31324,-1643.86
 L 4.28728,-1643.83 L 4.24981,-1643.79 L 4.22355,-1643.76 L 4.18565,-1643.72 L 4.15909,-1643.69 L 4.12079,-1643.64
 L 4.09394,-1643.62 L 4.05521,-1643.57 L 4.02805,-1643.55 L 3.98892,-1643.51 L 3.96147,-1643.48 L 3.92194,-1643.44
 L 3.89421,-1643.41 L 3.85427,-1643.37 L 3.82625,-1643.34 L 3.78591,-1643.3 L 3.7576,-1643.27 L 3.71687,-1643.23
 L 3.68829,-1643.21 L 3.64717,-1643.17 L 3.61831,-1643.14 L 3.5768,-1643.1 L 3.54766,-1643.08 L 3.50578,-1643.04
 L 3.47636,-1643.01 L 3.43411,-1642.97 L 3.40443,-1642.95 L 3.3618,-1642.91 L 3.33185,-1642.89 L 3.28886,-1642.85
 L 3.25864,-1642.82 L 3.21528,-1642.79 L 3.1848,-1642.76 L 3.14109,-1642.73 L 3.11036,-1642.7 L 3.06629,-1642.67
 L 3.0353,-1642.64 L 2.99089,-1642.61 L 2.95966,-1642.58 L 2.91489,-1642.55 L 2.8834,-1642.52 L 2.8383,-1642.49
 L 2.80657,-1642.47 L 2.76113,-1642.43 L 2.72916,-1642.41 L 2.68339,-1642.38 L 2.65117,-1642.35 L 2.60509,-1642.32
 L 2.57264,-1642.3 L 2.52624,-1642.27 L 2.49355,-1642.25 L 2.44683,-1642.21 L 2.41392,-1642.19 L 2.36688,-1642.16
 L 2.33374,-1642.14 L 2.28639,-1642.11 L 2.25303,-1642.09 L 2.20539,-1642.06 L 2.17181,-1642.04 L 2.12387,-1642.01
 L 2.09007,-1641.99 L 2.04184,-1641.96 L 2.00783,-1641.94 L 1.95932,-1641.91 L 1.9251,-1641.89 L 1.8763,-1641.86
 L 1.84188,-1641.84 L 1.7928,-1641.81 L 1.75817,-1641.79 L 1.70882,-1641.77 L 1.674,-1641.75 L 1.62439,-1641.72
 L 1.58937,-1641.7 L 1.53949,-1641.68 L 1.50427,-1641.66 L 1.45415,-1641.63 L 1.41875,-1641.61 L 1.36837,-1641.59
 L 1.33278,-1641.57 L 1.28217,-1641.55 L 1.2464,-1641.53 L 1.19553,-1641.5 L 1.15958,-1641.49 L 1.10849,-1641.46
 L 1.07236,-1641.45 L 1.02104,-1641.42 L 0.984739,-1641.41 L 0.933194,-1641.39 L 0.896734,-1641.37 L 0.844972,-1641.35
 L 0.80835,-1641.33 L 0.756371,-1641.31 L 0.719586,-1641.3 L 0.6674,-1641.28 L 0.63046,-1641.26 L 0.578066,-1641.24
 L 0.54097,-1641.23 L 0.488386,-1641.21 L 0.451146,-1641.19 L 0.398365,-1641.17 L 0.360975,-1641.16 L 0.308014,-1641.14
 L 0.270488,-1641.13 L 0.217337,-1641.11 L 0.179668,-1641.1 L 0.126346,-1641.08 L 0.0885471,-1641.07 L 0.0350546,-1641.05
 L -0.0028753,-1641.04 L -0.0565297,-1641.02 L -0.0945839,-1641.01 L -0.1484,-1640.99 L -0.186578,-1640.98 L -0.240546,-1640.97
 L -0.278842,-1640.96 L -0.332953,-1640.94 L -0.37136,-1640.93 L -0.425615,-1640.92 L -0.464134,-1640.91 L -0.518532,-1640.89
 L -0.557161,-1640.88 L -0.611685,-1640.87 L -0.650413,-1640.86 L -0.705061,-1640.85 L -0.743888,-1640.84 L -0.798661,-1640.82
 L -0.837586,-1640.82 L -0.892467,-1640.8 L -0.931478,-1640.8 L -0.986474,-1640.79 L -1.02558,-1640.78 L -1.08067,-1640.77
 L -1.11985,-1640.76 L -1.17505,-1640.75 L -1.21431,-1640.74 L -1.2696,-1640.73 L -1.30894,-1640.73 L -1.36431,-1640.72
 L -1.40372,-1640.71 L -1.45917,-1640.7 L -1.46803,-1640.7 L -20.7501,-1641.75 L -20.7555,-1641.75 L -20.8092,-1641.73
 L -20.8502,-1641.72 L -20.9038,-1641.7 L -20.9446,-1641.68 L -20.9979,-1641.66 L -21.0387,-1641.64 L -21.0918,-1641.62
 L -21.1323,-1641.61 L -21.1852,-1641.58 L -21.2256,-1641.57 L -21.2782,-1641.55 L -21.3185,-1641.53 L -21.3709,-1641.5
 L -21.411,-1641.49 L -21.4631,-1641.46 L -21.503,-1641.45 L -21.5549,-1641.42 L -21.5946,-1641.4 L -21.6463,-1641.38
 L -21.6858,-1641.36 L -21.7373,-1641.33 L -21.7766,-1641.31 L -21.8277,-1641.29 L -21.8669,-1641.27 L -21.9178,-1641.24
 L -21.9567,-1641.22 L -22.0073,-1641.2 L -22.0461,-1641.18 L -22.0964,-1641.15 L -22.1349,-1641.13 L -22.185,-1641.1
 L -22.2233,-1641.08 L -22.2731,-1641.05 L -22.3112,-1641.03 L -22.3607,-1641 L -22.3986,-1640.98 L -22.4478,-1640.95
 L -22.4855,-1640.93 L -22.5344,-1640.9 L -22.5718,-1640.87 L -22.6204,-1640.84 L -22.6576,-1640.82 L -22.7059,-1640.79
 L -22.7429,-1640.77 L -22.7909,-1640.74 L -22.8276,-1640.71 L -22.8753,-1640.68 L -22.9118,-1640.66 L -22.9591,-1640.62
 L -22.9954,-1640.6 L -23.0424,-1640.57 L -23.0784,-1640.54 L -23.125,-1640.51 L -23.1608,-1640.48 L -23.2071,-1640.45
 L -23.2426,-1640.42 L -23.2886,-1640.39 L -23.3238,-1640.36 L -23.3695,-1640.33 L -23.4045,-1640.3 L -23.4497,-1640.27
 L -23.4844,-1640.24 L -23.5294,-1640.21 L -23.5638,-1640.18 L -23.6084,-1640.14 L -23.6425,-1640.12 L -23.6867,-1640.08
 L -23.7206,-1640.05 L -23.7645,-1640.02 L -23.7981,-1639.99 L -23.8415,-1639.95 L -23.8748,-1639.92 L -23.9179,-1639.88
 L -23.951,-1639.85 L -23.9936,-1639.82 L -24.0264,-1639.79 L -24.0687,-1639.75 L -24.1011,-1639.72 L -24.1431,-1639.68
 L -24.1752,-1639.65 L -24.2167,-1639.61 L -24.2486,-1639.58 L -24.2897,-1639.54 L -24.3212,-1639.51 L -24.3619,-1639.47
 L -24.3932,-1639.44 L -24.4335,-1639.4 L -24.4644,-1639.37 L -24.5043,-1639.33 L -24.5349,-1639.3 L -24.5744,-1639.26
 L -24.6047,-1639.22 L -24.6437,-1639.18 L -24.6737,-1639.15 L -24.7123,-1639.11 L -24.7419,-1639.07 L -24.7802,-1639.03
 L -24.8095,-1639 L -24.8472,-1638.96 L -24.8762,-1638.92 L -24.9136,-1638.88 L -24.9422,-1638.85 L -24.9791,-1638.8
 L -25,-1638.78 z
" stroke="black" fill="lightgray" stroke-width="0.5"/>
</svg>
