<?xml version="1.0" standalone="no"?>
<!DOCTYPE svg PUBLIC "-//W3C//DTD SVG 1.1//EN" "http://www.w3.org/Graphics/SVG/1.1/DTD/svg11.dtd">
<svg width="103mm" height="507mm" viewBox="-25 -2121 103 507" xmlns="http://www.w3.org/2000/svg" version="1.1">
<title>OpenSCAD Model</title>
<path d="
M -25,-1624.99 L -24.9999,-1624.99 L -24.9999,-1624.94 L -24.9998,-1624.93 L -24.9988,-1624.84 L -24.9987,-1624.83
 L -24.9968,-1624.74 L -24.9965,-1624.73 L -24.9937,-1624.64 L -24.9934,-1624.63 L -24.9897,-1624.54 L -24.9892,-1624.53
 L -24.9846,-1624.44 L -24.984,-1624.43 L -24.9784,-1624.34 L -24.9778,-1624.33 L -24.9713,-1624.24 L -24.9706,-1624.23
 L -24.9632,-1624.14 L -24.9623,-1624.13 L -24.954,-1624.03 L -24.9531,-1624.03 L -24.9438,-1623.93 L -24.9428,-1623.93
 L -24.9326,-1623.83 L -24.9315,-1623.82 L -24.9204,-1623.73 L -24.9192,-1623.72 L -24.9072,-1623.63 L -24.9059,-1623.62
 L -24.8929,-1623.53 L -24.8915,-1623.52 L -24.8777,-1623.43 L -24.8762,-1623.42 L -24.8614,-1623.33 L -24.8598,-1623.33
 L -24.8441,-1623.23 L -24.8425,-1623.23 L -24.8259,-1623.14 L -24.8241,-1623.13 L -24.8066,-1623.04 L -24.8048,-1623.03
 L -24.7863,-1622.94 L -24.7844,-1622.93 L -24.7651,-1622.84 L -24.7631,-1622.83 L -24.7428,-1622.74 L -24.7407,-1622.73
 L -24.7195,-1622.64 L -24.7173,-1622.63 L -24.6953,-1622.54 L -24.693,-1622.53 L -24.6701,-1622.45 L -24.6677,-1622.44
 L -24.6438,-1622.35 L -24.6414,-1622.34 L -24.6166,-1622.25 L -24.6141,-1622.24 L -24.5884,-1622.15 L -24.5858,-1622.15
 L -24.5593,-1622.06 L -24.5565,-1622.05 L -24.5291,-1621.96 L -24.5263,-1621.95 L -24.498,-1621.86 L -24.4951,-1621.86
 L -24.4659,-1621.77 L -24.4629,-1621.76 L -24.4328,-1621.67 L -24.4298,-1621.66 L -24.3988,-1621.58 L -24.3957,-1621.57
 L -24.3639,-1621.48 L -24.3606,-1621.47 L -24.3279,-1621.39 L -24.3246,-1621.38 L -24.291,-1621.3 L -24.2876,-1621.29
 L -24.2532,-1621.2 L -24.2497,-1621.19 L -24.2144,-1621.11 L -24.2108,-1621.1 L -24.1747,-1621.02 L -24.171,-1621.01
 L -24.1341,-1620.92 L -24.1303,-1620.91 L -24.0925,-1620.83 L -24.0886,-1620.82 L -24.05,-1620.74 L -24.046,-1620.73
 L -24.0065,-1620.65 L -24.0025,-1620.64 L -23.9622,-1620.56 L -23.9581,-1620.55 L -23.9169,-1620.47 L -23.9127,-1620.46
 L -23.8707,-1620.38 L -23.8665,-1620.37 L -23.8237,-1620.29 L -23.8193,-1620.28 L -23.7757,-1620.2 L -23.7712,-1620.19
 L -23.7268,-1620.11 L -23.7223,-1620.1 L -23.677,-1620.02 L -23.6724,-1620.01 L -23.6264,-1619.93 L -23.6217,-1619.93
 L -23.5748,-1619.85 L -23.5701,-1619.84 L -23.5224,-1619.76 L -23.5176,-1619.75 L -23.4691,-1619.68 L -23.4642,-1619.67
 L -23.415,-1619.59 L -23.41,-1619.58 L -23.36,-1619.51 L -23.3549,-1619.5 L -23.3042,-1619.42 L -23.299,-1619.41
 L -23.2475,-1619.34 L -23.2422,-1619.33 L -23.1899,-1619.26 L -23.1846,-1619.25 L -23.1315,-1619.17 L -23.1261,-1619.17
 L -23.0723,-1619.09 L -23.0669,-1619.08 L -23.0123,-1619.01 L -23.0068,-1619 L -22.9514,-1618.93 L -22.9458,-1618.92
 L -22.8898,-1618.85 L -22.8841,-1618.84 L -22.8273,-1618.77 L -22.8215,-1618.76 L -22.764,-1618.69 L -22.7582,-1618.68
 L -22.7,-1618.61 L -22.6941,-1618.61 L -22.6351,-1618.54 L -22.6292,-1618.53 L -22.5695,-1618.46 L -22.5635,-1618.45
 L -22.5031,-1618.38 L -22.497,-1618.38 L -22.4359,-1618.31 L -22.4298,-1618.3 L -22.368,-1618.23 L -22.3618,-1618.23
 L -22.2993,-1618.16 L -22.293,-1618.15 L -22.2299,-1618.08 L -22.2236,-1618.08 L -22.1598,-1618.01 L -22.1533,-1618.01
 L -22.0889,-1617.94 L -22.0824,-1617.93 L -22.0173,-1617.87 L -22.0107,-1617.86 L -21.945,-1617.8 L -21.9383,-1617.79
 L -21.8719,-1617.73 L -21.8652,-1617.72 L -21.7982,-1617.66 L -21.7914,-1617.65 L -21.7238,-1617.59 L -21.7169,-1617.58
 L -21.6487,-1617.52 L -21.6418,-1617.52 L -21.5729,-1617.46 L -21.5659,-1617.45 L -21.4964,-1617.39 L -21.4894,-1617.38
 L -21.4193,-1617.33 L -21.4122,-1617.32 L -21.3415,-1617.26 L -21.3344,-1617.26 L -21.2631,-1617.2 L -21.2559,-1617.19
 L -21.184,-1617.13 L -21.1767,-1617.13 L -21.1043,-1617.07 L -21.097,-1617.07 L -21.024,-1617.01 L -21.0166,-1617.01
 L -20.943,-1616.95 L -20.9356,-1616.95 L -20.8615,-1616.89 L -20.854,-1616.89 L -20.7793,-1616.83 L -20.7718,-1616.83
 L -20.6966,-1616.77 L -20.689,-1616.77 L -20.6133,-1616.72 L -20.6057,-1616.71 L -20.5294,-1616.66 L -20.5217,-1616.66
 L -20.445,-1616.61 L -20.4372,-1616.6 L -20.36,-1616.55 L -20.3522,-1616.55 L -20.2744,-1616.5 L -20.2666,-1616.49
 L -20.1883,-1616.44 L -20.1804,-1616.44 L -20.1017,-1616.39 L -20.0938,-1616.39 L -20.0146,-1616.34 L -20.0066,-1616.34
 L -19.9269,-1616.29 L -19.9189,-1616.29 L -19.8388,-1616.24 L -19.8307,-1616.24 L -19.7501,-1616.19 L -19.742,-1616.19
 L -19.661,-1616.15 L -19.6528,-1616.14 L -19.5714,-1616.1 L -19.5632,-1616.1 L -19.4813,-1616.05 L -19.4731,-1616.05
 L -19.3908,-1616.01 L -19.3825,-1616 L -19.2998,-1615.96 L -19.2915,-1615.96 L -19.2084,-1615.92 L -19.2,-1615.92
 L -19.1165,-1615.88 L -19.1081,-1615.88 L -19.0242,-1615.84 L -19.0158,-1615.83 L -18.9316,-1615.8 L -18.9231,-1615.79
 L -18.8385,-1615.76 L -18.83,-1615.76 L -18.745,-1615.72 L -18.7365,-1615.72 L -18.6512,-1615.68 L -18.6426,-1615.68
 L -18.5569,-1615.65 L -18.5483,-1615.64 L -18.4623,-1615.61 L -18.4537,-1615.61 L -18.3674,-1615.58 L -18.3587,-1615.57
 L -18.2721,-1615.54 L -18.2634,-1615.54 L -18.1765,-1615.51 L -18.1678,-1615.51 L -18.0806,-1615.48 L -18.0718,-1615.48
 L -17.9843,-1615.45 L -17.9755,-1615.45 L -17.8877,-1615.42 L -17.8789,-1615.42 L -17.7909,-1615.39 L -17.782,-1615.39
 L -17.6937,-1615.36 L -17.6849,-1615.36 L -17.5963,-1615.34 L -17.5874,-1615.33 L -17.4986,-1615.31 L -17.4897,-1615.31
 L -17.4007,-1615.29 L -17.3918,-1615.28 L -17.3025,-1615.26 L -17.2936,-1615.26 L -17.2041,-1615.24 L -17.1951,-1615.24
 L -17.1055,-1615.22 L -17.0965,-1615.22 L -17.0066,-1615.2 L -16.9976,-1615.19 L -16.9075,-1615.18 L -16.8985,-1615.18
 L -16.8083,-1615.16 L -16.7992,-1615.16 L -16.7088,-1615.14 L -16.6998,-1615.14 L -16.6092,-1615.12 L -16.6002,-1615.12
 L -16.5094,-1615.11 L -16.5004,-1615.11 L -16.4095,-1615.09 L -16.4004,-1615.09 L -16.3094,-1615.08 L -16.3003,-1615.08
 L -16.2092,-1615.07 L -16.2001,-1615.07 L -16.1089,-1615.05 L -16.0998,-1615.05 L -16.0084,-1615.04 L -15.9993,-1615.04
 L -15.9079,-1615.03 L -15.8987,-1615.03 L -15.8072,-1615.03 L -15.7981,-1615.03 L -15.7065,-1615.02 L -15.6973,-1615.02
 L -15.6057,-1615.01 L -15.5965,-1615.01 L -15.5049,-1615.01 L -15.4957,-1615.01 L -15.4039,-1615 L -15.3948,-1615
 L -15.347,-1615 L 53.1703,-1615 L 55.2861,-1617.43 L 56.4565,-1618.69 L 59.0094,-1621.93 L 59.6592,-1622.71
 L 62.2978,-1626.42 L 62.5374,-1626.74 L 64.3685,-1629.61 L 65.1524,-1630.84 L 65.234,-1631 L 67.5547,-1635.08
 L 67.8838,-1635.76 L 69.7742,-1639.49 L 70.3209,-1640.76 L 71.8357,-1644.12 L 72.5764,-1646.05 L 73.7565,-1648.99
 L 74.6708,-1651.67 L 75.5484,-1654.12 L 76.6174,-1657.63 L 77.0906,-1659.12 L 77.1468,-2120 L 32.5821,-2120
 L 6.85953,-1649.58 L 6.8544,-1649.49 L 6.8538,-1649.48 L 6.8478,-1649.39 L 6.8471,-1649.38 L 6.84026,-1649.3
 L 6.83945,-1649.29 L 6.83173,-1649.2 L 6.83082,-1649.19 L 6.82225,-1649.11 L 6.82124,-1649.1 L 6.81179,-1649.01
 L 6.81067,-1649 L 6.80038,-1648.92 L 6.79917,-1648.91 L 6.78801,-1648.82 L 6.78669,-1648.81 L 6.77466,-1648.73
 L 6.77324,-1648.72 L 6.76037,-1648.63 L 6.75885,-1648.62 L 6.74512,-1648.54 L 6.74349,-1648.53 L 6.72891,-1648.44
 L 6.72718,-1648.43 L 6.71174,-1648.35 L 6.70991,-1648.34 L 6.69362,-1648.25 L 6.69169,-1648.24 L 6.67455,-1648.16
 L 6.67252,-1648.15 L 6.65453,-1648.07 L 6.6524,-1648.06 L 6.63357,-1647.97 L 6.63134,-1647.96 L 6.61166,-1647.88
 L 6.60933,-1647.87 L 6.5888,-1647.79 L 6.58637,-1647.78 L 6.56502,-1647.69 L 6.56249,-1647.68 L 6.54028,-1647.6
 L 6.53764,-1647.59 L 6.51461,-1647.51 L 6.51188,-1647.5 L 6.48802,-1647.41 L 6.48518,-1647.41 L 6.46049,-1647.32
 L 6.45756,-1647.31 L 6.43203,-1647.23 L 6.42899,-1647.22 L 6.40265,-1647.14 L 6.39952,-1647.13 L 6.37235,-1647.05
 L 6.36913,-1647.04 L 6.34113,-1646.96 L 6.3378,-1646.95 L 6.30899,-1646.87 L 6.30557,-1646.86 L 6.27595,-1646.78
 L 6.27243,-1646.77 L 6.242,-1646.69 L 6.23838,-1646.68 L 6.20713,-1646.6 L 6.20342,-1646.59 L 6.17137,-1646.51
 L 6.16756,-1646.5 L 6.13471,-1646.42 L 6.1308,-1646.41 L 6.09716,-1646.33 L 6.09316,-1646.32 L 6.05871,-1646.24
 L 6.05461,-1646.23 L 6.01939,-1646.16 L 6.01519,-1646.15 L 5.97918,-1646.07 L 5.97488,-1646.06 L 5.93808,-1645.98
 L 5.9337,-1645.97 L 5.89613,-1645.9 L 5.89164,-1645.89 L 5.85329,-1645.81 L 5.84871,-1645.8 L 5.80959,-1645.73
 L 5.80492,-1645.72 L 5.76503,-1645.64 L 5.76027,-1645.63 L 5.71962,-1645.56 L 5.71477,-1645.55 L 5.67335,-1645.47
 L 5.6684,-1645.46 L 5.62624,-1645.39 L 5.6212,-1645.38 L 5.57828,-1645.3 L 5.57314,-1645.3 L 5.52948,-1645.22
 L 5.52426,-1645.21 L 5.47987,-1645.14 L 5.47455,-1645.13 L 5.4294,-1645.06 L 5.424,-1645.05 L 5.37813,-1644.98
 L 5.37264,-1644.97 L 5.32604,-1644.9 L 5.32046,-1644.89 L 5.27314,-1644.82 L 5.26747,-1644.81 L 5.21943,-1644.74
 L 5.21367,-1644.73 L 5.16492,-1644.66 L 5.15908,-1644.65 L 5.10962,-1644.58 L 5.10369,-1644.57 L 5.05352,-1644.5
 L 5.0475,-1644.49 L 4.99664,-1644.42 L 4.99054,-1644.42 L 4.93899,-1644.35 L 4.9328,-1644.34 L 4.88057,-1644.27
 L 4.87429,-1644.26 L 4.82137,-1644.2 L 4.81501,-1644.19 L 4.76141,-1644.12 L 4.75497,-1644.11 L 4.70071,-1644.05
 L 4.69418,-1644.04 L 4.63925,-1643.97 L 4.63264,-1643.97 L 4.57706,-1643.9 L 4.57036,-1643.89 L 4.51413,-1643.83
 L 4.50736,-1643.82 L 4.45047,-1643.76 L 4.44362,-1643.75 L 4.38608,-1643.68 L 4.37915,-1643.68 L 4.321,-1643.61
 L 4.31398,-1643.61 L 4.25519,-1643.54 L 4.24809,-1643.54 L 4.18867,-1643.47 L 4.1815,-1643.47 L 4.12148,-1643.41
 L 4.11423,-1643.4 L 4.05359,-1643.34 L 4.04626,-1643.33 L 3.985,-1643.27 L 3.9776,-1643.26 L 3.91576,-1643.2
 L 3.90829,-1643.2 L 3.84585,-1643.14 L 3.83829,-1643.13 L 3.77527,-1643.07 L 3.76764,-1643.07 L 3.70403,-1643.01
 L 3.69633,-1643 L 3.63217,-1642.95 L 3.62439,-1642.94 L 3.55966,-1642.88 L 3.55181,-1642.88 L 3.48651,-1642.82
 L 3.47859,-1642.81 L 3.41273,-1642.76 L 3.40474,-1642.75 L 3.33835,-1642.7 L 3.33029,-1642.69 L 3.26335,-1642.64
 L 3.25522,-1642.63 L 3.18777,-1642.58 L 3.17957,-1642.57 L 3.11157,-1642.52 L 3.10331,-1642.52 L 3.0348,-1642.46
 L 3.02647,-1642.46 L 2.95745,-1642.41 L 2.94905,-1642.4 L 2.87953,-1642.35 L 2.87106,-1642.35 L 2.80105,-1642.3
 L 2.79252,-1642.29 L 2.72202,-1642.24 L 2.71343,-1642.24 L 2.64244,-1642.19 L 2.63378,-1642.18 L 2.56232,-1642.14
 L 2.5536,-1642.13 L 2.48166,-1642.08 L 2.47288,-1642.08 L 2.4005,-1642.03 L 2.39166,-1642.03 L 2.31882,-1641.98
 L 2.30992,-1641.98 L 2.23662,-1641.93 L 2.22767,-1641.93 L 2.15394,-1641.88 L 2.14493,-1641.88 L 2.07077,-1641.84
 L 2.0617,-1641.83 L 1.98712,-1641.79 L 1.97798,-1641.78 L 1.903,-1641.74 L 1.89381,-1641.74 L 1.81842,-1641.7
 L 1.80918,-1641.69 L 1.73337,-1641.65 L 1.72407,-1641.65 L 1.64789,-1641.61 L 1.63854,-1641.6 L 1.56197,-1641.57
 L 1.55257,-1641.56 L 1.47564,-1641.52 L 1.46619,-1641.52 L 1.38886,-1641.48 L 1.37936,-1641.48 L 1.30169,-1641.44
 L 1.29214,-1641.44 L 1.21411,-1641.4 L 1.20451,-1641.4 L 1.12615,-1641.37 L 1.1165,-1641.36 L 1.03781,-1641.33
 L 1.02811,-1641.32 L 0.949085,-1641.29 L 0.939344,-1641.29 L 0.859999,-1641.26 L 0.850214,-1641.25 L 0.770549,-1641.22
 L 0.760719,-1641.22 L 0.680763,-1641.19 L 0.670892,-1641.18 L 0.590632,-1641.15 L 0.580717,-1641.15 L 0.50018,-1641.12
 L 0.490226,-1641.12 L 0.409398,-1641.09 L 0.399402,-1641.09 L 0.318312,-1641.06 L 0.308278,-1641.06 L 0.226925,-1641.03
 L 0.216852,-1641.03 L 0.135249,-1641 L 0.12514,-1641 L 0.043289,-1640.98 L 0.0331433,-1640.97 L -0.0489431,-1640.95
 L -0.0591238,-1640.95 L -0.141431,-1640.92 L -0.151645,-1640.92 L -0.234174,-1640.9 L -0.244421,-1640.9 L -0.327171,-1640.88
 L -0.337452,-1640.87 L -0.420395,-1640.85 L -0.430706,-1640.85 L -0.513842,-1640.83 L -0.524183,-1640.83 L -0.607513,-1640.81
 L -0.617884,-1640.81 L -0.70138,-1640.79 L -0.711777,-1640.79 L -0.795453,-1640.77 L -0.805879,-1640.77 L -0.889706,-1640.75
 L -0.900157,-1640.75 L -0.984137,-1640.74 L -0.994613,-1640.73 L -1.07875,-1640.72 L -1.08925,-1640.72 L -1.1735,-1640.7
 L -1.18403,-1640.7 L -1.26841,-1640.69 L -1.27895,-1640.69 L -1.36346,-1640.68 L -1.37402,-1640.68 L -1.42856,-1640.67
 L -20.6123,-1641.72 L -20.6838,-1641.69 L -20.6958,-1641.69 L -20.778,-1641.65 L -20.79,-1641.65 L -20.8718,-1641.62
 L -20.8838,-1641.61 L -20.9652,-1641.58 L -20.9772,-1641.57 L -21.0583,-1641.54 L -21.0702,-1641.53 L -21.1509,-1641.5
 L -21.1628,-1641.49 L -21.2432,-1641.46 L -21.255,-1641.45 L -21.335,-1641.42 L -21.3467,-1641.41 L -21.4264,-1641.37
 L -21.438,-1641.37 L -21.5173,-1641.33 L -21.5289,-1641.32 L -21.6078,-1641.28 L -21.6194,-1641.28 L -21.6978,-1641.24
 L -21.7094,-1641.23 L -21.7874,-1641.19 L -21.7989,-1641.19 L -21.8765,-1641.14 L -21.8879,-1641.14 L -21.9651,-1641.1
 L -21.9765,-1641.09 L -22.0532,-1641.05 L -22.0645,-1641.04 L -22.1408,-1641 L -22.1521,-1640.99 L -22.2279,-1640.94
 L -22.2391,-1640.94 L -22.3145,-1640.89 L -22.3256,-1640.89 L -22.4005,-1640.84 L -22.4116,-1640.83 L -22.4861,-1640.79
 L -22.497,-1640.78 L -22.571,-1640.73 L -22.5819,-1640.72 L -22.6554,-1640.68 L -22.6663,-1640.67 L -22.7393,-1640.62
 L -22.75,-1640.61 L -22.8225,-1640.56 L -22.8332,-1640.55 L -22.9052,-1640.5 L -22.9158,-1640.5 L -22.9873,-1640.44
 L -22.9978,-1640.44 L -23.0688,-1640.38 L -23.0793,-1640.38 L -23.1497,-1640.32 L -23.1601,-1640.32 L -23.2299,-1640.26
 L -23.2403,-1640.25 L -23.3096,-1640.2 L -23.3198,-1640.19 L -23.3886,-1640.14 L -23.3988,-1640.13 L -23.467,-1640.07
 L -23.477,-1640.07 L -23.5447,-1640.01 L -23.5547,-1640 L -23.6218,-1639.94 L -23.6317,-1639.94 L -23.6982,-1639.88
 L -23.708,-1639.87 L -23.7739,-1639.81 L -23.7837,-1639.8 L -23.849,-1639.74 L -23.8586,-1639.73 L -23.9233,-1639.68
 L -23.9329,-1639.67 L -23.997,-1639.61 L -24.0065,-1639.6 L -24.07,-1639.54 L -24.0794,-1639.53 L -24.1422,-1639.47
 L -24.1516,-1639.46 L -24.2138,-1639.39 L -24.223,-1639.39 L -24.2846,-1639.32 L -24.2937,-1639.31 L -24.3547,-1639.25
 L -24.3637,-1639.24 L -24.424,-1639.18 L -24.433,-1639.17 L -24.4927,-1639.1 L -24.5015,-1639.09 L -24.5605,-1639.03
 L -24.5693,-1639.02 L -24.6276,-1638.95 L -24.6363,-1638.94 L -24.6939,-1638.88 L -24.7025,-1638.87 L -24.7595,-1638.8
 L -24.7679,-1638.79 L -24.8243,-1638.72 L -24.8326,-1638.71 L -24.8883,-1638.64 L -24.8965,-1638.63 L -24.9514,-1638.56
 L -24.9596,-1638.55 L -25,-1638.5 z
" stroke="black" fill="lightgray" stroke-width="0.5"/>
</svg>
