<?xml version="1.0" standalone="no"?>
<!DOCTYPE svg PUBLIC "-//W3C//DTD SVG 1.1//EN" "http://www.w3.org/Graphics/SVG/1.1/DTD/svg11.dtd">
<svg width="83mm" height="507mm" viewBox="-25 -2121 83 507" xmlns="http://www.w3.org/2000/svg" version="1.1">
<title>OpenSCAD Model</title>
<path d="
M -25,-1624.98 L -24.9999,-1624.98 L -24.9999,-1624.93 L -24.9995,-1624.89 L -24.9988,-1624.83 L -24.9981,-1624.79
 L -24.9968,-1624.73 L -24.9957,-1624.69 L -24.9937,-1624.63 L -24.9923,-1624.59 L -24.9897,-1624.53 L -24.9878,-1624.49
 L -24.9846,-1624.43 L -24.9823,-1624.39 L -24.9784,-1624.32 L -24.9758,-1624.29 L -24.9713,-1624.22 L -24.9683,-1624.19
 L -24.9632,-1624.12 L -24.9598,-1624.09 L -24.954,-1624.02 L -24.9503,-1623.99 L -24.9438,-1623.92 L -24.9397,-1623.89
 L -24.9326,-1623.82 L -24.9281,-1623.79 L -24.9204,-1623.72 L -24.9156,-1623.69 L -24.9072,-1623.62 L -24.902,-1623.58
 L -24.8929,-1623.52 L -24.8874,-1623.49 L -24.8777,-1623.42 L -24.8718,-1623.39 L -24.8614,-1623.32 L -24.8551,-1623.29
 L -24.8441,-1623.22 L -24.8375,-1623.19 L -24.8259,-1623.12 L -24.8189,-1623.09 L -24.8066,-1623.02 L -24.7992,-1622.99
 L -24.7863,-1622.92 L -24.7786,-1622.89 L -24.7651,-1622.83 L -24.757,-1622.79 L -24.7428,-1622.73 L -24.7344,-1622.69
 L -24.7195,-1622.63 L -24.7107,-1622.59 L -24.6953,-1622.53 L -24.6861,-1622.5 L -24.6701,-1622.43 L -24.6605,-1622.4
 L -24.6438,-1622.34 L -24.6339,-1622.3 L -24.6166,-1622.24 L -24.6064,-1622.2 L -24.5884,-1622.14 L -24.5778,-1622.11
 L -24.5593,-1622.04 L -24.5483,-1622.01 L -24.5291,-1621.95 L -24.5178,-1621.91 L -24.498,-1621.85 L -24.4863,-1621.82
 L -24.4659,-1621.76 L -24.4539,-1621.72 L -24.4328,-1621.66 L -24.4205,-1621.63 L -24.3988,-1621.57 L -24.3861,-1621.53
 L -24.3639,-1621.47 L -24.3508,-1621.44 L -24.3279,-1621.38 L -24.3145,-1621.34 L -24.291,-1621.28 L -24.2773,-1621.25
 L -24.2532,-1621.19 L -24.2391,-1621.16 L -24.2144,-1621.1 L -24.2,-1621.06 L -24.1747,-1621 L -24.1599,-1620.97
 L -24.1341,-1620.91 L -24.119,-1620.88 L -24.0925,-1620.82 L -24.077,-1620.79 L -24.05,-1620.73 L -24.0342,-1620.69
 L -24.0065,-1620.64 L -23.9904,-1620.6 L -23.9622,-1620.54 L -23.9457,-1620.51 L -23.9169,-1620.45 L -23.9001,-1620.42
 L -23.8707,-1620.36 L -23.8536,-1620.33 L -23.8237,-1620.28 L -23.8062,-1620.24 L -23.7757,-1620.19 L -23.7579,-1620.15
 L -23.7268,-1620.1 L -23.7087,-1620.07 L -23.677,-1620.01 L -23.6586,-1619.98 L -23.6264,-1619.92 L -23.6076,-1619.89
 L -23.5748,-1619.84 L -23.5558,-1619.8 L -23.5224,-1619.75 L -23.5031,-1619.72 L -23.4691,-1619.66 L -23.4495,-1619.63
 L -23.415,-1619.58 L -23.395,-1619.55 L -23.36,-1619.49 L -23.3397,-1619.46 L -23.3042,-1619.41 L -23.2835,-1619.38
 L -23.2475,-1619.33 L -23.2265,-1619.3 L -23.1899,-1619.24 L -23.1687,-1619.21 L -23.1315,-1619.16 L -23.11,-1619.13
 L -23.0723,-1619.08 L -23.0505,-1619.05 L -23.0123,-1619 L -22.9902,-1618.97 L -22.9514,-1618.92 L -22.929,-1618.89
 L -22.8898,-1618.84 L -22.8671,-1618.81 L -22.8273,-1618.76 L -22.8043,-1618.73 L -22.764,-1618.68 L -22.7407,-1618.65
 L -22.7,-1618.6 L -22.6764,-1618.57 L -22.6351,-1618.52 L -22.6113,-1618.5 L -22.5695,-1618.45 L -22.5454,-1618.42
 L -22.5031,-1618.37 L -22.4787,-1618.34 L -22.4359,-1618.29 L -22.4112,-1618.27 L -22.368,-1618.22 L -22.3431,-1618.19
 L -22.2993,-1618.15 L -22.2741,-1618.12 L -22.2299,-1618.07 L -22.2044,-1618.05 L -22.1598,-1618 L -22.134,-1617.97
 L -22.0889,-1617.93 L -22.0629,-1617.9 L -22.0173,-1617.86 L -21.991,-1617.83 L -21.945,-1617.79 L -21.9184,-1617.76
 L -21.8719,-1617.72 L -21.8451,-1617.69 L -21.7982,-1617.65 L -21.7711,-1617.62 L -21.7238,-1617.58 L -21.6965,-1617.55
 L -21.6487,-1617.51 L -21.6211,-1617.49 L -21.5729,-1617.44 L -21.5451,-1617.42 L -21.4964,-1617.38 L -21.4683,-1617.35
 L -21.4193,-1617.31 L -21.391,-1617.29 L -21.3415,-1617.25 L -21.313,-1617.23 L -21.2631,-1617.19 L -21.2343,-1617.16
 L -21.184,-1617.12 L -21.155,-1617.1 L -21.1043,-1617.06 L -21.0751,-1617.04 L -21.024,-1617 L -20.9945,-1616.98
 L -20.943,-1616.94 L -20.9134,-1616.92 L -20.8615,-1616.88 L -20.8316,-1616.86 L -20.7793,-1616.82 L -20.7493,-1616.8
 L -20.6966,-1616.76 L -20.6663,-1616.74 L -20.6133,-1616.7 L -20.5828,-1616.68 L -20.5294,-1616.65 L -20.4987,-1616.63
 L -20.445,-1616.59 L -20.4141,-1616.57 L -20.36,-1616.54 L -20.3289,-1616.52 L -20.2744,-1616.48 L -20.2431,-1616.47
 L -20.1883,-1616.43 L -20.1568,-1616.41 L -20.1017,-1616.38 L -20.07,-1616.36 L -20.0146,-1616.33 L -19.9827,-1616.31
 L -19.9269,-1616.28 L -19.8949,-1616.26 L -19.8388,-1616.23 L -19.8065,-1616.21 L -19.7501,-1616.18 L -19.7177,-1616.16
 L -19.661,-1616.13 L -19.6284,-1616.12 L -19.5714,-1616.09 L -19.5386,-1616.07 L -19.4813,-1616.04 L -19.4484,-1616.02
 L -19.3908,-1616 L -19.3577,-1615.98 L -19.2998,-1615.95 L -19.2665,-1615.94 L -19.2084,-1615.91 L -19.175,-1615.89
 L -19.1165,-1615.87 L -19.083,-1615.85 L -19.0242,-1615.83 L -18.9905,-1615.81 L -18.9316,-1615.79 L -18.8977,-1615.77
 L -18.8385,-1615.75 L -18.8045,-1615.73 L -18.745,-1615.71 L -18.7109,-1615.7 L -18.6512,-1615.67 L -18.6169,-1615.66
 L -18.5569,-1615.63 L -18.5225,-1615.62 L -18.4623,-1615.6 L -18.4278,-1615.59 L -18.3674,-1615.56 L -18.3328,-1615.55
 L -18.2721,-1615.53 L -18.2374,-1615.52 L -18.1765,-1615.5 L -18.1416,-1615.49 L -18.0806,-1615.47 L -18.0455,-1615.46
 L -17.9843,-1615.44 L -17.9492,-1615.43 L -17.8877,-1615.41 L -17.8525,-1615.4 L -17.7909,-1615.38 L -17.7555,-1615.37
 L -17.6937,-1615.35 L -17.6583,-1615.34 L -17.5963,-1615.32 L -17.5608,-1615.31 L -17.4986,-1615.3 L -17.463,-1615.29
 L -17.4007,-1615.27 L -17.365,-1615.26 L -17.3025,-1615.25 L -17.2667,-1615.24 L -17.2041,-1615.23 L -17.1682,-1615.22
 L -17.1055,-1615.21 L -17.0695,-1615.2 L -17.0066,-1615.18 L -16.9706,-1615.18 L -16.9075,-1615.16 L -16.8714,-1615.16
 L -16.8083,-1615.15 L -16.7721,-1615.14 L -16.7088,-1615.13 L -16.6726,-1615.12 L -16.6092,-1615.11 L -16.5729,-1615.11
 L -16.5094,-1615.1 L -16.4731,-1615.09 L -16.4095,-1615.08 L -16.3731,-1615.08 L -16.3094,-1615.07 L -16.273,-1615.06
 L -16.2092,-1615.05 L -16.1727,-1615.05 L -16.1089,-1615.04 L -16.0724,-1615.04 L -16.0084,-1615.03 L -15.9719,-1615.03
 L -15.9079,-1615.02 L -15.8713,-1615.02 L -15.8072,-1615.01 L -15.7706,-1615.01 L -15.7065,-1615.01 L -15.6699,-1615
 L -15.6064,-1615 L -12.2194,-1615 L -11.1211,-1615.43 L -8.20876,-1616.53 L -3.73845,-1618.52 L -1.3493,-1619.56
 L 2.65841,-1621.61 L 4.60879,-1622.58 L 8.18176,-1624.7 L 9.76347,-1625.62 L 12.9474,-1627.8 L 14.22,-1628.66
 L 17.0732,-1630.94 L 18.0879,-1631.73 L 20.6749,-1634.14 L 21.4747,-1634.87 L 23.8591,-1637.46 L 24.4786,-1638.12
 L 26.7161,-1640.95 L 27.1814,-1641.53 L 29.3153,-1644.68 L 29.6446,-1645.16 L 31.7033,-1648.71 L 31.9094,-1649.06
 L 33.9071,-1653.09 L 33.9995,-1653.27 L 35.6936,-1657.27 L 35.9271,-1657.82 L 35.9377,-1657.85 L 37.6988,-1662.73
 L 37.7928,-1663.04 L 39.3127,-1667.98 L 39.4773,-1668.63 L 40.769,-1673.58 L 40.9901,-1674.61 L 42.0691,-1679.52
 L 42.3315,-1680.96 L 43.2158,-1685.77 L 43.5045,-1687.68 L 44.2139,-1692.31 L 44.5141,-1694.73 L 45.0694,-1699.13
 L 45.3674,-1702.08 L 45.7897,-1706.2 L 46.0731,-1709.71 L 46.383,-1713.5 L 46.6405,-1717.6 L 46.8578,-1721.01
 L 47.08,-1725.71 L 47.2232,-1728.71 L 47.4019,-1734.04 L 47.4882,-1736.59 L 47.6168,-1742.55 L 47.6617,-1744.62
 L 47.7351,-1751.21 L 47.7523,-1752.78 L 47.7667,-1760.02 L 47.7685,-1761.05 L 47.7215,-1768.94 L 47.7184,-1769.43
 L 47.6236,-1776.8 L 47.6102,-1777.89 L 47.6089,-1777.97 L 47.4541,-1786.42 L 47.4395,-1787.06 L 47.2536,-1795
 L 47.2208,-1796.22 L 47.0153,-1803.62 L 46.9604,-1805.42 L 46.7451,-1812.26 L 46.6657,-1814.63 L 46.4489,-1820.91
 L 46.3433,-1823.85 L 46.132,-1829.56 L 45.9995,-1833.06 L 45.7994,-1838.19 L 45.6402,-1842.23 L 45.4557,-1846.79
 L 45.2707,-1851.36 L 45.1053,-1855.35 L 44.8963,-1860.44 L 44.7523,-1863.85 L 44.5214,-1869.44 L 44.4003,-1872.29
 L 44.1505,-1878.35 L 44.053,-1880.66 L 43.7875,-1887.17 L 43.7136,-1888.93 L 43.4361,-1895.87 L 43.3851,-1897.12
 L 43.0999,-1904.46 L 43.0704,-1905.19 L 42.782,-1912.91 L 42.7723,-1913.16 L 42.6224,-1917.37 L 42.4951,-1921.01
 L 42.4884,-1921.21 L 42.2415,-1928.72 L 42.2226,-1929.36 L 42.0116,-1936.31 L 41.9836,-1937.36 L 41.8076,-1943.75
 L 41.774,-1945.18 L 41.6316,-1951.05 L 41.5959,-1952.84 L 41.4856,-1958.2 L 41.4519,-1960.33 L 41.3716,-1965.19
 L 41.344,-1967.64 L 41.2917,-1972.03 L 41.2745,-1974.77 L 41.2478,-1978.72 L 41.2457,-1981.72 L 41.2419,-1985.25
 L 41.2597,-1988.5 L 41.276,-1991.61 L 41.3188,-1995.09 L 41.3522,-1997.83 L 41.4253,-2001.51 L 41.4726,-2003.88
 L 41.5817,-2007.75 L 41.6395,-2009.78 L 41.7906,-2013.82 L 41.8552,-2015.54 L 42.0545,-2019.73 L 42.1222,-2021.14
 L 42.3763,-2025.48 L 42.4429,-2026.6 L 42.7589,-2031.08 L 42.8199,-2031.93 L 43.2054,-2036.53 L 43.256,-2037.13
 L 43.719,-2041.84 L 43.754,-2042.19 L 44.3027,-2047.02 L 44.3166,-2047.14 L 44.6566,-2049.74 L 44.9478,-2051.97
 L 44.9619,-2052.06 L 45.6504,-2056.68 L 45.6998,-2056.98 L 46.4249,-2061.29 L 46.5162,-2061.79 L 47.2729,-2065.8
 L 47.4129,-2066.48 L 48.1955,-2070.2 L 48.3911,-2071.06 L 49.1929,-2074.5 L 49.4508,-2075.53 L 50.2642,-2078.71
 L 50.5909,-2079.9 L 51.4074,-2082.81 L 51.8085,-2084.15 L 52.6191,-2086.81 L 53.0991,-2088.3 L 53.8945,-2090.71
 L 54.4565,-2092.33 L 55.2272,-2094.5 L 55.8725,-2096.23 L 56.6094,-2098.18 L 57.3209,-2099.98 L 57.3224,-2120
 L 34.2326,-2120 L 8.13591,-1649.43 L 8.13225,-1649.37 L 8.13011,-1649.34 L 8.12583,-1649.28 L 8.12334,-1649.24
 L 8.11846,-1649.18 L 8.11562,-1649.15 L 8.11011,-1649.09 L 8.10691,-1649.05 L 8.10081,-1648.99 L 8.09726,-1648.96
 L 8.09054,-1648.89 L 8.08662,-1648.86 L 8.0793,-1648.8 L 8.07504,-1648.76 L 8.06711,-1648.7 L 8.06249,-1648.67
 L 8.05395,-1648.61 L 8.04897,-1648.57 L 8.03983,-1648.51 L 8.03451,-1648.48 L 8.02476,-1648.42 L 8.01908,-1648.38
 L 8.00872,-1648.33 L 8.00269,-1648.29 L 7.99174,-1648.23 L 7.98535,-1648.2 L 7.9738,-1648.14 L 7.96706,-1648.1
 L 7.9549,-1648.04 L 7.94782,-1648.01 L 7.93506,-1647.95 L 7.92763,-1647.91 L 7.91427,-1647.85 L 7.90649,-1647.82
 L 7.89254,-1647.76 L 7.88441,-1647.73 L 7.86986,-1647.67 L 7.86138,-1647.63 L 7.84625,-1647.58 L 7.83743,-1647.54
 L 7.82169,-1647.48 L 7.81252,-1647.45 L 7.79619,-1647.39 L 7.78668,-1647.36 L 7.76977,-1647.3 L 7.75992,-1647.26
 L 7.74242,-1647.21 L 7.73222,-1647.17 L 7.71413,-1647.11 L 7.70359,-1647.08 L 7.68492,-1647.02 L 7.67404,-1646.99
 L 7.6548,-1646.93 L 7.64358,-1646.9 L 7.62375,-1646.84 L 7.61219,-1646.81 L 7.59178,-1646.75 L 7.57988,-1646.72
 L 7.55891,-1646.66 L 7.54668,-1646.63 L 7.52513,-1646.57 L 7.51256,-1646.54 L 7.49043,-1646.48 L 7.47753,-1646.45
 L 7.45484,-1646.39 L 7.44161,-1646.36 L 7.41834,-1646.3 L 7.40478,-1646.27 L 7.38096,-1646.21 L 7.36708,-1646.18
 L 7.34268,-1646.13 L 7.32846,-1646.09 L 7.30352,-1646.04 L 7.28898,-1646.01 L 7.26348,-1645.95 L 7.2486,-1645.92
 L 7.22255,-1645.86 L 7.20735,-1645.83 L 7.18075,-1645.78 L 7.16523,-1645.75 L 7.13808,-1645.69 L 7.12224,-1645.66
 L 7.09454,-1645.61 L 7.07838,-1645.58 L 7.05014,-1645.52 L 7.03367,-1645.49 L 7.00489,-1645.44 L 6.9881,-1645.41
 L 6.95878,-1645.35 L 6.94168,-1645.32 L 6.91182,-1645.27 L 6.89441,-1645.24 L 6.86402,-1645.19 L 6.84629,-1645.16
 L 6.81538,-1645.1 L 6.79735,-1645.07 L 6.76592,-1645.02 L 6.74758,-1644.99 L 6.71562,-1644.94 L 6.69697,-1644.91
 L 6.66449,-1644.86 L 6.64554,-1644.83 L 6.61255,-1644.78 L 6.59331,-1644.75 L 6.5598,-1644.7 L 6.54026,-1644.67
 L 6.50624,-1644.62 L 6.4864,-1644.59 L 6.45188,-1644.54 L 6.43175,-1644.51 L 6.39673,-1644.46 L 6.3763,-1644.43
 L 6.34078,-1644.38 L 6.32006,-1644.35 L 6.28405,-1644.3 L 6.26304,-1644.28 L 6.22654,-1644.23 L 6.20524,-1644.2
 L 6.16826,-1644.15 L 6.14668,-1644.12 L 6.10921,-1644.08 L 6.08734,-1644.05 L 6.04939,-1644 L 6.02724,-1643.97
 L 5.98883,-1643.93 L 5.9664,-1643.9 L 5.92751,-1643.85 L 5.90481,-1643.83 L 5.86546,-1643.78 L 5.84248,-1643.75
 L 5.80266,-1643.71 L 5.77942,-1643.68 L 5.73914,-1643.64 L 5.71562,-1643.61 L 5.67489,-1643.56 L 5.65111,-1643.54
 L 5.60993,-1643.49 L 5.58589,-1643.47 L 5.54426,-1643.42 L 5.51995,-1643.4 L 5.47788,-1643.35 L 5.45331,-1643.33
 L 5.41081,-1643.29 L 5.38598,-1643.26 L 5.34305,-1643.22 L 5.31797,-1643.19 L 5.27459,-1643.15 L 5.24926,-1643.13
 L 5.20547,-1643.08 L 5.1799,-1643.06 L 5.13568,-1643.02 L 5.10986,-1642.99 L 5.06523,-1642.95 L 5.03915,-1642.93
 L 4.99412,-1642.89 L 4.9678,-1642.86 L 4.92237,-1642.82 L 4.89582,-1642.8 L 4.84998,-1642.76 L 4.82319,-1642.74
 L 4.77695,-1642.7 L 4.74992,-1642.68 L 4.70329,-1642.64 L 4.67603,-1642.61 L 4.62902,-1642.58 L 4.60154,-1642.55
 L 4.55414,-1642.52 L 4.52643,-1642.49 L 4.47866,-1642.46 L 4.45073,-1642.44 L 4.40258,-1642.4 L 4.37442,-1642.38
 L 4.32591,-1642.34 L 4.29755,-1642.32 L 4.24867,-1642.28 L 4.22009,-1642.26 L 4.17085,-1642.23 L 4.14206,-1642.21
 L 4.09248,-1642.17 L 4.06348,-1642.15 L 4.01355,-1642.12 L 3.98435,-1642.1 L 3.93407,-1642.06 L 3.90467,-1642.04
 L 3.85405,-1642.01 L 3.82445,-1641.99 L 3.7735,-1641.96 L 3.74369,-1641.94 L 3.69243,-1641.91 L 3.66243,-1641.89
 L 3.61084,-1641.86 L 3.58065,-1641.84 L 3.52874,-1641.81 L 3.49837,-1641.79 L 3.44615,-1641.76 L 3.4156,-1641.74
 L 3.36307,-1641.71 L 3.33234,-1641.69 L 3.27951,-1641.66 L 3.24859,-1641.65 L 3.19547,-1641.62 L 3.16438,-1641.6
 L 3.11098,-1641.57 L 3.07972,-1641.56 L 3.02602,-1641.53 L 2.99459,-1641.51 L 2.94062,-1641.48 L 2.90903,-1641.47
 L 2.85478,-1641.44 L 2.82302,-1641.42 L 2.76852,-1641.4 L 2.73661,-1641.38 L 2.68183,-1641.36 L 2.64976,-1641.34
 L 2.59473,-1641.32 L 2.56251,-1641.3 L 2.50723,-1641.28 L 2.47486,-1641.26 L 2.41934,-1641.24 L 2.38682,-1641.23
 L 2.33106,-1641.2 L 2.29841,-1641.19 L 2.24241,-1641.16 L 2.20961,-1641.15 L 2.1534,-1641.13 L 2.12046,-1641.12
 L 2.06401,-1641.09 L 2.03094,-1641.08 L 1.97429,-1641.06 L 1.94109,-1641.05 L 1.88422,-1641.03 L 1.8509,-1641.01
 L 1.79383,-1640.99 L 1.76039,-1640.98 L 1.70311,-1640.96 L 1.66954,-1640.95 L 1.61208,-1640.93 L 1.5784,-1640.92
 L 1.52075,-1640.9 L 1.48696,-1640.89 L 1.42913,-1640.87 L 1.39523,-1640.86 L 1.33722,-1640.85 L 1.30321,-1640.84
 L 1.24504,-1640.82 L 1.21093,-1640.81 L 1.1526,-1640.79 L 1.11839,-1640.79 L 1.0599,-1640.77 L 1.0256,-1640.76
 L 0.966951,-1640.75 L 0.932557,-1640.74 L 0.873768,-1640.72 L 0.83929,-1640.72 L 0.780362,-1640.7 L 0.7458,-1640.69
 L 0.686734,-1640.68 L 0.652087,-1640.67 L 0.592902,-1640.66 L 0.558182,-1640.65 L 0.498869,-1640.64 L 0.46407,-1640.63
 L 0.404648,-1640.62 L 0.369783,-1640.62 L 0.31025,-1640.61 L 0.275318,-1640.6 L 0.215676,-1640.59 L 0.180677,-1640.58
 L 0.120945,-1640.57 L 0.0858905,-1640.57 L 0.026069,-1640.56 L -0.00904152,-1640.55 L -0.0689524,-1640.55 L -0.104118,-1640.54
 L -0.164101,-1640.53 L -0.199311,-1640.53 L -0.259373,-1640.52 L -0.294633,-1640.52 L -0.354755,-1640.51 L -0.390054,-1640.51
 L -0.450238,-1640.5 L -0.485576,-1640.5 L -0.54582,-1640.49 L -0.581196,-1640.49 L -0.641482,-1640.49 L -0.676885,-1640.48
 L -0.737212,-1640.48 L -0.772642,-1640.48 L -0.833001,-1640.47 L -0.868454,-1640.47 L -0.928844,-1640.47 L -0.964318,-1640.47
 L -1.02473,-1640.47 L -1.05846,-1640.46 L -19.6294,-1641.49 L -19.635,-1641.49 L -19.6934,-1641.47 L -19.7283,-1641.45
 L -19.7864,-1641.43 L -19.8212,-1641.41 L -19.8791,-1641.39 L -19.9138,-1641.37 L -19.9714,-1641.35 L -20.0059,-1641.33
 L -20.0632,-1641.31 L -20.0975,-1641.29 L -20.1546,-1641.26 L -20.1888,-1641.25 L -20.2456,-1641.22 L -20.2796,-1641.2
 L -20.3361,-1641.17 L -20.37,-1641.16 L -20.4262,-1641.13 L -20.4598,-1641.11 L -20.5158,-1641.08 L -20.5493,-1641.06
 L -20.6049,-1641.03 L -20.6382,-1641.02 L -20.6936,-1640.98 L -20.7267,-1640.97 L -20.7817,-1640.94 L -20.8146,-1640.92
 L -20.8693,-1640.89 L -20.9021,-1640.87 L -20.9565,-1640.83 L -20.989,-1640.81 L -21.0431,-1640.78 L -21.0754,-1640.76
 L -21.1292,-1640.73 L -21.1613,-1640.71 L -21.2147,-1640.68 L -21.2467,-1640.66 L -21.2997,-1640.62 L -21.3314,-1640.6
 L -21.3842,-1640.57 L -21.4157,-1640.54 L -21.468,-1640.51 L -21.4993,-1640.49 L -21.5513,-1640.45 L -21.5824,-1640.43
 L -21.634,-1640.39 L -21.6649,-1640.37 L -21.7162,-1640.34 L -21.7468,-1640.31 L -21.7977,-1640.28 L -21.8282,-1640.25
 L -21.8786,-1640.22 L -21.9088,-1640.19 L -21.959,-1640.15 L -21.9889,-1640.13 L -22.0386,-1640.09 L -22.0684,-1640.07
 L -22.1177,-1640.03 L -22.1472,-1640.01 L -22.1961,-1639.97 L -22.2254,-1639.94 L -22.2739,-1639.9 L -22.3029,-1639.88
 L -22.351,-1639.84 L -22.3798,-1639.81 L -22.4275,-1639.77 L -22.456,-1639.74 L -22.5032,-1639.7 L -22.5315,-1639.68
 L -22.5784,-1639.64 L -22.6064,-1639.61 L -22.6528,-1639.57 L -22.6805,-1639.54 L -22.7265,-1639.5 L -22.754,-1639.47
 L -22.7995,-1639.43 L -22.8267,-1639.4 L -22.8718,-1639.36 L -22.8988,-1639.33 L -22.9434,-1639.29 L -22.9701,-1639.26
 L -23.0143,-1639.21 L -23.0407,-1639.19 L -23.0845,-1639.14 L -23.1106,-1639.11 L -23.1539,-1639.07 L -23.1797,-1639.04
 L -23.2225,-1638.99 L -23.2481,-1638.97 L -23.2904,-1638.92 L -23.3157,-1638.89 L -23.3576,-1638.84 L -23.3826,-1638.82
 L -23.424,-1638.77 L -23.4487,-1638.74 L -23.4896,-1638.69 L -23.514,-1638.66 L -23.5544,-1638.61 L -23.5785,-1638.58
 L -23.6184,-1638.54 L -23.6423,-1638.51 L -23.6817,-1638.46 L -23.7052,-1638.43 L -23.7442,-1638.38 L -23.7674,-1638.35
 L -23.8058,-1638.3 L -23.8287,-1638.27 L -23.8666,-1638.22 L -23.8892,-1638.19 L -23.9267,-1638.14 L -23.949,-1638.1
 L -23.9859,-1638.05 L -24.0078,-1638.02 L -24.0442,-1637.97 L -24.0659,-1637.94 L -24.1018,-1637.89 L -24.1231,-1637.86
 L -24.1585,-1637.8 L -24.1795,-1637.77 L -24.2143,-1637.72 L -24.235,-1637.69 L -24.2693,-1637.64 L -24.2897,-1637.6
 L -24.3234,-1637.55 L -24.3435,-1637.52 L -24.3767,-1637.46 L -24.3964,-1637.43 L -24.4291,-1637.38 L -24.4485,-1637.35
 L -24.4806,-1637.29 L -24.4997,-1637.26 L -24.5313,-1637.2 L -24.55,-1637.17 L -24.581,-1637.12 L -24.5994,-1637.08
 L -24.6299,-1637.03 L -24.6479,-1636.99 L -24.6778,-1636.94 L -24.6956,-1636.9 L -24.7249,-1636.85 L -24.7423,-1636.82
 L -24.7711,-1636.76 L -24.7881,-1636.73 L -24.8163,-1636.67 L -24.833,-1636.63 L -24.8607,-1636.58 L -24.877,-1636.54
 L -24.9041,-1636.49 L -24.9201,-1636.45 L -24.9466,-1636.4 L -24.9622,-1636.36 L -24.9881,-1636.3 L -25,-1636.28
 z
" stroke="black" fill="lightgray" stroke-width="0.5"/>
</svg>
