<?xml version="1.0" standalone="no"?>
<!DOCTYPE svg PUBLIC "-//W3C//DTD SVG 1.1//EN" "http://www.w3.org/Graphics/SVG/1.1/DTD/svg11.dtd">
<svg width="82mm" height="506mm" viewBox="-25 -2121 82 506" xmlns="http://www.w3.org/2000/svg" version="1.1">
<title>OpenSCAD Model</title>
<path d="
M -25,-1625 L -24.9999,-1625 L -24.9999,-1624.94 L -24.9998,-1624.94 L -24.9988,-1624.84 L -24.9987,-1624.84
 L -24.9968,-1624.74 L -24.9966,-1624.74 L -24.9937,-1624.64 L -24.9935,-1624.64 L -24.9897,-1624.54 L -24.9894,-1624.53
 L -24.9846,-1624.44 L -24.9842,-1624.43 L -24.9784,-1624.34 L -24.978,-1624.33 L -24.9713,-1624.24 L -24.9708,-1624.23
 L -24.9632,-1624.14 L -24.9626,-1624.13 L -24.954,-1624.04 L -24.9534,-1624.03 L -24.9438,-1623.94 L -24.9431,-1623.93
 L -24.9326,-1623.84 L -24.9318,-1623.83 L -24.9204,-1623.74 L -24.9196,-1623.73 L -24.9072,-1623.64 L -24.9063,-1623.63
 L -24.8929,-1623.54 L -24.892,-1623.53 L -24.8777,-1623.44 L -24.8767,-1623.43 L -24.8614,-1623.34 L -24.8604,-1623.33
 L -24.8441,-1623.24 L -24.843,-1623.23 L -24.8259,-1623.14 L -24.8247,-1623.13 L -24.8066,-1623.04 L -24.8054,-1623.03
 L -24.7863,-1622.94 L -24.7851,-1622.93 L -24.7651,-1622.84 L -24.7637,-1622.83 L -24.7428,-1622.74 L -24.7414,-1622.74
 L -24.7195,-1622.64 L -24.7181,-1622.64 L -24.6953,-1622.55 L -24.6938,-1622.54 L -24.6701,-1622.45 L -24.6685,-1622.44
 L -24.6438,-1622.35 L -24.6422,-1622.34 L -24.6166,-1622.25 L -24.6149,-1622.25 L -24.5884,-1622.16 L -24.5867,-1622.15
 L -24.5593,-1622.06 L -24.5574,-1622.05 L -24.5291,-1621.96 L -24.5272,-1621.96 L -24.498,-1621.87 L -24.4961,-1621.86
 L -24.4659,-1621.77 L -24.4639,-1621.77 L -24.4328,-1621.68 L -24.4308,-1621.67 L -24.3988,-1621.58 L -24.3967,-1621.57
 L -24.3639,-1621.49 L -24.3617,-1621.48 L -24.3279,-1621.39 L -24.3257,-1621.39 L -24.291,-1621.3 L -24.2888,-1621.29
 L -24.2532,-1621.2 L -24.2509,-1621.2 L -24.2144,-1621.11 L -24.212,-1621.1 L -24.1747,-1621.02 L -24.1723,-1621.01
 L -24.1341,-1620.92 L -24.1316,-1620.92 L -24.0925,-1620.83 L -24.0899,-1620.83 L -24.05,-1620.74 L -24.0474,-1620.74
 L -24.0065,-1620.65 L -24.0039,-1620.64 L -23.9622,-1620.56 L -23.9594,-1620.55 L -23.9169,-1620.47 L -23.9141,-1620.46
 L -23.8707,-1620.38 L -23.8679,-1620.37 L -23.8237,-1620.29 L -23.8208,-1620.28 L -23.7757,-1620.2 L -23.7727,-1620.2
 L -23.7268,-1620.11 L -23.7238,-1620.11 L -23.677,-1620.02 L -23.674,-1620.02 L -23.6264,-1619.94 L -23.6233,-1619.93
 L -23.5748,-1619.85 L -23.5717,-1619.84 L -23.5224,-1619.76 L -23.5192,-1619.76 L -23.4691,-1619.68 L -23.4659,-1619.67
 L -23.415,-1619.59 L -23.4117,-1619.59 L -23.36,-1619.51 L -23.3566,-1619.5 L -23.3042,-1619.42 L -23.3007,-1619.42
 L -23.2475,-1619.34 L -23.244,-1619.34 L -23.1899,-1619.26 L -23.1864,-1619.25 L -23.1315,-1619.17 L -23.1279,-1619.17
 L -23.0723,-1619.09 L -23.0687,-1619.09 L -23.0123,-1619.01 L -23.0086,-1619.01 L -22.9514,-1618.93 L -22.9477,-1618.93
 L -22.8898,-1618.85 L -22.886,-1618.85 L -22.8273,-1618.77 L -22.8235,-1618.77 L -22.764,-1618.69 L -22.7601,-1618.69
 L -22.7,-1618.61 L -22.696,-1618.61 L -22.6351,-1618.54 L -22.6312,-1618.53 L -22.5695,-1618.46 L -22.5655,-1618.46
 L -22.5031,-1618.38 L -22.499,-1618.38 L -22.4359,-1618.31 L -22.4318,-1618.3 L -22.368,-1618.23 L -22.3639,-1618.23
 L -22.2993,-1618.16 L -22.2951,-1618.16 L -22.2299,-1618.09 L -22.2257,-1618.08 L -22.1598,-1618.01 L -22.1555,-1618.01
 L -22.0889,-1617.94 L -22.0846,-1617.94 L -22.0173,-1617.87 L -22.0129,-1617.87 L -21.945,-1617.8 L -21.9405,-1617.8
 L -21.8719,-1617.73 L -21.8675,-1617.73 L -21.7982,-1617.66 L -21.7937,-1617.66 L -21.7238,-1617.59 L -21.7192,-1617.59
 L -21.6487,-1617.53 L -21.6441,-1617.52 L -21.5729,-1617.46 L -21.5682,-1617.45 L -21.4964,-1617.39 L -21.4917,-1617.39
 L -21.4193,-1617.33 L -21.4146,-1617.32 L -21.3415,-1617.26 L -21.3367,-1617.26 L -21.2631,-1617.2 L -21.2583,-1617.2
 L -21.184,-1617.14 L -21.1792,-1617.13 L -21.1043,-1617.07 L -21.0994,-1617.07 L -21.024,-1617.01 L -21.0191,-1617.01
 L -20.943,-1616.95 L -20.9381,-1616.95 L -20.8615,-1616.89 L -20.8565,-1616.89 L -20.7793,-1616.83 L -20.7743,-1616.83
 L -20.6966,-1616.78 L -20.6916,-1616.77 L -20.6133,-1616.72 L -20.6082,-1616.72 L -20.5294,-1616.66 L -20.5243,-1616.66
 L -20.445,-1616.61 L -20.4398,-1616.6 L -20.36,-1616.55 L -20.3548,-1616.55 L -20.2744,-1616.5 L -20.2692,-1616.5
 L -20.1883,-1616.45 L -20.1831,-1616.44 L -20.1017,-1616.39 L -20.0964,-1616.39 L -20.0146,-1616.34 L -20.0093,-1616.34
 L -19.9269,-1616.29 L -19.9216,-1616.29 L -19.8388,-1616.24 L -19.8334,-1616.24 L -19.7501,-1616.2 L -19.7447,-1616.19
 L -19.661,-1616.15 L -19.6555,-1616.15 L -19.5714,-1616.1 L -19.5659,-1616.1 L -19.4813,-1616.06 L -19.4758,-1616.05
 L -19.3908,-1616.01 L -19.3852,-1616.01 L -19.2998,-1615.97 L -19.2942,-1615.96 L -19.2084,-1615.92 L -19.2028,-1615.92
 L -19.1165,-1615.88 L -19.1109,-1615.88 L -19.0242,-1615.84 L -19.0186,-1615.84 L -18.9316,-1615.8 L -18.9259,-1615.8
 L -18.8385,-1615.76 L -18.8328,-1615.76 L -18.745,-1615.72 L -18.7393,-1615.72 L -18.6512,-1615.69 L -18.6455,-1615.68
 L -18.5569,-1615.65 L -18.5512,-1615.65 L -18.4623,-1615.61 L -18.4566,-1615.61 L -18.3674,-1615.58 L -18.3616,-1615.58
 L -18.2721,-1615.55 L -18.2663,-1615.54 L -18.1765,-1615.51 L -18.1707,-1615.51 L -18.0806,-1615.48 L -18.0747,-1615.48
 L -17.9843,-1615.45 L -17.9784,-1615.45 L -17.8877,-1615.42 L -17.8819,-1615.42 L -17.7909,-1615.39 L -17.785,-1615.39
 L -17.6937,-1615.36 L -17.6878,-1615.36 L -17.5963,-1615.34 L -17.5904,-1615.34 L -17.4986,-1615.31 L -17.4927,-1615.31
 L -17.4007,-1615.29 L -17.3947,-1615.29 L -17.3025,-1615.26 L -17.2965,-1615.26 L -17.2041,-1615.24 L -17.1981,-1615.24
 L -17.1055,-1615.22 L -17.0995,-1615.22 L -17.0066,-1615.2 L -17.0006,-1615.2 L -16.9075,-1615.18 L -16.9015,-1615.18
 L -16.8083,-1615.16 L -16.8022,-1615.16 L -16.7088,-1615.14 L -16.7028,-1615.14 L -16.6092,-1615.13 L -16.6032,-1615.12
 L -16.5094,-1615.11 L -16.5034,-1615.11 L -16.4095,-1615.1 L -16.4034,-1615.09 L -16.3094,-1615.08 L -16.3034,-1615.08
 L -16.2092,-1615.07 L -16.2031,-1615.07 L -16.1089,-1615.06 L -16.1028,-1615.06 L -16.0084,-1615.05 L -16.0023,-1615.05
 L -15.9079,-1615.04 L -15.9018,-1615.04 L -15.8072,-1615.03 L -15.8011,-1615.03 L -15.7065,-1615.02 L -15.7004,-1615.02
 L -15.6057,-1615.01 L -15.5996,-1615.01 L -15.5335,-1615.01 L -13.1853,-1615.87 L -12.1878,-1616.23 L -5.74893,-1618.93
 L -4.99493,-1619.24 L 0.702448,-1622 L 1.2615,-1622.27 L 6.27649,-1625.08 L 6.67755,-1625.3 L 11.0859,-1628.18
 L 11.3572,-1628.35 L 15.2469,-1631.31 L 15.4103,-1631.43 L 18.875,-1634.5 L 18.9464,-1634.56 L 21.6805,-1637.4
 L 22.0685,-1637.8 L 22.0764,-1637.81 L 24.8656,-1641.18 L 24.9385,-1641.28 L 27.4041,-1644.77 L 27.5393,-1645
 L 29.7308,-1648.62 L 29.9258,-1649 L 31.874,-1652.77 L 32.1247,-1653.35 L 33.8482,-1657.26 L 34.1483,-1658.07
 L 35.6591,-1662.09 L 36.0002,-1663.18 L 37.3082,-1667.28 L 37.6801,-1668.68 L 38.7959,-1672.82 L 39.1871,-1674.57
 L 40.1232,-1678.69 L 40.5219,-1680.82 L 41.2926,-1684.89 L 41.6871,-1687.43 L 42.3086,-1691.38 L 42.6877,-1694.36
 L 43.177,-1698.15 L 43.5306,-1701.58 L 43.905,-1705.18 L 44.2242,-1709.09 L 44.5009,-1712.44 L 44.7777,-1716.84
 L 44.9732,-1719.92 L 45.2013,-1724.82 L 45.3312,-1727.59 L 45.5054,-1733.01 L 45.5841,-1735.43 L 45.7003,-1741.37
 L 45.741,-1743.43 L 45.7965,-1749.89 L 45.8108,-1751.57 L 45.8039,-1758.55 L 45.8024,-1759.83 L 45.7322,-1767.32
 L 45.7239,-1768.18 L 45.5909,-1776.19 L 45.5836,-1776.62 L 45.3924,-1784.98 L 45.3889,-1785.14 L 45.3887,-1785.14
 L 45.1499,-1793.7 L 45.1355,-1794.15 L 44.8706,-1802.31 L 44.8386,-1803.2 L 44.5575,-1810.93 L 44.5053,-1812.28
 L 44.2164,-1819.57 L 44.1424,-1821.36 L 43.853,-1828.21 L 43.7565,-1830.43 L 43.4727,-1836.83 L 43.3534,-1839.47
 L 43.0803,-1845.42 L 42.9387,-1848.48 L 42.6804,-1853.97 L 42.5177,-1857.43 L 42.2773,-1862.46 L 42.0952,-1866.32
 L 41.8752,-1870.89 L 41.6757,-1875.12 L 41.4776,-1879.25 L 41.2634,-1883.84 L 41.0881,-1887.52 L 40.8621,-1892.45
 L 40.7101,-1895.7 L 40.4755,-1900.94 L 40.3465,-1903.77 L 40.107,-1909.32 L 40.0003,-1911.74 L 39.7597,-1917.55
 L 39.6743,-1919.58 L 39.4366,-1925.65 L 39.3711,-1927.29 L 39.1407,-1933.6 L 39.0931,-1934.87 L 38.8745,-1941.39
 L 38.8427,-1942.32 L 38.6406,-1949.02 L 38.6224,-1949.62 L 38.4417,-1956.49 L 38.4342,-1956.77 L 38.2903,-1963.32
 L 38.2806,-1963.77 L 38.2803,-1963.78 L 38.1663,-1970.61 L 38.1631,-1970.9 L 38.0908,-1977.3 L 38.0881,-1977.85
 L 38.0563,-1983.84 L 38.0575,-1984.62 L 38.065,-1990.21 L 38.0739,-1991.22 L 38.1193,-1996.43 L 38.1397,-1997.64
 L 38.2216,-2002.5 L 38.2576,-2003.9 L 38.3743,-2008.42 L 38.4304,-2010 L 38.5801,-2014.19 L 38.6607,-2015.94
 L 38.8416,-2019.81 L 38.9518,-2021.72 L 39.1617,-2025.3 L 39.3067,-2027.35 L 39.5434,-2030.65 L 39.7288,-2032.83
 L 39.9896,-2035.87 L 40.2214,-2038.18 L 40.5035,-2040.96 L 40.788,-2043.4 L 41.0883,-2045.94 L 41.4321,-2048.5
 L 41.7469,-2050.8 L 42.157,-2053.47 L 42.4821,-2055.56 L 42.9656,-2058.33 L 43.2965,-2060.21 L 43.8605,-2063.08
 L 44.192,-2064.75 L 44.8434,-2067.73 L 45.1697,-2069.19 L 45.915,-2072.26 L 46.2299,-2073.54 L 47.0748,-2076.69
 L 47.3716,-2077.78 L 48.3207,-2081.01 L 48.5926,-2081.92 L 49.6488,-2085.22 L 49.8892,-2085.96 L 51.0535,-2089.32
 L 51.2558,-2089.89 L 52.5271,-2093.3 L 52.6854,-2093.71 L 54.06,-2097.15 L 54.1694,-2097.42 L 55.6406,-2100.88
 L 55.6973,-2101.01 L 56.4954,-2102.79 L 56.4961,-2120 L 34.3143,-2120 L 8.19992,-1649.44 L 8.19449,-1649.35
 L 8.19412,-1649.35 L 8.18777,-1649.26 L 8.18734,-1649.25 L 8.18011,-1649.16 L 8.17961,-1649.15 L 8.17146,-1649.06
 L 8.1709,-1649.06 L 8.16187,-1648.97 L 8.16125,-1648.96 L 8.15129,-1648.87 L 8.15061,-1648.87 L 8.13977,-1648.78
 L 8.13902,-1648.77 L 8.12727,-1648.68 L 8.12647,-1648.68 L 8.11381,-1648.59 L 8.11294,-1648.58 L 8.09941,-1648.49
 L 8.09848,-1648.49 L 8.08403,-1648.4 L 8.08305,-1648.39 L 8.06771,-1648.3 L 8.06666,-1648.3 L 8.05043,-1648.21
 L 8.04932,-1648.2 L 8.03219,-1648.12 L 8.03102,-1648.11 L 8.01301,-1648.02 L 8.01177,-1648.02 L 7.99287,-1647.93
 L 7.99158,-1647.92 L 7.9718,-1647.83 L 7.97044,-1647.83 L 7.94977,-1647.74 L 7.94836,-1647.73 L 7.9268,-1647.65
 L 7.92532,-1647.64 L 7.9029,-1647.55 L 7.90137,-1647.55 L 7.87805,-1647.46 L 7.87645,-1647.46 L 7.85227,-1647.37
 L 7.85061,-1647.36 L 7.82556,-1647.28 L 7.82384,-1647.27 L 7.79792,-1647.19 L 7.79614,-1647.18 L 7.76934,-1647.09
 L 7.76751,-1647.09 L 7.73985,-1647 L 7.73796,-1647 L 7.70945,-1646.91 L 7.70749,-1646.91 L 7.67811,-1646.82
 L 7.6761,-1646.81 L 7.64586,-1646.73 L 7.64379,-1646.72 L 7.61271,-1646.64 L 7.61058,-1646.63 L 7.57865,-1646.55
 L 7.57646,-1646.54 L 7.54368,-1646.46 L 7.54143,-1646.46 L 7.5078,-1646.37 L 7.5055,-1646.37 L 7.47103,-1646.28
 L 7.46867,-1646.28 L 7.43338,-1646.2 L 7.43096,-1646.19 L 7.39482,-1646.11 L 7.39234,-1646.1 L 7.35539,-1646.02
 L 7.35286,-1646.01 L 7.31507,-1645.93 L 7.31248,-1645.93 L 7.27387,-1645.85 L 7.27122,-1645.84 L 7.23181,-1645.76
 L 7.2291,-1645.75 L 7.18887,-1645.67 L 7.1861,-1645.67 L 7.14506,-1645.59 L 7.14224,-1645.58 L 7.1004,-1645.5
 L 7.09752,-1645.5 L 7.05489,-1645.42 L 7.05196,-1645.41 L 7.00851,-1645.34 L 7.00553,-1645.33 L 6.9613,-1645.25
 L 6.95826,-1645.25 L 6.91323,-1645.17 L 6.91014,-1645.16 L 6.86434,-1645.09 L 6.86119,-1645.08 L 6.81462,-1645
 L 6.81142,-1645 L 6.76406,-1644.92 L 6.7608,-1644.92 L 6.71268,-1644.84 L 6.70937,-1644.84 L 6.6605,-1644.76
 L 6.65714,-1644.76 L 6.6075,-1644.68 L 6.60408,-1644.68 L 6.55369,-1644.6 L 6.55022,-1644.6 L 6.49908,-1644.52
 L 6.49557,-1644.52 L 6.44369,-1644.44 L 6.44012,-1644.44 L 6.38749,-1644.37 L 6.38387,-1644.36 L 6.33052,-1644.29
 L 6.32685,-1644.28 L 6.27277,-1644.21 L 6.26905,-1644.21 L 6.21426,-1644.14 L 6.21048,-1644.13 L 6.15497,-1644.06
 L 6.15114,-1644.06 L 6.09492,-1643.99 L 6.09104,-1643.98 L 6.03412,-1643.91 L 6.0302,-1643.91 L 5.97258,-1643.84
 L 5.96861,-1643.83 L 5.91029,-1643.77 L 5.90627,-1643.76 L 5.84727,-1643.69 L 5.84321,-1643.69 L 5.78353,-1643.62
 L 5.77941,-1643.62 L 5.71905,-1643.55 L 5.71489,-1643.55 L 5.65388,-1643.48 L 5.64967,-1643.48 L 5.58798,-1643.41
 L 5.58373,-1643.41 L 5.52138,-1643.34 L 5.51708,-1643.34 L 5.4541,-1643.27 L 5.44976,-1643.27 L 5.38613,-1643.2
 L 5.38174,-1643.2 L 5.31746,-1643.14 L 5.31303,-1643.13 L 5.24814,-1643.07 L 5.24366,-1643.07 L 5.17814,-1643.01
 L 5.17362,-1643 L 5.10748,-1642.94 L 5.10291,-1642.94 L 5.03617,-1642.88 L 5.03156,-1642.87 L 4.96423,-1642.81
 L 4.95957,-1642.81 L 4.89164,-1642.75 L 4.88694,-1642.75 L 4.81841,-1642.69 L 4.81368,-1642.68 L 4.74456,-1642.63
 L 4.73978,-1642.62 L 4.6701,-1642.57 L 4.66528,-1642.56 L 4.59503,-1642.51 L 4.59017,-1642.5 L 4.51938,-1642.45
 L 4.51448,-1642.44 L 4.44311,-1642.39 L 4.43817,-1642.39 L 4.36626,-1642.33 L 4.36129,-1642.33 L 4.28884,-1642.28
 L 4.28383,-1642.27 L 4.21085,-1642.22 L 4.2058,-1642.22 L 4.1323,-1642.16 L 4.12722,-1642.16 L 4.05321,-1642.11
 L 4.04808,-1642.11 L 3.97356,-1642.06 L 3.9684,-1642.05 L 3.89337,-1642 L 3.88818,-1642 L 3.81265,-1641.95
 L 3.80742,-1641.95 L 3.73143,-1641.9 L 3.72616,-1641.9 L 3.64968,-1641.85 L 3.64438,-1641.85 L 3.56743,-1641.8
 L 3.56209,-1641.8 L 3.48469,-1641.75 L 3.47932,-1641.75 L 3.40146,-1641.7 L 3.39605,-1641.7 L 3.31774,-1641.66
 L 3.3123,-1641.65 L 3.23356,-1641.61 L 3.2281,-1641.61 L 3.14893,-1641.57 L 3.14343,-1641.56 L 3.06383,-1641.52
 L 3.0583,-1641.52 L 2.97829,-1641.48 L 2.97273,-1641.48 L 2.89232,-1641.44 L 2.88673,-1641.43 L 2.80593,-1641.39
 L 2.80032,-1641.39 L 2.71911,-1641.35 L 2.71346,-1641.35 L 2.63189,-1641.31 L 2.62622,-1641.31 L 2.54426,-1641.27
 L 2.53856,-1641.27 L 2.45625,-1641.24 L 2.45052,-1641.23 L 2.36786,-1641.2 L 2.36211,-1641.2 L 2.27909,-1641.16
 L 2.27331,-1641.16 L 2.18996,-1641.13 L 2.18416,-1641.12 L 2.10047,-1641.09 L 2.09464,-1641.09 L 2.01064,-1641.06
 L 2.00479,-1641.06 L 1.92047,-1641.02 L 1.91459,-1641.02 L 1.82998,-1640.99 L 1.82408,-1640.99 L 1.73915,-1640.96
 L 1.73323,-1640.96 L 1.64803,-1640.93 L 1.64209,-1640.93 L 1.55661,-1640.9 L 1.55064,-1640.9 L 1.4649,-1640.87
 L 1.45891,-1640.87 L 1.3729,-1640.85 L 1.3669,-1640.85 L 1.28064,-1640.82 L 1.27462,-1640.82 L 1.18812,-1640.8
 L 1.18208,-1640.79 L 1.09534,-1640.77 L 1.08929,-1640.77 L 1.00231,-1640.75 L 0.996241,-1640.75 L 0.909063,-1640.72
 L 0.902973,-1640.72 L 0.815588,-1640.7 L 0.809483,-1640.7 L 0.721891,-1640.68 L 0.71577,-1640.68 L 0.628,-1640.66
 L 0.621864,-1640.66 L 0.533902,-1640.64 L 0.527752,-1640.64 L 0.439627,-1640.63 L 0.433464,-1640.62 L 0.345175,-1640.61
 L 0.338999,-1640.61 L 0.250546,-1640.59 L 0.244357,-1640.59 L 0.15577,-1640.58 L 0.14957,-1640.58 L 0.0608484,-1640.56
 L 0.0546375,-1640.56 L -0.0342178,-1640.55 L -0.0404396,-1640.55 L -0.129402,-1640.54 L -0.135633,-1640.54 L -0.224714,-1640.53
 L -0.230955,-1640.53 L -0.320128,-1640.52 L -0.326377,-1640.52 L -0.415642,-1640.51 L -0.421898,-1640.51 L -0.511254,-1640.5
 L -0.517518,-1640.5 L -0.606937,-1640.49 L -0.613208,-1640.49 L -0.702689,-1640.49 L -0.708965,-1640.49 L -0.798495,-1640.48
 L -0.804776,-1640.48 L -0.894354,-1640.48 L -0.90064,-1640.48 L -0.990252,-1640.47 L -0.996543,-1640.47 L -1.08619,-1640.47
 L -1.09248,-1640.47 L -1.18213,-1640.47 L -1.18843,-1640.47 L -1.2781,-1640.47 L -1.2844,-1640.47 L -1.29909,-1640.47
 L -19.612,-1641.48 L -19.6296,-1641.48 L -19.6361,-1641.47 L -19.7227,-1641.44 L -19.7291,-1641.43 L -19.8153,-1641.4
 L -19.8218,-1641.39 L -19.9076,-1641.36 L -19.914,-1641.35 L -19.9994,-1641.31 L -20.0058,-1641.31 L -20.0909,-1641.27
 L -20.0972,-1641.27 L -20.1818,-1641.23 L -20.1882,-1641.22 L -20.2724,-1641.18 L -20.2787,-1641.18 L -20.3624,-1641.14
 L -20.3687,-1641.13 L -20.452,-1641.09 L -20.4583,-1641.09 L -20.5412,-1641.04 L -20.5474,-1641.04 L -20.6298,-1640.99
 L -20.636,-1640.99 L -20.718,-1640.94 L -20.7241,-1640.94 L -20.8056,-1640.89 L -20.8117,-1640.89 L -20.8927,-1640.84
 L -20.8988,-1640.84 L -20.9793,-1640.79 L -20.9854,-1640.79 L -21.0654,-1640.74 L -21.0714,-1640.73 L -21.151,-1640.68
 L -21.1569,-1640.68 L -21.236,-1640.63 L -21.2419,-1640.63 L -21.3204,-1640.57 L -21.3263,-1640.57 L -21.4043,-1640.52
 L -21.4101,-1640.51 L -21.4876,-1640.46 L -21.4934,-1640.46 L -21.5703,-1640.4 L -21.5761,-1640.4 L -21.6525,-1640.34
 L -21.6582,-1640.34 L -21.734,-1640.28 L -21.7397,-1640.28 L -21.8149,-1640.22 L -21.8206,-1640.22 L -21.8952,-1640.16
 L -21.9008,-1640.16 L -21.9749,-1640.1 L -21.9805,-1640.1 L -22.054,-1640.04 L -22.0595,-1640.03 L -22.1324,-1639.97
 L -22.1379,-1639.97 L -22.2102,-1639.91 L -22.2156,-1639.91 L -22.2873,-1639.84 L -22.2927,-1639.84 L -22.3638,-1639.78
 L -22.3691,-1639.77 L -22.4395,-1639.71 L -22.4448,-1639.71 L -22.5147,-1639.64 L -22.5199,-1639.64 L -22.5891,-1639.58
 L -22.5943,-1639.57 L -22.6628,-1639.51 L -22.6679,-1639.5 L -22.7358,-1639.44 L -22.7409,-1639.43 L -22.8081,-1639.37
 L -22.8132,-1639.36 L -22.8797,-1639.3 L -22.8847,-1639.29 L -22.9506,-1639.22 L -22.9556,-1639.22 L -23.0208,-1639.15
 L -23.0257,-1639.15 L -23.0902,-1639.08 L -23.095,-1639.07 L -23.1588,-1639 L -23.1636,-1639 L -23.2267,-1638.93
 L -23.2315,-1638.92 L -23.2939,-1638.85 L -23.2986,-1638.85 L -23.3603,-1638.78 L -23.3649,-1638.77 L -23.4259,-1638.7
 L -23.4305,-1638.69 L -23.4907,-1638.62 L -23.4953,-1638.62 L -23.5548,-1638.54 L -23.5593,-1638.54 L -23.618,-1638.47
 L -23.6225,-1638.46 L -23.6805,-1638.39 L -23.6849,-1638.38 L -23.7422,-1638.31 L -23.7465,-1638.3 L -23.803,-1638.23
 L -23.8072,-1638.22 L -23.863,-1638.14 L -23.8672,-1638.14 L -23.9222,-1638.06 L -23.9263,-1638.06 L -23.9806,-1637.98
 L -23.9847,-1637.97 L -24.0381,-1637.9 L -24.0421,-1637.89 L -24.0948,-1637.81 L -24.0988,-1637.81 L -24.1507,-1637.73
 L -24.1546,-1637.72 L -24.2057,-1637.64 L -24.2095,-1637.64 L -24.2598,-1637.56 L -24.2636,-1637.55 L -24.3131,-1637.47
 L -24.3168,-1637.47 L -24.3655,-1637.39 L -24.3691,-1637.38 L -24.417,-1637.3 L -24.4206,-1637.29 L -24.4676,-1637.21
 L -24.4712,-1637.21 L -24.5174,-1637.12 L -24.5209,-1637.12 L -24.5663,-1637.04 L -24.5697,-1637.03 L -24.6142,-1636.95
 L -24.6176,-1636.94 L -24.6613,-1636.86 L -24.6646,-1636.85 L -24.7075,-1636.77 L -24.7107,-1636.76 L -24.7527,-1636.68
 L -24.7559,-1636.67 L -24.7971,-1636.59 L -24.8002,-1636.58 L -24.8405,-1636.5 L -24.8435,-1636.49 L -24.883,-1636.4
 L -24.8859,-1636.4 L -24.9246,-1636.31 L -24.9274,-1636.31 L -24.9652,-1636.22 L -24.968,-1636.21 L -25,-1636.14
 z
" stroke="black" fill="lightgray" stroke-width="0.5"/>
</svg>
