<?xml version="1.0" standalone="no"?>
<!DOCTYPE svg PUBLIC "-//W3C//DTD SVG 1.1//EN" "http://www.w3.org/Graphics/SVG/1.1/DTD/svg11.dtd">
<svg width="81mm" height="506mm" viewBox="-25 -2121 81 506" xmlns="http://www.w3.org/2000/svg" version="1.1">
<title>OpenSCAD Model</title>
<path d="
M -25,-1624.98 L -24.9999,-1624.98 L -24.9999,-1624.93 L -24.9991,-1624.86 L -24.9988,-1624.83 L -24.9973,-1624.76
 L -24.9968,-1624.73 L -24.9945,-1624.66 L -24.9937,-1624.63 L -24.9907,-1624.55 L -24.9897,-1624.53 L -24.9858,-1624.45
 L -24.9846,-1624.43 L -24.9799,-1624.35 L -24.9784,-1624.33 L -24.973,-1624.25 L -24.9713,-1624.23 L -24.9651,-1624.15
 L -24.9632,-1624.13 L -24.9562,-1624.05 L -24.954,-1624.03 L -24.9463,-1623.95 L -24.9438,-1623.93 L -24.9353,-1623.85
 L -24.9326,-1623.83 L -24.9233,-1623.75 L -24.9204,-1623.73 L -24.9104,-1623.65 L -24.9072,-1623.63 L -24.8964,-1623.55
 L -24.8929,-1623.53 L -24.8814,-1623.45 L -24.8777,-1623.43 L -24.8653,-1623.35 L -24.8614,-1623.33 L -24.8483,-1623.25
 L -24.8441,-1623.23 L -24.8303,-1623.15 L -24.8259,-1623.13 L -24.8113,-1623.05 L -24.8066,-1623.03 L -24.7913,-1622.95
 L -24.7863,-1622.93 L -24.7702,-1622.85 L -24.7651,-1622.83 L -24.7482,-1622.76 L -24.7428,-1622.73 L -24.7252,-1622.66
 L -24.7195,-1622.63 L -24.7012,-1622.56 L -24.6953,-1622.54 L -24.6762,-1622.46 L -24.6701,-1622.44 L -24.6502,-1622.36
 L -24.6438,-1622.34 L -24.6232,-1622.27 L -24.6166,-1622.24 L -24.5953,-1622.17 L -24.5884,-1622.15 L -24.5663,-1622.07
 L -24.5593,-1622.05 L -24.5364,-1621.98 L -24.5291,-1621.95 L -24.5055,-1621.88 L -24.498,-1621.86 L -24.4737,-1621.78
 L -24.4659,-1621.76 L -24.4409,-1621.69 L -24.4328,-1621.66 L -24.4071,-1621.59 L -24.3988,-1621.57 L -24.3723,-1621.5
 L -24.3639,-1621.48 L -24.3366,-1621.4 L -24.3279,-1621.38 L -24.3,-1621.31 L -24.291,-1621.29 L -24.2624,-1621.22
 L -24.2532,-1621.19 L -24.2238,-1621.12 L -24.2144,-1621.1 L -24.1844,-1621.03 L -24.1747,-1621.01 L -24.1439,-1620.94
 L -24.1341,-1620.91 L -24.1026,-1620.84 L -24.0925,-1620.82 L -24.0603,-1620.75 L -24.05,-1620.73 L -24.0171,-1620.66
 L -24.0065,-1620.64 L -23.9729,-1620.57 L -23.9622,-1620.55 L -23.9279,-1620.48 L -23.9169,-1620.46 L -23.8819,-1620.39
 L -23.8707,-1620.37 L -23.8351,-1620.3 L -23.8237,-1620.28 L -23.7873,-1620.21 L -23.7757,-1620.19 L -23.7387,-1620.12
 L -23.7268,-1620.1 L -23.6891,-1620.04 L -23.677,-1620.01 L -23.6387,-1619.95 L -23.6264,-1619.93 L -23.5873,-1619.86
 L -23.5748,-1619.84 L -23.5351,-1619.77 L -23.5224,-1619.75 L -23.4821,-1619.69 L -23.4691,-1619.67 L -23.4281,-1619.6
 L -23.415,-1619.58 L -23.3733,-1619.52 L -23.36,-1619.5 L -23.3177,-1619.43 L -23.3042,-1619.41 L -23.2612,-1619.35
 L -23.2475,-1619.33 L -23.2038,-1619.27 L -23.1899,-1619.25 L -23.1457,-1619.18 L -23.1315,-1619.16 L -23.0867,-1619.1
 L -23.0723,-1619.08 L -23.0268,-1619.02 L -23.0123,-1619 L -22.9662,-1618.94 L -22.9514,-1618.92 L -22.9047,-1618.86
 L -22.8898,-1618.84 L -22.8424,-1618.78 L -22.8273,-1618.76 L -22.7794,-1618.7 L -22.764,-1618.68 L -22.7155,-1618.62
 L -22.7,-1618.6 L -22.6508,-1618.55 L -22.6351,-1618.53 L -22.5854,-1618.47 L -22.5695,-1618.45 L -22.5192,-1618.39
 L -22.5031,-1618.37 L -22.4522,-1618.32 L -22.4359,-1618.3 L -22.3845,-1618.24 L -22.368,-1618.22 L -22.316,-1618.17
 L -22.2993,-1618.15 L -22.2468,-1618.09 L -22.2299,-1618.08 L -22.1768,-1618.02 L -22.1598,-1618 L -22.1061,-1617.95
 L -22.0889,-1617.93 L -22.0346,-1617.88 L -22.0173,-1617.86 L -21.9625,-1617.81 L -21.945,-1617.79 L -21.8896,-1617.74
 L -21.8719,-1617.72 L -21.8161,-1617.67 L -21.7982,-1617.65 L -21.7418,-1617.6 L -21.7238,-1617.58 L -21.6669,-1617.53
 L -21.6487,-1617.52 L -21.5912,-1617.46 L -21.5729,-1617.45 L -21.5149,-1617.4 L -21.4964,-1617.38 L -21.438,-1617.33
 L -21.4193,-1617.32 L -21.3603,-1617.27 L -21.3415,-1617.25 L -21.2821,-1617.2 L -21.2631,-1617.19 L -21.2032,-1617.14
 L -21.184,-1617.13 L -21.1236,-1617.08 L -21.1043,-1617.06 L -21.0434,-1617.02 L -21.024,-1617 L -20.9626,-1616.96
 L -20.943,-1616.94 L -20.8812,-1616.9 L -20.8615,-1616.88 L -20.7993,-1616.84 L -20.7793,-1616.82 L -20.7167,-1616.78
 L -20.6966,-1616.77 L -20.6335,-1616.72 L -20.6133,-1616.71 L -20.5498,-1616.67 L -20.5294,-1616.65 L -20.4654,-1616.61
 L -20.445,-1616.6 L -20.3806,-1616.56 L -20.36,-1616.54 L -20.2952,-1616.5 L -20.2744,-1616.49 L -20.2092,-1616.45
 L -20.1883,-1616.44 L -20.1227,-1616.4 L -20.1017,-1616.38 L -20.0357,-1616.35 L -20.0146,-1616.33 L -19.9482,-1616.29
 L -19.9269,-1616.28 L -19.8601,-1616.25 L -19.8388,-1616.23 L -19.7716,-1616.2 L -19.7501,-1616.19 L -19.6826,-1616.15
 L -19.661,-1616.14 L -19.5931,-1616.1 L -19.5714,-1616.09 L -19.5031,-1616.06 L -19.4813,-1616.05 L -19.4127,-1616.01
 L -19.3908,-1616 L -19.3218,-1615.97 L -19.2998,-1615.96 L -19.2305,-1615.92 L -19.2084,-1615.91 L -19.1388,-1615.88
 L -19.1165,-1615.87 L -19.0466,-1615.84 L -19.0242,-1615.83 L -18.954,-1615.8 L -18.9316,-1615.79 L -18.861,-1615.76
 L -18.8385,-1615.75 L -18.7677,-1615.72 L -18.745,-1615.71 L -18.6739,-1615.68 L -18.6512,-1615.68 L -18.5798,-1615.65
 L -18.5569,-1615.64 L -18.4853,-1615.61 L -18.4623,-1615.6 L -18.3904,-1615.58 L -18.3674,-1615.57 L -18.2952,-1615.54
 L -18.2721,-1615.54 L -18.1997,-1615.51 L -18.1765,-1615.5 L -18.1038,-1615.48 L -18.0806,-1615.47 L -18.0076,-1615.45
 L -17.9843,-1615.44 L -17.9111,-1615.42 L -17.8877,-1615.41 L -17.8144,-1615.39 L -17.7909,-1615.38 L -17.7173,-1615.36
 L -17.6937,-1615.35 L -17.6199,-1615.33 L -17.5963,-1615.33 L -17.5223,-1615.31 L -17.4986,-1615.3 L -17.4244,-1615.28
 L -17.4007,-1615.28 L -17.3263,-1615.26 L -17.3025,-1615.25 L -17.2902,-1615.25 L -15.2564,-1615.96 L -14.6202,-1616.22
 L -7.79792,-1618.97 L -7.17284,-1619.26 L -1.30287,-1621.99 L -0.703226,-1622.32 L 4.32346,-1625.03 L 4.89193,-1625.4
 L 9.18405,-1628.09 L 9.72227,-1628.49 L 13.3885,-1631.18 L 13.9022,-1631.62 L 17.048,-1634.32 L 17.5457,-1634.82
 L 20.2682,-1637.54 L 20.7593,-1638.12 L 23.1409,-1640.91 L 23.6341,-1641.59 L 25.739,-1644.47 L 26.2405,-1645.28
 L 28.1139,-1648.29 L 28.6268,-1649.26 L 30.2975,-1652.4 L 30.8216,-1653.56 L 32.3068,-1656.83 L 32.8387,-1658.23
 L 34.1492,-1661.62 L 34.683,-1663.27 L 35.8266,-1666.76 L 36.355,-1668.69 L 37.3397,-1672.25 L 37.8542,-1674.49
 L 38.6891,-1678.08 L 39.1815,-1680.64 L 39.8774,-1684.23 L 40.3395,-1687.14 L 40.9085,-1690.69 L 41.3331,-1693.95
 L 41.7882,-1697.42 L 42.169,-1701.06 L 42.5236,-1704.42 L 42.8552,-1708.43 L 43.1228,-1711.65 L 43.401,-1716.05
 L 43.5948,-1719.1 L 43.8161,-1723.9 L 43.9485,-1726.75 L 44.1108,-1731.94 L 44.1935,-1734.57 L 44.2953,-1740.16
 L 44.3391,-1742.55 L 44.3799,-1748.53 L 44.3943,-1750.67 L 44.3743,-1757.04 L 44.3683,-1758.9 L 44.2884,-1765.67
 L 44.2694,-1767.25 L 44.1312,-1774.39 L 44.106,-1775.67 L 43.9117,-1783.19 L 43.886,-1784.17 L 43.638,-1792.05
 L 43.6166,-1792.72 L 43.3182,-1800.96 L 43.3051,-1801.32 L 42.9596,-1809.89 L 42.9579,-1809.94 L 42.9063,-1811.12
 L 42.583,-1818.56 L 42.5707,-1818.84 L 42.1849,-1827.19 L 42.1571,-1827.77 L 41.7687,-1835.8 L 41.7248,-1836.69
 L 41.3397,-1844.38 L 41.2795,-1845.58 L 40.9026,-1852.93 L 40.8263,-1854.41 L 40.4619,-1861.42 L 40.3704,-1863.19
 L 40.0218,-1869.84 L 39.9162,-1871.89 L 39.5863,-1878.19 L 39.468,-1880.5 L 39.159,-1886.46 L 39.0299,-1889.02
 L 38.7434,-1894.63 L 38.6055,-1897.44 L 38.3428,-1902.7 L 38.1985,-1905.73 L 37.9602,-1910.66 L 37.812,-1913.9
 L 37.5986,-1918.5 L 37.4493,-1921.94 L 37.2608,-1926.22 L 37.1132,-1929.84 L 36.9493,-1933.8 L 36.8066,-1937.58
 L 36.6668,-1941.24 L 36.5322,-1945.18 L 36.4156,-1948.54 L 36.2926,-1952.62 L 36.1983,-1955.69 L 36.0904,-1959.89
 L 36.0172,-1962.69 L 35.9281,-1967 L 35.8746,-1969.54 L 35.8082,-1973.95 L 35.773,-1976.24 L 35.7333,-1980.73
 L 35.7147,-1982.78 L 35.7059,-1987.34 L 35.7021,-1989.16 L 35.7286,-1993.78 L 35.7377,-1995.39 L 35.8043,-2000.07
 L 35.8242,-2001.47 L 35.9356,-2006.19 L 35.9642,-2007.4 L 36.1255,-2012.15 L 36.1605,-2013.18 L 36.3773,-2017.97
 L 36.4161,-2018.82 L 36.6941,-2023.63 L 36.734,-2024.32 L 37.0794,-2029.16 L 37.1176,-2029.69 L 37.5368,-2034.55
 L 37.5701,-2034.93 L 38.07,-2039.81 L 38.0949,-2040.05 L 38.6826,-2044.94 L 38.6954,-2045.05 L 39.2483,-2049.03
 L 39.3753,-2049.94 L 39.379,-2049.96 L 40.1387,-2054.72 L 40.1645,-2054.86 L 40.9869,-2059.4 L 41.0395,-2059.66
 L 41.922,-2063.97 L 42.0062,-2064.34 L 42.9453,-2068.44 L 43.0659,-2068.92 L 44.0571,-2072.82 L 44.2189,-2073.4
 L 45.2563,-2077.09 L 45.4637,-2077.77 L 46.5405,-2081.26 L 46.7974,-2082.04 L 47.9054,-2085.33 L 48.2149,-2086.19
 L 49.3452,-2089.29 L 49.7095,-2090.22 L 50.8523,-2093.13 L 51.2722,-2094.14 L 52.4172,-2096.86 L 52.8921,-2097.93
 L 54.0288,-2100.47 L 54.5565,-2101.59 L 55.6744,-2103.95 L 55.7369,-2104.08 L 55.7376,-2120 L 34.3756,-2120
 L 8.24677,-1649.43 L 8.24537,-1649.4 L 8.24096,-1649.33 L 8.23933,-1649.31 L 8.23418,-1649.23 L 8.23232,-1649.21
 L 8.22645,-1649.14 L 8.22436,-1649.12 L 8.21774,-1649.04 L 8.21542,-1649.02 L 8.20808,-1648.95 L 8.20553,-1648.93
 L 8.19744,-1648.85 L 8.19466,-1648.83 L 8.18585,-1648.76 L 8.18284,-1648.73 L 8.17329,-1648.66 L 8.17005,-1648.64
 L 8.15977,-1648.57 L 8.15629,-1648.54 L 8.1453,-1648.47 L 8.14159,-1648.45 L 8.12986,-1648.38 L 8.12593,-1648.35
 L 8.11347,-1648.28 L 8.10931,-1648.26 L 8.09613,-1648.19 L 8.09174,-1648.17 L 8.07783,-1648.09 L 8.07321,-1648.07
 L 8.05858,-1648 L 8.05373,-1647.98 L 8.03838,-1647.91 L 8.03331,-1647.88 L 8.01724,-1647.81 L 8.01194,-1647.79
 L 7.99515,-1647.72 L 7.98963,-1647.7 L 7.97212,-1647.63 L 7.96637,-1647.6 L 7.94816,-1647.53 L 7.94218,-1647.51
 L 7.92324,-1647.44 L 7.91704,-1647.42 L 7.8974,-1647.35 L 7.89098,-1647.33 L 7.87063,-1647.26 L 7.86398,-1647.23
 L 7.84292,-1647.16 L 7.83605,-1647.14 L 7.81429,-1647.07 L 7.8072,-1647.05 L 7.78474,-1646.98 L 7.77743,-1646.96
 L 7.75427,-1646.89 L 7.74674,-1646.87 L 7.72287,-1646.8 L 7.71512,-1646.78 L 7.69056,-1646.71 L 7.68259,-1646.69
 L 7.65735,-1646.62 L 7.64916,-1646.6 L 7.62323,-1646.53 L 7.61482,-1646.51 L 7.58819,-1646.44 L 7.57957,-1646.42
 L 7.55226,-1646.35 L 7.54342,-1646.33 L 7.51543,-1646.26 L 7.50638,-1646.24 L 7.47772,-1646.17 L 7.46845,-1646.15
 L 7.43909,-1646.09 L 7.42962,-1646.07 L 7.39961,-1646 L 7.38992,-1645.98 L 7.35923,-1645.91 L 7.34933,-1645.89
 L 7.31797,-1645.83 L 7.30787,-1645.8 L 7.27585,-1645.74 L 7.26553,-1645.72 L 7.23285,-1645.65 L 7.22233,-1645.63
 L 7.18898,-1645.57 L 7.17826,-1645.55 L 7.14426,-1645.48 L 7.13333,-1645.46 L 7.09869,-1645.4 L 7.08756,-1645.38
 L 7.05226,-1645.31 L 7.04092,-1645.29 L 7.00499,-1645.23 L 6.99345,-1645.21 L 6.95687,-1645.15 L 6.94513,-1645.13
 L 6.90792,-1645.07 L 6.89598,-1645.05 L 6.85814,-1644.98 L 6.84601,-1644.96 L 6.80753,-1644.9 L 6.79519,-1644.88
 L 6.75609,-1644.82 L 6.74357,-1644.8 L 6.70385,-1644.74 L 6.69113,-1644.72 L 6.6508,-1644.66 L 6.63788,-1644.64
 L 6.59694,-1644.58 L 6.58383,-1644.56 L 6.54228,-1644.5 L 6.52898,-1644.48 L 6.48682,-1644.42 L 6.47334,-1644.41
 L 6.43058,-1644.35 L 6.41691,-1644.33 L 6.37355,-1644.27 L 6.3597,-1644.25 L 6.31575,-1644.19 L 6.30171,-1644.17
 L 6.25719,-1644.12 L 6.24296,-1644.1 L 6.19784,-1644.04 L 6.18344,-1644.02 L 6.13774,-1643.97 L 6.12316,-1643.95
 L 6.07689,-1643.89 L 6.06213,-1643.87 L 6.0153,-1643.82 L 6.00036,-1643.8 L 5.95296,-1643.75 L 5.93785,-1643.73
 L 5.88989,-1643.67 L 5.8746,-1643.66 L 5.8261,-1643.6 L 5.81064,-1643.58 L 5.76158,-1643.53 L 5.74595,-1643.51
 L 5.69636,-1643.46 L 5.68055,-1643.44 L 5.63041,-1643.39 L 5.61444,-1643.37 L 5.56376,-1643.32 L 5.54763,-1643.3
 L 5.49644,-1643.25 L 5.48014,-1643.24 L 5.42842,-1643.19 L 5.41195,-1643.17 L 5.3597,-1643.12 L 5.34308,-1643.1
 L 5.29034,-1643.05 L 5.27355,-1643.04 L 5.22029,-1642.99 L 5.20335,-1642.97 L 5.14958,-1642.92 L 5.13249,-1642.91
 L 5.07823,-1642.86 L 5.06098,-1642.84 L 5.00624,-1642.79 L 4.98884,-1642.78 L 4.93361,-1642.73 L 4.91605,-1642.72
 L 4.86034,-1642.67 L 4.84264,-1642.65 L 4.78644,-1642.61 L 4.7686,-1642.59 L 4.71194,-1642.55 L 4.69395,-1642.53
 L 4.63683,-1642.49 L 4.6187,-1642.47 L 4.56113,-1642.43 L 4.54286,-1642.41 L 4.48482,-1642.37 L 4.46641,-1642.36
 L 4.40794,-1642.31 L 4.38939,-1642.3 L 4.33048,-1642.26 L 4.31179,-1642.24 L 4.25245,-1642.2 L 4.23363,-1642.19
 L 4.17387,-1642.15 L 4.15492,-1642.13 L 4.09473,-1642.09 L 4.07565,-1642.08 L 4.01504,-1642.04 L 3.99584,-1642.03
 L 3.93482,-1641.99 L 3.91549,-1641.97 L 3.85406,-1641.93 L 3.83461,-1641.92 L 3.7728,-1641.88 L 3.75322,-1641.87
 L 3.69102,-1641.83 L 3.67132,-1641.82 L 3.60873,-1641.78 L 3.58892,-1641.77 L 3.52596,-1641.73 L 3.50603,-1641.72
 L 3.44269,-1641.69 L 3.42265,-1641.68 L 3.35894,-1641.64 L 3.33879,-1641.63 L 3.27473,-1641.59 L 3.25447,-1641.58
 L 3.19007,-1641.55 L 3.16969,-1641.54 L 3.10493,-1641.5 L 3.08445,-1641.49 L 3.01937,-1641.46 L 2.99878,-1641.45
 L 2.93336,-1641.42 L 2.91268,-1641.41 L 2.84695,-1641.38 L 2.82616,-1641.37 L 2.76009,-1641.34 L 2.73922,-1641.33
 L 2.67285,-1641.3 L 2.65187,-1641.29 L 2.58519,-1641.26 L 2.56412,-1641.25 L 2.49715,-1641.22 L 2.47599,-1641.21
 L 2.40873,-1641.18 L 2.38749,-1641.17 L 2.31994,-1641.14 L 2.29861,-1641.14 L 2.23078,-1641.11 L 2.20937,-1641.1
 L 2.14126,-1641.07 L 2.11977,-1641.07 L 2.05141,-1641.04 L 2.02984,-1641.03 L 1.96122,-1641.01 L 1.93956,-1641
 L 1.8707,-1640.98 L 1.84897,-1640.97 L 1.77986,-1640.95 L 1.75806,-1640.94 L 1.68871,-1640.92 L 1.66684,-1640.91
 L 1.59727,-1640.89 L 1.57533,-1640.88 L 1.50554,-1640.86 L 1.48353,-1640.85 L 1.41352,-1640.83 L 1.39145,-1640.82
 L 1.32124,-1640.8 L 1.29911,-1640.8 L 1.2287,-1640.78 L 1.20651,-1640.77 L 1.13591,-1640.75 L 1.11366,-1640.75
 L 1.04286,-1640.73 L 1.02056,-1640.73 L 0.949591,-1640.71 L 0.927239,-1640.7 L 0.8561,-1640.69 L 0.833695,-1640.68
 L 0.762387,-1640.67 L 0.739937,-1640.66 L 0.668481,-1640.65 L 0.645983,-1640.64 L 0.574368,-1640.63 L 0.551829,-1640.62
 L 0.48008,-1640.61 L 0.457499,-1640.61 L 0.385615,-1640.59 L 0.362993,-1640.59 L 0.290972,-1640.58 L 0.268317,-1640.57
 L 0.196186,-1640.56 L 0.173496,-1640.56 L 0.101253,-1640.55 L 0.0785302,-1640.54 L 0.00617575,-1640.53 L -0.0165738,-1640.53
 L -0.0890175,-1640.52 L -0.111797,-1640.52 L -0.18434,-1640.51 L -0.207142,-1640.51 L -0.279761,-1640.5 L -0.302586,-1640.5
 L -0.375283,-1640.49 L -0.398131,-1640.49 L -0.470903,-1640.48 L -0.493766,-1640.48 L -0.566593,-1640.48 L -0.589471,-1640.48
 L -0.66235,-1640.47 L -0.68524,-1640.47 L -0.758161,-1640.47 L -0.781063,-1640.46 L -0.854025,-1640.46 L -0.876935,-1640.46
 L -0.949927,-1640.46 L -0.972845,-1640.46 L -1.04587,-1640.45 L -1.06879,-1640.45 L -1.14181,-1640.45 L -1.16474,-1640.45
 L -1.18432,-1640.45 L -19.5582,-1641.47 L -19.5608,-1641.47 L -19.5829,-1641.46 L -19.654,-1641.43 L -19.6759,-1641.42
 L -19.7468,-1641.39 L -19.7686,-1641.38 L -19.8391,-1641.35 L -19.8609,-1641.34 L -19.9311,-1641.31 L -19.9527,-1641.3
 L -20.0226,-1641.27 L -20.0441,-1641.26 L -20.1137,-1641.22 L -20.1351,-1641.21 L -20.2043,-1641.18 L -20.2257,-1641.17
 L -20.2945,-1641.13 L -20.3157,-1641.12 L -20.3842,-1641.09 L -20.4053,-1641.08 L -20.4734,-1641.04 L -20.4944,-1641.03
 L -20.5622,-1640.99 L -20.5831,-1640.98 L -20.6505,-1640.94 L -20.6713,-1640.93 L -20.7382,-1640.89 L -20.7589,-1640.88
 L -20.8255,-1640.84 L -20.846,-1640.83 L -20.9122,-1640.79 L -20.9326,-1640.78 L -20.9984,-1640.74 L -21.0187,-1640.73
 L -21.0841,-1640.68 L -21.1043,-1640.67 L -21.1692,-1640.63 L -21.1893,-1640.62 L -21.2538,-1640.57 L -21.2737,-1640.56
 L -21.3378,-1640.52 L -21.3576,-1640.51 L -21.4213,-1640.46 L -21.4409,-1640.45 L -21.5041,-1640.4 L -21.5236,-1640.39
 L -21.5864,-1640.35 L -21.6058,-1640.33 L -21.6681,-1640.29 L -21.6873,-1640.27 L -21.7492,-1640.23 L -21.7682,-1640.21
 L -21.8296,-1640.16 L -21.8486,-1640.15 L -21.9095,-1640.1 L -21.9283,-1640.09 L -21.9887,-1640.04 L -22.0073,-1640.02
 L -22.0673,-1639.98 L -22.0857,-1639.96 L -22.1452,-1639.91 L -22.1635,-1639.9 L -22.2225,-1639.85 L -22.2406,-1639.83
 L -22.2991,-1639.78 L -22.3171,-1639.77 L -22.375,-1639.71 L -22.3929,-1639.7 L -22.4503,-1639.65 L -22.468,-1639.63
 L -22.5249,-1639.58 L -22.5424,-1639.56 L -22.5988,-1639.51 L -22.6161,-1639.49 L -22.672,-1639.44 L -22.6892,-1639.42
 L -22.7445,-1639.37 L -22.7615,-1639.35 L -22.8162,-1639.3 L -22.8331,-1639.28 L -22.8873,-1639.23 L -22.904,-1639.21
 L -22.9576,-1639.15 L -22.9741,-1639.14 L -23.0272,-1639.08 L -23.0435,-1639.06 L -23.096,-1639.01 L -23.1122,-1638.99
 L -23.1641,-1638.93 L -23.1801,-1638.92 L -23.2314,-1638.86 L -23.2473,-1638.84 L -23.298,-1638.78 L -23.3136,-1638.76
 L -23.3638,-1638.7 L -23.3793,-1638.69 L -23.4288,-1638.63 L -23.4441,-1638.61 L -23.4931,-1638.55 L -23.5082,-1638.53
 L -23.5565,-1638.47 L -23.5714,-1638.45 L -23.6192,-1638.39 L -23.6339,-1638.37 L -23.681,-1638.31 L -23.6955,-1638.29
 L -23.7421,-1638.23 L -23.7564,-1638.21 L -23.8023,-1638.15 L -23.8164,-1638.13 L -23.8617,-1638.07 L -23.8756,-1638.05
 L -23.9202,-1637.99 L -23.934,-1637.97 L -23.978,-1637.9 L -23.9915,-1637.88 L -24.0349,-1637.82 L -24.0482,-1637.8
 L -24.0909,-1637.74 L -24.104,-1637.72 L -24.1461,-1637.65 L -24.159,-1637.63 L -24.2005,-1637.57 L -24.2132,-1637.55
 L -24.2539,-1637.48 L -24.2665,-1637.46 L -24.3065,-1637.39 L -24.3189,-1637.37 L -24.3583,-1637.31 L -24.3704,-1637.29
 L -24.4091,-1637.22 L -24.421,-1637.2 L -24.4591,-1637.13 L -24.4708,-1637.11 L -24.5082,-1637.04 L -24.5197,-1637.02
 L -24.5564,-1636.96 L -24.5676,-1636.93 L -24.6036,-1636.87 L -24.6147,-1636.85 L -24.65,-1636.78 L -24.6609,-1636.76
 L -24.6955,-1636.69 L -24.7061,-1636.66 L -24.7401,-1636.6 L -24.7505,-1636.57 L -24.7837,-1636.5 L -24.7939,-1636.48
 L -24.8264,-1636.41 L -24.8364,-1636.39 L -24.8682,-1636.32 L -24.878,-1636.3 L -24.9091,-1636.23 L -24.9186,-1636.21
 L -24.949,-1636.14 L -24.9584,-1636.11 L -24.988,-1636.04 L -24.9971,-1636.02 L -25,-1636.01 z
" stroke="black" fill="lightgray" stroke-width="0.5"/>
</svg>
