<?xml version="1.0" standalone="no"?>
<!DOCTYPE svg PUBLIC "-//W3C//DTD SVG 1.1//EN" "http://www.w3.org/Graphics/SVG/1.1/DTD/svg11.dtd">
<svg width="81mm" height="506mm" viewBox="-25 -2121 81 506" xmlns="http://www.w3.org/2000/svg" version="1.1">
<title>OpenSCAD Model</title>
<path d="
M -25,-1624.98 L -24.9999,-1624.98 L -24.9999,-1624.93 L -24.9994,-1624.88 L -24.9988,-1624.83 L -24.9979,-1624.78
 L -24.9968,-1624.73 L -24.9954,-1624.68 L -24.9937,-1624.63 L -24.9919,-1624.58 L -24.9897,-1624.53 L -24.9873,-1624.48
 L -24.9846,-1624.42 L -24.9818,-1624.38 L -24.9784,-1624.32 L -24.9752,-1624.28 L -24.9713,-1624.22 L -24.9676,-1624.18
 L -24.9632,-1624.12 L -24.959,-1624.08 L -24.954,-1624.02 L -24.9494,-1623.98 L -24.9438,-1623.92 L -24.9387,-1623.88
 L -24.9326,-1623.82 L -24.927,-1623.77 L -24.9204,-1623.72 L -24.9144,-1623.67 L -24.9072,-1623.62 L -24.9007,-1623.57
 L -24.8929,-1623.52 L -24.886,-1623.47 L -24.8777,-1623.42 L -24.8703,-1623.37 L -24.8614,-1623.32 L -24.8536,-1623.28
 L -24.8441,-1623.22 L -24.8358,-1623.18 L -24.8259,-1623.12 L -24.8171,-1623.08 L -24.8066,-1623.02 L -24.7974,-1622.98
 L -24.7863,-1622.92 L -24.7767,-1622.88 L -24.7651,-1622.82 L -24.755,-1622.78 L -24.7428,-1622.73 L -24.7322,-1622.68
 L -24.7195,-1622.63 L -24.7085,-1622.58 L -24.6953,-1622.53 L -24.6838,-1622.49 L -24.6701,-1622.43 L -24.6581,-1622.39
 L -24.6438,-1622.33 L -24.6315,-1622.29 L -24.6166,-1622.24 L -24.6038,-1622.19 L -24.5884,-1622.14 L -24.5752,-1622.1
 L -24.5593,-1622.04 L -24.5456,-1622 L -24.5291,-1621.95 L -24.515,-1621.9 L -24.498,-1621.85 L -24.4834,-1621.81
 L -24.4659,-1621.76 L -24.4509,-1621.71 L -24.4328,-1621.66 L -24.4174,-1621.62 L -24.3988,-1621.56 L -24.3829,-1621.52
 L -24.3639,-1621.47 L -24.3475,-1621.43 L -24.3279,-1621.38 L -24.3112,-1621.33 L -24.291,-1621.28 L -24.2739,-1621.24
 L -24.2532,-1621.19 L -24.2356,-1621.15 L -24.2144,-1621.09 L -24.1964,-1621.05 L -24.1747,-1621 L -24.1563,-1620.96
 L -24.1341,-1620.91 L -24.1152,-1620.87 L -24.0925,-1620.82 L -24.0732,-1620.78 L -24.05,-1620.73 L -24.0302,-1620.68
 L -24.0065,-1620.63 L -23.9864,-1620.59 L -23.9622,-1620.54 L -23.9416,-1620.5 L -23.9169,-1620.45 L -23.8959,-1620.41
 L -23.8707,-1620.36 L -23.8493,-1620.32 L -23.8237,-1620.27 L -23.8019,-1620.23 L -23.7757,-1620.18 L -23.7535,-1620.14
 L -23.7268,-1620.1 L -23.7042,-1620.06 L -23.677,-1620.01 L -23.654,-1619.97 L -23.6264,-1619.92 L -23.603,-1619.88
 L -23.5748,-1619.83 L -23.551,-1619.8 L -23.5224,-1619.75 L -23.4982,-1619.71 L -23.4691,-1619.66 L -23.4445,-1619.62
 L -23.415,-1619.58 L -23.39,-1619.54 L -23.36,-1619.49 L -23.3346,-1619.45 L -23.3042,-1619.41 L -23.2784,-1619.37
 L -23.2475,-1619.32 L -23.2213,-1619.29 L -23.1899,-1619.24 L -23.1634,-1619.2 L -23.1315,-1619.16 L -23.1046,-1619.12
 L -23.0723,-1619.08 L -23.045,-1619.04 L -23.0123,-1619 L -22.9846,-1618.96 L -22.9514,-1618.92 L -22.9234,-1618.88
 L -22.8898,-1618.84 L -22.8614,-1618.8 L -22.8273,-1618.76 L -22.7985,-1618.72 L -22.764,-1618.68 L -22.7349,-1618.64
 L -22.7,-1618.6 L -22.6705,-1618.56 L -22.6351,-1618.52 L -22.6053,-1618.49 L -22.5695,-1618.44 L -22.5393,-1618.41
 L -22.5031,-1618.37 L -22.4726,-1618.33 L -22.4359,-1618.29 L -22.4051,-1618.26 L -22.368,-1618.22 L -22.3368,-1618.18
 L -22.2993,-1618.14 L -22.2678,-1618.11 L -22.2299,-1618.07 L -22.198,-1618.04 L -22.1598,-1618 L -22.1276,-1617.97
 L -22.0889,-1617.93 L -22.0563,-1617.89 L -22.0173,-1617.86 L -21.9844,-1617.82 L -21.945,-1617.78 L -21.9118,-1617.75
 L -21.8719,-1617.71 L -21.8384,-1617.68 L -21.7982,-1617.65 L -21.7644,-1617.61 L -21.7238,-1617.58 L -21.6896,-1617.55
 L -21.6487,-1617.51 L -21.6142,-1617.48 L -21.5729,-1617.44 L -21.5381,-1617.41 L -21.4964,-1617.38 L -21.4613,-1617.35
 L -21.4193,-1617.31 L -21.3839,-1617.28 L -21.3415,-1617.25 L -21.3058,-1617.22 L -21.2631,-1617.18 L -21.2271,-1617.16
 L -21.184,-1617.12 L -21.1478,-1617.09 L -21.1043,-1617.06 L -21.0678,-1617.03 L -21.024,-1617 L -20.9872,-1616.97
 L -20.943,-1616.94 L -20.906,-1616.91 L -20.8615,-1616.88 L -20.8241,-1616.85 L -20.7793,-1616.82 L -20.7417,-1616.79
 L -20.6966,-1616.76 L -20.6587,-1616.73 L -20.6133,-1616.7 L -20.5752,-1616.68 L -20.5294,-1616.65 L -20.491,-1616.62
 L -20.445,-1616.59 L -20.4063,-1616.57 L -20.36,-1616.54 L -20.3211,-1616.51 L -20.2744,-1616.48 L -20.2353,-1616.46
 L -20.1883,-1616.43 L -20.1489,-1616.41 L -20.1017,-1616.38 L -20.0621,-1616.36 L -20.0146,-1616.33 L -19.9747,-1616.3
 L -19.9269,-1616.28 L -19.8868,-1616.26 L -19.8388,-1616.23 L -19.7985,-1616.21 L -19.7501,-1616.18 L -19.7096,-1616.16
 L -19.661,-1616.13 L -19.6202,-1616.11 L -19.5714,-1616.09 L -19.5304,-1616.06 L -19.4813,-1616.04 L -19.4401,-1616.02
 L -19.3908,-1616 L -19.3494,-1615.98 L -19.2998,-1615.95 L -19.2582,-1615.93 L -19.2084,-1615.91 L -19.1666,-1615.89
 L -19.1165,-1615.87 L -19.0746,-1615.85 L -19.0242,-1615.83 L -18.9821,-1615.81 L -18.9316,-1615.78 L -18.8893,-1615.77
 L -18.8385,-1615.75 L -18.796,-1615.73 L -18.745,-1615.71 L -18.7024,-1615.69 L -18.6512,-1615.67 L -18.6083,-1615.65
 L -18.5569,-1615.63 L -18.5139,-1615.62 L -18.4623,-1615.6 L -18.4192,-1615.58 L -18.3674,-1615.56 L -18.3241,-1615.55
 L -18.2721,-1615.53 L -18.2287,-1615.52 L -18.1765,-1615.5 L -18.1537,-1615.49 L -17.3368,-1615.77 L -15.3352,-1616.56
 L -9.69617,-1618.77 L -7.9094,-1619.58 L -3.03684,-1621.79 L -1.45317,-1622.63 L 2.73485,-1624.84 L 4.13386,-1625.71
 L 7.72108,-1627.91 L 8.95918,-1628.8 L 12.0312,-1631 L 13.1354,-1631.93 L 15.777,-1634.14 L 16.7751,-1635.12
 L 19.066,-1637.36 L 19.9835,-1638.42 L 21.9928,-1640.72 L 22.851,-1641.88 L 24.6335,-1644.27 L 25.4476,-1645.56
 L 27.0425,-1648.06 L 27.8219,-1649.51 L 29.2547,-1652.15 L 30.0031,-1653.77 L 31.2888,-1656.56 L 32.006,-1658.39
 L 33.1532,-1661.31 L 33.8361,-1663.37 L 34.8504,-1666.42 L 35.4948,-1668.72 L 36.3812,-1671.88 L 36.9821,-1674.44
 L 37.7463,-1677.67 L 38.299,-1680.5 L 38.948,-1683.8 L 39.4483,-1686.89 L 39.99,-1690.22 L 40.4347,-1693.59
 L 40.878,-1696.94 L 41.2646,-1700.58 L 41.6192,-1703.91 L 41.9461,-1707.83 L 42.2215,-1711.12 L 42.488,-1715.32
 L 42.6938,-1718.55 L 42.8998,-1723.03 L 43.0454,-1726.18 L 43.1915,-1730.94 L 43.2858,-1733.99 L 43.373,-1739.01
 L 43.4243,-1741.96 L 43.4544,-1747.24 L 43.4704,-1750.06 L 43.4454,-1755.61 L 43.4331,-1758.29 L 43.3553,-1764.09
 L 43.321,-1766.62 L 43.1932,-1772.67 L 43.1427,-1775.04 L 42.9679,-1781.32 L 42.906,-1783.53 L 42.6874,-1790.04
 L 42.6187,-1792.07 L 42.3597,-1798.8 L 42.2878,-1800.66 L 41.9919,-1807.6 L 41.9201,-1809.27 L 41.5911,-1816.41
 L 41.5221,-1817.89 L 41.1638,-1825.21 L 41.0997,-1826.51 L 40.7159,-1834.01 L 40.6585,-1835.12 L 40.2532,-1842.77
 L 40.2039,-1843.7 L 39.781,-1851.49 L 39.7406,-1852.23 L 39.3043,-1860.16 L 39.2735,-1860.72 L 38.8278,-1868.76
 L 38.8068,-1869.14 L 38.3557,-1877.29 L 38.3445,-1877.49 L 37.8922,-1885.72 L 37.8906,-1885.75 L 37.8124,-1887.2
 L 37.4494,-1893.92 L 37.4424,-1894.06 L 37.0238,-1901.99 L 37.0091,-1902.28 L 36.6166,-1909.95 L 36.5951,-1910.39
 L 36.2309,-1917.79 L 36.2038,-1918.37 L 35.8696,-1925.5 L 35.8382,-1926.22 L 35.5354,-1933.08 L 35.5011,-1933.92
 L 35.231,-1940.52 L 35.1954,-1941.48 L 34.959,-1947.82 L 34.9237,-1948.9 L 34.7219,-1954.97 L 34.6886,-1956.15
 L 34.5221,-1961.98 L 34.4927,-1963.25 L 34.3623,-1968.83 L 34.3386,-1970.19 L 34.2447,-1975.53 L 34.2289,-1976.97
 L 34.172,-1982.07 L 34.1661,-1983.58 L 34.1467,-1988.46 L 34.153,-1990.04 L 34.1714,-1994.69 L 34.1923,-1996.34
 L 34.2488,-2000.78 L 34.2868,-2002.48 L 34.3818,-2006.71 L 34.4395,-2008.46 L 34.5733,-2012.5 L 34.6536,-2014.3
 L 34.8264,-2018.15 L 34.9323,-2019.99 L 35.1445,-2023.67 L 35.2791,-2025.55 L 35.5309,-2029.05 L 35.6976,-2030.97
 L 35.9891,-2034.3 L 36.1915,-2036.26 L 36.5228,-2039.44 L 36.7647,-2041.42 L 37.1356,-2044.45 L 37.4209,-2046.47
 L 37.8309,-2049.36 L 38.1637,-2051.41 L 38.6122,-2054.16 L 38.9964,-2056.24 L 39.4821,-2058.86 L 39.9218,-2060.97
 L 40.4431,-2063.45 L 40.9418,-2065.59 L 41.4964,-2067.95 L 42.0574,-2070.11 L 42.6423,-2072.34 L 43.2682,-2074.52
 L 43.8796,-2076.63 L 44.5722,-2078.83 L 45.2059,-2080.82 L 45.9656,-2083.03 L 46.6165,-2084.91 L 47.4428,-2087.12
 L 48.1054,-2088.88 L 48.9961,-2091.09 L 49.6644,-2092.74 L 50.6159,-2094.95 L 51.2838,-2096.49 L 52.2906,-2098.68
 L 52.9519,-2100.11 L 54.0069,-2102.27 L 54.6553,-2103.6 L 55.3453,-2104.95 L 55.3456,-2120 L 34.4165,-2120
 L 8.27808,-1649.42 L 8.27492,-1649.37 L 8.27227,-1649.32 L 8.26858,-1649.27 L 8.26548,-1649.23 L 8.26128,-1649.17
 L 8.25776,-1649.13 L 8.25301,-1649.08 L 8.24904,-1649.03 L 8.24378,-1648.98 L 8.23938,-1648.94 L 8.23359,-1648.89
 L 8.22873,-1648.84 L 8.22243,-1648.79 L 8.21715,-1648.75 L 8.21031,-1648.7 L 8.20459,-1648.65 L 8.19723,-1648.6
 L 8.19106,-1648.56 L 8.18319,-1648.51 L 8.17659,-1648.46 L 8.16819,-1648.41 L 8.16115,-1648.37 L 8.15223,-1648.32
 L 8.14476,-1648.27 L 8.13532,-1648.22 L 8.12741,-1648.18 L 8.11746,-1648.13 L 8.10911,-1648.09 L 8.09864,-1648.03
 L 8.08986,-1647.99 L 8.07887,-1647.94 L 8.06966,-1647.9 L 8.05816,-1647.85 L 8.04852,-1647.8 L 8.0365,-1647.75
 L 8.02643,-1647.71 L 8.0139,-1647.66 L 8.00339,-1647.62 L 7.99036,-1647.57 L 7.97943,-1647.52 L 7.96587,-1647.47
 L 7.95451,-1647.43 L 7.94045,-1647.38 L 7.92867,-1647.34 L 7.9141,-1647.29 L 7.9019,-1647.25 L 7.88682,-1647.2
 L 7.87419,-1647.16 L 7.85861,-1647.11 L 7.84555,-1647.06 L 7.82948,-1647.01 L 7.816,-1646.97 L 7.79942,-1646.92
 L 7.78553,-1646.88 L 7.76845,-1646.83 L 7.75413,-1646.79 L 7.73655,-1646.74 L 7.72182,-1646.7 L 7.70375,-1646.65
 L 7.6886,-1646.61 L 7.67004,-1646.56 L 7.65448,-1646.52 L 7.63542,-1646.47 L 7.61944,-1646.43 L 7.5999,-1646.38
 L 7.58351,-1646.34 L 7.56347,-1646.29 L 7.54668,-1646.25 L 7.52616,-1646.21 L 7.50896,-1646.17 L 7.48795,-1646.12
 L 7.47034,-1646.08 L 7.44886,-1646.03 L 7.43085,-1645.99 L 7.40889,-1645.94 L 7.39047,-1645.9 L 7.36803,-1645.86
 L 7.34921,-1645.82 L 7.3263,-1645.77 L 7.30709,-1645.73 L 7.2837,-1645.68 L 7.26408,-1645.64 L 7.24023,-1645.6
 L 7.22022,-1645.56 L 7.19589,-1645.51 L 7.1755,-1645.47 L 7.15071,-1645.43 L 7.12992,-1645.39 L 7.10467,-1645.34
 L 7.08349,-1645.31 L 7.05778,-1645.26 L 7.03622,-1645.22 L 7.01004,-1645.18 L 6.9881,-1645.14 L 6.96147,-1645.09
 L 6.93915,-1645.06 L 6.91207,-1645.01 L 6.88937,-1644.97 L 6.86184,-1644.93 L 6.83875,-1644.89 L 6.81078,-1644.85
 L 6.78732,-1644.81 L 6.7589,-1644.77 L 6.73507,-1644.73 L 6.70622,-1644.69 L 6.68202,-1644.65 L 6.65272,-1644.61
 L 6.62815,-1644.57 L 6.59843,-1644.53 L 6.57349,-1644.49 L 6.54333,-1644.45 L 6.51804,-1644.42 L 6.48745,-1644.37
 L 6.46179,-1644.34 L 6.43078,-1644.3 L 6.40477,-1644.26 L 6.37333,-1644.22 L 6.34696,-1644.18 L 6.31511,-1644.14
 L 6.28839,-1644.11 L 6.25612,-1644.07 L 6.22905,-1644.03 L 6.19636,-1643.99 L 6.16895,-1643.96 L 6.13586,-1643.92
 L 6.1081,-1643.88 L 6.0746,-1643.84 L 6.0465,-1643.81 L 6.0126,-1643.77 L 5.98416,-1643.74 L 5.94987,-1643.7
 L 5.9211,-1643.66 L 5.8864,-1643.63 L 5.8573,-1643.59 L 5.82221,-1643.55 L 5.79277,-1643.52 L 5.75731,-1643.48
 L 5.72755,-1643.45 L 5.69169,-1643.41 L 5.6616,-1643.38 L 5.62536,-1643.34 L 5.59496,-1643.31 L 5.55835,-1643.28
 L 5.52763,-1643.24 L 5.49064,-1643.21 L 5.45961,-1643.18 L 5.42224,-1643.14 L 5.39089,-1643.11 L 5.35317,-1643.07
 L 5.32153,-1643.04 L 5.28344,-1643.01 L 5.25148,-1642.98 L 5.21303,-1642.94 L 5.18077,-1642.91 L 5.14197,-1642.88
 L 5.10941,-1642.85 L 5.07027,-1642.81 L 5.03743,-1642.79 L 4.99793,-1642.75 L 4.96479,-1642.72 L 4.92495,-1642.69
 L 4.89152,-1642.66 L 4.85134,-1642.63 L 4.81762,-1642.6 L 4.77712,-1642.57 L 4.74313,-1642.54 L 4.70228,-1642.51
 L 4.66801,-1642.48 L 4.62685,-1642.45 L 4.59231,-1642.42 L 4.55082,-1642.39 L 4.516,-1642.36 L 4.4742,-1642.33
 L 4.43912,-1642.3 L 4.397,-1642.27 L 4.36166,-1642.25 L 4.31923,-1642.22 L 4.28362,-1642.19 L 4.2409,-1642.16
 L 4.20504,-1642.14 L 4.16201,-1642.11 L 4.1259,-1642.08 L 4.08258,-1642.05 L 4.04622,-1642.03 L 4.0026,-1642
 L 3.96599,-1641.98 L 3.92209,-1641.95 L 3.88523,-1641.92 L 3.84105,-1641.9 L 3.80397,-1641.87 L 3.75951,-1641.85
 L 3.72219,-1641.82 L 3.67745,-1641.8 L 3.6399,-1641.77 L 3.5949,-1641.75 L 3.55712,-1641.73 L 3.51186,-1641.7
 L 3.47386,-1641.68 L 3.42833,-1641.65 L 3.39011,-1641.63 L 3.34433,-1641.61 L 3.3059,-1641.58 L 3.25987,-1641.56
 L 3.22123,-1641.54 L 3.17495,-1641.52 L 3.13609,-1641.5 L 3.08958,-1641.47 L 3.05053,-1641.45 L 3.00378,-1641.43
 L 2.96452,-1641.41 L 2.91755,-1641.39 L 2.87811,-1641.37 L 2.8309,-1641.35 L 2.79125,-1641.33 L 2.74383,-1641.31
 L 2.704,-1641.29 L 2.65635,-1641.27 L 2.61634,-1641.25 L 2.56849,-1641.23 L 2.52831,-1641.21 L 2.48025,-1641.19
 L 2.43989,-1641.17 L 2.39163,-1641.15 L 2.3511,-1641.14 L 2.30263,-1641.12 L 2.26194,-1641.1 L 2.21328,-1641.08
 L 2.17242,-1641.07 L 2.12358,-1641.05 L 2.08257,-1641.03 L 2.03354,-1641.01 L 1.99237,-1641 L 1.94317,-1640.98
 L 1.90186,-1640.97 L 1.85248,-1640.95 L 1.81101,-1640.94 L 1.76147,-1640.92 L 1.71986,-1640.91 L 1.67016,-1640.89
 L 1.62842,-1640.88 L 1.57856,-1640.86 L 1.53669,-1640.85 L 1.48668,-1640.83 L 1.44467,-1640.82 L 1.39451,-1640.81
 L 1.35239,-1640.8 L 1.30209,-1640.78 L 1.25985,-1640.77 L 1.20942,-1640.76 L 1.16705,-1640.75 L 1.11649,-1640.73
 L 1.07401,-1640.72 L 1.02332,-1640.71 L 0.98074,-1640.7 L 0.929932,-1640.69 L 0.887249,-1640.68 L 0.83632,-1640.67
 L 0.793535,-1640.66 L 0.742503,-1640.65 L 0.699629,-1640.64 L 0.648485,-1640.63 L 0.605516,-1640.62 L 0.554277,-1640.61
 L 0.511227,-1640.6 L 0.459893,-1640.59 L 0.416762,-1640.58 L 0.365332,-1640.58 L 0.32212,-1640.57 L 0.270611,-1640.56
 L 0.227332,-1640.55 L 0.175746,-1640.55 L 0.1324,-1640.54 L 0.0807348,-1640.53 L 0.0373223,-1640.53 L -0.014405,-1640.52
 L -0.0578711,-1640.51 L -0.109668,-1640.51 L -0.153193,-1640.5 L -0.205044,-1640.5 L -0.248615,-1640.49 L -0.300519,-1640.49
 L -0.344137,-1640.48 L -0.396094,-1640.48 L -0.439757,-1640.48 L -0.491751,-1640.47 L -0.535447,-1640.47 L -0.587477,-1640.46
 L -0.631204,-1640.46 L -0.683263,-1640.46 L -0.727015,-1640.46 L -0.779102,-1640.45 L -0.822879,-1640.45 L -0.874986,-1640.45
 L -0.918781,-1640.45 L -0.970908,-1640.45 L -1.01472,-1640.45 L -1.06685,-1640.45 L -1.11067,-1640.44 L -1.11522,-1640.44
 L -19.5221,-1641.47 L -19.5517,-1641.46 L -19.5944,-1641.44 L -19.6448,-1641.42 L -19.6873,-1641.4 L -19.7374,-1641.38
 L -19.7798,-1641.36 L -19.8297,-1641.33 L -19.8718,-1641.32 L -19.9216,-1641.29 L -19.9635,-1641.27 L -20.013,-1641.25
 L -20.0547,-1641.23 L -20.1039,-1641.21 L -20.1455,-1641.18 L -20.1945,-1641.16 L -20.2358,-1641.14 L -20.2845,-1641.11
 L -20.3256,-1641.09 L -20.3741,-1641.07 L -20.415,-1641.05 L -20.4633,-1641.02 L -20.5039,-1641 L -20.5519,-1640.97
 L -20.5923,-1640.95 L -20.6401,-1640.92 L -20.6803,-1640.9 L -20.7277,-1640.87 L -20.7677,-1640.85 L -20.8148,-1640.82
 L -20.8546,-1640.8 L -20.9015,-1640.77 L -20.9409,-1640.75 L -20.9876,-1640.72 L -21.0268,-1640.69 L -21.0731,-1640.66
 L -21.1121,-1640.64 L -21.1581,-1640.61 L -21.1968,-1640.58 L -21.2426,-1640.55 L -21.281,-1640.53 L -21.3264,-1640.5
 L -21.3646,-1640.47 L -21.4097,-1640.44 L -21.4477,-1640.41 L -21.4925,-1640.38 L -21.5301,-1640.35 L -21.5746,-1640.32
 L -21.612,-1640.3 L -21.6561,-1640.26 L -21.6933,-1640.24 L -21.7371,-1640.2 L -21.7739,-1640.17 L -21.8174,-1640.14
 L -21.8539,-1640.11 L -21.8971,-1640.08 L -21.9334,-1640.05 L -21.9762,-1640.02 L -22.0121,-1639.99 L -22.0546,-1639.95
 L -22.0902,-1639.92 L -22.1323,-1639.89 L -22.1677,-1639.86 L -22.2095,-1639.82 L -22.2446,-1639.79 L -22.2859,-1639.76
 L -22.3207,-1639.73 L -22.3617,-1639.69 L -22.3962,-1639.66 L -22.4368,-1639.62 L -22.471,-1639.59 L -22.5112,-1639.55
 L -22.5451,-1639.52 L -22.585,-1639.49 L -22.6185,-1639.45 L -22.658,-1639.42 L -22.6912,-1639.38 L -22.7303,-1639.35
 L -22.7632,-1639.31 L -22.8019,-1639.27 L -22.8345,-1639.24 L -22.8728,-1639.2 L -22.905,-1639.17 L -22.943,-1639.13
 L -22.9748,-1639.1 L -23.0124,-1639.06 L -23.0439,-1639.02 L -23.081,-1638.98 L -23.1122,-1638.95 L -23.149,-1638.91
 L -23.1798,-1638.87 L -23.2161,-1638.83 L -23.2466,-1638.8 L -23.2825,-1638.76 L -23.3126,-1638.72 L -23.3481,-1638.68
 L -23.3779,-1638.64 L -23.413,-1638.6 L -23.4424,-1638.57 L -23.477,-1638.52 L -23.506,-1638.49 L -23.5403,-1638.44
 L -23.5689,-1638.41 L -23.6027,-1638.37 L -23.631,-1638.33 L -23.6644,-1638.29 L -23.6923,-1638.25 L -23.7252,-1638.2
 L -23.7528,-1638.17 L -23.7853,-1638.12 L -23.8124,-1638.09 L -23.8445,-1638.04 L -23.8713,-1638 L -23.9028,-1637.96
 L -23.9292,-1637.92 L -23.9604,-1637.88 L -23.9864,-1637.84 L -24.0171,-1637.79 L -24.0427,-1637.75 L -24.0729,-1637.71
 L -24.0982,-1637.67 L -24.1279,-1637.62 L -24.1528,-1637.58 L -24.1821,-1637.54 L -24.2065,-1637.5 L -24.2353,-1637.45
 L -24.2594,-1637.41 L -24.2877,-1637.37 L -24.3114,-1637.33 L -24.3393,-1637.28 L -24.3625,-1637.24 L -24.3899,-1637.19
 L -24.4128,-1637.15 L -24.4397,-1637.1 L -24.4621,-1637.06 L -24.4886,-1637.02 L -24.5106,-1636.97 L -24.5365,-1636.93
 L -24.5581,-1636.89 L -24.5836,-1636.84 L -24.6048,-1636.8 L -24.6298,-1636.75 L -24.6506,-1636.71 L -24.675,-1636.66
 L -24.6954,-1636.62 L -24.7194,-1636.57 L -24.7393,-1636.52 L -24.7628,-1636.47 L -24.7823,-1636.43 L -24.8053,-1636.38
 L -24.8244,-1636.34 L -24.8469,-1636.29 L -24.8656,-1636.25 L -24.8876,-1636.2 L -24.9058,-1636.16 L -24.9273,-1636.11
 L -24.945,-1636.06 L -24.966,-1636.01 L -24.9834,-1635.97 L -25,-1635.93 z
" stroke="black" fill="lightgray" stroke-width="0.5"/>
</svg>
