<?xml version="1.0" standalone="no"?>
<!DOCTYPE svg PUBLIC "-//W3C//DTD SVG 1.1//EN" "http://www.w3.org/Graphics/SVG/1.1/DTD/svg11.dtd">
<svg width="81mm" height="505mm" viewBox="-25 -2120 81 505" xmlns="http://www.w3.org/2000/svg" version="1.1">
<title>OpenSCAD Model</title>
<path d="
M -25,-1624.99 L -24.9999,-1624.99 L -24.9999,-1624.94 L -24.9997,-1624.92 L -24.9988,-1624.84 L -24.9985,-1624.82
 L -24.9968,-1624.74 L -24.9963,-1624.72 L -24.9937,-1624.64 L -24.9931,-1624.62 L -24.9897,-1624.53 L -24.9888,-1624.52
 L -24.9846,-1624.43 L -24.9836,-1624.42 L -24.9784,-1624.33 L -24.9773,-1624.32 L -24.9713,-1624.23 L -24.97,-1624.22
 L -24.9632,-1624.13 L -24.9616,-1624.11 L -24.954,-1624.03 L -24.9523,-1624.01 L -24.9438,-1623.93 L -24.942,-1623.91
 L -24.9326,-1623.83 L -24.9306,-1623.81 L -24.9204,-1623.73 L -24.9182,-1623.71 L -24.9072,-1623.63 L -24.9048,-1623.61
 L -24.8929,-1623.53 L -24.8904,-1623.51 L -24.8777,-1623.43 L -24.875,-1623.41 L -24.8614,-1623.33 L -24.8586,-1623.31
 L -24.8441,-1623.23 L -24.8411,-1623.21 L -24.8259,-1623.13 L -24.8227,-1623.11 L -24.8066,-1623.03 L -24.8033,-1623.02
 L -24.7863,-1622.93 L -24.7828,-1622.92 L -24.7651,-1622.83 L -24.7614,-1622.82 L -24.7428,-1622.74 L -24.739,-1622.72
 L -24.7195,-1622.64 L -24.7156,-1622.62 L -24.6953,-1622.54 L -24.6911,-1622.52 L -24.6701,-1622.44 L -24.6657,-1622.43
 L -24.6438,-1622.34 L -24.6394,-1622.33 L -24.6166,-1622.25 L -24.612,-1622.23 L -24.5884,-1622.15 L -24.5836,-1622.13
 L -24.5593,-1622.05 L -24.5543,-1622.04 L -24.5291,-1621.96 L -24.524,-1621.94 L -24.498,-1621.86 L -24.4927,-1621.84
 L -24.4659,-1621.76 L -24.4605,-1621.75 L -24.4328,-1621.67 L -24.4272,-1621.65 L -24.3988,-1621.57 L -24.3931,-1621.56
 L -24.3639,-1621.48 L -24.3579,-1621.46 L -24.3279,-1621.38 L -24.3219,-1621.37 L -24.291,-1621.29 L -24.2848,-1621.28
 L -24.2532,-1621.2 L -24.2468,-1621.18 L -24.2144,-1621.1 L -24.2079,-1621.09 L -24.1747,-1621.01 L -24.168,-1621
 L -24.1341,-1620.92 L -24.1272,-1620.9 L -24.0925,-1620.83 L -24.0855,-1620.81 L -24.05,-1620.73 L -24.0428,-1620.72
 L -24.0065,-1620.64 L -23.9992,-1620.63 L -23.9622,-1620.55 L -23.9547,-1620.54 L -23.9169,-1620.46 L -23.9093,-1620.45
 L -23.8707,-1620.37 L -23.863,-1620.36 L -23.8237,-1620.28 L -23.8158,-1620.27 L -23.7757,-1620.19 L -23.7676,-1620.18
 L -23.7268,-1620.11 L -23.7186,-1620.09 L -23.677,-1620.02 L -23.6687,-1620 L -23.6264,-1619.93 L -23.6179,-1619.92
 L -23.5748,-1619.84 L -23.5662,-1619.83 L -23.5224,-1619.76 L -23.5137,-1619.74 L -23.4691,-1619.67 L -23.4602,-1619.66
 L -23.415,-1619.59 L -23.406,-1619.57 L -23.36,-1619.5 L -23.3508,-1619.49 L -23.3042,-1619.42 L -23.2948,-1619.4
 L -23.2475,-1619.33 L -23.238,-1619.32 L -23.1899,-1619.25 L -23.1803,-1619.24 L -23.1315,-1619.17 L -23.1218,-1619.15
 L -23.0723,-1619.09 L -23.0624,-1619.07 L -23.0123,-1619.01 L -23.0023,-1618.99 L -22.9514,-1618.92 L -22.9413,-1618.91
 L -22.8898,-1618.84 L -22.8795,-1618.83 L -22.8273,-1618.77 L -22.8169,-1618.75 L -22.764,-1618.69 L -22.7535,-1618.67
 L -22.7,-1618.61 L -22.6893,-1618.6 L -22.6351,-1618.53 L -22.6243,-1618.52 L -22.5695,-1618.45 L -22.5586,-1618.44
 L -22.5031,-1618.38 L -22.4921,-1618.37 L -22.4359,-1618.3 L -22.4248,-1618.29 L -22.368,-1618.23 L -22.3567,-1618.22
 L -22.2993,-1618.15 L -22.2879,-1618.14 L -22.2299,-1618.08 L -22.2184,-1618.07 L -22.1598,-1618.01 L -22.1481,-1618
 L -22.0889,-1617.94 L -22.0771,-1617.92 L -22.0173,-1617.86 L -22.0054,-1617.85 L -21.945,-1617.79 L -21.9329,-1617.78
 L -21.8719,-1617.72 L -21.8598,-1617.71 L -21.7982,-1617.65 L -21.7859,-1617.64 L -21.7238,-1617.59 L -21.7114,-1617.58
 L -21.6487,-1617.52 L -21.6362,-1617.51 L -21.5729,-1617.45 L -21.5603,-1617.44 L -21.4964,-1617.39 L -21.4837,-1617.38
 L -21.4193,-1617.32 L -21.4065,-1617.31 L -21.3415,-1617.26 L -21.3286,-1617.25 L -21.2631,-1617.19 L -21.2501,-1617.18
 L -21.184,-1617.13 L -21.1709,-1617.12 L -21.1043,-1617.07 L -21.0911,-1617.06 L -21.024,-1617.01 L -21.0107,-1617
 L -20.943,-1616.95 L -20.9296,-1616.94 L -20.8615,-1616.89 L -20.848,-1616.88 L -20.7793,-1616.83 L -20.7657,-1616.82
 L -20.6966,-1616.77 L -20.6829,-1616.76 L -20.6133,-1616.71 L -20.5995,-1616.7 L -20.5294,-1616.66 L -20.5155,-1616.65
 L -20.445,-1616.6 L -20.431,-1616.59 L -20.36,-1616.55 L -20.3459,-1616.54 L -20.2744,-1616.49 L -20.2602,-1616.48
 L -20.1883,-1616.44 L -20.1741,-1616.43 L -20.1017,-1616.39 L -20.0874,-1616.38 L -20.0146,-1616.34 L -20.0001,-1616.33
 L -19.9269,-1616.29 L -19.9124,-1616.28 L -19.8388,-1616.24 L -19.8242,-1616.23 L -19.7501,-1616.19 L -19.7354,-1616.18
 L -19.661,-1616.14 L -19.6462,-1616.13 L -19.5714,-1616.09 L -19.5565,-1616.09 L -19.4813,-1616.05 L -19.4664,-1616.04
 L -19.3908,-1616 L -19.3758,-1616 L -19.2998,-1615.96 L -19.2847,-1615.95 L -19.2084,-1615.92 L -19.1932,-1615.91
 L -19.1165,-1615.88 L -19.1013,-1615.87 L -19.0242,-1615.83 L -19.009,-1615.83 L -18.9316,-1615.79 L -18.9162,-1615.79
 L -18.8385,-1615.75 L -18.8231,-1615.75 L -18.745,-1615.72 L -18.7296,-1615.71 L -18.6512,-1615.68 L -18.6357,-1615.67
 L -18.5569,-1615.64 L -18.5414,-1615.64 L -18.5091,-1615.62 L -18.3848,-1615.67 L -14.8965,-1617.02 L -10.6515,-1618.66
 L -7.59583,-1620.04 L -3.90845,-1621.69 L -1.2474,-1623.08 L 1.93751,-1624.74 L 4.2472,-1626.15 L 6.98811,-1627.81
 L 8.99411,-1629.23 L 11.3525,-1630.91 L 13.1047,-1632.36 L 15.1429,-1634.05 L 16.6898,-1635.55 L 18.4675,-1637.27
 L 19.8527,-1638.85 L 21.4223,-1640.63 L 22.6813,-1642.31 L 24.085,-1644.17 L 25.2433,-1645.98 L 26.5118,-1647.95
 L 27.5856,-1649.92 L 28.7386,-1652.02 L 29.7366,-1654.17 L 30.7854,-1656.42 L 31.7106,-1658.76 L 32.661,-1661.16
 L 33.5135,-1663.7 L 34.3685,-1666.25 L 35.1469,-1669 L 35.9084,-1671.69 L 36.6114,-1674.65 L 37.2815,-1677.47
 L 37.9083,-1680.64 L 38.49,-1683.58 L 39.0406,-1686.95 L 39.5377,-1690 L 40.0129,-1693.57 L 40.4302,-1696.7
 L 40.8316,-1700.45 L 41.1744,-1703.66 L 41.5045,-1707.6 L 41.7784,-1710.86 L 42.0402,-1714.97 L 42.2512,-1718.28
 L 42.4479,-1722.56 L 42.6019,-1725.91 L 42.7373,-1730.34 L 42.8402,-1733.71 L 42.918,-1738.29 L 42.9754,-1741.66
 L 42.9997,-1746.39 L 43.0171,-1749.76 L 42.9918,-1754.62 L 42.9742,-1757.98 L 42.9035,-1762.96 L 42.8557,-1766.31
 L 42.7434,-1771.4 L 42.6701,-1774.72 L 42.5202,-1779.92 L 42.4253,-1783.21 L 42.2417,-1788.51 L 42.129,-1791.75
 L 41.9156,-1797.13 L 41.7886,-1800.33 L 41.549,-1805.8 L 41.4108,-1808.94 L 41.1486,-1814.47 L 41.0022,-1817.56
 L 40.7209,-1823.15 L 40.5687,-1826.18 L 40.2717,-1831.82 L 40.1161,-1834.78 L 39.8067,-1840.47 L 39.6498,-1843.35
 L 39.3311,-1849.08 L 39.1746,-1851.89 L 38.8499,-1857.64 L 38.6954,-1860.37 L 38.3675,-1866.14 L 38.2165,-1868.79
 L 37.8883,-1874.57 L 37.742,-1877.14 L 37.4164,-1882.91 L 37.2759,-1885.4 L 36.9555,-1891.17 L 36.8217,-1893.57
 L 36.5092,-1899.32 L 36.3829,-1901.64 L 36.0809,-1907.36 L 35.9628,-1909.59 L 35.6738,-1915.28 L 35.5644,-1917.43
 L 35.2909,-1923.08 L 35.1907,-1925.14 L 34.9351,-1930.74 L 34.8445,-1932.72 L 34.6093,-1938.27 L 34.5285,-1940.16
 L 34.316,-1945.65 L 34.2454,-1947.46 L 34.0579,-1952.88 L 33.9977,-1954.62 L 33.8377,-1959.96 L 33.788,-1961.62
 L 33.6579,-1966.89 L 33.6188,-1968.47 L 33.521,-1973.67 L 33.4926,-1975.17 L 33.4297,-1980.28 L 33.412,-1981.72
 L 33.3866,-1986.74 L 33.3796,-1988.11 L 33.3943,-1993.05 L 33.3981,-1994.35 L 33.4558,-1999.2 L 33.4704,-2000.43
 L 33.5738,-2005.2 L 33.5992,-2006.37 L 33.7516,-2011.06 L 33.7877,-2012.17 L 33.9922,-2016.77 L 34.039,-2017.82
 L 34.2991,-2022.34 L 34.3566,-2023.34 L 34.6757,-2027.78 L 34.7438,-2028.73 L 35.1259,-2033.09 L 35.2044,-2033.99
 L 35.6532,-2038.28 L 35.7421,-2039.13 L 36.2615,-2043.36 L 36.3605,-2044.16 L 36.9546,-2048.32 L 37.0633,-2049.07
 L 37.7358,-2053.17 L 37.8539,-2053.88 L 38.6083,-2057.91 L 38.7352,-2058.59 L 39.5746,-2062.56 L 39.7096,-2063.2
 L 40.6362,-2067.1 L 40.7785,-2067.7 L 41.7935,-2071.54 L 41.942,-2072.11 L 43.0456,-2075.88 L 43.1991,-2076.41
 L 44.3899,-2080.12 L 44.5469,-2080.61 L 45.822,-2084.25 L 45.9811,-2084.7 L 47.3356,-2088.26 L 47.4951,-2088.68
 L 48.9226,-2092.17 L 49.0808,-2092.55 L 50.5727,-2095.95 L 50.728,-2096.3 L 52.274,-2099.6 L 52.4249,-2099.93
 L 54.013,-2103.13 L 54.1577,-2103.42 L 55.0937,-2105.22 L 55.0935,-2120 L 34.4368,-2120 L 8.29432,-1649.42
 L 8.28946,-1649.34 L 8.28851,-1649.33 L 8.28284,-1649.25 L 8.28172,-1649.23 L 8.27527,-1649.15 L 8.27399,-1649.14
 L 8.26671,-1649.06 L 8.26528,-1649.04 L 8.25721,-1648.96 L 8.25562,-1648.95 L 8.24673,-1648.87 L 8.24497,-1648.85
 L 8.23529,-1648.77 L 8.23338,-1648.76 L 8.22289,-1648.68 L 8.22082,-1648.66 L 8.20952,-1648.58 L 8.20729,-1648.57
 L 8.19521,-1648.49 L 8.19282,-1648.47 L 8.17993,-1648.39 L 8.17738,-1648.38 L 8.16369,-1648.3 L 8.16099,-1648.28
 L 8.1465,-1648.2 L 8.14364,-1648.19 L 8.12836,-1648.11 L 8.12534,-1648.09 L 8.10927,-1648.01 L 8.10609,-1648
 L 8.08922,-1647.92 L 8.08588,-1647.91 L 8.06823,-1647.83 L 8.06474,-1647.81 L 8.0463,-1647.73 L 8.04265,-1647.72
 L 8.02342,-1647.64 L 8.01961,-1647.63 L 7.99961,-1647.55 L 7.99565,-1647.53 L 7.97484,-1647.45 L 7.97073,-1647.44
 L 7.94915,-1647.36 L 7.94489,-1647.35 L 7.92253,-1647.27 L 7.91811,-1647.26 L 7.89498,-1647.18 L 7.89041,-1647.16
 L 7.8665,-1647.09 L 7.86177,-1647.07 L 7.83709,-1647 L 7.83222,-1646.98 L 7.80677,-1646.9 L 7.80175,-1646.89
 L 7.77553,-1646.81 L 7.77034,-1646.8 L 7.74336,-1646.72 L 7.73803,-1646.71 L 7.7103,-1646.63 L 7.70482,-1646.62
 L 7.67632,-1646.54 L 7.67069,-1646.53 L 7.64144,-1646.45 L 7.63565,-1646.44 L 7.60565,-1646.36 L 7.59972,-1646.35
 L 7.56896,-1646.28 L 7.56289,-1646.26 L 7.5314,-1646.19 L 7.52517,-1646.17 L 7.49292,-1646.1 L 7.48655,-1646.09
 L 7.45358,-1646.01 L 7.44706,-1646 L 7.41334,-1645.93 L 7.40668,-1645.91 L 7.37223,-1645.84 L 7.36542,-1645.82
 L 7.33024,-1645.75 L 7.32329,-1645.74 L 7.28739,-1645.67 L 7.28029,-1645.65 L 7.24366,-1645.58 L 7.23642,-1645.57
 L 7.19908,-1645.5 L 7.1917,-1645.48 L 7.15365,-1645.41 L 7.14613,-1645.4 L 7.10736,-1645.33 L 7.09969,-1645.31
 L 7.06022,-1645.24 L 7.05242,-1645.23 L 7.01224,-1645.16 L 7.00429,-1645.15 L 6.96343,-1645.08 L 6.95534,-1645.06
 L 6.91378,-1645 L 6.90557,-1644.98 L 6.8633,-1644.91 L 6.85495,-1644.9 L 6.812,-1644.83 L 6.80351,-1644.82
 L 6.75989,-1644.75 L 6.75127,-1644.74 L 6.70697,-1644.67 L 6.69821,-1644.66 L 6.65324,-1644.59 L 6.64435,-1644.58
 L 6.59871,-1644.51 L 6.58969,-1644.5 L 6.54339,-1644.44 L 6.53423,-1644.42 L 6.48727,-1644.36 L 6.47798,-1644.35
 L 6.43037,-1644.28 L 6.42096,-1644.27 L 6.37269,-1644.2 L 6.36315,-1644.19 L 6.31425,-1644.13 L 6.30458,-1644.12
 L 6.25504,-1644.05 L 6.24524,-1644.04 L 6.19506,-1643.98 L 6.18514,-1643.97 L 6.13433,-1643.9 L 6.12429,-1643.89
 L 6.07286,-1643.83 L 6.06269,-1643.82 L 6.01064,-1643.76 L 6.00035,-1643.74 L 5.94769,-1643.68 L 5.93728,-1643.67
 L 5.88402,-1643.61 L 5.87348,-1643.6 L 5.81961,-1643.54 L 5.80896,-1643.53 L 5.7545,-1643.47 L 5.74374,-1643.46
 L 5.68867,-1643.4 L 5.67779,-1643.39 L 5.62214,-1643.33 L 5.61114,-1643.32 L 5.55493,-1643.26 L 5.54381,-1643.25
 L 5.48702,-1643.2 L 5.47579,-1643.18 L 5.41842,-1643.13 L 5.40707,-1643.12 L 5.34916,-1643.06 L 5.3377,-1643.05
 L 5.27922,-1643 L 5.26766,-1642.99 L 5.20863,-1642.93 L 5.19695,-1642.92 L 5.13738,-1642.87 L 5.12559,-1642.86
 L 5.06549,-1642.8 L 5.0536,-1642.79 L 4.99296,-1642.74 L 4.98097,-1642.73 L 4.9198,-1642.68 L 4.9077,-1642.67
 L 4.846,-1642.62 L 4.8338,-1642.61 L 4.7716,-1642.56 L 4.7593,-1642.55 L 4.69659,-1642.5 L 4.68419,-1642.49
 L 4.62099,-1642.44 L 4.60849,-1642.43 L 4.54478,-1642.38 L 4.53217,-1642.37 L 4.46799,-1642.32 L 4.45529,-1642.31
 L 4.39062,-1642.26 L 4.37783,-1642.26 L 4.31268,-1642.21 L 4.29979,-1642.2 L 4.23419,-1642.15 L 4.22121,-1642.14
 L 4.15514,-1642.1 L 4.14207,-1642.09 L 4.07555,-1642.05 L 4.06239,-1642.04 L 3.99541,-1641.99 L 3.98216,-1641.98
 L 3.91474,-1641.94 L 3.9014,-1641.93 L 3.83356,-1641.89 L 3.82014,-1641.88 L 3.75186,-1641.84 L 3.73836,-1641.83
 L 3.66966,-1641.79 L 3.65607,-1641.78 L 3.58696,-1641.74 L 3.57329,-1641.73 L 3.50378,-1641.69 L 3.49003,-1641.69
 L 3.42011,-1641.65 L 3.40627,-1641.64 L 3.33597,-1641.6 L 3.32206,-1641.59 L 3.25138,-1641.55 L 3.2374,-1641.55
 L 3.16632,-1641.51 L 3.15226,-1641.5 L 3.08083,-1641.47 L 3.0667,-1641.46 L 2.9949,-1641.42 L 2.98069,-1641.42
 L 2.90855,-1641.38 L 2.89427,-1641.38 L 2.82177,-1641.34 L 2.80742,-1641.33 L 2.73458,-1641.3 L 2.72017,-1641.29
 L 2.64699,-1641.26 L 2.63251,-1641.26 L 2.55901,-1641.22 L 2.54447,-1641.22 L 2.47066,-1641.19 L 2.45605,-1641.18
 L 2.38193,-1641.15 L 2.36726,-1641.14 L 2.29283,-1641.11 L 2.2781,-1641.11 L 2.20337,-1641.08 L 2.18858,-1641.07
 L 2.11357,-1641.05 L 2.09873,-1641.04 L 2.02343,-1641.01 L 2.00853,-1641.01 L 1.93297,-1640.98 L 1.91802,-1640.98
 L 1.84218,-1640.95 L 1.82717,-1640.94 L 1.75108,-1640.92 L 1.73602,-1640.91 L 1.65969,-1640.89 L 1.64458,-1640.89
 L 1.568,-1640.86 L 1.55285,-1640.86 L 1.47603,-1640.83 L 1.46083,-1640.83 L 1.38379,-1640.81 L 1.36855,-1640.8
 L 1.2913,-1640.78 L 1.27601,-1640.78 L 1.19855,-1640.76 L 1.18321,-1640.75 L 1.10554,-1640.73 L 1.09017,-1640.73
 L 1.01231,-1640.71 L 0.996899,-1640.71 L 0.918855,-1640.69 L 0.903408,-1640.69 L 0.825178,-1640.67 L 0.809694,-1640.67
 L 0.731304,-1640.65 L 0.715787,-1640.65 L 0.637225,-1640.63 L 0.621674,-1640.63 L 0.542965,-1640.61 L 0.527385,-1640.61
 L 0.448529,-1640.59 L 0.43292,-1640.59 L 0.353916,-1640.58 L 0.338277,-1640.58 L 0.259153,-1640.56 L 0.24349,-1640.56
 L 0.164244,-1640.55 L 0.148557,-1640.55 L 0.0691908,-1640.54 L 0.0534796,-1640.53 L -0.0259833,-1640.52 L -0.0417138,-1640.52
 L -0.121284,-1640.51 L -0.137036,-1640.51 L -0.216689,-1640.5 L -0.232458,-1640.5 L -0.312195,-1640.49 L -0.32798,-1640.49
 L -0.407798,-1640.48 L -0.4236,-1640.48 L -0.503476,-1640.48 L -0.51929,-1640.48 L -0.599222,-1640.47 L -0.615047,-1640.47
 L -0.695024,-1640.46 L -0.710858,-1640.46 L -0.790879,-1640.46 L -0.806722,-1640.46 L -0.886775,-1640.46 L -0.902624,-1640.46
 L -0.982708,-1640.45 L -0.998564,-1640.45 L -1.07865,-1640.45 L -1.09451,-1640.45 L -1.17462,-1640.45 L -1.19048,-1640.45
 L -1.26445,-1640.45 L -19.526,-1641.47 L -19.5355,-1641.46 L -19.551,-1641.46 L -19.6286,-1641.42 L -19.644,-1641.42
 L -19.7213,-1641.38 L -19.7366,-1641.38 L -19.8135,-1641.34 L -19.8288,-1641.34 L -19.9054,-1641.3 L -19.9205,-1641.29
 L -19.9968,-1641.26 L -20.0119,-1641.25 L -20.0878,-1641.21 L -20.1028,-1641.21 L -20.1783,-1641.17 L -20.1932,-1641.16
 L -20.2684,-1641.12 L -20.2832,-1641.12 L -20.358,-1641.08 L -20.3728,-1641.07 L -20.4471,-1641.03 L -20.4618,-1641.02
 L -20.5357,-1640.98 L -20.5504,-1640.97 L -20.6239,-1640.93 L -20.6384,-1640.92 L -20.7115,-1640.88 L -20.726,-1640.87
 L -20.7987,-1640.83 L -20.813,-1640.82 L -20.8853,-1640.78 L -20.8996,-1640.77 L -20.9714,-1640.72 L -20.9856,-1640.72
 L -21.0569,-1640.67 L -21.071,-1640.66 L -21.1419,-1640.62 L -21.1559,-1640.61 L -21.2264,-1640.56 L -21.2403,-1640.55
 L -21.3103,-1640.5 L -21.3241,-1640.5 L -21.3936,-1640.45 L -21.4073,-1640.44 L -21.4763,-1640.39 L -21.4899,-1640.38
 L -21.5584,-1640.33 L -21.572,-1640.32 L -21.64,-1640.27 L -21.6534,-1640.26 L -21.7209,-1640.21 L -21.7342,-1640.2
 L -21.8012,-1640.15 L -21.8145,-1640.14 L -21.8809,-1640.09 L -21.894,-1640.08 L -21.96,-1640.02 L -21.973,-1640.01
 L -22.0384,-1639.96 L -22.0513,-1639.95 L -22.1162,-1639.9 L -22.129,-1639.89 L -22.1933,-1639.83 L -22.206,-1639.82
 L -22.2698,-1639.77 L -22.2823,-1639.75 L -22.3456,-1639.7 L -22.358,-1639.69 L -22.4207,-1639.63 L -22.433,-1639.62
 L -22.4951,-1639.56 L -22.5073,-1639.55 L -22.5688,-1639.49 L -22.5809,-1639.48 L -22.6419,-1639.42 L -22.6539,-1639.41
 L -22.7142,-1639.35 L -22.7261,-1639.34 L -22.7858,-1639.28 L -22.7975,-1639.27 L -22.8567,-1639.21 L -22.8683,-1639.2
 L -22.9268,-1639.14 L -22.9383,-1639.13 L -22.9962,-1639.06 L -23.0076,-1639.05 L -23.0649,-1638.99 L -23.0762,-1638.98
 L -23.1328,-1638.92 L -23.1439,-1638.9 L -23.2,-1638.84 L -23.211,-1638.83 L -23.2664,-1638.76 L -23.2772,-1638.75
 L -23.332,-1638.69 L -23.3427,-1638.67 L -23.3968,-1638.61 L -23.4074,-1638.6 L -23.4609,-1638.53 L -23.4714,-1638.52
 L -23.5241,-1638.45 L -23.5345,-1638.44 L -23.5866,-1638.37 L -23.5968,-1638.36 L -23.6483,-1638.29 L -23.6584,-1638.28
 L -23.7091,-1638.21 L -23.7191,-1638.2 L -23.7691,-1638.13 L -23.779,-1638.12 L -23.8283,-1638.05 L -23.838,-1638.04
 L -23.8867,-1637.97 L -23.8962,-1637.95 L -23.9442,-1637.88 L -23.9537,-1637.87 L -24.0009,-1637.8 L -24.0102,-1637.79
 L -24.0568,-1637.72 L -24.0659,-1637.7 L -24.1118,-1637.63 L -24.1208,-1637.62 L -24.1659,-1637.55 L -24.1748,-1637.53
 L -24.2192,-1637.46 L -24.2279,-1637.45 L -24.2716,-1637.37 L -24.2802,-1637.36 L -24.3231,-1637.29 L -24.3315,-1637.27
 L -24.3738,-1637.2 L -24.3821,-1637.18 L -24.4235,-1637.11 L -24.4317,-1637.1 L -24.4724,-1637.02 L -24.4804,-1637.01
 L -24.5204,-1636.93 L -24.5282,-1636.92 L -24.5675,-1636.84 L -24.5751,-1636.83 L -24.6137,-1636.76 L -24.6212,-1636.74
 L -24.6589,-1636.66 L -24.6663,-1636.65 L -24.7033,-1636.57 L -24.7105,-1636.56 L -24.7467,-1636.48 L -24.7537,-1636.47
 L -24.7892,-1636.39 L -24.7961,-1636.38 L -24.8308,-1636.3 L -24.8375,-1636.28 L -24.8714,-1636.21 L -24.878,-1636.19
 L -24.9111,-1636.11 L -24.9176,-1636.1 L -24.9499,-1636.02 L -24.9562,-1636 L -24.9877,-1635.93 L -24.9938,-1635.91
 L -25,-1635.9 z
" stroke="black" fill="lightgray" stroke-width="0.5"/>
</svg>
