<?xml version="1.0" standalone="no"?>
<!DOCTYPE svg PUBLIC "-//W3C//DTD SVG 1.1//EN" "http://www.w3.org/Graphics/SVG/1.1/DTD/svg11.dtd">
<svg width="100mm" height="507mm" viewBox="-25 -2121 100 507" xmlns="http://www.w3.org/2000/svg" version="1.1">
<title>OpenSCAD Model</title>
<path d="
M -25,-1624.99 L -24.9999,-1624.99 L -24.9999,-1624.94 L -24.9991,-1624.86 L -24.9988,-1624.83 L -24.9972,-1624.76
 L -24.9968,-1624.73 L -24.9944,-1624.65 L -24.9937,-1624.63 L -24.9905,-1624.55 L -24.9897,-1624.53 L -24.9856,-1624.45
 L -24.9846,-1624.43 L -24.9797,-1624.35 L -24.9784,-1624.33 L -24.9728,-1624.25 L -24.9713,-1624.23 L -24.9649,-1624.15
 L -24.9632,-1624.13 L -24.9559,-1624.05 L -24.954,-1624.03 L -24.946,-1623.95 L -24.9438,-1623.93 L -24.935,-1623.85
 L -24.9326,-1623.83 L -24.923,-1623.75 L -24.9204,-1623.73 L -24.91,-1623.65 L -24.9072,-1623.63 L -24.8959,-1623.55
 L -24.8929,-1623.53 L -24.8809,-1623.45 L -24.8777,-1623.43 L -24.8649,-1623.35 L -24.8614,-1623.33 L -24.8478,-1623.25
 L -24.8441,-1623.23 L -24.8298,-1623.15 L -24.8259,-1623.13 L -24.8107,-1623.05 L -24.8066,-1623.03 L -24.7906,-1622.95
 L -24.7863,-1622.93 L -24.7696,-1622.85 L -24.7651,-1622.83 L -24.7475,-1622.75 L -24.7428,-1622.73 L -24.7245,-1622.66
 L -24.7195,-1622.63 L -24.7004,-1622.56 L -24.6953,-1622.54 L -24.6754,-1622.46 L -24.6701,-1622.44 L -24.6494,-1622.36
 L -24.6438,-1622.34 L -24.6224,-1622.26 L -24.6166,-1622.24 L -24.5944,-1622.17 L -24.5884,-1622.15 L -24.5655,-1622.07
 L -24.5593,-1622.05 L -24.5355,-1621.97 L -24.5291,-1621.95 L -24.5046,-1621.88 L -24.498,-1621.86 L -24.4727,-1621.78
 L -24.4659,-1621.76 L -24.4399,-1621.69 L -24.4328,-1621.67 L -24.406,-1621.59 L -24.3988,-1621.57 L -24.3713,-1621.5
 L -24.3639,-1621.48 L -24.3355,-1621.4 L -24.3279,-1621.38 L -24.2989,-1621.31 L -24.291,-1621.29 L -24.2612,-1621.21
 L -24.2532,-1621.19 L -24.2227,-1621.12 L -24.2144,-1621.1 L -24.1832,-1621.03 L -24.1747,-1621.01 L -24.1427,-1620.94
 L -24.1341,-1620.92 L -24.1013,-1620.84 L -24.0925,-1620.82 L -24.059,-1620.75 L -24.05,-1620.73 L -24.0158,-1620.66
 L -24.0065,-1620.64 L -23.9716,-1620.57 L -23.9622,-1620.55 L -23.9265,-1620.48 L -23.9169,-1620.46 L -23.8805,-1620.39
 L -23.8707,-1620.37 L -23.8337,-1620.3 L -23.8237,-1620.28 L -23.7859,-1620.21 L -23.7757,-1620.19 L -23.7372,-1620.12
 L -23.7268,-1620.1 L -23.6876,-1620.03 L -23.677,-1620.02 L -23.6371,-1619.95 L -23.6264,-1619.93 L -23.5858,-1619.86
 L -23.5748,-1619.84 L -23.5335,-1619.77 L -23.5224,-1619.75 L -23.4804,-1619.69 L -23.4691,-1619.67 L -23.4265,-1619.6
 L -23.415,-1619.58 L -23.3717,-1619.52 L -23.36,-1619.5 L -23.316,-1619.43 L -23.3042,-1619.41 L -23.2595,-1619.35
 L -23.2475,-1619.33 L -23.2021,-1619.27 L -23.1899,-1619.25 L -23.1439,-1619.18 L -23.1315,-1619.17 L -23.0849,-1619.1
 L -23.0723,-1619.08 L -23.025,-1619.02 L -23.0123,-1619 L -22.9643,-1618.94 L -22.9514,-1618.92 L -22.9028,-1618.86
 L -22.8898,-1618.84 L -22.8406,-1618.78 L -22.8273,-1618.76 L -22.7774,-1618.7 L -22.764,-1618.68 L -22.7136,-1618.62
 L -22.7,-1618.61 L -22.6489,-1618.54 L -22.6351,-1618.53 L -22.5834,-1618.47 L -22.5695,-1618.45 L -22.5172,-1618.39
 L -22.5031,-1618.38 L -22.4502,-1618.32 L -22.4359,-1618.3 L -22.3824,-1618.24 L -22.368,-1618.23 L -22.3139,-1618.17
 L -22.2993,-1618.15 L -22.2447,-1618.09 L -22.2299,-1618.08 L -22.1747,-1618.02 L -22.1598,-1618 L -22.1039,-1617.95
 L -22.0889,-1617.93 L -22.0325,-1617.88 L -22.0173,-1617.86 L -21.9603,-1617.81 L -21.945,-1617.79 L -21.8874,-1617.74
 L -21.8719,-1617.72 L -21.8138,-1617.67 L -21.7982,-1617.65 L -21.7396,-1617.6 L -21.7238,-1617.58 L -21.6646,-1617.53
 L -21.6487,-1617.52 L -21.5889,-1617.46 L -21.5729,-1617.45 L -21.5126,-1617.4 L -21.4964,-1617.38 L -21.4356,-1617.33
 L -21.4193,-1617.32 L -21.358,-1617.27 L -21.3415,-1617.25 L -21.2797,-1617.2 L -21.2631,-1617.19 L -21.2008,-1617.14
 L -21.184,-1617.13 L -21.1212,-1617.08 L -21.1043,-1617.07 L -21.041,-1617.02 L -21.024,-1617 L -20.9602,-1616.96
 L -20.943,-1616.94 L -20.8788,-1616.9 L -20.8615,-1616.88 L -20.7968,-1616.84 L -20.7793,-1616.83 L -20.7142,-1616.78
 L -20.6966,-1616.77 L -20.631,-1616.72 L -20.6133,-1616.71 L -20.5472,-1616.67 L -20.5294,-1616.65 L -20.4629,-1616.61
 L -20.445,-1616.6 L -20.378,-1616.56 L -20.36,-1616.54 L -20.2926,-1616.5 L -20.2744,-1616.49 L -20.2066,-1616.45
 L -20.1883,-1616.44 L -20.1201,-1616.4 L -20.1017,-1616.39 L -20.0331,-1616.35 L -20.0146,-1616.33 L -19.9455,-1616.29
 L -19.9269,-1616.28 L -19.8575,-1616.25 L -19.8388,-1616.23 L -19.7689,-1616.2 L -19.7501,-1616.19 L -19.6799,-1616.15
 L -19.661,-1616.14 L -19.5904,-1616.1 L -19.5714,-1616.09 L -19.5004,-1616.06 L -19.4813,-1616.05 L -19.41,-1616.01
 L -19.3908,-1616 L -19.3191,-1615.97 L -19.2998,-1615.96 L -19.2278,-1615.92 L -19.2084,-1615.91 L -19.136,-1615.88
 L -19.1165,-1615.87 L -19.0438,-1615.84 L -19.0242,-1615.83 L -18.9512,-1615.8 L -18.9316,-1615.79 L -18.8582,-1615.76
 L -18.8385,-1615.75 L -18.7648,-1615.72 L -18.745,-1615.71 L -18.6711,-1615.68 L -18.6512,-1615.68 L -18.5769,-1615.65
 L -18.5569,-1615.64 L -18.4824,-1615.61 L -18.4623,-1615.6 L -18.3875,-1615.58 L -18.3674,-1615.57 L -18.2923,-1615.54
 L -18.2721,-1615.54 L -18.1968,-1615.51 L -18.1765,-1615.5 L -18.1009,-1615.48 L -18.0806,-1615.47 L -18.0047,-1615.45
 L -17.9843,-1615.44 L -17.9082,-1615.42 L -17.8877,-1615.41 L -17.8114,-1615.39 L -17.7909,-1615.38 L -17.7143,-1615.36
 L -17.6937,-1615.36 L -17.617,-1615.33 L -17.5963,-1615.33 L -17.5193,-1615.31 L -17.4986,-1615.3 L -17.4215,-1615.28
 L -17.4007,-1615.28 L -17.3233,-1615.26 L -17.3025,-1615.25 L -17.225,-1615.24 L -17.2041,-1615.23 L -17.1264,-1615.21
 L -17.1055,-1615.21 L -17.0276,-1615.19 L -17.0066,-1615.19 L -16.9285,-1615.17 L -16.9075,-1615.17 L -16.8293,-1615.16
 L -16.8083,-1615.15 L -16.7299,-1615.14 L -16.7088,-1615.13 L -16.6304,-1615.12 L -16.6092,-1615.12 L -16.5306,-1615.1
 L -16.5094,-1615.1 L -16.4307,-1615.09 L -16.4095,-1615.09 L -16.3307,-1615.08 L -16.3094,-1615.07 L -16.2305,-1615.06
 L -16.2092,-1615.06 L -16.1302,-1615.05 L -16.1089,-1615.05 L -16.0297,-1615.04 L -16.0084,-1615.04 L -15.9292,-1615.03
 L -15.9079,-1615.03 L -15.8286,-1615.02 L -15.8072,-1615.02 L -15.7279,-1615.01 L -15.7065,-1615.01 L -15.6271,-1615.01
 L -15.6057,-1615 L -15.5262,-1615 L -15.5114,-1615 L 44.0559,-1615 L 44.688,-1615.55 L 46.6249,-1617.52
 L 48.5053,-1619.32 L 50.5793,-1621.66 L 51.8799,-1623.04 L 54.0471,-1625.77 L 54.8919,-1626.78 L 57.1329,-1629.95
 L 57.6104,-1630.59 L 59.9202,-1634.27 L 60.0916,-1634.53 L 61.5343,-1637.12 L 62.3806,-1638.64 L 62.4632,-1638.82
 L 64.5094,-1642.97 L 64.8018,-1643.68 L 66.4926,-1647.56 L 66.9748,-1648.87 L 68.3424,-1652.43 L 68.9957,-1654.44
 L 70.0669,-1657.59 L 70.8729,-1660.38 L 71.6718,-1663.05 L 72.6118,-1666.72 L 73.1621,-1668.79 L 74.2174,-1673.44
 L 74.5424,-1674.83 L 74.8527,-1676.37 L 74.9294,-2120 L 32.8464,-2120 L 7.06381,-1649.55 L 7.06267,-1649.53
 L 7.05807,-1649.45 L 7.05674,-1649.43 L 7.05136,-1649.36 L 7.04984,-1649.34 L 7.0437,-1649.26 L 7.04198,-1649.24
 L 7.03505,-1649.17 L 7.03315,-1649.15 L 7.02546,-1649.07 L 7.02336,-1649.05 L 7.01489,-1648.98 L 7.0126,-1648.96
 L 7.00337,-1648.88 L 7.00089,-1648.86 L 6.99088,-1648.79 L 6.98821,-1648.77 L 6.97742,-1648.69 L 6.97456,-1648.67
 L 6.96302,-1648.6 L 6.95997,-1648.58 L 6.94765,-1648.5 L 6.94441,-1648.48 L 6.93132,-1648.41 L 6.9279,-1648.39
 L 6.91405,-1648.31 L 6.91043,-1648.29 L 6.89582,-1648.22 L 6.89201,-1648.2 L 6.87663,-1648.12 L 6.87264,-1648.1
 L 6.8565,-1648.03 L 6.85232,-1648.01 L 6.83543,-1647.94 L 6.83106,-1647.92 L 6.81341,-1647.84 L 6.80885,-1647.82
 L 6.79043,-1647.75 L 6.7857,-1647.73 L 6.76654,-1647.66 L 6.76161,-1647.64 L 6.74169,-1647.56 L 6.73658,-1647.55
 L 6.71591,-1647.47 L 6.71062,-1647.45 L 6.68921,-1647.38 L 6.68373,-1647.36 L 6.66157,-1647.29 L 6.6559,-1647.27
 L 6.63299,-1647.2 L 6.62715,-1647.18 L 6.60351,-1647.1 L 6.59748,-1647.09 L 6.5731,-1647.01 L 6.5669,-1647
 L 6.54177,-1646.92 L 6.53538,-1646.9 L 6.50952,-1646.83 L 6.50295,-1646.81 L 6.47637,-1646.74 L 6.46963,-1646.72
 L 6.44231,-1646.65 L 6.43539,-1646.63 L 6.40734,-1646.56 L 6.40024,-1646.55 L 6.37147,-1646.47 L 6.36419,-1646.46
 L 6.3347,-1646.39 L 6.32725,-1646.37 L 6.29705,-1646.3 L 6.28942,-1646.28 L 6.25849,-1646.21 L 6.25069,-1646.19
 L 6.21907,-1646.12 L 6.21109,-1646.1 L 6.17875,-1646.03 L 6.17059,-1646.02 L 6.13755,-1645.95 L 6.12922,-1645.93
 L 6.09549,-1645.86 L 6.08699,-1645.84 L 6.05255,-1645.78 L 6.04388,-1645.76 L 6.00874,-1645.69 L 5.99991,-1645.67
 L 5.96408,-1645.61 L 5.95508,-1645.59 L 5.91857,-1645.52 L 5.9094,-1645.5 L 5.8722,-1645.44 L 5.86286,-1645.42
 L 5.82498,-1645.35 L 5.81548,-1645.34 L 5.77692,-1645.27 L 5.76725,-1645.25 L 5.72803,-1645.19 L 5.7182,-1645.17
 L 5.67831,-1645.11 L 5.66832,-1645.09 L 5.62774,-1645.02 L 5.6176,-1645.01 L 5.57637,-1644.94 L 5.56606,-1644.93
 L 5.52418,-1644.86 L 5.51372,-1644.85 L 5.47119,-1644.78 L 5.46056,-1644.77 L 5.41738,-1644.7 L 5.4066,-1644.69
 L 5.36277,-1644.62 L 5.35184,-1644.61 L 5.30737,-1644.55 L 5.29628,-1644.53 L 5.25118,-1644.47 L 5.23994,-1644.45
 L 5.19421,-1644.39 L 5.18281,-1644.38 L 5.13646,-1644.31 L 5.12492,-1644.3 L 5.07794,-1644.24 L 5.06625,-1644.22
 L 5.01865,-1644.16 L 5.00681,-1644.15 L 4.9586,-1644.09 L 4.94662,-1644.07 L 4.89781,-1644.01 L 4.88568,-1644
 L 4.83626,-1643.94 L 4.82399,-1643.93 L 4.77397,-1643.87 L 4.76156,-1643.85 L 4.71096,-1643.79 L 4.6984,-1643.78
 L 4.64721,-1643.72 L 4.63451,-1643.71 L 4.58273,-1643.65 L 4.5699,-1643.64 L 4.51756,-1643.58 L 4.50459,-1643.57
 L 4.45166,-1643.51 L 4.43855,-1643.5 L 4.38506,-1643.44 L 4.37182,-1643.43 L 4.31778,-1643.37 L 4.30441,-1643.36
 L 4.24981,-1643.31 L 4.2363,-1643.29 L 4.18114,-1643.24 L 4.16751,-1643.23 L 4.11182,-1643.17 L 4.09805,-1643.16
 L 4.04182,-1643.11 L 4.02793,-1643.09 L 3.97115,-1643.04 L 3.95714,-1643.03 L 3.89984,-1642.98 L 3.8857,-1642.97
 L 3.8279,-1642.91 L 3.81364,-1642.9 L 3.7553,-1642.85 L 3.74092,-1642.84 L 3.68208,-1642.79 L 3.66758,-1642.78
 L 3.60822,-1642.73 L 3.5936,-1642.72 L 3.53377,-1642.67 L 3.51903,-1642.66 L 3.45869,-1642.61 L 3.44385,-1642.6
 L 3.38303,-1642.55 L 3.36807,-1642.54 L 3.30676,-1642.49 L 3.29169,-1642.48 L 3.22992,-1642.43 L 3.21474,-1642.42
 L 3.15249,-1642.38 L 3.1372,-1642.37 L 3.0745,-1642.32 L 3.0591,-1642.31 L 2.99595,-1642.27 L 2.98045,-1642.25
 L 2.91685,-1642.21 L 2.90125,-1642.2 L 2.8372,-1642.16 L 2.8215,-1642.15 L 2.75701,-1642.1 L 2.74121,-1642.09
 L 2.67629,-1642.05 L 2.66039,-1642.04 L 2.59506,-1642 L 2.57906,-1641.99 L 2.51331,-1641.95 L 2.49722,-1641.94
 L 2.43106,-1641.9 L 2.41487,-1641.89 L 2.34832,-1641.85 L 2.33203,-1641.84 L 2.26508,-1641.81 L 2.24871,-1641.8
 L 2.18136,-1641.76 L 2.1649,-1641.75 L 2.09718,-1641.71 L 2.08064,-1641.7 L 2.01255,-1641.67 L 1.99591,-1641.66
 L 1.92744,-1641.62 L 1.91073,-1641.61 L 1.8419,-1641.58 L 1.82511,-1641.57 L 1.75592,-1641.54 L 1.73906,-1641.53
 L 1.66954,-1641.49 L 1.65259,-1641.49 L 1.58271,-1641.45 L 1.56568,-1641.45 L 1.49548,-1641.41 L 1.47838,-1641.41
 L 1.40785,-1641.37 L 1.39068,-1641.37 L 1.31984,-1641.34 L 1.3026,-1641.33 L 1.23144,-1641.3 L 1.21414,-1641.29
 L 1.14267,-1641.26 L 1.1253,-1641.26 L 1.05354,-1641.23 L 1.0361,-1641.22 L 0.96404,-1641.19 L 0.94654,-1641.19
 L 0.87421,-1641.16 L 0.856647,-1641.15 L 0.784032,-1641.13 L 0.766412,-1641.12 L 0.693537,-1641.09 L 0.675857,-1641.09
 L 0.602711,-1641.06 L 0.584977,-1641.06 L 0.511584,-1641.03 L 0.493796,-1641.03 L 0.420155,-1641 L 0.402317,-1641
 L 0.328441,-1640.98 L 0.310552,-1640.97 L 0.236442,-1640.95 L 0.218505,-1640.94 L 0.144172,-1640.92 L 0.126191,-1640.92
 L 0.0516491,-1640.9 L 0.0336232,-1640.89 L -0.0411295,-1640.87 L -0.0591998,-1640.87 L -0.134162,-1640.85 L -0.152271,-1640.84
 L -0.227417,-1640.83 L -0.245565,-1640.82 L -0.320896,-1640.8 L -0.339082,-1640.8 L -0.414599,-1640.78 L -0.432817,-1640.78
 L -0.508494,-1640.76 L -0.526747,-1640.76 L -0.602597,-1640.74 L -0.62088,-1640.74 L -0.696876,-1640.73 L -0.715188,-1640.72
 L -0.791333,-1640.71 L -0.809675,-1640.71 L -0.885968,-1640.69 L -0.904332,-1640.69 L -0.980747,-1640.68 L -0.999135,-1640.68
 L -1.07567,-1640.66 L -1.09408,-1640.66 L -1.17075,-1640.65 L -1.18917,-1640.65 L -1.26593,-1640.64 L -1.28438,-1640.64
 L -1.30932,-1640.63 L -20.45,-1641.68 L -20.4632,-1641.68 L -20.4801,-1641.67 L -20.5575,-1641.64 L -20.5743,-1641.64
 L -20.6514,-1641.6 L -20.6681,-1641.6 L -20.7449,-1641.57 L -20.7616,-1641.56 L -20.8381,-1641.53 L -20.8546,-1641.52
 L -20.9308,-1641.49 L -20.9473,-1641.48 L -21.0231,-1641.45 L -21.0395,-1641.44 L -21.115,-1641.4 L -21.1313,-1641.4
 L -21.2065,-1641.36 L -21.2227,-1641.35 L -21.2975,-1641.32 L -21.3136,-1641.31 L -21.3881,-1641.27 L -21.4042,-1641.27
 L -21.4782,-1641.23 L -21.4942,-1641.22 L -21.5679,-1641.18 L -21.5838,-1641.17 L -21.6571,-1641.13 L -21.6729,-1641.13
 L -21.7458,-1641.09 L -21.7615,-1641.08 L -21.834,-1641.04 L -21.8496,-1641.03 L -21.9217,-1640.99 L -21.9372,-1640.98
 L -22.0089,-1640.93 L -22.0243,-1640.93 L -22.0956,-1640.88 L -22.1109,-1640.87 L -22.1817,-1640.83 L -22.1969,-1640.82
 L -22.2673,-1640.78 L -22.2825,-1640.77 L -22.3524,-1640.72 L -22.3674,-1640.71 L -22.4369,-1640.67 L -22.4518,-1640.66
 L -22.5208,-1640.61 L -22.5357,-1640.6 L -22.6042,-1640.55 L -22.6189,-1640.54 L -22.687,-1640.5 L -22.7016,-1640.49
 L -22.7692,-1640.44 L -22.7837,-1640.43 L -22.8508,-1640.38 L -22.8652,-1640.37 L -22.9318,-1640.32 L -22.9461,-1640.31
 L -23.0122,-1640.26 L -23.0264,-1640.24 L -23.092,-1640.19 L -23.106,-1640.18 L -23.1711,-1640.13 L -23.1851,-1640.12
 L -23.2496,-1640.07 L -23.2634,-1640.06 L -23.3275,-1640 L -23.3412,-1639.99 L -23.4047,-1639.94 L -23.4183,-1639.93
 L -23.4812,-1639.87 L -23.4947,-1639.86 L -23.5571,-1639.8 L -23.5704,-1639.79 L -23.6322,-1639.74 L -23.6455,-1639.73
 L -23.7067,-1639.67 L -23.7198,-1639.66 L -23.7806,-1639.6 L -23.7935,-1639.59 L -23.8537,-1639.53 L -23.8665,-1639.52
 L -23.9261,-1639.46 L -23.9388,-1639.45 L -23.9977,-1639.39 L -24.0103,-1639.38 L -24.0687,-1639.32 L -24.0812,-1639.3
 L -24.1389,-1639.24 L -24.1513,-1639.23 L -24.2084,-1639.17 L -24.2206,-1639.16 L -24.2772,-1639.1 L -24.2892,-1639.08
 L -24.3452,-1639.02 L -24.3571,-1639.01 L -24.4124,-1638.95 L -24.4242,-1638.93 L -24.4789,-1638.87 L -24.4905,-1638.86
 L -24.5446,-1638.79 L -24.5561,-1638.78 L -24.6095,-1638.72 L -24.6209,-1638.7 L -24.6737,-1638.64 L -24.6849,-1638.62
 L -24.737,-1638.56 L -24.7481,-1638.55 L -24.7995,-1638.48 L -24.8105,-1638.47 L -24.8613,-1638.4 L -24.8721,-1638.39
 L -24.9222,-1638.32 L -24.9329,-1638.31 L -24.9823,-1638.24 L -24.9929,-1638.22 L -25,-1638.21 z
" stroke="black" fill="lightgray" stroke-width="0.5"/>
</svg>
