<?xml version="1.0" standalone="no"?>
<!DOCTYPE svg PUBLIC "-//W3C//DTD SVG 1.1//EN" "http://www.w3.org/Graphics/SVG/1.1/DTD/svg11.dtd">
<svg width="97mm" height="507mm" viewBox="-25 -2121 97 507" xmlns="http://www.w3.org/2000/svg" version="1.1">
<title>OpenSCAD Model</title>
<path d="
M -25,-1624.98 L -24.9999,-1624.98 L -24.9999,-1624.93 L -24.9994,-1624.88 L -24.9988,-1624.83 L -24.9979,-1624.78
 L -24.9968,-1624.73 L -24.9953,-1624.68 L -24.9937,-1624.63 L -24.9918,-1624.58 L -24.9897,-1624.52 L -24.9872,-1624.48
 L -24.9846,-1624.42 L -24.9816,-1624.38 L -24.9784,-1624.32 L -24.975,-1624.27 L -24.9713,-1624.22 L -24.9674,-1624.17
 L -24.9632,-1624.12 L -24.9587,-1624.07 L -24.954,-1624.02 L -24.949,-1623.97 L -24.9438,-1623.92 L -24.9384,-1623.87
 L -24.9326,-1623.82 L -24.9267,-1623.77 L -24.9204,-1623.72 L -24.914,-1623.67 L -24.9072,-1623.62 L -24.9002,-1623.57
 L -24.8929,-1623.52 L -24.8855,-1623.47 L -24.8777,-1623.42 L -24.8698,-1623.37 L -24.8614,-1623.32 L -24.853,-1623.27
 L -24.8441,-1623.22 L -24.8353,-1623.17 L -24.8259,-1623.12 L -24.8165,-1623.07 L -24.8066,-1623.02 L -24.7968,-1622.97
 L -24.7863,-1622.92 L -24.776,-1622.88 L -24.7651,-1622.82 L -24.7543,-1622.78 L -24.7428,-1622.73 L -24.7315,-1622.68
 L -24.7195,-1622.63 L -24.7078,-1622.58 L -24.6953,-1622.53 L -24.6831,-1622.48 L -24.6701,-1622.43 L -24.6573,-1622.38
 L -24.6438,-1622.33 L -24.6306,-1622.29 L -24.6166,-1622.24 L -24.603,-1622.19 L -24.5884,-1622.14 L -24.5743,-1622.09
 L -24.5593,-1622.04 L -24.5446,-1622 L -24.5291,-1621.95 L -24.514,-1621.9 L -24.498,-1621.85 L -24.4824,-1621.8
 L -24.4659,-1621.75 L -24.4499,-1621.71 L -24.4328,-1621.66 L -24.4164,-1621.61 L -24.3988,-1621.56 L -24.3819,-1621.52
 L -24.3639,-1621.47 L -24.3464,-1621.42 L -24.3279,-1621.38 L -24.31,-1621.33 L -24.291,-1621.28 L -24.2727,-1621.24
 L -24.2532,-1621.19 L -24.2344,-1621.14 L -24.2144,-1621.09 L -24.1952,-1621.05 L -24.1747,-1621 L -24.155,-1620.96
 L -24.1341,-1620.91 L -24.1139,-1620.86 L -24.0925,-1620.82 L -24.0719,-1620.77 L -24.05,-1620.73 L -24.0289,-1620.68
 L -24.0065,-1620.63 L -23.985,-1620.59 L -23.9622,-1620.54 L -23.9402,-1620.5 L -23.9169,-1620.45 L -23.8945,-1620.41
 L -23.8707,-1620.36 L -23.8479,-1620.32 L -23.8237,-1620.27 L -23.8004,-1620.23 L -23.7757,-1620.18 L -23.752,-1620.14
 L -23.7268,-1620.1 L -23.7027,-1620.05 L -23.677,-1620.01 L -23.6525,-1619.97 L -23.6264,-1619.92 L -23.6014,-1619.88
 L -23.5748,-1619.83 L -23.5494,-1619.79 L -23.5224,-1619.75 L -23.4966,-1619.71 L -23.4691,-1619.66 L -23.4429,-1619.62
 L -23.415,-1619.58 L -23.3883,-1619.54 L -23.36,-1619.49 L -23.3329,-1619.45 L -23.3042,-1619.41 L -23.2767,-1619.37
 L -23.2475,-1619.32 L -23.2195,-1619.28 L -23.1899,-1619.24 L -23.1616,-1619.2 L -23.1315,-1619.16 L -23.1028,-1619.12
 L -23.0723,-1619.08 L -23.0432,-1619.04 L -23.0123,-1619 L -22.9828,-1618.96 L -22.9514,-1618.92 L -22.9215,-1618.88
 L -22.8898,-1618.84 L -22.8595,-1618.8 L -22.8273,-1618.76 L -22.7966,-1618.72 L -22.764,-1618.68 L -22.733,-1618.64
 L -22.7,-1618.6 L -22.6685,-1618.56 L -22.6351,-1618.52 L -22.6033,-1618.48 L -22.5695,-1618.44 L -22.5373,-1618.41
 L -22.5031,-1618.37 L -22.4705,-1618.33 L -22.4359,-1618.29 L -22.403,-1618.26 L -22.368,-1618.22 L -22.3347,-1618.18
 L -22.2993,-1618.14 L -22.2657,-1618.11 L -22.2299,-1618.07 L -22.1959,-1618.04 L -22.1598,-1618 L -22.1254,-1617.96
 L -22.0889,-1617.93 L -22.0542,-1617.89 L -22.0173,-1617.85 L -21.9822,-1617.82 L -21.945,-1617.78 L -21.9096,-1617.75
 L -21.8719,-1617.71 L -21.8362,-1617.68 L -21.7982,-1617.65 L -21.7621,-1617.61 L -21.7238,-1617.58 L -21.6873,-1617.54
 L -21.6487,-1617.51 L -21.6119,-1617.48 L -21.5729,-1617.44 L -21.5358,-1617.41 L -21.4964,-1617.38 L -21.459,-1617.35
 L -21.4193,-1617.31 L -21.3816,-1617.28 L -21.3415,-1617.25 L -21.3035,-1617.22 L -21.2631,-1617.18 L -21.2247,-1617.15
 L -21.184,-1617.12 L -21.1453,-1617.09 L -21.1043,-1617.06 L -21.0653,-1617.03 L -21.024,-1617 L -20.9847,-1616.97
 L -20.943,-1616.94 L -20.9035,-1616.91 L -20.8615,-1616.88 L -20.8217,-1616.85 L -20.7793,-1616.82 L -20.7392,-1616.79
 L -20.6966,-1616.76 L -20.6562,-1616.73 L -20.6133,-1616.7 L -20.5726,-1616.68 L -20.5294,-1616.65 L -20.4885,-1616.62
 L -20.445,-1616.59 L -20.4038,-1616.57 L -20.36,-1616.54 L -20.3185,-1616.51 L -20.2744,-1616.48 L -20.2327,-1616.46
 L -20.1883,-1616.43 L -20.1463,-1616.41 L -20.1017,-1616.38 L -20.0595,-1616.35 L -20.0146,-1616.33 L -19.9721,-1616.3
 L -19.9269,-1616.28 L -19.8842,-1616.25 L -19.8388,-1616.23 L -19.7958,-1616.2 L -19.7501,-1616.18 L -19.7069,-1616.16
 L -19.661,-1616.13 L -19.6175,-1616.11 L -19.5714,-1616.09 L -19.5277,-1616.06 L -19.4813,-1616.04 L -19.4374,-1616.02
 L -19.3908,-1615.99 L -19.3467,-1615.97 L -19.2998,-1615.95 L -19.2555,-1615.93 L -19.2084,-1615.91 L -19.1638,-1615.89
 L -19.1165,-1615.87 L -19.0718,-1615.85 L -19.0242,-1615.82 L -18.9793,-1615.81 L -18.9316,-1615.78 L -18.8864,-1615.77
 L -18.8385,-1615.75 L -18.7932,-1615.73 L -18.745,-1615.71 L -18.6995,-1615.69 L -18.6512,-1615.67 L -18.6055,-1615.65
 L -18.5569,-1615.63 L -18.5111,-1615.62 L -18.4623,-1615.6 L -18.4163,-1615.58 L -18.3674,-1615.56 L -18.3212,-1615.55
 L -18.2721,-1615.53 L -18.2258,-1615.51 L -18.1765,-1615.5 L -18.13,-1615.48 L -18.0806,-1615.47 L -18.0339,-1615.45
 L -17.9843,-1615.44 L -17.9375,-1615.42 L -17.8877,-1615.41 L -17.8408,-1615.39 L -17.7909,-1615.38 L -17.7438,-1615.36
 L -17.6937,-1615.35 L -17.6465,-1615.34 L -17.5963,-1615.32 L -17.5489,-1615.31 L -17.4986,-1615.3 L -17.4511,-1615.28
 L -17.4007,-1615.27 L -17.3531,-1615.26 L -17.3025,-1615.25 L -17.2548,-1615.24 L -17.2041,-1615.23 L -17.1563,-1615.21
 L -17.1055,-1615.2 L -17.0575,-1615.19 L -17.0066,-1615.18 L -16.9586,-1615.17 L -16.9075,-1615.16 L -16.8594,-1615.15
 L -16.8083,-1615.14 L -16.7601,-1615.14 L -16.7088,-1615.13 L -16.6605,-1615.12 L -16.6092,-1615.11 L -16.5608,-1615.1
 L -16.5094,-1615.09 L -16.461,-1615.09 L -16.4095,-1615.08 L -16.361,-1615.07 L -16.3094,-1615.07 L -16.2608,-1615.06
 L -16.2092,-1615.05 L -16.1606,-1615.05 L -16.1089,-1615.04 L -16.0602,-1615.04 L -16.0084,-1615.03 L -15.9597,-1615.03
 L -15.9079,-1615.02 L -15.8591,-1615.02 L -15.8072,-1615.01 L -15.7584,-1615.01 L -15.7065,-1615 L -15.6576,-1615
 L -15.6296,-1615 L 35.0713,-1615 L 36.7663,-1616.3 L 37.8452,-1617.28 L 40.853,-1619.85 L 42.1284,-1621.14
 L 44.4409,-1623.35 L 45.8554,-1624.95 L 47.6196,-1626.85 L 49.1432,-1628.8 L 50.4687,-1630.41 L 52.0893,-1632.76
 L 53.0547,-1634.09 L 54.7689,-1636.91 L 55.4283,-1637.94 L 57.2355,-1641.32 L 57.6259,-1642.01 L 59.5235,-1646.05
 L 59.6707,-1646.35 L 60.9075,-1649.34 L 61.5801,-1650.97 L 61.647,-1651.16 L 63.3651,-1655.89 L 63.612,-1656.69
 L 65.0252,-1661.12 L 65.4333,-1662.63 L 66.5641,-1666.67 L 67.1139,-1668.98 L 67.9855,-1672.52 L 68.6571,-1675.72
 L 69.2937,-1678.66 L 70.0672,-1682.84 L 70.4935,-1685.08 L 71.3499,-1690.33 L 71.5907,-1691.77 L 71.9243,-1694.08
 L 71.9979,-2120 L 33.0907,-2120 L 7.25236,-1649.52 L 7.24947,-1649.47 L 7.24661,-1649.43 L 7.24323,-1649.38
 L 7.23989,-1649.33 L 7.23603,-1649.28 L 7.23222,-1649.24 L 7.22787,-1649.19 L 7.22356,-1649.14 L 7.21874,-1649.09
 L 7.21396,-1649.04 L 7.20864,-1649 L 7.20338,-1648.95 L 7.19758,-1648.9 L 7.19185,-1648.85 L 7.18556,-1648.81
 L 7.17935,-1648.76 L 7.17257,-1648.71 L 7.16587,-1648.66 L 7.15863,-1648.62 L 7.15146,-1648.57 L 7.14373,-1648.52
 L 7.13608,-1648.47 L 7.12787,-1648.43 L 7.11975,-1648.38 L 7.11106,-1648.33 L 7.10246,-1648.29 L 7.09329,-1648.24
 L 7.08422,-1648.19 L 7.07457,-1648.14 L 7.06503,-1648.1 L 7.0549,-1648.05 L 7.04488,-1648 L 7.03428,-1647.96
 L 7.0238,-1647.91 L 7.01272,-1647.86 L 7.00177,-1647.82 L 6.99021,-1647.77 L 6.97878,-1647.72 L 6.96677,-1647.68
 L 6.95488,-1647.63 L 6.94238,-1647.58 L 6.93001,-1647.54 L 6.91706,-1647.49 L 6.90423,-1647.44 L 6.8908,-1647.4
 L 6.87751,-1647.35 L 6.86362,-1647.31 L 6.84986,-1647.26 L 6.8355,-1647.21 L 6.82128,-1647.17 L 6.80646,-1647.12
 L 6.79178,-1647.08 L 6.7765,-1647.03 L 6.76137,-1646.99 L 6.74562,-1646.94 L 6.73003,-1646.9 L 6.71382,-1646.85
 L 6.69777,-1646.81 L 6.68111,-1646.76 L 6.66461,-1646.72 L 6.64749,-1646.67 L 6.63054,-1646.63 L 6.61296,-1646.58
 L 6.59556,-1646.54 L 6.57753,-1646.49 L 6.55967,-1646.45 L 6.5412,-1646.4 L 6.5229,-1646.36 L 6.50398,-1646.31
 L 6.48524,-1646.27 L 6.46586,-1646.23 L 6.44667,-1646.18 L 6.42686,-1646.14 L 6.40723,-1646.09 L 6.38698,-1646.05
 L 6.3669,-1646.01 L 6.34621,-1645.96 L 6.32569,-1645.92 L 6.30456,-1645.88 L 6.28362,-1645.83 L 6.26205,-1645.79
 L 6.24067,-1645.75 L 6.21867,-1645.71 L 6.19686,-1645.66 L 6.17443,-1645.62 L 6.15219,-1645.58 L 6.12933,-1645.54
 L 6.10667,-1645.49 L 6.08338,-1645.45 L 6.06029,-1645.41 L 6.03657,-1645.37 L 6.01306,-1645.33 L 5.98892,-1645.29
 L 5.96499,-1645.24 L 5.94044,-1645.2 L 5.91609,-1645.16 L 5.89112,-1645.12 L 5.86636,-1645.08 L 5.84098,-1645.04
 L 5.81579,-1645 L 5.79,-1644.96 L 5.7644,-1644.92 L 5.73821,-1644.88 L 5.71221,-1644.84 L 5.68561,-1644.8
 L 5.6592,-1644.76 L 5.63219,-1644.72 L 5.60538,-1644.68 L 5.57798,-1644.64 L 5.55077,-1644.6 L 5.52297,-1644.56
 L 5.49536,-1644.52 L 5.46716,-1644.48 L 5.43916,-1644.44 L 5.41057,-1644.4 L 5.38218,-1644.36 L 5.3532,-1644.33
 L 5.32442,-1644.29 L 5.29507,-1644.25 L 5.2659,-1644.21 L 5.23616,-1644.17 L 5.2066,-1644.14 L 5.17648,-1644.1
 L 5.14654,-1644.06 L 5.11605,-1644.02 L 5.08574,-1643.99 L 5.05487,-1643.95 L 5.02419,-1643.91 L 4.99295,-1643.88
 L 4.96189,-1643.84 L 4.93029,-1643.8 L 4.89887,-1643.77 L 4.8669,-1643.73 L 4.83511,-1643.7 L 4.80278,-1643.66
 L 4.77063,-1643.62 L 4.73795,-1643.59 L 4.70545,-1643.55 L 4.67241,-1643.52 L 4.63954,-1643.48 L 4.60615,-1643.45
 L 4.57293,-1643.42 L 4.53921,-1643.38 L 4.50565,-1643.35 L 4.47157,-1643.31 L 4.43766,-1643.28 L 4.40325,-1643.25
 L 4.36899,-1643.21 L 4.33424,-1643.18 L 4.29966,-1643.15 L 4.26458,-1643.11 L 4.22965,-1643.08 L 4.19424,-1643.05
 L 4.15898,-1643.02 L 4.12325,-1642.98 L 4.08766,-1642.95 L 4.05162,-1642.92 L 4.01571,-1642.89 L 3.97934,-1642.86
 L 3.94311,-1642.83 L 3.90643,-1642.79 L 3.86988,-1642.76 L 3.83288,-1642.73 L 3.79602,-1642.7 L 3.75872,-1642.67
 L 3.72155,-1642.64 L 3.68395,-1642.61 L 3.64647,-1642.58 L 3.60858,-1642.55 L 3.57081,-1642.52 L 3.53262,-1642.49
 L 3.49453,-1642.46 L 3.45605,-1642.44 L 3.41768,-1642.41 L 3.37892,-1642.38 L 3.34025,-1642.35 L 3.3012,-1642.32
 L 3.26225,-1642.29 L 3.22293,-1642.27 L 3.1837,-1642.24 L 3.14411,-1642.21 L 3.10459,-1642.18 L 3.06473,-1642.16
 L 3.02493,-1642.13 L 2.9848,-1642.1 L 2.94474,-1642.08 L 2.90435,-1642.05 L 2.86401,-1642.03 L 2.82337,-1642
 L 2.78278,-1641.98 L 2.74188,-1641.95 L 2.70102,-1641.93 L 2.65987,-1641.9 L 2.61876,-1641.88 L 2.57737,-1641.85
 L 2.53601,-1641.83 L 2.49438,-1641.8 L 2.45278,-1641.78 L 2.4109,-1641.76 L 2.36905,-1641.73 L 2.32695,-1641.71
 L 2.28487,-1641.69 L 2.24255,-1641.66 L 2.20022,-1641.64 L 2.15767,-1641.62 L 2.11511,-1641.6 L 2.07235,-1641.57
 L 2.02957,-1641.55 L 1.98659,-1641.53 L 1.94359,-1641.51 L 1.90041,-1641.49 L 1.8572,-1641.47 L 1.8138,-1641.45
 L 1.77036,-1641.43 L 1.72677,-1641.41 L 1.68314,-1641.39 L 1.63934,-1641.37 L 1.5955,-1641.35 L 1.55152,-1641.33
 L 1.50748,-1641.31 L 1.46332,-1641.29 L 1.41908,-1641.27 L 1.37474,-1641.25 L 1.33031,-1641.24 L 1.28578,-1641.22
 L 1.24117,-1641.2 L 1.19647,-1641.18 L 1.15167,-1641.17 L 1.10681,-1641.15 L 1.06184,-1641.13 L 1.0168,-1641.12
 L 0.971655,-1641.1 L 0.926469,-1641.08 L 0.881157,-1641.07 L 0.83581,-1641.05 L 0.790328,-1641.04 L 0.744835,-1641.02
 L 0.699197,-1641.01 L 0.653558,-1640.99 L 0.607766,-1640.98 L 0.561989,-1640.96 L 0.516049,-1640.95 L 0.470134,-1640.94
 L 0.424047,-1640.92 L 0.378001,-1640.91 L 0.331775,-1640.9 L 0.285607,-1640.88 L 0.239249,-1640.87 L 0.192959,-1640.86
 L 0.146469,-1640.85 L 0.100056,-1640.83 L 0.0534339,-1640.82 L 0.00691453,-1640.81 L -0.0398239,-1640.8 L -0.0864501,-1640.79
 L -0.133305,-1640.78 L -0.180038,-1640.77 L -0.227009,-1640.76 L -0.273834,-1640.75 L -0.320906,-1640.74 L -0.36783,-1640.73
 L -0.415011,-1640.72 L -0.462018,-1640.71 L -0.509292,-1640.7 L -0.556382,-1640.69 L -0.60375,-1640.68 L -0.650924,-1640.68
 L -0.698386,-1640.67 L -0.745628,-1640.66 L -0.793167,-1640.65 L -0.840477,-1640.65 L -0.888094,-1640.64 L -0.935472,-1640.63
 L -0.983167,-1640.63 L -1.0306,-1640.62 L -1.07836,-1640.61 L -1.12585,-1640.61 L -1.17367,-1640.6 L -1.19839,-1640.6
 L -20.2939,-1641.65 L -20.3409,-1641.63 L -20.3864,-1641.61 L -20.4349,-1641.59 L -20.4803,-1641.57 L -20.5285,-1641.56
 L -20.5737,-1641.54 L -20.6218,-1641.52 L -20.6668,-1641.5 L -20.7146,-1641.48 L -20.7594,-1641.46 L -20.8071,-1641.44
 L -20.8517,-1641.42 L -20.8991,-1641.39 L -20.9435,-1641.37 L -20.9907,-1641.35 L -21.0349,-1641.33 L -21.0819,-1641.31
 L -21.1259,-1641.29 L -21.1726,-1641.26 L -21.2164,-1641.24 L -21.2629,-1641.22 L -21.3064,-1641.2 L -21.3527,-1641.17
 L -21.396,-1641.15 L -21.442,-1641.12 L -21.4851,-1641.1 L -21.5309,-1641.08 L -21.5737,-1641.05 L -21.6192,-1641.03
 L -21.6618,-1641 L -21.7071,-1640.98 L -21.7494,-1640.95 L -21.7945,-1640.93 L -21.8365,-1640.9 L -21.8813,-1640.88
 L -21.9231,-1640.85 L -21.9676,-1640.82 L -22.0092,-1640.8 L -22.0534,-1640.77 L -22.0947,-1640.74 L -22.1386,-1640.72
 L -22.1797,-1640.69 L -22.2233,-1640.66 L -22.2641,-1640.63 L -22.3075,-1640.6 L -22.3479,-1640.58 L -22.391,-1640.55
 L -22.4312,-1640.52 L -22.474,-1640.49 L -22.5139,-1640.46 L -22.5564,-1640.43 L -22.596,-1640.4 L -22.6382,-1640.37
 L -22.6775,-1640.34 L -22.7194,-1640.31 L -22.7584,-1640.28 L -22.8,-1640.25 L -22.8387,-1640.22 L -22.8799,-1640.19
 L -22.9184,-1640.16 L -22.9593,-1640.13 L -22.9974,-1640.1 L -23.038,-1640.06 L -23.0758,-1640.03 L -23.116,-1640
 L -23.1535,-1639.97 L -23.1934,-1639.93 L -23.2306,-1639.9 L -23.2702,-1639.87 L -23.307,-1639.84 L -23.3462,-1639.8
 L -23.3828,-1639.77 L -23.4216,-1639.74 L -23.4578,-1639.7 L -23.4964,-1639.67 L -23.5322,-1639.63 L -23.5704,-1639.6
 L -23.6059,-1639.57 L -23.6437,-1639.53 L -23.6789,-1639.5 L -23.7163,-1639.46 L -23.7512,-1639.42 L -23.7882,-1639.39
 L -23.8227,-1639.35 L -23.8594,-1639.32 L -23.8936,-1639.28 L -23.9299,-1639.24 L -23.9637,-1639.21 L -23.9996,-1639.17
 L -24.0331,-1639.14 L -24.0686,-1639.1 L -24.1017,-1639.06 L -24.1368,-1639.02 L -24.1695,-1638.99 L -24.2043,-1638.95
 L -24.2367,-1638.91 L -24.271,-1638.87 L -24.303,-1638.83 L -24.337,-1638.79 L -24.3686,-1638.76 L -24.4022,-1638.72
 L -24.4334,-1638.68 L -24.4666,-1638.64 L -24.4974,-1638.6 L -24.5301,-1638.56 L -24.5606,-1638.52 L -24.593,-1638.48
 L -24.623,-1638.44 L -24.655,-1638.4 L -24.6846,-1638.36 L -24.7161,-1638.32 L -24.7454,-1638.28 L -24.7765,-1638.24
 L -24.8054,-1638.2 L -24.8361,-1638.16 L -24.8645,-1638.12 L -24.8948,-1638.08 L -24.9229,-1638.04 L -24.9527,-1637.99
 L -24.9804,-1637.95 L -25,-1637.93 z
" stroke="black" fill="lightgray" stroke-width="0.5"/>
</svg>
