<?xml version="1.0" standalone="no"?>
<!DOCTYPE svg PUBLIC "-//W3C//DTD SVG 1.1//EN" "http://www.w3.org/Graphics/SVG/1.1/DTD/svg11.dtd">
<svg width="95mm" height="507mm" viewBox="-25 -2121 95 507" xmlns="http://www.w3.org/2000/svg" version="1.1">
<title>OpenSCAD Model</title>
<path d="
M -25,-1624.99 L -24.9999,-1624.99 L -24.9999,-1624.94 L -24.9997,-1624.92 L -24.9988,-1624.84 L -24.9985,-1624.82
 L -24.9968,-1624.74 L -24.9963,-1624.72 L -24.9937,-1624.63 L -24.993,-1624.62 L -24.9897,-1624.53 L -24.9887,-1624.51
 L -24.9846,-1624.43 L -24.9834,-1624.41 L -24.9784,-1624.33 L -24.9771,-1624.31 L -24.9713,-1624.23 L -24.9698,-1624.21
 L -24.9632,-1624.13 L -24.9615,-1624.11 L -24.954,-1624.03 L -24.9521,-1624.01 L -24.9438,-1623.93 L -24.9418,-1623.91
 L -24.9326,-1623.83 L -24.9304,-1623.81 L -24.9204,-1623.73 L -24.918,-1623.71 L -24.9072,-1623.63 L -24.9046,-1623.61
 L -24.8929,-1623.53 L -24.8901,-1623.51 L -24.8777,-1623.43 L -24.8747,-1623.41 L -24.8614,-1623.33 L -24.8583,-1623.31
 L -24.8441,-1623.23 L -24.8408,-1623.21 L -24.8259,-1623.13 L -24.8224,-1623.11 L -24.8066,-1623.03 L -24.8029,-1623.01
 L -24.7863,-1622.93 L -24.7825,-1622.91 L -24.7651,-1622.83 L -24.761,-1622.81 L -24.7428,-1622.73 L -24.7386,-1622.72
 L -24.7195,-1622.64 L -24.7151,-1622.62 L -24.6953,-1622.54 L -24.6907,-1622.52 L -24.6701,-1622.44 L -24.6653,-1622.42
 L -24.6438,-1622.34 L -24.6389,-1622.32 L -24.6166,-1622.25 L -24.6115,-1622.23 L -24.5884,-1622.15 L -24.5831,-1622.13
 L -24.5593,-1622.05 L -24.5538,-1622.03 L -24.5291,-1621.96 L -24.5235,-1621.94 L -24.498,-1621.86 L -24.4922,-1621.84
 L -24.4659,-1621.76 L -24.4599,-1621.75 L -24.4328,-1621.67 L -24.4267,-1621.65 L -24.3988,-1621.57 L -24.3925,-1621.56
 L -24.3639,-1621.48 L -24.3573,-1621.46 L -24.3279,-1621.38 L -24.3212,-1621.37 L -24.291,-1621.29 L -24.2842,-1621.27
 L -24.2532,-1621.2 L -24.2462,-1621.18 L -24.2144,-1621.1 L -24.2072,-1621.09 L -24.1747,-1621.01 L -24.1673,-1620.99
 L -24.1341,-1620.92 L -24.1265,-1620.9 L -24.0925,-1620.83 L -24.0848,-1620.81 L -24.05,-1620.73 L -24.0421,-1620.72
 L -24.0065,-1620.64 L -23.9985,-1620.63 L -23.9622,-1620.55 L -23.954,-1620.54 L -23.9169,-1620.46 L -23.9085,-1620.44
 L -23.8707,-1620.37 L -23.8622,-1620.36 L -23.8237,-1620.28 L -23.8149,-1620.27 L -23.7757,-1620.19 L -23.7668,-1620.18
 L -23.7268,-1620.1 L -23.7178,-1620.09 L -23.677,-1620.02 L -23.6678,-1620 L -23.6264,-1619.93 L -23.617,-1619.91
 L -23.5748,-1619.84 L -23.5653,-1619.83 L -23.5224,-1619.76 L -23.5127,-1619.74 L -23.4691,-1619.67 L -23.4593,-1619.65
 L -23.415,-1619.59 L -23.405,-1619.57 L -23.36,-1619.5 L -23.3498,-1619.49 L -23.3042,-1619.42 L -23.2938,-1619.4
 L -23.2475,-1619.33 L -23.237,-1619.32 L -23.1899,-1619.25 L -23.1793,-1619.23 L -23.1315,-1619.17 L -23.1208,-1619.15
 L -23.0723,-1619.09 L -23.0614,-1619.07 L -23.0123,-1619 L -23.0012,-1618.99 L -22.9514,-1618.92 L -22.9402,-1618.91
 L -22.8898,-1618.84 L -22.8784,-1618.83 L -22.8273,-1618.76 L -22.8158,-1618.75 L -22.764,-1618.69 L -22.7524,-1618.67
 L -22.7,-1618.61 L -22.6882,-1618.59 L -22.6351,-1618.53 L -22.6232,-1618.52 L -22.5695,-1618.45 L -22.5574,-1618.44
 L -22.5031,-1618.38 L -22.4909,-1618.36 L -22.4359,-1618.3 L -22.4236,-1618.29 L -22.368,-1618.23 L -22.3555,-1618.21
 L -22.2993,-1618.15 L -22.2867,-1618.14 L -22.2299,-1618.08 L -22.2172,-1618.07 L -22.1598,-1618.01 L -22.1469,-1617.99
 L -22.0889,-1617.93 L -22.0759,-1617.92 L -22.0173,-1617.86 L -22.0041,-1617.85 L -21.945,-1617.79 L -21.9317,-1617.78
 L -21.8719,-1617.72 L -21.8585,-1617.71 L -21.7982,-1617.65 L -21.7847,-1617.64 L -21.7238,-1617.59 L -21.7101,-1617.57
 L -21.6487,-1617.52 L -21.6349,-1617.51 L -21.5729,-1617.45 L -21.559,-1617.44 L -21.4964,-1617.39 L -21.4824,-1617.37
 L -21.4193,-1617.32 L -21.4051,-1617.31 L -21.3415,-1617.26 L -21.3272,-1617.24 L -21.2631,-1617.19 L -21.2487,-1617.18
 L -21.184,-1617.13 L -21.1695,-1617.12 L -21.1043,-1617.07 L -21.0897,-1617.06 L -21.024,-1617.01 L -21.0093,-1616.99
 L -20.943,-1616.95 L -20.9282,-1616.93 L -20.8615,-1616.89 L -20.8465,-1616.87 L -20.7793,-1616.83 L -20.7643,-1616.82
 L -20.6966,-1616.77 L -20.6815,-1616.76 L -20.6133,-1616.71 L -20.5981,-1616.7 L -20.5294,-1616.66 L -20.5141,-1616.65
 L -20.445,-1616.6 L -20.4295,-1616.59 L -20.36,-1616.55 L -20.3444,-1616.54 L -20.2744,-1616.49 L -20.2588,-1616.48
 L -20.1883,-1616.44 L -20.1726,-1616.43 L -20.1017,-1616.39 L -20.0859,-1616.38 L -20.0146,-1616.34 L -19.9986,-1616.33
 L -19.9269,-1616.29 L -19.9109,-1616.28 L -19.8388,-1616.24 L -19.8226,-1616.23 L -19.7501,-1616.19 L -19.7339,-1616.18
 L -19.661,-1616.14 L -19.6447,-1616.13 L -19.5714,-1616.09 L -19.555,-1616.09 L -19.4813,-1616.05 L -19.4648,-1616.04
 L -19.3908,-1616 L -19.3742,-1616 L -19.2998,-1615.96 L -19.2832,-1615.95 L -19.2084,-1615.92 L -19.1917,-1615.91
 L -19.1165,-1615.87 L -19.0997,-1615.87 L -19.0242,-1615.83 L -19.0074,-1615.83 L -18.9316,-1615.79 L -18.9146,-1615.79
 L -18.8385,-1615.75 L -18.8215,-1615.75 L -18.745,-1615.72 L -18.7279,-1615.71 L -18.6512,-1615.68 L -18.634,-1615.67
 L -18.5569,-1615.64 L -18.5397,-1615.64 L -18.4623,-1615.61 L -18.4451,-1615.6 L -18.3674,-1615.57 L -18.3501,-1615.57
 L -18.2721,-1615.54 L -18.2547,-1615.53 L -18.1765,-1615.51 L -18.1591,-1615.5 L -18.0806,-1615.47 L -18.0631,-1615.47
 L -17.9843,-1615.44 L -17.9667,-1615.44 L -17.8877,-1615.41 L -17.8701,-1615.41 L -17.7909,-1615.39 L -17.7732,-1615.38
 L -17.6937,-1615.36 L -17.676,-1615.35 L -17.5963,-1615.33 L -17.5786,-1615.33 L -17.4986,-1615.3 L -17.4808,-1615.3
 L -17.4007,-1615.28 L -17.3828,-1615.28 L -17.3025,-1615.26 L -17.2846,-1615.25 L -17.2041,-1615.23 L -17.1862,-1615.23
 L -17.1055,-1615.21 L -17.0875,-1615.21 L -17.0066,-1615.19 L -16.9886,-1615.19 L -16.9075,-1615.17 L -16.8895,-1615.17
 L -16.8083,-1615.15 L -16.7902,-1615.15 L -16.7088,-1615.13 L -16.6907,-1615.13 L -16.6092,-1615.12 L -16.5911,-1615.12
 L -16.5094,-1615.1 L -16.4913,-1615.1 L -16.4095,-1615.09 L -16.3913,-1615.09 L -16.3094,-1615.07 L -16.2912,-1615.07
 L -16.2092,-1615.06 L -16.191,-1615.06 L -16.1089,-1615.05 L -16.0906,-1615.05 L -16.0084,-1615.04 L -15.9902,-1615.04
 L -15.9079,-1615.03 L -15.8896,-1615.03 L -15.8072,-1615.02 L -15.7889,-1615.02 L -15.7065,-1615.01 L -15.6882,-1615.01
 L -15.6057,-1615.01 L -15.5874,-1615.01 L -15.5049,-1615 L -15.4865,-1615 L -15.4795,-1615 L 26.3811,-1615
 L 28.8464,-1616.69 L 29.1133,-1616.87 L 31.9388,-1619.03 L 33.518,-1620.25 L 33.6234,-1620.34 L 37.3648,-1623.57
 L 37.7073,-1623.92 L 40.7481,-1626.89 L 41.2756,-1627.51 L 43.7572,-1630.26 L 44.4399,-1631.16 L 46.4693,-1633.73
 L 47.2915,-1634.97 L 48.9455,-1637.36 L 49.899,-1639 L 51.2303,-1641.2 L 52.3092,-1643.33 L 53.353,-1645.31
 L 54.55,-1648.01 L 55.3311,-1649.7 L 56.6359,-1653.07 L 57.174,-1654.41 L 58.5727,-1658.54 L 58.8865,-1659.44
 L 60.3625,-1664.43 L 60.4715,-1664.79 L 61.3138,-1668.06 L 61.9356,-1670.46 L 62.0006,-1670.76 L 63.2836,-1676.44
 L 63.4881,-1677.51 L 64.5144,-1682.71 L 64.837,-1684.64 L 65.633,-1689.27 L 66.0529,-1692.14 L 66.6454,-1696.08
 L 67.1427,-1699.97 L 67.5581,-1703.14 L 68.1145,-1708.12 L 68.378,-1710.43 L 68.9767,-1716.56 L 68.9812,-1716.6
 L 69.0514,-2120 L 33.3147,-2120 L 7.42613,-1649.51 L 7.42148,-1649.44 L 7.42037,-1649.42 L 7.41493,-1649.34
 L 7.41363,-1649.32 L 7.40743,-1649.24 L 7.40595,-1649.23 L 7.39896,-1649.15 L 7.39729,-1649.13 L 7.38953,-1649.05
 L 7.38768,-1649.03 L 7.37912,-1648.96 L 7.37708,-1648.94 L 7.36777,-1648.86 L 7.36554,-1648.84 L 7.35544,-1648.77
 L 7.35303,-1648.75 L 7.34215,-1648.67 L 7.33955,-1648.65 L 7.32791,-1648.58 L 7.32513,-1648.56 L 7.31271,-1648.48
 L 7.30974,-1648.46 L 7.29655,-1648.39 L 7.29339,-1648.37 L 7.27943,-1648.29 L 7.27609,-1648.28 L 7.26137,-1648.2
 L 7.25784,-1648.18 L 7.24235,-1648.11 L 7.23864,-1648.09 L 7.22237,-1648.01 L 7.21848,-1647.99 L 7.20146,-1647.92
 L 7.19739,-1647.9 L 7.17961,-1647.82 L 7.17535,-1647.81 L 7.1568,-1647.73 L 7.15236,-1647.71 L 7.13306,-1647.64
 L 7.12845,-1647.62 L 7.10837,-1647.55 L 7.10357,-1647.53 L 7.08276,-1647.45 L 7.07778,-1647.43 L 7.05621,-1647.36
 L 7.05105,-1647.34 L 7.02873,-1647.27 L 7.02339,-1647.25 L 7.00032,-1647.18 L 6.9948,-1647.16 L 6.97099,-1647.09
 L 6.96529,-1647.07 L 6.94075,-1646.99 L 6.93487,-1646.98 L 6.90957,-1646.9 L 6.90352,-1646.89 L 6.87748,-1646.81
 L 6.87125,-1646.8 L 6.84449,-1646.72 L 6.83808,-1646.71 L 6.81059,-1646.63 L 6.804,-1646.62 L 6.77577,-1646.54
 L 6.76901,-1646.53 L 6.74006,-1646.45 L 6.73312,-1646.44 L 6.70344,-1646.37 L 6.69633,-1646.35 L 6.66595,-1646.28
 L 6.65866,-1646.26 L 6.62754,-1646.19 L 6.62008,-1646.17 L 6.58827,-1646.1 L 6.58064,-1646.09 L 6.5481,-1646.02
 L 6.5403,-1646 L 6.50706,-1645.93 L 6.49908,-1645.91 L 6.46514,-1645.84 L 6.457,-1645.83 L 6.42236,-1645.76
 L 6.41404,-1645.74 L 6.3787,-1645.67 L 6.37022,-1645.65 L 6.33419,-1645.59 L 6.32554,-1645.57 L 6.28882,-1645.5
 L 6.28001,-1645.48 L 6.2426,-1645.42 L 6.23362,-1645.4 L 6.19553,-1645.33 L 6.18639,-1645.32 L 6.14762,-1645.25
 L 6.13831,-1645.23 L 6.09887,-1645.17 L 6.0894,-1645.15 L 6.0493,-1645.09 L 6.03966,-1645.07 L 5.99888,-1645
 L 5.98908,-1644.99 L 5.94765,-1644.92 L 5.93769,-1644.91 L 5.8956,-1644.84 L 5.88549,-1644.83 L 5.84275,-1644.76
 L 5.83247,-1644.75 L 5.78908,-1644.68 L 5.77865,-1644.67 L 5.73461,-1644.6 L 5.72403,-1644.59 L 5.67935,-1644.52
 L 5.66861,-1644.51 L 5.6233,-1644.45 L 5.6124,-1644.43 L 5.56646,-1644.37 L 5.55541,-1644.35 L 5.50885,-1644.29
 L 5.49765,-1644.28 L 5.45047,-1644.22 L 5.43912,-1644.2 L 5.39132,-1644.14 L 5.37981,-1644.13 L 5.3314,-1644.07
 L 5.31974,-1644.05 L 5.27073,-1643.99 L 5.25893,-1643.98 L 5.20932,-1643.92 L 5.19737,-1643.9 L 5.14716,-1643.84
 L 5.13507,-1643.83 L 5.08427,-1643.77 L 5.07203,-1643.76 L 5.02066,-1643.7 L 5.00827,-1643.69 L 4.95631,-1643.63
 L 4.94378,-1643.62 L 4.89126,-1643.56 L 4.8786,-1643.55 L 4.82549,-1643.49 L 4.81268,-1643.48 L 4.75901,-1643.42
 L 4.74607,-1643.41 L 4.69185,-1643.35 L 4.67877,-1643.34 L 4.624,-1643.28 L 4.61078,-1643.27 L 4.55546,-1643.22
 L 4.5421,-1643.2 L 4.48625,-1643.15 L 4.47277,-1643.14 L 4.41637,-1643.08 L 4.40275,-1643.07 L 4.34582,-1643.02
 L 4.33207,-1643.01 L 4.27463,-1642.95 L 4.26075,-1642.94 L 4.2028,-1642.89 L 4.18879,-1642.88 L 4.13032,-1642.83
 L 4.11618,-1642.82 L 4.05721,-1642.77 L 4.04295,-1642.75 L 3.98346,-1642.7 L 3.96908,-1642.69 L 3.90911,-1642.64
 L 3.89461,-1642.63 L 3.83415,-1642.58 L 3.81952,-1642.57 L 3.7586,-1642.52 L 3.74385,-1642.51 L 3.68243,-1642.47
 L 3.66757,-1642.45 L 3.60569,-1642.41 L 3.59071,-1642.4 L 3.52837,-1642.35 L 3.51328,-1642.34 L 3.45048,-1642.3
 L 3.43527,-1642.28 L 3.37203,-1642.24 L 3.35671,-1642.23 L 3.29303,-1642.19 L 3.2776,-1642.18 L 3.21348,-1642.13
 L 3.19794,-1642.12 L 3.13339,-1642.08 L 3.11774,-1642.07 L 3.05276,-1642.03 L 3.03701,-1642.02 L 2.97163,-1641.98
 L 2.95577,-1641.97 L 2.88997,-1641.93 L 2.87401,-1641.92 L 2.80781,-1641.88 L 2.79174,-1641.87 L 2.72516,-1641.83
 L 2.70899,-1641.82 L 2.64201,-1641.78 L 2.62575,-1641.77 L 2.55838,-1641.73 L 2.54202,-1641.72 L 2.47428,-1641.69
 L 2.45783,-1641.68 L 2.38973,-1641.64 L 2.37318,-1641.63 L 2.30471,-1641.6 L 2.28807,-1641.59 L 2.21925,-1641.55
 L 2.20252,-1641.54 L 2.13336,-1641.51 L 2.11653,-1641.5 L 2.04704,-1641.47 L 2.03014,-1641.46 L 1.9603,-1641.43
 L 1.9433,-1641.42 L 1.87315,-1641.39 L 1.85607,-1641.38 L 1.78559,-1641.35 L 1.76843,-1641.34 L 1.69765,-1641.31
 L 1.68041,-1641.3 L 1.60932,-1641.27 L 1.59201,-1641.26 L 1.52062,-1641.23 L 1.50323,-1641.23 L 1.43156,-1641.2
 L 1.41409,-1641.19 L 1.34213,-1641.16 L 1.32458,-1641.16 L 1.25236,-1641.13 L 1.23475,-1641.12 L 1.16225,-1641.1
 L 1.14456,-1641.09 L 1.07181,-1641.07 L 1.05406,-1641.06 L 0.981049,-1641.03 L 0.963229,-1641.03 L 0.889979,-1641
 L 0.872096,-1641 L 0.798608,-1640.97 L 0.780662,-1640.97 L 0.706949,-1640.95 L 0.688942,-1640.94 L 0.615004,-1640.92
 L 0.596938,-1640.91 L 0.522787,-1640.89 L 0.504664,-1640.89 L 0.430313,-1640.87 L 0.412136,-1640.86 L 0.337584,-1640.84
 L 0.319353,-1640.84 L 0.244601,-1640.82 L 0.226316,-1640.81 L 0.151389,-1640.8 L 0.133056,-1640.79 L 0.0579545,-1640.77
 L 0.0395735,-1640.77 L -0.0357034,-1640.75 L -0.0541325,-1640.75 L -0.12956,-1640.73 L -0.148031,-1640.73 L -0.223621,-1640.71
 L -0.242138,-1640.71 L -0.317865,-1640.7 L -0.33642,-1640.69 L -0.412285,-1640.68 L -0.430879,-1640.67 L -0.506883,-1640.66
 L -0.525516,-1640.66 L -0.601633,-1640.65 L -0.620299,-1640.64 L -0.696528,-1640.63 L -0.715227,-1640.63 L -0.791569,-1640.62
 L -0.810301,-1640.62 L -0.886732,-1640.61 L -0.905491,-1640.6 L -0.982021,-1640.6 L -1.00081,-1640.59 L -1.07742,-1640.58
 L -1.09623,-1640.58 L -1.17291,-1640.58 L -1.19175,-1640.57 L -1.19596,-1640.57 L -20.1813,-1641.62 L -20.2133,-1641.61
 L -20.2331,-1641.6 L -20.3072,-1641.57 L -20.3268,-1641.56 L -20.4006,-1641.53 L -20.4202,-1641.52 L -20.4937,-1641.49
 L -20.5132,-1641.48 L -20.5864,-1641.45 L -20.6058,-1641.44 L -20.6786,-1641.41 L -20.6979,-1641.4 L -20.7704,-1641.37
 L -20.7897,-1641.36 L -20.8618,-1641.32 L -20.881,-1641.31 L -20.9528,-1641.28 L -20.9718,-1641.27 L -21.0433,-1641.24
 L -21.0623,-1641.23 L -21.1333,-1641.19 L -21.1522,-1641.18 L -21.2229,-1641.14 L -21.2417,-1641.13 L -21.312,-1641.1
 L -21.3307,-1641.08 L -21.4007,-1641.05 L -21.4192,-1641.04 L -21.4888,-1641 L -21.5073,-1640.99 L -21.5764,-1640.95
 L -21.5948,-1640.94 L -21.6635,-1640.9 L -21.6818,-1640.88 L -21.7501,-1640.84 L -21.7683,-1640.83 L -21.8362,-1640.79
 L -21.8542,-1640.78 L -21.9217,-1640.74 L -21.9396,-1640.73 L -22.0067,-1640.68 L -22.0245,-1640.67 L -22.0911,-1640.63
 L -22.1088,-1640.62 L -22.1749,-1640.57 L -22.1925,-1640.56 L -22.2582,-1640.51 L -22.2757,-1640.5 L -22.3409,-1640.46
 L -22.3583,-1640.44 L -22.423,-1640.4 L -22.4403,-1640.38 L -22.5046,-1640.34 L -22.5217,-1640.32 L -22.5855,-1640.28
 L -22.6024,-1640.26 L -22.6657,-1640.22 L -22.6826,-1640.2 L -22.7454,-1640.15 L -22.7621,-1640.14 L -22.8244,-1640.09
 L -22.841,-1640.08 L -22.9028,-1640.03 L -22.9193,-1640.01 L -22.9806,-1639.96 L -22.9969,-1639.95 L -23.0577,-1639.9
 L -23.0738,-1639.88 L -23.1341,-1639.83 L -23.1501,-1639.82 L -23.2098,-1639.76 L -23.2257,-1639.75 L -23.2849,-1639.7
 L -23.3007,-1639.68 L -23.3593,-1639.63 L -23.3749,-1639.61 L -23.433,-1639.56 L -23.4485,-1639.54 L -23.506,-1639.49
 L -23.5213,-1639.47 L -23.5783,-1639.42 L -23.5935,-1639.4 L -23.6499,-1639.35 L -23.6649,-1639.33 L -23.7207,-1639.27
 L -23.7356,-1639.26 L -23.7908,-1639.2 L -23.8055,-1639.19 L -23.8602,-1639.13 L -23.8748,-1639.11 L -23.9288,-1639.05
 L -23.9432,-1639.04 L -23.9967,-1638.98 L -24.0109,-1638.96 L -24.0638,-1638.9 L -24.0779,-1638.89 L -24.1302,-1638.83
 L -24.1441,-1638.81 L -24.1958,-1638.75 L -24.2095,-1638.73 L -24.2606,-1638.67 L -24.2742,-1638.66 L -24.3246,-1638.6
 L -24.338,-1638.58 L -24.3878,-1638.52 L -24.4011,-1638.5 L -24.4502,-1638.44 L -24.4633,-1638.42 L -24.5118,-1638.36
 L -24.5248,-1638.34 L -24.5726,-1638.28 L -24.5854,-1638.26 L -24.6326,-1638.2 L -24.6452,-1638.18 L -24.6918,-1638.11
 L -24.7042,-1638.1 L -24.7501,-1638.03 L -24.7624,-1638.01 L -24.8076,-1637.95 L -24.8197,-1637.93 L -24.8643,-1637.86
 L -24.8762,-1637.85 L -24.9201,-1637.78 L -24.9318,-1637.76 L -24.9751,-1637.7 L -24.9866,-1637.68 L -25,-1637.66
 z
" stroke="black" fill="lightgray" stroke-width="0.5"/>
</svg>
