<?xml version="1.0" standalone="no"?>
<!DOCTYPE svg PUBLIC "-//W3C//DTD SVG 1.1//EN" "http://www.w3.org/Graphics/SVG/1.1/DTD/svg11.dtd">
<svg width="92mm" height="507mm" viewBox="-25 -2121 92 507" xmlns="http://www.w3.org/2000/svg" version="1.1">
<title>OpenSCAD Model</title>
<path d="
M -25,-1624.99 L -24.9999,-1624.99 L -24.9999,-1624.94 L -24.999,-1624.85 L -24.9988,-1624.84 L -24.9971,-1624.75
 L -24.9968,-1624.74 L -24.9941,-1624.65 L -24.9937,-1624.64 L -24.9902,-1624.55 L -24.9897,-1624.54 L -24.9852,-1624.45
 L -24.9846,-1624.44 L -24.9792,-1624.35 L -24.9784,-1624.34 L -24.9722,-1624.25 L -24.9713,-1624.23 L -24.9641,-1624.15
 L -24.9632,-1624.13 L -24.9551,-1624.05 L -24.954,-1624.03 L -24.945,-1623.94 L -24.9438,-1623.93 L -24.9339,-1623.84
 L -24.9326,-1623.83 L -24.9219,-1623.74 L -24.9204,-1623.73 L -24.9088,-1623.64 L -24.9072,-1623.63 L -24.8946,-1623.54
 L -24.8929,-1623.53 L -24.8795,-1623.44 L -24.8777,-1623.43 L -24.8634,-1623.34 L -24.8614,-1623.33 L -24.8462,-1623.24
 L -24.8441,-1623.23 L -24.8281,-1623.15 L -24.8259,-1623.13 L -24.8089,-1623.05 L -24.8066,-1623.03 L -24.7888,-1622.95
 L -24.7863,-1622.94 L -24.7677,-1622.85 L -24.7651,-1622.84 L -24.7455,-1622.75 L -24.7428,-1622.74 L -24.7224,-1622.65
 L -24.7195,-1622.64 L -24.6982,-1622.55 L -24.6953,-1622.54 L -24.6731,-1622.46 L -24.6701,-1622.44 L -24.647,-1622.36
 L -24.6438,-1622.35 L -24.6199,-1622.26 L -24.6166,-1622.25 L -24.5918,-1622.16 L -24.5884,-1622.15 L -24.5628,-1622.07
 L -24.5593,-1622.06 L -24.5328,-1621.97 L -24.5291,-1621.96 L -24.5018,-1621.87 L -24.498,-1621.86 L -24.4698,-1621.78
 L -24.4659,-1621.77 L -24.4369,-1621.68 L -24.4328,-1621.67 L -24.403,-1621.59 L -24.3988,-1621.58 L -24.3681,-1621.49
 L -24.3639,-1621.48 L -24.3323,-1621.4 L -24.3279,-1621.39 L -24.2955,-1621.3 L -24.291,-1621.29 L -24.2578,-1621.21
 L -24.2532,-1621.2 L -24.2191,-1621.12 L -24.2144,-1621.11 L -24.1795,-1621.02 L -24.1747,-1621.01 L -24.139,-1620.93
 L -24.1341,-1620.92 L -24.0975,-1620.84 L -24.0925,-1620.83 L -24.0551,-1620.75 L -24.05,-1620.74 L -24.0118,-1620.66
 L -24.0065,-1620.65 L -23.9676,-1620.57 L -23.9622,-1620.56 L -23.9224,-1620.48 L -23.9169,-1620.46 L -23.8763,-1620.39
 L -23.8707,-1620.37 L -23.8294,-1620.3 L -23.8237,-1620.29 L -23.7815,-1620.21 L -23.7757,-1620.2 L -23.7327,-1620.12
 L -23.7268,-1620.11 L -23.6831,-1620.03 L -23.677,-1620.02 L -23.6325,-1619.94 L -23.6264,-1619.93 L -23.5811,-1619.86
 L -23.5748,-1619.85 L -23.5288,-1619.77 L -23.5224,-1619.76 L -23.4756,-1619.68 L -23.4691,-1619.67 L -23.4216,-1619.6
 L -23.415,-1619.59 L -23.3667,-1619.51 L -23.36,-1619.5 L -23.3109,-1619.43 L -23.3042,-1619.42 L -23.2543,-1619.35
 L -23.2475,-1619.34 L -23.1969,-1619.26 L -23.1899,-1619.25 L -23.1386,-1619.18 L -23.1315,-1619.17 L -23.0795,-1619.1
 L -23.0723,-1619.09 L -23.0196,-1619.02 L -23.0123,-1619.01 L -22.9588,-1618.94 L -22.9514,-1618.93 L -22.8972,-1618.86
 L -22.8898,-1618.85 L -22.8349,-1618.78 L -22.8273,-1618.77 L -22.7717,-1618.7 L -22.764,-1618.69 L -22.7077,-1618.62
 L -22.7,-1618.61 L -22.643,-1618.54 L -22.6351,-1618.53 L -22.5775,-1618.47 L -22.5695,-1618.46 L -22.5112,-1618.39
 L -22.5031,-1618.38 L -22.4441,-1618.31 L -22.4359,-1618.3 L -22.3763,-1618.24 L -22.368,-1618.23 L -22.3077,-1618.17
 L -22.2993,-1618.16 L -22.2383,-1618.09 L -22.2299,-1618.08 L -22.1683,-1618.02 L -22.1598,-1618.01 L -22.0975,-1617.95
 L -22.0889,-1617.94 L -22.026,-1617.88 L -22.0173,-1617.87 L -21.9537,-1617.8 L -21.945,-1617.8 L -21.8808,-1617.73
 L -21.8719,-1617.73 L -21.8071,-1617.67 L -21.7982,-1617.66 L -21.7328,-1617.6 L -21.7238,-1617.59 L -21.6578,-1617.53
 L -21.6487,-1617.52 L -21.582,-1617.46 L -21.5729,-1617.45 L -21.5057,-1617.4 L -21.4964,-1617.39 L -21.4286,-1617.33
 L -21.4193,-1617.32 L -21.3509,-1617.27 L -21.3415,-1617.26 L -21.2726,-1617.2 L -21.2631,-1617.2 L -21.1936,-1617.14
 L -21.184,-1617.13 L -21.114,-1617.08 L -21.1043,-1617.07 L -21.0337,-1617.02 L -21.024,-1617.01 L -20.9528,-1616.96
 L -20.943,-1616.95 L -20.8714,-1616.9 L -20.8615,-1616.89 L -20.7893,-1616.84 L -20.7793,-1616.83 L -20.7066,-1616.78
 L -20.6966,-1616.77 L -20.6234,-1616.72 L -20.6133,-1616.72 L -20.5396,-1616.67 L -20.5294,-1616.66 L -20.4552,-1616.61
 L -20.445,-1616.6 L -20.3703,-1616.56 L -20.36,-1616.55 L -20.2848,-1616.5 L -20.2744,-1616.5 L -20.1988,-1616.45
 L -20.1883,-1616.44 L -20.1122,-1616.4 L -20.1017,-1616.39 L -20.0251,-1616.35 L -20.0146,-1616.34 L -19.9375,-1616.3
 L -19.9269,-1616.29 L -19.8494,-1616.25 L -19.8388,-1616.24 L -19.7609,-1616.2 L -19.7501,-1616.19 L -19.6718,-1616.15
 L -19.661,-1616.14 L -19.5822,-1616.1 L -19.5714,-1616.1 L -19.4922,-1616.06 L -19.4813,-1616.05 L -19.4017,-1616.01
 L -19.3908,-1616.01 L -19.3108,-1615.97 L -19.2998,-1615.96 L -19.2194,-1615.93 L -19.2084,-1615.92 L -19.1276,-1615.88
 L -19.1165,-1615.88 L -19.0354,-1615.84 L -19.0242,-1615.84 L -18.9428,-1615.8 L -18.9316,-1615.8 L -18.8498,-1615.76
 L -18.8385,-1615.76 L -18.7563,-1615.72 L -18.745,-1615.72 L -18.6625,-1615.69 L -18.6512,-1615.68 L -18.5684,-1615.65
 L -18.5569,-1615.65 L -18.4738,-1615.61 L -18.4623,-1615.61 L -18.3789,-1615.58 L -18.3674,-1615.58 L -18.2837,-1615.55
 L -18.2721,-1615.54 L -18.1881,-1615.51 L -18.1765,-1615.51 L -18.0922,-1615.48 L -18.0806,-1615.48 L -17.996,-1615.45
 L -17.9843,-1615.45 L -17.8994,-1615.42 L -17.8877,-1615.42 L -17.8026,-1615.39 L -17.7909,-1615.39 L -17.7055,-1615.36
 L -17.6937,-1615.36 L -17.6081,-1615.34 L -17.5963,-1615.33 L -17.5105,-1615.31 L -17.4986,-1615.31 L -17.4126,-1615.29
 L -17.4007,-1615.28 L -17.3144,-1615.26 L -17.3025,-1615.26 L -17.216,-1615.24 L -17.2041,-1615.24 L -17.1174,-1615.22
 L -17.1055,-1615.22 L -17.0186,-1615.2 L -17.0066,-1615.19 L -16.9195,-1615.18 L -16.9075,-1615.17 L -16.8203,-1615.16
 L -16.8083,-1615.16 L -16.7209,-1615.14 L -16.7088,-1615.14 L -16.6213,-1615.12 L -16.6092,-1615.12 L -16.5215,-1615.11
 L -16.5094,-1615.11 L -16.4216,-1615.09 L -16.4095,-1615.09 L -16.3216,-1615.08 L -16.3094,-1615.08 L -16.2214,-1615.07
 L -16.2092,-1615.06 L -16.121,-1615.05 L -16.1089,-1615.05 L -16.0206,-1615.04 L -16.0084,-1615.04 L -15.9201,-1615.03
 L -15.9079,-1615.03 L -15.8194,-1615.02 L -15.8072,-1615.02 L -15.7187,-1615.02 L -15.7065,-1615.02 L -15.6179,-1615.01
 L -15.6057,-1615.01 L -15.5171,-1615 L -15.5049,-1615 L -15.4162,-1615 L -15.4039,-1615 L -15.4025,-1615
 L 18.0964,-1615 L 19.2468,-1615.71 L 21.7682,-1617.2 L 24.682,-1619.22 L 26.5429,-1620.46 L 29.3446,-1622.66
 L 30.6916,-1623.67 L 33.3716,-1626.06 L 34.316,-1626.86 L 36.8895,-1629.48 L 37.5134,-1630.09 L 40.0098,-1633
 L 40.3712,-1633.41 L 42.8239,-1636.69 L 42.9615,-1636.86 L 44.5627,-1639.33 L 45.3407,-1640.52 L 45.3956,-1640.62
 L 47.5486,-1644.42 L 47.768,-1644.89 L 49.6035,-1648.62 L 49.9764,-1649.52 L 51.5173,-1653.13 L 52.031,-1654.56
 L 53.2956,-1657.97 L 53.9346,-1660.02 L 54.9409,-1663.14 L 55.6874,-1665.9 L 56.4548,-1668.64 L 57.2893,-1672.2
 L 57.8395,-1674.47 L 58.7415,-1678.9 L 59.0983,-1680.6 L 60.0473,-1685.99 L 60.2355,-1687.03 L 61.2119,-1693.44
 L 61.2567,-1693.73 L 61.5791,-1696.18 L 62.1745,-1700.68 L 62.2375,-1701.25 L 62.9932,-1707.87 L 63.1371,-1709.37
 L 63.7168,-1715.28 L 63.9226,-1717.77 L 64.3526,-1722.89 L 64.6033,-1726.43 L 64.9083,-1730.68 L 65.1888,-1735.33
 L 65.391,-1738.64 L 65.6881,-1744.43 L 65.8079,-1746.75 L 66.1104,-1753.71 L 66.1657,-1754.99 L 66.2173,-1756.4
 L 66.2699,-2120 L 33.5184,-2120 L 7.58405,-1649.5 L 7.58341,-1649.49 L 7.57828,-1649.41 L 7.57753,-1649.4
 L 7.57154,-1649.31 L 7.57068,-1649.3 L 7.56385,-1649.21 L 7.56288,-1649.2 L 7.55517,-1649.12 L 7.5541,-1649.11
 L 7.54555,-1649.02 L 7.54437,-1649.01 L 7.53495,-1648.93 L 7.53366,-1648.92 L 7.5234,-1648.83 L 7.52201,-1648.82
 L 7.51088,-1648.74 L 7.50938,-1648.73 L 7.49739,-1648.64 L 7.49578,-1648.63 L 7.48296,-1648.55 L 7.48125,-1648.54
 L 7.46756,-1648.45 L 7.46574,-1648.44 L 7.45121,-1648.36 L 7.44928,-1648.35 L 7.4339,-1648.26 L 7.43187,-1648.25
 L 7.41564,-1648.17 L 7.4135,-1648.16 L 7.39643,-1648.08 L 7.39419,-1648.07 L 7.37626,-1647.98 L 7.37392,-1647.97
 L 7.35516,-1647.89 L 7.35271,-1647.88 L 7.33311,-1647.79 L 7.33056,-1647.78 L 7.31011,-1647.7 L 7.30745,-1647.69
 L 7.28619,-1647.61 L 7.28343,-1647.6 L 7.26131,-1647.52 L 7.25844,-1647.51 L 7.23551,-1647.42 L 7.23253,-1647.41
 L 7.20877,-1647.33 L 7.2057,-1647.32 L 7.1811,-1647.24 L 7.17793,-1647.23 L 7.1525,-1647.15 L 7.14922,-1647.14
 L 7.12299,-1647.06 L 7.11961,-1647.05 L 7.09256,-1646.97 L 7.08907,-1646.96 L 7.06119,-1646.87 L 7.05761,-1646.86
 L 7.02892,-1646.78 L 7.02523,-1646.77 L 6.99574,-1646.69 L 6.99196,-1646.68 L 6.96165,-1646.6 L 6.95777,-1646.59
 L 6.92665,-1646.52 L 6.92267,-1646.51 L 6.89075,-1646.43 L 6.88667,-1646.42 L 6.85396,-1646.34 L 6.84978,-1646.33
 L 6.81628,-1646.25 L 6.812,-1646.24 L 6.7777,-1646.16 L 6.77332,-1646.15 L 6.73824,-1646.07 L 6.73377,-1646.06
 L 6.6979,-1645.99 L 6.69333,-1645.98 L 6.65667,-1645.9 L 6.65201,-1645.89 L 6.61458,-1645.81 L 6.60982,-1645.8
 L 6.57162,-1645.73 L 6.56676,-1645.72 L 6.52779,-1645.64 L 6.52284,-1645.63 L 6.4831,-1645.56 L 6.47806,-1645.55
 L 6.43756,-1645.47 L 6.43242,-1645.46 L 6.39116,-1645.39 L 6.38593,-1645.38 L 6.34392,-1645.31 L 6.3386,-1645.3
 L 6.29583,-1645.22 L 6.29042,-1645.21 L 6.24692,-1645.14 L 6.24142,-1645.13 L 6.19717,-1645.06 L 6.19158,-1645.05
 L 6.14659,-1644.98 L 6.1409,-1644.97 L 6.09519,-1644.9 L 6.08942,-1644.89 L 6.04298,-1644.82 L 6.03712,-1644.81
 L 5.98996,-1644.74 L 5.98401,-1644.73 L 5.93612,-1644.66 L 5.93009,-1644.65 L 5.88149,-1644.58 L 5.87537,-1644.57
 L 5.82607,-1644.5 L 5.81986,-1644.49 L 5.76986,-1644.42 L 5.76356,-1644.41 L 5.71286,-1644.34 L 5.70648,-1644.34
 L 5.65509,-1644.27 L 5.64863,-1644.26 L 5.59655,-1644.19 L 5.59001,-1644.18 L 5.53724,-1644.12 L 5.53061,-1644.11
 L 5.47716,-1644.04 L 5.47046,-1644.03 L 5.41634,-1643.97 L 5.40956,-1643.96 L 5.35478,-1643.89 L 5.34791,-1643.88
 L 5.29247,-1643.82 L 5.28552,-1643.81 L 5.22943,-1643.75 L 5.22241,-1643.74 L 5.16566,-1643.68 L 5.15856,-1643.67
 L 5.10116,-1643.6 L 5.09399,-1643.6 L 5.03597,-1643.53 L 5.02872,-1643.53 L 4.97005,-1643.46 L 4.96272,-1643.46
 L 4.90343,-1643.4 L 4.89603,-1643.39 L 4.83613,-1643.33 L 4.82865,-1643.32 L 4.76814,-1643.26 L 4.76059,-1643.25
 L 4.69945,-1643.19 L 4.69183,-1643.18 L 4.63011,-1643.13 L 4.62241,-1643.12 L 4.56009,-1643.06 L 4.55232,-1643.05
 L 4.4894,-1643 L 4.48157,-1642.99 L 4.41807,-1642.93 L 4.41017,-1642.92 L 4.34611,-1642.87 L 4.33814,-1642.86
 L 4.2735,-1642.8 L 4.26546,-1642.8 L 4.20025,-1642.74 L 4.19215,-1642.74 L 4.12638,-1642.68 L 4.11821,-1642.67
 L 4.05191,-1642.62 L 4.04367,-1642.61 L 3.97681,-1642.56 L 3.96852,-1642.55 L 3.90114,-1642.5 L 3.89278,-1642.5
 L 3.82485,-1642.44 L 3.81643,-1642.44 L 3.74799,-1642.39 L 3.73951,-1642.38 L 3.67055,-1642.33 L 3.66201,-1642.32
 L 3.59254,-1642.27 L 3.58394,-1642.27 L 3.51398,-1642.22 L 3.50532,-1642.21 L 3.43486,-1642.16 L 3.42615,-1642.16
 L 3.35519,-1642.11 L 3.34643,-1642.11 L 3.27499,-1642.06 L 3.26617,-1642.05 L 3.19425,-1642.01 L 3.18538,-1642
 L 3.11301,-1641.96 L 3.10408,-1641.95 L 3.03125,-1641.91 L 3.02226,-1641.9 L 2.94898,-1641.86 L 2.93994,-1641.85
 L 2.86622,-1641.81 L 2.85714,-1641.8 L 2.78297,-1641.76 L 2.77384,-1641.75 L 2.69924,-1641.71 L 2.69006,-1641.71
 L 2.61505,-1641.67 L 2.60582,-1641.66 L 2.5304,-1641.62 L 2.52112,-1641.62 L 2.44528,-1641.58 L 2.43596,-1641.57
 L 2.35973,-1641.53 L 2.35037,-1641.53 L 2.27374,-1641.49 L 2.26434,-1641.49 L 2.18734,-1641.45 L 2.17789,-1641.44
 L 2.1005,-1641.41 L 2.09101,-1641.4 L 2.01326,-1641.37 L 2.00374,-1641.36 L 1.92562,-1641.33 L 1.91605,-1641.33
 L 1.8376,-1641.29 L 1.82799,-1641.29 L 1.74919,-1641.25 L 1.73955,-1641.25 L 1.66041,-1641.22 L 1.65073,-1641.21
 L 1.57127,-1641.18 L 1.56155,-1641.18 L 1.48176,-1641.15 L 1.47201,-1641.14 L 1.39192,-1641.11 L 1.38214,-1641.11
 L 1.30173,-1641.08 L 1.29192,-1641.08 L 1.21123,-1641.05 L 1.20139,-1641.05 L 1.1204,-1641.02 L 1.11052,-1641.01
 L 1.02926,-1640.99 L 1.01936,-1640.98 L 0.937826,-1640.96 L 0.927897,-1640.96 L 0.846105,-1640.93 L 0.836148,-1640.93
 L 0.754098,-1640.9 L 0.744116,-1640.9 L 0.661822,-1640.88 L 0.651817,-1640.87 L 0.569293,-1640.85 L 0.559263,-1640.85
 L 0.476508,-1640.83 L 0.466455,-1640.82 L 0.38347,-1640.8 L 0.373396,-1640.8 L 0.290209,-1640.78 L 0.280115,-1640.78
 L 0.196725,-1640.76 L 0.18661,-1640.76 L 0.103018,-1640.74 L 0.0928861,-1640.74 L 0.00911783,-1640.72 L -0.0010323,-1640.72
 L -0.0849897,-1640.7 L -0.0951549,-1640.7 L -0.179273,-1640.68 L -0.189453,-1640.68 L -0.273733,-1640.66 L -0.283929,-1640.66
 L -0.368371,-1640.65 L -0.378579,-1640.65 L -0.463154,-1640.63 L -0.473374,-1640.63 L -0.558083,-1640.62 L -0.568314,-1640.62
 L -0.653157,-1640.61 L -0.663397,-1640.61 L -0.748347,-1640.59 L -0.758597,-1640.59 L -0.843667,-1640.58 L -0.853924,-1640.58
 L -0.939087,-1640.57 L -0.949351,-1640.57 L -1.03461,-1640.56 L -1.04488,-1640.56 L -1.13023,-1640.56 L -1.1405,-1640.55
 L -1.1939,-1640.55 L -20.0765,-1641.59 L -20.1408,-1641.57 L -20.1497,-1641.56 L -20.2343,-1641.53 L -20.2432,-1641.52
 L -20.3273,-1641.49 L -20.3362,-1641.48 L -20.4201,-1641.45 L -20.4289,-1641.44 L -20.5124,-1641.41 L -20.5212,-1641.4
 L -20.6042,-1641.37 L -20.613,-1641.36 L -20.6957,-1641.32 L -20.7044,-1641.32 L -20.7867,-1641.28 L -20.7953,-1641.27
 L -20.8772,-1641.23 L -20.8859,-1641.23 L -20.9673,-1641.19 L -20.9759,-1641.18 L -21.057,-1641.14 L -21.0655,-1641.14
 L -21.1461,-1641.09 L -21.1546,-1641.09 L -21.2348,-1641.05 L -21.2432,-1641.04 L -21.323,-1641 L -21.3314,-1640.99
 L -21.4107,-1640.95 L -21.419,-1640.94 L -21.4978,-1640.9 L -21.5061,-1640.89 L -21.5845,-1640.84 L -21.5927,-1640.84
 L -21.6706,-1640.79 L -21.6788,-1640.79 L -21.7562,-1640.74 L -21.7643,-1640.73 L -21.8412,-1640.68 L -21.8493,-1640.68
 L -21.9257,-1640.63 L -21.9337,-1640.62 L -22.0096,-1640.57 L -22.0176,-1640.57 L -22.0929,-1640.51 L -22.1008,-1640.51
 L -22.1757,-1640.46 L -22.1836,-1640.45 L -22.2579,-1640.4 L -22.2657,-1640.39 L -22.3395,-1640.34 L -22.3472,-1640.33
 L -22.4204,-1640.28 L -22.4281,-1640.27 L -22.5008,-1640.22 L -22.5084,-1640.21 L -22.5805,-1640.15 L -22.5881,-1640.15
 L -22.6596,-1640.09 L -22.6671,-1640.08 L -22.7381,-1640.03 L -22.7455,-1640.02 L -22.8159,-1639.96 L -22.8232,-1639.96
 L -22.8931,-1639.9 L -22.9003,-1639.89 L -22.9696,-1639.83 L -22.9768,-1639.83 L -23.0454,-1639.76 L -23.0525,-1639.76
 L -23.1205,-1639.7 L -23.1276,-1639.69 L -23.195,-1639.63 L -23.202,-1639.62 L -23.2688,-1639.56 L -23.2757,-1639.55
 L -23.3418,-1639.49 L -23.3487,-1639.48 L -23.4142,-1639.42 L -23.421,-1639.41 L -23.4858,-1639.35 L -23.4926,-1639.34
 L -23.5568,-1639.28 L -23.5634,-1639.27 L -23.627,-1639.2 L -23.6336,-1639.2 L -23.6964,-1639.13 L -23.7029,-1639.12
 L -23.7651,-1639.06 L -23.7716,-1639.05 L -23.8331,-1638.98 L -23.8395,-1638.97 L -23.9003,-1638.91 L -23.9066,-1638.9
 L -23.9667,-1638.83 L -23.973,-1638.82 L -24.0324,-1638.75 L -24.0385,-1638.75 L -24.0973,-1638.68 L -24.1034,-1638.67
 L -24.1614,-1638.6 L -24.1674,-1638.59 L -24.2247,-1638.52 L -24.2306,-1638.51 L -24.2872,-1638.44 L -24.293,-1638.43
 L -24.3489,-1638.36 L -24.3547,-1638.35 L -24.4098,-1638.28 L -24.4155,-1638.27 L -24.4698,-1638.2 L -24.4755,-1638.19
 L -24.5291,-1638.12 L -24.5346,-1638.11 L -24.5875,-1638.03 L -24.593,-1638.03 L -24.6451,-1637.95 L -24.6505,-1637.94
 L -24.7018,-1637.87 L -24.7071,-1637.86 L -24.7577,-1637.78 L -24.7629,-1637.78 L -24.8128,-1637.7 L -24.8179,-1637.69
 L -24.867,-1637.61 L -24.872,-1637.6 L -24.9203,-1637.53 L -24.9253,-1637.52 L -24.9727,-1637.44 L -24.9776,-1637.43
 L -25,-1637.39 z
" stroke="black" fill="lightgray" stroke-width="0.5"/>
</svg>
