<?xml version="1.0" standalone="no"?>
<!DOCTYPE svg PUBLIC "-//W3C//DTD SVG 1.1//EN" "http://www.w3.org/Graphics/SVG/1.1/DTD/svg11.dtd">
<svg width="89mm" height="507mm" viewBox="-25 -2121 89 507" xmlns="http://www.w3.org/2000/svg" version="1.1">
<title>OpenSCAD Model</title>
<path d="
M -25,-1624.98 L -24.9999,-1624.98 L -24.9999,-1624.93 L -24.9993,-1624.87 L -24.9988,-1624.83 L -24.9977,-1624.77
 L -24.9968,-1624.73 L -24.995,-1624.67 L -24.9937,-1624.63 L -24.9914,-1624.57 L -24.9897,-1624.53 L -24.9867,-1624.47
 L -24.9846,-1624.42 L -24.981,-1624.37 L -24.9784,-1624.32 L -24.9743,-1624.27 L -24.9713,-1624.22 L -24.9666,-1624.16
 L -24.9632,-1624.12 L -24.9579,-1624.06 L -24.954,-1624.02 L -24.9481,-1623.96 L -24.9438,-1623.92 L -24.9373,-1623.86
 L -24.9326,-1623.82 L -24.9256,-1623.76 L -24.9204,-1623.72 L -24.9128,-1623.66 L -24.9072,-1623.62 L -24.899,-1623.56
 L -24.8929,-1623.52 L -24.8841,-1623.46 L -24.8777,-1623.42 L -24.8683,-1623.36 L -24.8614,-1623.32 L -24.8515,-1623.26
 L -24.8441,-1623.22 L -24.8336,-1623.16 L -24.8259,-1623.12 L -24.8148,-1623.06 L -24.8066,-1623.02 L -24.7949,-1622.97
 L -24.7863,-1622.92 L -24.7741,-1622.87 L -24.7651,-1622.82 L -24.7523,-1622.77 L -24.7428,-1622.73 L -24.7294,-1622.67
 L -24.7195,-1622.63 L -24.7056,-1622.57 L -24.6953,-1622.53 L -24.6808,-1622.47 L -24.6701,-1622.43 L -24.655,-1622.38
 L -24.6438,-1622.33 L -24.6282,-1622.28 L -24.6166,-1622.24 L -24.6004,-1622.18 L -24.5884,-1622.14 L -24.5716,-1622.08
 L -24.5593,-1622.04 L -24.5419,-1621.99 L -24.5291,-1621.95 L -24.5112,-1621.89 L -24.498,-1621.85 L -24.4795,-1621.8
 L -24.4659,-1621.76 L -24.4469,-1621.7 L -24.4328,-1621.66 L -24.4133,-1621.61 L -24.3988,-1621.56 L -24.3787,-1621.51
 L -24.3639,-1621.47 L -24.3432,-1621.42 L -24.3279,-1621.38 L -24.3067,-1621.32 L -24.291,-1621.28 L -24.2693,-1621.23
 L -24.2532,-1621.19 L -24.2309,-1621.13 L -24.2144,-1621.09 L -24.1916,-1621.04 L -24.1747,-1621 L -24.1513,-1620.95
 L -24.1341,-1620.91 L -24.1101,-1620.86 L -24.0925,-1620.82 L -24.068,-1620.76 L -24.05,-1620.73 L -24.025,-1620.67
 L -24.0065,-1620.63 L -23.981,-1620.58 L -23.9622,-1620.54 L -23.9361,-1620.49 L -23.9169,-1620.45 L -23.8903,-1620.4
 L -23.8707,-1620.36 L -23.8436,-1620.31 L -23.8237,-1620.27 L -23.796,-1620.22 L -23.7757,-1620.19 L -23.7475,-1620.13
 L -23.7268,-1620.1 L -23.6981,-1620.05 L -23.677,-1620.01 L -23.6479,-1619.96 L -23.6264,-1619.92 L -23.5967,-1619.87
 L -23.5748,-1619.83 L -23.5447,-1619.78 L -23.5224,-1619.75 L -23.4918,-1619.7 L -23.4691,-1619.66 L -23.438,-1619.61
 L -23.415,-1619.58 L -23.3833,-1619.53 L -23.36,-1619.49 L -23.3278,-1619.44 L -23.3042,-1619.41 L -23.2715,-1619.36
 L -23.2475,-1619.32 L -23.2143,-1619.28 L -23.1899,-1619.24 L -23.1563,-1619.19 L -23.1315,-1619.16 L -23.0974,-1619.11
 L -23.0723,-1619.08 L -23.0377,-1619.03 L -23.0123,-1619 L -22.9772,-1618.95 L -22.9514,-1618.92 L -22.9159,-1618.87
 L -22.8898,-1618.84 L -22.8538,-1618.79 L -22.8273,-1618.76 L -22.7909,-1618.71 L -22.764,-1618.68 L -22.7271,-1618.63
 L -22.7,-1618.6 L -22.6626,-1618.55 L -22.6351,-1618.52 L -22.5973,-1618.48 L -22.5695,-1618.45 L -22.5313,-1618.4
 L -22.5031,-1618.37 L -22.4644,-1618.33 L -22.4359,-1618.29 L -22.3968,-1618.25 L -22.368,-1618.22 L -22.3285,-1618.18
 L -22.2993,-1618.14 L -22.2594,-1618.1 L -22.2299,-1618.07 L -22.1895,-1618.03 L -22.1598,-1618 L -22.119,-1617.96
 L -22.0889,-1617.93 L -22.0477,-1617.89 L -22.0173,-1617.86 L -21.9756,-1617.81 L -21.945,-1617.78 L -21.9029,-1617.74
 L -21.8719,-1617.72 L -21.8295,-1617.68 L -21.7982,-1617.65 L -21.7553,-1617.61 L -21.7238,-1617.58 L -21.6805,-1617.54
 L -21.6487,-1617.51 L -21.605,-1617.47 L -21.5729,-1617.44 L -21.5288,-1617.41 L -21.4964,-1617.38 L -21.452,-1617.34
 L -21.4193,-1617.31 L -21.3745,-1617.28 L -21.3415,-1617.25 L -21.2963,-1617.21 L -21.2631,-1617.18 L -21.2175,-1617.15
 L -21.184,-1617.12 L -21.1381,-1617.09 L -21.1043,-1617.06 L -21.058,-1617.02 L -21.024,-1617 L -20.9774,-1616.96
 L -20.943,-1616.94 L -20.8961,-1616.9 L -20.8615,-1616.88 L -20.8142,-1616.84 L -20.7793,-1616.82 L -20.7317,-1616.79
 L -20.6966,-1616.76 L -20.6486,-1616.73 L -20.6133,-1616.7 L -20.565,-1616.67 L -20.5294,-1616.65 L -20.4808,-1616.62
 L -20.445,-1616.59 L -20.396,-1616.56 L -20.36,-1616.54 L -20.3107,-1616.51 L -20.2744,-1616.48 L -20.2248,-1616.45
 L -20.1883,-1616.43 L -20.1384,-1616.4 L -20.1017,-1616.38 L -20.0515,-1616.35 L -20.0146,-1616.33 L -19.9641,-1616.3
 L -19.9269,-1616.28 L -19.8762,-1616.25 L -19.8388,-1616.23 L -19.7877,-1616.2 L -19.7501,-1616.18 L -19.6988,-1616.15
 L -19.661,-1616.13 L -19.6094,-1616.11 L -19.5714,-1616.09 L -19.5195,-1616.06 L -19.4813,-1616.04 L -19.4292,-1616.01
 L -19.3908,-1616 L -19.3384,-1615.97 L -19.2998,-1615.95 L -19.2471,-1615.93 L -19.2084,-1615.91 L -19.1555,-1615.88
 L -19.1165,-1615.87 L -19.0634,-1615.84 L -19.0242,-1615.83 L -18.9709,-1615.8 L -18.9316,-1615.79 L -18.878,-1615.76
 L -18.8385,-1615.75 L -18.7847,-1615.72 L -18.745,-1615.71 L -18.691,-1615.69 L -18.6512,-1615.67 L -18.5969,-1615.65
 L -18.5569,-1615.63 L -18.5025,-1615.61 L -18.4623,-1615.6 L -18.4077,-1615.58 L -18.3674,-1615.56 L -18.3125,-1615.54
 L -18.2721,-1615.53 L -18.2171,-1615.51 L -18.1765,-1615.5 L -18.1213,-1615.48 L -18.0806,-1615.47 L -18.0251,-1615.45
 L -17.9843,-1615.44 L -17.9287,-1615.42 L -17.8877,-1615.41 L -17.832,-1615.39 L -17.7909,-1615.38 L -17.7349,-1615.36
 L -17.6937,-1615.35 L -17.6376,-1615.33 L -17.5963,-1615.32 L -17.5401,-1615.31 L -17.4986,-1615.3 L -17.4422,-1615.28
 L -17.4007,-1615.27 L -17.3442,-1615.26 L -17.3025,-1615.25 L -17.2458,-1615.24 L -17.2041,-1615.23 L -17.1473,-1615.21
 L -17.1055,-1615.2 L -17.0485,-1615.19 L -17.0066,-1615.18 L -16.9496,-1615.17 L -16.9075,-1615.16 L -16.8504,-1615.15
 L -16.8083,-1615.14 L -16.751,-1615.13 L -16.7088,-1615.13 L -16.6515,-1615.12 L -16.6092,-1615.11 L -16.5518,-1615.1
 L -16.5094,-1615.09 L -16.4519,-1615.09 L -16.4095,-1615.08 L -16.3519,-1615.07 L -16.3094,-1615.07 L -16.2517,-1615.06
 L -16.2092,-1615.05 L -16.1514,-1615.05 L -16.1089,-1615.04 L -16.0511,-1615.04 L -16.0084,-1615.03 L -15.9505,-1615.03
 L -15.9079,-1615.02 L -15.8499,-1615.02 L -15.8072,-1615.01 L -15.7492,-1615.01 L -15.7065,-1615 L -15.6485,-1615
 L -15.6226,-1615 L 10.4142,-1615 L 14.7571,-1617.34 L 15.4538,-1617.78 L 19.9413,-1620.51 L 20.7816,-1621.11
 L 24.435,-1623.64 L 25.3645,-1624.4 L 28.3422,-1626.75 L 29.3328,-1627.68 L 31.7656,-1629.88 L 32.8081,-1631.01
 L 34.8009,-1633.09 L 35.8979,-1634.45 L 37.5308,-1636.41 L 38.6898,-1638.08 L 40.0201,-1639.92 L 41.2488,-1641.96
 L 42.315,-1643.66 L 43.6174,-1646.16 L 44.4447,-1647.69 L 45.8192,-1650.73 L 46.4255,-1652.02 L 47.8641,-1655.7
 L 48.2647,-1656.69 L 49.7545,-1661.1 L 49.9652,-1661.71 L 51.4891,-1666.93 L 51.5282,-1667.06 L 51.876,-1668.44
 L 52.9608,-1672.74 L 53.0581,-1673.2 L 54.2616,-1678.74 L 54.4689,-1679.88 L 55.4323,-1685.05 L 55.728,-1686.95
 L 56.4779,-1691.64 L 56.8409,-1694.36 L 57.4046,-1698.49 L 57.8148,-1702.11 L 58.2192,-1705.59 L 58.658,-1710.16
 L 58.9293,-1712.92 L 59.3798,-1718.48 L 59.5426,-1720.46 L 59.9898,-1727.06 L 60.0668,-1728.18 L 60.4979,-1735.87
 L 60.5098,-1736.08 L 60.5924,-1737.88 L 60.8863,-1744.13 L 60.9151,-1744.88 L 61.1985,-1752.32 L 61.2525,-1754.07
 L 61.4515,-1760.62 L 61.519,-1763.42 L 61.6519,-1769.04 L 61.7231,-1772.89 L 61.806,-1777.54 L 61.873,-1782.46
 L 61.9196,-1786.11 L 61.9762,-1792.12 L 61.9982,-1794.75 L 62.0396,-1801.84 L 62.047,-1803.43 L 62.0699,-1811.61
 L 62.0707,-1812.14 L 62.0718,-1816.47 L 62.0785,-1820.86 L 62.079,-1821.39 L 62.0744,-1829.59 L 62.0733,-1831.16
 L 62.0574,-1838.31 L 62.0522,-1840.91 L 62.0307,-1847 L 62.0202,-1850.62 L 61.9976,-1855.66 L 61.9814,-1860.28
 L 61.9609,-1864.28 L 61.9393,-1869.86 L 61.923,-1872.83 L 61.8974,-1879.35 L 61.8865,-1881.32 L 61.8586,-1888.74
 L 61.8533,-1889.72 L 61.8257,-1898 L 61.8255,-1898.04 L 61.8247,-1898.35 L 61.8135,-1906.25 L 61.8143,-1907.11
 L 61.8103,-1914.36 L 61.8138,-1916.07 L 61.8172,-1922.35 L 61.8255,-1924.87 L 61.8353,-1930.22 L 61.8509,-1933.5
 L 61.8659,-1937.95 L 61.8917,-1941.96 L 61.9101,-1945.54 L 61.9492,-1950.22 L 61.9689,-1952.99 L 62.0247,-1958.3
 L 62.0433,-1960.28 L 62.1193,-1966.17 L 62.1342,-1967.43 L 62.2343,-1973.85 L 62.2425,-1974.41 L 62.3523,-1980.33
 L 62.3701,-1981.23 L 62.372,-1981.31 L 62.5233,-1987.88 L 62.541,-1988.54 L 62.6963,-1994.37 L 62.7329,-1995.56
 L 62.89,-2000.7 L 62.9488,-2002.38 L 63.1053,-2006.85 L 63.1897,-2008.99 L 63.3432,-2012.84 L 63.4567,-2015.39
 L 63.6045,-2018.66 L 63.751,-2021.59 L 63.8014,-2022.58 L 63.8155,-2120 L 33.7019,-2120 L 7.72535,-1649.48
 L 7.72295,-1649.44 L 7.71958,-1649.38 L 7.71677,-1649.34 L 7.71282,-1649.28 L 7.70963,-1649.24 L 7.70513,-1649.19
 L 7.70152,-1649.15 L 7.69644,-1649.09 L 7.69244,-1649.05 L 7.68682,-1649 L 7.68241,-1648.96 L 7.6762,-1648.9
 L 7.6714,-1648.86 L 7.66465,-1648.81 L 7.65944,-1648.77 L 7.65212,-1648.71 L 7.64651,-1648.67 L 7.63862,-1648.62
 L 7.63262,-1648.58 L 7.62418,-1648.52 L 7.61778,-1648.48 L 7.60878,-1648.43 L 7.60198,-1648.39 L 7.59241,-1648.33
 L 7.58522,-1648.29 L 7.5751,-1648.24 L 7.56751,-1648.2 L 7.55683,-1648.14 L 7.54885,-1648.1 L 7.53761,-1648.05
 L 7.52923,-1648.01 L 7.51744,-1647.96 L 7.50867,-1647.92 L 7.49633,-1647.86 L 7.48717,-1647.82 L 7.47427,-1647.77
 L 7.46472,-1647.73 L 7.45126,-1647.68 L 7.44133,-1647.64 L 7.42734,-1647.58 L 7.417,-1647.54 L 7.40244,-1647.49
 L 7.39172,-1647.45 L 7.37663,-1647.4 L 7.36553,-1647.36 L 7.34989,-1647.3 L 7.3384,-1647.27 L 7.32221,-1647.21
 L 7.31033,-1647.17 L 7.29361,-1647.12 L 7.28135,-1647.08 L 7.26408,-1647.03 L 7.25144,-1646.99 L 7.23364,-1646.94
 L 7.22062,-1646.9 L 7.20227,-1646.85 L 7.18887,-1646.81 L 7.16999,-1646.76 L 7.15621,-1646.72 L 7.13681,-1646.67
 L 7.12265,-1646.63 L 7.10271,-1646.58 L 7.08818,-1646.54 L 7.0677,-1646.49 L 7.0528,-1646.45 L 7.0318,-1646.4
 L 7.01652,-1646.36 L 6.99499,-1646.31 L 6.97935,-1646.27 L 6.95731,-1646.22 L 6.94129,-1646.19 L 6.91872,-1646.14
 L 6.90234,-1646.1 L 6.87926,-1646.05 L 6.86251,-1646.01 L 6.8389,-1645.96 L 6.82179,-1645.92 L 6.79767,-1645.87
 L 6.7802,-1645.84 L 6.75558,-1645.79 L 6.73774,-1645.75 L 6.7126,-1645.7 L 6.69441,-1645.67 L 6.66877,-1645.62
 L 6.65022,-1645.58 L 6.62407,-1645.53 L 6.60517,-1645.5 L 6.57852,-1645.45 L 6.55927,-1645.41 L 6.53212,-1645.36
 L 6.51251,-1645.33 L 6.48487,-1645.28 L 6.46492,-1645.25 L 6.43678,-1645.2 L 6.41648,-1645.16 L 6.38785,-1645.11
 L 6.36721,-1645.08 L 6.3381,-1645.03 L 6.31711,-1645 L 6.28751,-1644.95 L 6.26618,-1644.92 L 6.2361,-1644.87
 L 6.21444,-1644.84 L 6.18389,-1644.79 L 6.16189,-1644.76 L 6.13086,-1644.71 L 6.10853,-1644.68 L 6.07702,-1644.63
 L 6.05436,-1644.6 L 6.02238,-1644.55 L 5.9994,-1644.52 L 5.96695,-1644.47 L 5.94364,-1644.44 L 5.91073,-1644.39
 L 5.88709,-1644.36 L 5.85373,-1644.32 L 5.82977,-1644.29 L 5.79595,-1644.24 L 5.77168,-1644.21 L 5.73741,-1644.16
 L 5.71281,-1644.13 L 5.67809,-1644.09 L 5.65318,-1644.06 L 5.61801,-1644.01 L 5.59279,-1643.98 L 5.55718,-1643.94
 L 5.53166,-1643.91 L 5.49561,-1643.87 L 5.46978,-1643.84 L 5.4333,-1643.79 L 5.40716,-1643.76 L 5.37025,-1643.72
 L 5.34382,-1643.69 L 5.30648,-1643.65 L 5.27974,-1643.62 L 5.24197,-1643.58 L 5.21495,-1643.55 L 5.17677,-1643.51
 L 5.14946,-1643.48 L 5.11085,-1643.44 L 5.08324,-1643.41 L 5.04422,-1643.37 L 5.01634,-1643.34 L 4.97692,-1643.3
 L 4.94875,-1643.27 L 4.90892,-1643.23 L 4.88046,-1643.21 L 4.84022,-1643.17 L 4.8115,-1643.14 L 4.77088,-1643.1
 L 4.74187,-1643.07 L 4.70085,-1643.03 L 4.67157,-1643.01 L 4.63016,-1642.97 L 4.60062,-1642.94 L 4.55883,-1642.9
 L 4.52902,-1642.88 L 4.48686,-1642.84 L 4.45679,-1642.82 L 4.41424,-1642.78 L 4.38391,-1642.75 L 4.34099,-1642.72
 L 4.3104,-1642.69 L 4.26711,-1642.66 L 4.23628,-1642.63 L 4.19263,-1642.59 L 4.16155,-1642.57 L 4.11754,-1642.54
 L 4.08621,-1642.51 L 4.04186,-1642.48 L 4.01028,-1642.45 L 3.96556,-1642.42 L 3.93375,-1642.39 L 3.8887,-1642.36
 L 3.85665,-1642.34 L 3.81125,-1642.3 L 3.77897,-1642.28 L 3.73324,-1642.25 L 3.70073,-1642.23 L 3.65467,-1642.19
 L 3.62194,-1642.17 L 3.57555,-1642.14 L 3.54259,-1642.12 L 3.49588,-1642.08 L 3.4627,-1642.06 L 3.41567,-1642.03
 L 3.38227,-1642.01 L 3.33493,-1641.98 L 3.30132,-1641.96 L 3.25368,-1641.93 L 3.21986,-1641.91 L 3.17192,-1641.88
 L 3.13789,-1641.86 L 3.08964,-1641.83 L 3.05542,-1641.81 L 3.00688,-1641.78 L 2.97246,-1641.76 L 2.92363,-1641.73
 L 2.88901,-1641.71 L 2.83989,-1641.69 L 2.80508,-1641.67 L 2.7557,-1641.64 L 2.7207,-1641.62 L 2.67105,-1641.6
 L 2.63586,-1641.58 L 2.58592,-1641.55 L 2.55056,-1641.53 L 2.50037,-1641.51 L 2.46483,-1641.49 L 2.41438,-1641.46
 L 2.37867,-1641.45 L 2.32797,-1641.42 L 2.29209,-1641.41 L 2.24113,-1641.38 L 2.20508,-1641.37 L 2.15389,-1641.34
 L 2.11768,-1641.33 L 2.06625,-1641.3 L 2.02988,-1641.29 L 1.97822,-1641.26 L 1.9417,-1641.25 L 1.88981,-1641.23
 L 1.85314,-1641.21 L 1.80103,-1641.19 L 1.76421,-1641.18 L 1.71188,-1641.16 L 1.67492,-1641.14 L 1.62237,-1641.12
 L 1.58527,-1641.11 L 1.53253,-1641.09 L 1.49529,-1641.07 L 1.44234,-1641.05 L 1.40497,-1641.04 L 1.35184,-1641.02
 L 1.31433,-1641.01 L 1.261,-1640.99 L 1.22338,-1640.98 L 1.16986,-1640.96 L 1.13212,-1640.95 L 1.07842,-1640.93
 L 1.04057,-1640.92 L 0.9867,-1640.9 L 0.948727,-1640.89 L 0.894692,-1640.88 L 0.856611,-1640.87 L 0.802414,-1640.85
 L 0.764232,-1640.84 L 0.709883,-1640.83 L 0.671599,-1640.81 L 0.617096,-1640.8 L 0.578711,-1640.79 L 0.524056,-1640.78
 L 0.485582,-1640.77 L 0.430794,-1640.75 L 0.392231,-1640.75 L 0.337308,-1640.73 L 0.298657,-1640.72 L 0.243599,-1640.71
 L 0.204872,-1640.7 L 0.149698,-1640.69 L 0.110889,-1640.68 L 0.0555895,-1640.67 L 0.0167111,-1640.67 L -0.0386948,-1640.66
 L -0.0776429,-1640.65 L -0.133156,-1640.64 L -0.172174,-1640.63 L -0.227795,-1640.62 L -0.266869,-1640.62 L -0.322579,-1640.61
 L -0.36171,-1640.6 L -0.417509,-1640.59 L -0.456696,-1640.59 L -0.512584,-1640.58 L -0.551815,-1640.58 L -0.607775,-1640.57
 L -0.647056,-1640.56 L -0.703095,-1640.56 L -0.742414,-1640.55 L -0.798515,-1640.55 L -0.837872,-1640.54 L -0.894036,-1640.54
 L -0.93343,-1640.53 L -0.989655,-1640.53 L -1.02907,-1640.53 L -1.06146,-1640.52 L -19.9383,-1641.57 L -19.9713,-1641.55
 L -20.009,-1641.54 L -20.0649,-1641.52 L -20.1024,-1641.5 L -20.1581,-1641.48 L -20.1955,-1641.46 L -20.251,-1641.44
 L -20.2882,-1641.42 L -20.3434,-1641.4 L -20.3804,-1641.38 L -20.4354,-1641.35 L -20.4722,-1641.34 L -20.527,-1641.31
 L -20.5636,-1641.29 L -20.6181,-1641.27 L -20.6546,-1641.25 L -20.7088,-1641.22 L -20.7451,-1641.21 L -20.7991,-1641.18
 L -20.8352,-1641.16 L -20.8888,-1641.13 L -20.9248,-1641.11 L -20.9781,-1641.08 L -21.0139,-1641.07 L -21.067,-1641.04
 L -21.1025,-1641.02 L -21.1553,-1640.99 L -21.1907,-1640.97 L -21.2431,-1640.94 L -21.2783,-1640.92 L -21.3305,-1640.89
 L -21.3654,-1640.87 L -21.4173,-1640.84 L -21.452,-1640.81 L -21.5036,-1640.78 L -21.5381,-1640.76 L -21.5893,-1640.73
 L -21.6236,-1640.71 L -21.6745,-1640.67 L -21.7086,-1640.65 L -21.7592,-1640.62 L -21.793,-1640.6 L -21.8433,-1640.56
 L -21.8769,-1640.54 L -21.9268,-1640.51 L -21.9602,-1640.48 L -22.0097,-1640.45 L -22.0429,-1640.43 L -22.0921,-1640.39
 L -22.125,-1640.37 L -22.1739,-1640.33 L -22.2065,-1640.31 L -22.255,-1640.27 L -22.2874,-1640.25 L -22.3356,-1640.21
 L -22.3677,-1640.19 L -22.4155,-1640.15 L -22.4474,-1640.12 L -22.4948,-1640.09 L -22.5265,-1640.06 L -22.5735,-1640.02
 L -22.6049,-1640 L -22.6515,-1639.96 L -22.6826,-1639.93 L -22.7289,-1639.89 L -22.7597,-1639.87 L -22.8056,-1639.83
 L -22.8362,-1639.8 L -22.8816,-1639.76 L -22.9119,-1639.73 L -22.957,-1639.69 L -22.987,-1639.67 L -23.0316,-1639.63
 L -23.0614,-1639.6 L -23.1056,-1639.56 L -23.1351,-1639.53 L -23.1789,-1639.49 L -23.2081,-1639.46 L -23.2515,-1639.42
 L -23.2804,-1639.39 L -23.3234,-1639.35 L -23.352,-1639.32 L -23.3945,-1639.27 L -23.4229,-1639.25 L -23.4649,-1639.2
 L -23.493,-1639.17 L -23.5346,-1639.13 L -23.5624,-1639.1 L -23.6036,-1639.06 L -23.631,-1639.03 L -23.6718,-1638.98
 L -23.6989,-1638.95 L -23.7392,-1638.91 L -23.766,-1638.88 L -23.8059,-1638.83 L -23.8324,-1638.8 L -23.8718,-1638.75
 L -23.898,-1638.72 L -23.9369,-1638.68 L -23.9628,-1638.64 L -24.0013,-1638.6 L -24.0268,-1638.57 L -24.0648,-1638.52
 L -24.0901,-1638.49 L -24.1276,-1638.44 L -24.1525,-1638.41 L -24.1895,-1638.36 L -24.2142,-1638.33 L -24.2507,-1638.28
 L -24.275,-1638.25 L -24.311,-1638.2 L -24.335,-1638.17 L -24.3705,-1638.12 L -24.3941,-1638.08 L -24.4292,-1638.04
 L -24.4525,-1638 L -24.487,-1637.95 L -24.51,-1637.92 L -24.544,-1637.87 L -24.5667,-1637.84 L -24.6002,-1637.79
 L -24.6225,-1637.75 L -24.6555,-1637.7 L -24.6775,-1637.67 L -24.71,-1637.62 L -24.7316,-1637.58 L -24.7636,-1637.53
 L -24.7848,-1637.5 L -24.8163,-1637.44 L -24.8372,-1637.41 L -24.8681,-1637.36 L -24.8887,-1637.32 L -24.9191,-1637.27
 L -24.9393,-1637.23 L -24.9692,-1637.18 L -24.9891,-1637.15 L -25,-1637.13 z
" stroke="black" fill="lightgray" stroke-width="0.5"/>
</svg>
