<?xml version="1.0" standalone="no"?>
<!DOCTYPE svg PUBLIC "-//W3C//DTD SVG 1.1//EN" "http://www.w3.org/Graphics/SVG/1.1/DTD/svg11.dtd">
<svg width="87mm" height="507mm" viewBox="-25 -2121 87 507" xmlns="http://www.w3.org/2000/svg" version="1.1">
<title>OpenSCAD Model</title>
<path d="
M -25,-1624.98 L -24.9999,-1624.98 L -24.9999,-1624.93 L -24.9996,-1624.91 L -24.9988,-1624.83 L -24.9983,-1624.8
 L -24.9968,-1624.73 L -24.996,-1624.7 L -24.9937,-1624.63 L -24.9926,-1624.6 L -24.9897,-1624.53 L -24.9883,-1624.5
 L -24.9846,-1624.43 L -24.9829,-1624.4 L -24.9784,-1624.33 L -24.9765,-1624.3 L -24.9713,-1624.23 L -24.9691,-1624.2
 L -24.9632,-1624.13 L -24.9606,-1624.1 L -24.954,-1624.03 L -24.9512,-1624 L -24.9438,-1623.92 L -24.9407,-1623.9
 L -24.9326,-1623.82 L -24.9293,-1623.8 L -24.9204,-1623.72 L -24.9168,-1623.7 L -24.9072,-1623.62 L -24.9033,-1623.6
 L -24.8929,-1623.52 L -24.8888,-1623.5 L -24.8777,-1623.42 L -24.8732,-1623.4 L -24.8614,-1623.32 L -24.8567,-1623.3
 L -24.8441,-1623.22 L -24.8392,-1623.2 L -24.8259,-1623.13 L -24.8206,-1623.1 L -24.8066,-1623.03 L -24.8011,-1623
 L -24.7863,-1622.93 L -24.7805,-1622.9 L -24.7651,-1622.83 L -24.759,-1622.8 L -24.7428,-1622.73 L -24.7365,-1622.7
 L -24.7195,-1622.63 L -24.7129,-1622.61 L -24.6953,-1622.53 L -24.6884,-1622.51 L -24.6701,-1622.44 L -24.6629,-1622.41
 L -24.6438,-1622.34 L -24.6364,-1622.31 L -24.6166,-1622.24 L -24.6089,-1622.21 L -24.5884,-1622.14 L -24.5805,-1622.12
 L -24.5593,-1622.05 L -24.551,-1622.02 L -24.5291,-1621.95 L -24.5206,-1621.92 L -24.498,-1621.85 L -24.4892,-1621.83
 L -24.4659,-1621.76 L -24.4569,-1621.73 L -24.4328,-1621.66 L -24.4236,-1621.64 L -24.3988,-1621.57 L -24.3893,-1621.54
 L -24.3639,-1621.47 L -24.3541,-1621.45 L -24.3279,-1621.38 L -24.3179,-1621.35 L -24.291,-1621.29 L -24.2807,-1621.26
 L -24.2532,-1621.19 L -24.2426,-1621.17 L -24.2144,-1621.1 L -24.2036,-1621.07 L -24.1747,-1621.01 L -24.1636,-1620.98
 L -24.1341,-1620.91 L -24.1227,-1620.89 L -24.0925,-1620.82 L -24.0809,-1620.8 L -24.05,-1620.73 L -24.0381,-1620.7
 L -24.0065,-1620.64 L -23.9944,-1620.61 L -23.9622,-1620.55 L -23.9498,-1620.52 L -23.9169,-1620.46 L -23.9043,-1620.43
 L -23.8707,-1620.37 L -23.8579,-1620.34 L -23.8237,-1620.28 L -23.8106,-1620.25 L -23.7757,-1620.19 L -23.7624,-1620.16
 L -23.7268,-1620.1 L -23.7132,-1620.08 L -23.677,-1620.01 L -23.6632,-1619.99 L -23.6264,-1619.93 L -23.6123,-1619.9
 L -23.5748,-1619.84 L -23.5605,-1619.81 L -23.5224,-1619.75 L -23.5079,-1619.73 L -23.4691,-1619.67 L -23.4544,-1619.64
 L -23.415,-1619.58 L -23.4,-1619.56 L -23.36,-1619.5 L -23.3448,-1619.47 L -23.3042,-1619.41 L -23.2887,-1619.39
 L -23.2475,-1619.33 L -23.2318,-1619.31 L -23.1899,-1619.25 L -23.174,-1619.22 L -23.1315,-1619.16 L -23.1154,-1619.14
 L -23.0723,-1619.08 L -23.0559,-1619.06 L -23.0123,-1619 L -22.9957,-1618.98 L -22.9514,-1618.92 L -22.9346,-1618.9
 L -22.8898,-1618.84 L -22.8727,-1618.82 L -22.8273,-1618.76 L -22.81,-1618.74 L -22.764,-1618.68 L -22.7466,-1618.66
 L -22.7,-1618.6 L -22.6823,-1618.58 L -22.6351,-1618.53 L -22.6172,-1618.5 L -22.5695,-1618.45 L -22.5514,-1618.43
 L -22.5031,-1618.37 L -22.4848,-1618.35 L -22.4359,-1618.3 L -22.4174,-1618.28 L -22.368,-1618.22 L -22.3493,-1618.2
 L -22.2993,-1618.15 L -22.2804,-1618.13 L -22.2299,-1618.08 L -22.2108,-1618.06 L -22.1598,-1618 L -22.1404,-1617.98
 L -22.0889,-1617.93 L -22.0694,-1617.91 L -22.0173,-1617.86 L -21.9976,-1617.84 L -21.945,-1617.79 L -21.925,-1617.77
 L -21.8719,-1617.72 L -21.8518,-1617.7 L -21.7982,-1617.65 L -21.7779,-1617.63 L -21.7238,-1617.58 L -21.7033,-1617.56
 L -21.6487,-1617.51 L -21.628,-1617.5 L -21.5729,-1617.45 L -21.552,-1617.43 L -21.4964,-1617.38 L -21.4754,-1617.36
 L -21.4193,-1617.32 L -21.3981,-1617.3 L -21.3415,-1617.25 L -21.3201,-1617.23 L -21.2631,-1617.19 L -21.2415,-1617.17
 L -21.184,-1617.12 L -21.1623,-1617.11 L -21.1043,-1617.06 L -21.0824,-1617.05 L -21.024,-1617 L -21.0019,-1616.99
 L -20.943,-1616.94 L -20.9208,-1616.92 L -20.8615,-1616.88 L -20.8391,-1616.87 L -20.7793,-1616.82 L -20.7568,-1616.81
 L -20.6966,-1616.76 L -20.6739,-1616.75 L -20.6133,-1616.71 L -20.5904,-1616.69 L -20.5294,-1616.65 L -20.5064,-1616.64
 L -20.445,-1616.6 L -20.4218,-1616.58 L -20.36,-1616.54 L -20.3366,-1616.53 L -20.2744,-1616.49 L -20.2509,-1616.47
 L -20.1883,-1616.43 L -20.1647,-1616.42 L -20.1017,-1616.38 L -20.0779,-1616.37 L -20.0146,-1616.33 L -19.9907,-1616.32
 L -19.9269,-1616.28 L -19.9029,-1616.27 L -19.8388,-1616.23 L -19.8146,-1616.22 L -19.7501,-1616.18 L -19.7258,-1616.17
 L -19.661,-1616.14 L -19.6365,-1616.12 L -19.5714,-1616.09 L -19.5468,-1616.08 L -19.4813,-1616.04 L -19.4566,-1616.03
 L -19.3908,-1616 L -19.366,-1615.99 L -19.2998,-1615.96 L -19.2749,-1615.94 L -19.2084,-1615.91 L -19.1833,-1615.9
 L -19.1165,-1615.87 L -19.0914,-1615.86 L -19.0242,-1615.83 L -18.999,-1615.82 L -18.9316,-1615.79 L -18.9062,-1615.78
 L -18.8385,-1615.75 L -18.813,-1615.74 L -18.745,-1615.71 L -18.7194,-1615.7 L -18.6512,-1615.67 L -18.6255,-1615.66
 L -18.5569,-1615.64 L -18.5311,-1615.63 L -18.4623,-1615.6 L -18.4364,-1615.59 L -18.3674,-1615.57 L -18.3414,-1615.56
 L -18.2721,-1615.53 L -18.246,-1615.53 L -18.1765,-1615.5 L -18.1503,-1615.49 L -18.0806,-1615.47 L -18.0543,-1615.46
 L -17.9843,-1615.44 L -17.958,-1615.43 L -17.8877,-1615.41 L -17.8613,-1615.4 L -17.7909,-1615.38 L -17.7644,-1615.37
 L -17.6937,-1615.35 L -17.6672,-1615.35 L -17.5963,-1615.33 L -17.5697,-1615.32 L -17.4986,-1615.3 L -17.4719,-1615.29
 L -17.4007,-1615.28 L -17.3739,-1615.27 L -17.3025,-1615.25 L -17.2757,-1615.25 L -17.2041,-1615.23 L -17.1772,-1615.22
 L -17.1055,-1615.21 L -17.0785,-1615.2 L -17.0066,-1615.19 L -16.9796,-1615.18 L -16.9075,-1615.17 L -16.8805,-1615.16
 L -16.8083,-1615.15 L -16.7812,-1615.14 L -16.7088,-1615.13 L -16.6817,-1615.13 L -16.6092,-1615.11 L -16.582,-1615.11
 L -16.5094,-1615.1 L -16.4822,-1615.09 L -16.4095,-1615.08 L -16.3822,-1615.08 L -16.3094,-1615.07 L -16.2821,-1615.07
 L -16.2092,-1615.06 L -16.1819,-1615.05 L -16.1089,-1615.05 L -16.0815,-1615.04 L -16.0084,-1615.03 L -15.981,-1615.03
 L -15.9079,-1615.02 L -15.8804,-1615.02 L -15.8072,-1615.02 L -15.7798,-1615.01 L -15.7065,-1615.01 L -15.679,-1615.01
 L -15.6057,-1615 L -15.5782,-1615 L -15.5575,-1615 L 3.44485,-1615 L 5.45512,-1616 L 8.16608,-1617.29
 L 11.6849,-1619.27 L 13.7805,-1620.4 L 17.038,-1622.49 L 18.643,-1623.48 L 21.6451,-1625.69 L 22.8573,-1626.55
 L 25.6334,-1628.89 L 26.5289,-1629.63 L 29.1232,-1632.16 L 29.76,-1632.76 L 32.222,-1635.54 L 32.6421,-1636
 L 35.0184,-1639.1 L 35.2504,-1639.4 L 37.5787,-1642.92 L 37.641,-1643.01 L 38.4779,-1644.48 L 39.8544,-1646.89
 L 39.9399,-1647.07 L 41.9111,-1651.08 L 42.129,-1651.61 L 43.8197,-1655.6 L 44.1588,-1656.56 L 45.584,-1660.47
 L 46.0299,-1661.93 L 47.2052,-1665.68 L 47.7408,-1667.73 L 48.6839,-1671.24 L 49.2902,-1673.94 L 50.0217,-1677.12
 L 50.6786,-1680.55 L 51.2215,-1683.31 L 51.9091,-1687.53 L 52.2878,-1689.8 L 52.9869,-1694.87 L 53.2263,-1696.57
 L 53.919,-1702.53 L 54.0438,-1703.58 L 54.7139,-1710.49 L 54.7479,-1710.84 L 55.0206,-1714.23 L 55.3505,-1718.3
 L 55.3788,-1718.74 L 55.8592,-1725.97 L 55.9262,-1727.23 L 56.2787,-1733.8 L 56.3686,-1735.94 L 56.6171,-1741.8
 L 56.7161,-1744.85 L 56.8821,-1749.94 L 56.9785,-1753.92 L 57.0813,-1758.21 L 57.165,-1763.14 L 57.2218,-1766.58
 L 57.2848,-1772.49 L 57.3105,-1775.05 L 57.3464,-1781.94 L 57.3537,-1783.59 L 57.3578,-1791.47 L 57.3575,-1792.19
 L 57.3343,-1798.83 L 57.3294,-1800.84 L 57.3284,-1801.06 L 57.279,-1809.52 L 57.2705,-1810.68 L 57.205,-1818.22
 L 57.1847,-1820.32 L 57.1119,-1826.93 L 57.0771,-1829.96 L 57.0038,-1835.63 L 56.9528,-1839.57 L 56.8847,-1844.3
 L 56.8168,-1849.15 L 56.758,-1852.94 L 56.6736,-1858.67 L 56.6271,-1861.54 L 56.5274,-1868.13 L 56.4948,-1870.08
 L 56.3818,-1877.49 L 56.3641,-1878.55 L 56.2404,-1886.76 L 56.2372,-1886.94 L 56.2101,-1888.8 L 56.123,-1895.25
 L 56.1158,-1895.89 L 56.0188,-1903.46 L 56.004,-1904.88 L 55.9249,-1911.55 L 55.9049,-1913.74 L 55.8431,-1919.54
 L 55.8206,-1922.44 L 55.7751,-1927.39 L 55.7532,-1930.97 L 55.7222,-1935.12 L 55.7045,-1939.34 L 55.6861,-1942.71
 L 55.6764,-1947.53 L 55.6679,-1950.16 L 55.6703,-1955.52 L 55.6691,-1957.45 L 55.6879,-1963.33 L 55.6907,-1964.6
 L 55.7306,-1970.94 L 55.7341,-1971.58 L 55.7999,-1978.36 L 55.8004,-1978.41 L 55.8086,-1979.02 L 55.8968,-1985.07
 L 55.906,-1985.55 L 56.0189,-1991.57 L 56.0417,-1992.54 L 56.1673,-1997.9 L 56.2077,-1999.32 L 56.3431,-2004.07
 L 56.4053,-2005.91 L 56.5475,-2010.08 L 56.6359,-2012.3 L 56.782,-2015.93 L 56.9012,-2018.5 L 57.0477,-2021.61
 L 57.2026,-2024.51 L 57.3461,-2027.14 L 57.5418,-2030.34 L 57.6785,-2032.52 L 57.9206,-2035.99 L 58.0466,-2037.75
 L 58.3407,-2041.48 L 58.4518,-2042.84 L 58.8041,-2046.8 L 58.8956,-2047.79 L 59.3124,-2051.96 L 59.3795,-2052.61
 L 59.8675,-2056.98 L 59.905,-2057.3 L 60.4711,-2061.86 L 60.4733,-2061.87 L 60.5081,-2062.12 L 61.0906,-2066.33
 L 61.1288,-2066.59 L 61.753,-2070.67 L 61.7899,-2070.9 L 61.7953,-2120 L 33.8651,-2120 L 7.85179,-1649.47
 L 7.84763,-1649.4 L 7.84601,-1649.37 L 7.84114,-1649.3 L 7.83925,-1649.27 L 7.83371,-1649.21 L 7.83155,-1649.18
 L 7.82529,-1649.11 L 7.82286,-1649.08 L 7.81592,-1649.01 L 7.81322,-1648.99 L 7.80558,-1648.92 L 7.8026,-1648.89
 L 7.79428,-1648.82 L 7.79104,-1648.8 L 7.78202,-1648.73 L 7.7785,-1648.7 L 7.76878,-1648.63 L 7.765,-1648.61
 L 7.7546,-1648.54 L 7.75055,-1648.51 L 7.73946,-1648.44 L 7.73514,-1648.42 L 7.72336,-1648.35 L 7.71877,-1648.32
 L 7.7063,-1648.25 L 7.70145,-1648.23 L 7.6883,-1648.16 L 7.68317,-1648.13 L 7.66934,-1648.07 L 7.66394,-1648.04
 L 7.64942,-1647.97 L 7.64376,-1647.95 L 7.62857,-1647.88 L 7.62265,-1647.85 L 7.60677,-1647.78 L 7.60058,-1647.76
 L 7.58402,-1647.69 L 7.57757,-1647.67 L 7.56035,-1647.6 L 7.55363,-1647.57 L 7.53572,-1647.51 L 7.52873,-1647.48
 L 7.51016,-1647.41 L 7.50292,-1647.39 L 7.48367,-1647.32 L 7.47617,-1647.3 L 7.45625,-1647.23 L 7.44848,-1647.2
 L 7.4279,-1647.14 L 7.41987,-1647.11 L 7.39862,-1647.05 L 7.39034,-1647.02 L 7.36843,-1646.96 L 7.35989,-1646.93
 L 7.33732,-1646.86 L 7.32852,-1646.84 L 7.30529,-1646.77 L 7.29623,-1646.75 L 7.27235,-1646.68 L 7.26304,-1646.66
 L 7.2385,-1646.59 L 7.22893,-1646.57 L 7.20374,-1646.5 L 7.19392,-1646.48 L 7.16808,-1646.42 L 7.15801,-1646.39
 L 7.13153,-1646.33 L 7.1212,-1646.3 L 7.09408,-1646.24 L 7.08351,-1646.21 L 7.05574,-1646.15 L 7.04491,-1646.13
 L 7.01652,-1646.06 L 7.00544,-1646.04 L 6.97641,-1645.98 L 6.96508,-1645.95 L 6.93542,-1645.89 L 6.92384,-1645.86
 L 6.89356,-1645.8 L 6.88174,-1645.78 L 6.85083,-1645.72 L 6.83876,-1645.69 L 6.80723,-1645.63 L 6.79492,-1645.61
 L 6.76276,-1645.55 L 6.75021,-1645.52 L 6.71745,-1645.46 L 6.70466,-1645.44 L 6.67128,-1645.38 L 6.65825,-1645.35
 L 6.62427,-1645.29 L 6.611,-1645.27 L 6.57641,-1645.21 L 6.5629,-1645.19 L 6.52771,-1645.13 L 6.51397,-1645.1
 L 6.47819,-1645.05 L 6.46421,-1645.02 L 6.42782,-1644.96 L 6.41361,-1644.94 L 6.37664,-1644.88 L 6.3622,-1644.86
 L 6.32465,-1644.8 L 6.30997,-1644.78 L 6.27184,-1644.72 L 6.25694,-1644.7 L 6.21822,-1644.64 L 6.20309,-1644.62
 L 6.16381,-1644.56 L 6.14845,-1644.54 L 6.1086,-1644.48 L 6.09302,-1644.46 L 6.05259,-1644.41 L 6.03679,-1644.38
 L 5.99581,-1644.33 L 5.97978,-1644.31 L 5.93824,-1644.25 L 5.922,-1644.23 L 5.87991,-1644.18 L 5.86345,-1644.16
 L 5.8208,-1644.1 L 5.80412,-1644.08 L 5.76093,-1644.03 L 5.74404,-1644 L 5.70031,-1643.95 L 5.68321,-1643.93
 L 5.63895,-1643.88 L 5.62163,-1643.86 L 5.57684,-1643.8 L 5.55931,-1643.78 L 5.51399,-1643.73 L 5.49626,-1643.71
 L 5.45042,-1643.66 L 5.43248,-1643.64 L 5.38612,-1643.59 L 5.36797,-1643.57 L 5.32111,-1643.52 L 5.30277,-1643.5
 L 5.25539,-1643.45 L 5.23684,-1643.43 L 5.18895,-1643.38 L 5.17021,-1643.36 L 5.12184,-1643.31 L 5.1029,-1643.29
 L 5.05403,-1643.24 L 5.03489,-1643.22 L 4.98553,-1643.18 L 4.96619,-1643.16 L 4.91636,-1643.11 L 4.89684,-1643.09
 L 4.84652,-1643.04 L 4.82681,-1643.02 L 4.77602,-1642.98 L 4.75612,-1642.96 L 4.70486,-1642.91 L 4.68478,-1642.9
 L 4.63307,-1642.85 L 4.6128,-1642.83 L 4.56063,-1642.79 L 4.54018,-1642.77 L 4.48756,-1642.72 L 4.46693,-1642.71
 L 4.41386,-1642.66 L 4.39304,-1642.65 L 4.33954,-1642.6 L 4.31856,-1642.59 L 4.26462,-1642.54 L 4.24346,-1642.53
 L 4.1891,-1642.48 L 4.16778,-1642.47 L 4.11298,-1642.42 L 4.09148,-1642.41 L 4.03627,-1642.37 L 4.01461,-1642.35
 L 3.95899,-1642.31 L 3.93716,-1642.29 L 3.88113,-1642.25 L 3.85914,-1642.24 L 3.80272,-1642.2 L 3.78057,-1642.18
 L 3.72375,-1642.14 L 3.70145,-1642.13 L 3.64423,-1642.09 L 3.62177,-1642.08 L 3.56418,-1642.04 L 3.54156,-1642.02
 L 3.48358,-1641.99 L 3.46081,-1641.97 L 3.40248,-1641.93 L 3.37956,-1641.92 L 3.32085,-1641.88 L 3.29779,-1641.87
 L 3.23872,-1641.83 L 3.21552,-1641.82 L 3.1561,-1641.79 L 3.13275,-1641.77 L 3.07299,-1641.74 L 3.0495,-1641.72
 L 2.98938,-1641.69 L 2.96576,-1641.68 L 2.90532,-1641.64 L 2.88156,-1641.63 L 2.82079,-1641.6 L 2.7969,-1641.59
 L 2.7358,-1641.55 L 2.71177,-1641.54 L 2.65037,-1641.51 L 2.62622,-1641.5 L 2.5645,-1641.47 L 2.54022,-1641.46
 L 2.47821,-1641.43 L 2.45382,-1641.41 L 2.39149,-1641.38 L 2.36697,-1641.37 L 2.30437,-1641.34 L 2.27973,-1641.33
 L 2.21684,-1641.3 L 2.19208,-1641.29 L 2.12892,-1641.27 L 2.10405,-1641.26 L 2.04062,-1641.23 L 2.01564,-1641.22
 L 1.95194,-1641.19 L 1.92686,-1641.18 L 1.8629,-1641.16 L 1.83771,-1641.15 L 1.77349,-1641.12 L 1.7482,-1641.11
 L 1.68374,-1641.09 L 1.65835,-1641.08 L 1.59365,-1641.05 L 1.56816,-1641.05 L 1.50324,-1641.02 L 1.47765,-1641.01
 L 1.41249,-1640.99 L 1.38681,-1640.98 L 1.32144,-1640.96 L 1.29567,-1640.95 L 1.23009,-1640.93 L 1.20423,-1640.92
 L 1.13845,-1640.9 L 1.11251,-1640.9 L 1.04652,-1640.88 L 1.0205,-1640.87 L 0.954321,-1640.85 L 0.928219,-1640.84
 L 0.861862,-1640.82 L 0.835686,-1640.82 L 0.76915,-1640.8 L 0.742898,-1640.79 L 0.676183,-1640.77 L 0.649856,-1640.77
 L 0.582985,-1640.75 L 0.556592,-1640.75 L 0.489564,-1640.73 L 0.463105,-1640.72 L 0.39592,-1640.71 L 0.369395,-1640.7
 L 0.302075,-1640.69 L 0.275493,-1640.68 L 0.208027,-1640.67 L 0.181383,-1640.66 L 0.113794,-1640.65 L 0.0870976,-1640.65
 L 0.0193848,-1640.63 L -0.00736494,-1640.63 L -0.0752017,-1640.62 L -0.102005,-1640.61 L -0.169942,-1640.6 L -0.196789,-1640.6
 L -0.264828,-1640.59 L -0.29172,-1640.58 L -0.35986,-1640.58 L -0.386795,-1640.57 L -0.455016,-1640.56 L -0.481987,-1640.56
 L -0.550297,-1640.55 L -0.577308,-1640.55 L -0.645686,-1640.54 L -0.672729,-1640.54 L -0.741176,-1640.53 L -0.76825,-1640.53
 L -0.836764,-1640.52 L -0.863869,-1640.52 L -0.93243,-1640.52 L -0.959558,-1640.51 L -1.02816,-1640.51 L -1.05532,-1640.51
 L -1.0766,-1640.51 L -19.8512,-1641.54 L -19.883,-1641.53 L -19.9104,-1641.52 L -19.9765,-1641.49 L -20.0037,-1641.48
 L -20.0695,-1641.45 L -20.0967,-1641.44 L -20.1622,-1641.41 L -20.1892,-1641.4 L -20.2545,-1641.37 L -20.2814,-1641.36
 L -20.3463,-1641.33 L -20.3731,-1641.32 L -20.4377,-1641.29 L -20.4644,-1641.27 L -20.5287,-1641.24 L -20.5552,-1641.23
 L -20.6192,-1641.2 L -20.6456,-1641.18 L -20.7092,-1641.15 L -20.7355,-1641.14 L -20.7988,-1641.11 L -20.825,-1641.09
 L -20.888,-1641.06 L -20.9139,-1641.04 L -20.9766,-1641.01 L -21.0024,-1641 L -21.0647,-1640.96 L -21.0904,-1640.95
 L -21.1524,-1640.91 L -21.1779,-1640.9 L -21.2395,-1640.86 L -21.2649,-1640.84 L -21.3261,-1640.81 L -21.3513,-1640.79
 L -21.4122,-1640.75 L -21.4373,-1640.74 L -21.4977,-1640.7 L -21.5226,-1640.68 L -21.5827,-1640.65 L -21.6075,-1640.63
 L -21.6671,-1640.59 L -21.6917,-1640.57 L -21.751,-1640.53 L -21.7754,-1640.52 L -21.8343,-1640.48 L -21.8586,-1640.46
 L -21.917,-1640.42 L -21.9411,-1640.4 L -21.9991,-1640.36 L -22.0231,-1640.34 L -22.0807,-1640.3 L -22.1044,-1640.28
 L -22.1616,-1640.24 L -22.1852,-1640.22 L -22.2419,-1640.18 L -22.2653,-1640.16 L -22.3216,-1640.12 L -22.3448,-1640.1
 L -22.4006,-1640.05 L -22.4236,-1640.03 L -22.479,-1639.99 L -22.5018,-1639.97 L -22.5568,-1639.93 L -22.5794,-1639.91
 L -22.6339,-1639.86 L -22.6563,-1639.84 L -22.7103,-1639.79 L -22.7326,-1639.77 L -22.7861,-1639.73 L -22.8082,-1639.71
 L -22.8612,-1639.66 L -22.8831,-1639.64 L -22.9356,-1639.59 L -22.9573,-1639.57 L -23.0093,-1639.52 L -23.0308,-1639.5
 L -23.0823,-1639.45 L -23.1036,-1639.43 L -23.1546,-1639.38 L -23.1757,-1639.36 L -23.2262,-1639.31 L -23.247,-1639.29
 L -23.2971,-1639.24 L -23.3177,-1639.22 L -23.3672,-1639.17 L -23.3876,-1639.14 L -23.4366,-1639.09 L -23.4568,-1639.07
 L -23.5052,-1639.02 L -23.5252,-1639 L -23.5731,-1638.94 L -23.5929,-1638.92 L -23.6403,-1638.87 L -23.6598,-1638.85
 L -23.7067,-1638.79 L -23.726,-1638.77 L -23.7722,-1638.72 L -23.7913,-1638.69 L -23.8371,-1638.64 L -23.8559,-1638.61
 L -23.9011,-1638.56 L -23.9197,-1638.54 L -23.9643,-1638.48 L -23.9827,-1638.46 L -24.0268,-1638.4 L -24.0449,-1638.38
 L -24.0884,-1638.32 L -24.1063,-1638.3 L -24.1493,-1638.24 L -24.1669,-1638.22 L -24.2093,-1638.16 L -24.2267,-1638.14
 L -24.2684,-1638.08 L -24.2856,-1638.05 L -24.3268,-1638 L -24.3437,-1637.97 L -24.3843,-1637.91 L -24.401,-1637.89
 L -24.441,-1637.83 L -24.4574,-1637.8 L -24.4968,-1637.74 L -24.513,-1637.72 L -24.5518,-1637.66 L -24.5677,-1637.63
 L -24.6059,-1637.57 L -24.6216,-1637.55 L -24.6592,-1637.49 L -24.6746,-1637.46 L -24.7116,-1637.4 L -24.7267,-1637.38
 L -24.7631,-1637.32 L -24.778,-1637.29 L -24.8137,-1637.23 L -24.8283,-1637.2 L -24.8634,-1637.14 L -24.8778,-1637.11
 L -24.9123,-1637.05 L -24.9264,-1637.03 L -24.9602,-1636.96 L -24.9741,-1636.94 L -25,-1636.89 z
" stroke="black" fill="lightgray" stroke-width="0.5"/>
</svg>
