<?xml version="1.0" standalone="no"?>
<!DOCTYPE svg PUBLIC "-//W3C//DTD SVG 1.1//EN" "http://www.w3.org/Graphics/SVG/1.1/DTD/svg11.dtd">
<svg width="85mm" height="507mm" viewBox="-25 -2121 85 507" xmlns="http://www.w3.org/2000/svg" version="1.1">
<title>OpenSCAD Model</title>
<path d="
M -25,-1625 L -24.9999,-1625 L -24.9999,-1624.95 L -24.9989,-1624.85 L -24.9988,-1624.85 L -24.9969,-1624.75
 L -24.9968,-1624.75 L -24.9938,-1624.65 L -24.9937,-1624.64 L -24.9898,-1624.55 L -24.9897,-1624.54 L -24.9847,-1624.45
 L -24.9846,-1624.44 L -24.9786,-1624.34 L -24.9784,-1624.34 L -24.9715,-1624.24 L -24.9713,-1624.24 L -24.9634,-1624.14
 L -24.9632,-1624.14 L -24.9543,-1624.04 L -24.954,-1624.04 L -24.9441,-1623.94 L -24.9438,-1623.94 L -24.9329,-1623.84
 L -24.9326,-1623.84 L -24.9207,-1623.74 L -24.9204,-1623.74 L -24.9076,-1623.64 L -24.9072,-1623.64 L -24.8933,-1623.54
 L -24.8929,-1623.54 L -24.8781,-1623.44 L -24.8777,-1623.44 L -24.8619,-1623.34 L -24.8614,-1623.34 L -24.8447,-1623.24
 L -24.8441,-1623.24 L -24.8264,-1623.14 L -24.8259,-1623.14 L -24.8072,-1623.04 L -24.8066,-1623.04 L -24.787,-1622.94
 L -24.7863,-1622.94 L -24.7657,-1622.85 L -24.7651,-1622.84 L -24.7435,-1622.75 L -24.7428,-1622.74 L -24.7202,-1622.65
 L -24.7195,-1622.65 L -24.696,-1622.55 L -24.6953,-1622.55 L -24.6708,-1622.45 L -24.6701,-1622.45 L -24.6446,-1622.36
 L -24.6438,-1622.35 L -24.6174,-1622.26 L -24.6166,-1622.26 L -24.5893,-1622.16 L -24.5884,-1622.16 L -24.5601,-1622.06
 L -24.5593,-1622.06 L -24.53,-1621.97 L -24.5291,-1621.97 L -24.4989,-1621.87 L -24.498,-1621.87 L -24.4669,-1621.78
 L -24.4659,-1621.77 L -24.4338,-1621.68 L -24.4328,-1621.68 L -24.3999,-1621.59 L -24.3988,-1621.58 L -24.3649,-1621.49
 L -24.3639,-1621.49 L -24.329,-1621.4 L -24.3279,-1621.39 L -24.2922,-1621.3 L -24.291,-1621.3 L -24.2544,-1621.21
 L -24.2532,-1621.21 L -24.2156,-1621.12 L -24.2144,-1621.11 L -24.1759,-1621.02 L -24.1747,-1621.02 L -24.1353,-1620.93
 L -24.1341,-1620.93 L -24.0938,-1620.84 L -24.0925,-1620.84 L -24.0513,-1620.75 L -24.05,-1620.74 L -24.0079,-1620.65
 L -24.0065,-1620.65 L -23.9635,-1620.56 L -23.9622,-1620.56 L -23.9183,-1620.47 L -23.9169,-1620.47 L -23.8721,-1620.38
 L -23.8707,-1620.38 L -23.8251,-1620.29 L -23.8237,-1620.29 L -23.7771,-1620.21 L -23.7757,-1620.2 L -23.7283,-1620.12
 L -23.7268,-1620.11 L -23.6785,-1620.03 L -23.677,-1620.03 L -23.6279,-1619.94 L -23.6264,-1619.94 L -23.5764,-1619.86
 L -23.5748,-1619.85 L -23.524,-1619.77 L -23.5224,-1619.77 L -23.4708,-1619.68 L -23.4691,-1619.68 L -23.4166,-1619.6
 L -23.415,-1619.6 L -23.3617,-1619.51 L -23.36,-1619.51 L -23.3058,-1619.43 L -23.3042,-1619.43 L -23.2492,-1619.35
 L -23.2475,-1619.34 L -23.1916,-1619.26 L -23.1899,-1619.26 L -23.1333,-1619.18 L -23.1315,-1619.18 L -23.0741,-1619.1
 L -23.0723,-1619.1 L -23.0141,-1619.02 L -23.0123,-1619.01 L -22.9533,-1618.94 L -22.9514,-1618.93 L -22.8916,-1618.86
 L -22.8898,-1618.85 L -22.8292,-1618.78 L -22.8273,-1618.77 L -22.7659,-1618.7 L -22.764,-1618.7 L -22.7019,-1618.62
 L -22.7,-1618.62 L -22.6371,-1618.54 L -22.6351,-1618.54 L -22.5715,-1618.47 L -22.5695,-1618.46 L -22.5051,-1618.39
 L -22.5031,-1618.39 L -22.438,-1618.31 L -22.4359,-1618.31 L -22.3701,-1618.24 L -22.368,-1618.24 L -22.3014,-1618.16
 L -22.2993,-1618.16 L -22.232,-1618.09 L -22.2299,-1618.09 L -22.1619,-1618.02 L -22.1598,-1618.02 L -22.091,-1617.95
 L -22.0889,-1617.94 L -22.0195,-1617.88 L -22.0173,-1617.87 L -21.9472,-1617.8 L -21.945,-1617.8 L -21.8741,-1617.73
 L -21.8719,-1617.73 L -21.8004,-1617.67 L -21.7982,-1617.66 L -21.726,-1617.6 L -21.7238,-1617.6 L -21.6509,-1617.53
 L -21.6487,-1617.53 L -21.5752,-1617.46 L -21.5729,-1617.46 L -21.4987,-1617.4 L -21.4964,-1617.4 L -21.4216,-1617.33
 L -21.4193,-1617.33 L -21.3438,-1617.27 L -21.3415,-1617.27 L -21.2654,-1617.2 L -21.2631,-1617.2 L -21.1864,-1617.14
 L -21.184,-1617.14 L -21.1067,-1617.08 L -21.1043,-1617.08 L -21.0264,-1617.02 L -21.024,-1617.02 L -20.9455,-1616.96
 L -20.943,-1616.96 L -20.864,-1616.9 L -20.8615,-1616.9 L -20.7818,-1616.84 L -20.7793,-1616.84 L -20.6991,-1616.78
 L -20.6966,-1616.78 L -20.6158,-1616.72 L -20.6133,-1616.72 L -20.532,-1616.67 L -20.5294,-1616.67 L -20.4475,-1616.61
 L -20.445,-1616.61 L -20.3625,-1616.56 L -20.36,-1616.56 L -20.277,-1616.5 L -20.2744,-1616.5 L -20.1909,-1616.45
 L -20.1883,-1616.45 L -20.1043,-1616.4 L -20.1017,-1616.4 L -20.0172,-1616.35 L -20.0146,-1616.35 L -19.9296,-1616.3
 L -19.9269,-1616.3 L -19.8414,-1616.25 L -19.8388,-1616.25 L -19.7528,-1616.2 L -19.7501,-1616.2 L -19.6637,-1616.15
 L -19.661,-1616.15 L -19.5741,-1616.11 L -19.5714,-1616.1 L -19.484,-1616.06 L -19.4813,-1616.06 L -19.3935,-1616.01
 L -19.3908,-1616.01 L -19.3025,-1615.97 L -19.2998,-1615.97 L -19.2111,-1615.93 L -19.2084,-1615.93 L -19.1193,-1615.89
 L -19.1165,-1615.88 L -19.027,-1615.84 L -19.0242,-1615.84 L -18.9344,-1615.8 L -18.9316,-1615.8 L -18.8413,-1615.76
 L -18.8385,-1615.76 L -18.7478,-1615.73 L -18.745,-1615.73 L -18.654,-1615.69 L -18.6512,-1615.69 L -18.5598,-1615.65
 L -18.5569,-1615.65 L -18.4652,-1615.62 L -18.4623,-1615.62 L -18.3703,-1615.58 L -18.3674,-1615.58 L -18.275,-1615.55
 L -18.2721,-1615.55 L -18.1794,-1615.52 L -18.1765,-1615.52 L -18.0835,-1615.48 L -18.0806,-1615.48 L -17.9872,-1615.45
 L -17.9843,-1615.45 L -17.8907,-1615.42 L -17.8877,-1615.42 L -17.7938,-1615.4 L -17.7909,-1615.39 L -17.6967,-1615.37
 L -17.6937,-1615.37 L -17.5993,-1615.34 L -17.5963,-1615.34 L -17.5016,-1615.32 L -17.4986,-1615.31 L -17.4037,-1615.29
 L -17.4007,-1615.29 L -17.3055,-1615.27 L -17.3025,-1615.27 L -17.2071,-1615.24 L -17.2041,-1615.24 L -17.1084,-1615.22
 L -17.1055,-1615.22 L -17.0096,-1615.2 L -17.0066,-1615.2 L -16.9105,-1615.18 L -16.9075,-1615.18 L -16.8113,-1615.16
 L -16.8083,-1615.16 L -16.7118,-1615.15 L -16.7088,-1615.14 L -16.6122,-1615.13 L -16.6092,-1615.13 L -16.5125,-1615.11
 L -16.5094,-1615.11 L -16.4125,-1615.1 L -16.4095,-1615.1 L -16.3125,-1615.08 L -16.3094,-1615.08 L -16.2123,-1615.07
 L -16.2092,-1615.07 L -16.1119,-1615.06 L -16.1089,-1615.06 L -16.0115,-1615.05 L -16.0084,-1615.05 L -15.9109,-1615.04
 L -15.9079,-1615.04 L -15.8103,-1615.03 L -15.8072,-1615.03 L -15.7096,-1615.02 L -15.7065,-1615.02 L -15.6088,-1615.02
 L -15.6057,-1615.02 L -15.5079,-1615.01 L -15.5049,-1615.01 L -15.407,-1615.01 L -15.4039,-1615.01 L -15.3061,-1615
 L -15.303,-1615 L -15.2051,-1615 L -15.202,-1615 L -15.1821,-1615 L -2.69179,-1615 L -0.493709,-1615.98
 L 2.06055,-1617.12 L 2.14503,-1617.16 L 8.11386,-1620.19 L 8.3677,-1620.34 L 13.3585,-1623.24 L 13.7265,-1623.49
 L 17.8969,-1626.28 L 18.3454,-1626.63 L 21.8358,-1629.33 L 22.3474,-1629.8 L 25.2814,-1632.42 L 25.8505,-1633.02
 L 28.3326,-1635.6 L 28.9609,-1636.37 L 31.0739,-1638.92 L 31.7662,-1639.91 L 33.5709,-1642.44 L 34.3319,-1643.71
 L 35.8693,-1646.21 L 36.7003,-1647.83 L 37.9969,-1650.28 L 38.8949,-1652.31 L 39.9682,-1654.68 L 40.925,-1657.2
 L 41.7892,-1659.42 L 42.7921,-1662.5 L 43.4617,-1664.51 L 44.4948,-1668.23 L 44.9859,-1669.95 L 46.0314,-1674.36
 L 46.3628,-1675.73 L 47.4023,-1680.89 L 47.5947,-1681.82 L 48.61,-1687.78 L 48.6855,-1688.22 L 49.4272,-1693.4
 L 49.6419,-1694.9 L 49.6579,-1695.03 L 50.4739,-1701.84 L 50.5498,-1702.62 L 51.1842,-1709.02 L 51.3013,-1710.5
 L 51.781,-1716.43 L 51.9222,-1718.63 L 52.2726,-1724.03 L 52.4225,-1727.01 L 52.6675,-1731.82 L 52.8127,-1735.6
 L 52.9741,-1739.77 L 53.1031,-1744.38 L 53.2007,-1747.87 L 53.3036,-1753.33 L 53.3552,-1756.1 L 53.4241,-1762.42
 L 53.4453,-1764.43 L 53.474,-1771.64 L 53.4782,-1772.86 L 53.462,-1780.95 L 53.4609,-1781.38 L 53.4287,-1785.87
 L 53.403,-1789.95 L 53.3992,-1790.34 L 53.311,-1798.57 L 53.2948,-1799.79 L 53.1871,-1807.23 L 53.1537,-1809.27
 L 53.0367,-1815.91 L 52.9825,-1818.77 L 52.8647,-1824.59 L 52.7876,-1828.27 L 52.6758,-1833.27 L 52.5746,-1837.75
 L 52.4742,-1841.93 L 52.3488,-1847.19 L 52.2639,-1850.56 L 52.1152,-1856.58 L 52.0486,-1859.14 L 51.8783,-1865.91
 L 51.8315,-1867.66 L 51.6421,-1875.15 L 51.616,-1876.12 L 51.4105,-1884.29 L 51.4047,-1884.51 L 51.3452,-1886.92
 L 51.2053,-1892.8 L 51.1943,-1893.31 L 51.0173,-1901 L 50.9925,-1902.2 L 50.841,-1909.09 L 50.8049,-1910.96
 L 50.6786,-1917.06 L 50.6342,-1919.56 L 50.532,-1924.92 L 50.4826,-1928.01 L 50.403,-1932.64 L 50.3525,-1936.3
 L 50.2935,-1940.23 L 50.2458,-1944.41 L 50.205,-1947.67 L 50.1646,-1952.35 L 50.1392,-1954.97 L 50.1106,-1960.1
 L 50.0975,-1962.11 L 50.0857,-1967.66 L 50.0815,-1969.1 L 50.0916,-1975.03 L 50.0925,-1975.93 L 50.13,-1982.21
 L 50.1321,-1982.6 L 50.1905,-1988.07 L 50.2027,-1989.11 L 50.2039,-1989.18 L 50.3094,-1995.46 L 50.3206,-1995.96
 L 50.4491,-2001.64 L 50.4746,-2002.53 L 50.6231,-2007.67 L 50.6677,-2008.92 L 50.8333,-2013.53 L 50.9017,-2015.13
 L 51.0811,-2019.24 L 51.1785,-2021.15 L 51.3684,-2024.8 L 51.5002,-2027 L 51.697,-2030.21 L 51.8689,-2032.68
 L 52.0688,-2035.48 L 52.2869,-2038.19 L 52.4855,-2040.6 L 52.7563,-2043.55 L 52.9492,-2045.6 L 53.2796,-2048.76
 L 53.4619,-2050.46 L 53.8588,-2053.83 L 54.0252,-2055.2 L 54.4963,-2058.77 L 54.641,-2059.83 L 55.1938,-2063.57
 L 55.3107,-2064.34 L 55.9529,-2068.25 L 56.0354,-2068.74 L 56.7747,-2072.82 L 56.8159,-2073.04 L 57.5366,-2076.65
 L 57.6528,-2077.23 L 57.6598,-2077.27 L 58.5488,-2081.33 L 58.6098,-2081.59 L 59.4985,-2085.32 L 59.6194,-2085.81
 L 59.9451,-2087.07 L 59.9487,-2120 L 34.008,-2120 L 7.96313,-1649.47 L 7.963,-1649.47 L 7.95734,-1649.37
 L 7.95718,-1649.37 L 7.95058,-1649.28 L 7.9504,-1649.28 L 7.94287,-1649.18 L 7.94266,-1649.18 L 7.93417,-1649.09
 L 7.93394,-1649.08 L 7.92453,-1648.99 L 7.92428,-1648.99 L 7.9139,-1648.9 L 7.91363,-1648.89 L 7.90233,-1648.8
 L 7.90203,-1648.8 L 7.88979,-1648.7 L 7.88947,-1648.7 L 7.87628,-1648.61 L 7.87594,-1648.61 L 7.86183,-1648.52
 L 7.86146,-1648.51 L 7.84641,-1648.42 L 7.84602,-1648.42 L 7.83003,-1648.33 L 7.82962,-1648.32 L 7.8127,-1648.23
 L 7.81227,-1648.23 L 7.79442,-1648.14 L 7.79397,-1648.13 L 7.77519,-1648.04 L 7.77471,-1648.04 L 7.755,-1647.95
 L 7.7545,-1647.95 L 7.73388,-1647.86 L 7.73336,-1647.85 L 7.71181,-1647.76 L 7.71127,-1647.76 L 7.68879,-1647.67
 L 7.68822,-1647.67 L 7.66485,-1647.58 L 7.66426,-1647.57 L 7.63994,-1647.48 L 7.63933,-1647.48 L 7.61412,-1647.39
 L 7.61349,-1647.39 L 7.58736,-1647.3 L 7.58671,-1647.3 L 7.55967,-1647.21 L 7.559,-1647.2 L 7.53105,-1647.12
 L 7.53036,-1647.11 L 7.50152,-1647.02 L 7.5008,-1647.02 L 7.47107,-1646.93 L 7.47033,-1646.93 L 7.43968,-1646.84
 L 7.43892,-1646.84 L 7.40739,-1646.75 L 7.40661,-1646.75 L 7.37419,-1646.66 L 7.37339,-1646.66 L 7.34008,-1646.57
 L 7.33926,-1646.57 L 7.30506,-1646.48 L 7.30422,-1646.48 L 7.26914,-1646.39 L 7.26828,-1646.39 L 7.23233,-1646.31
 L 7.23144,-1646.3 L 7.19463,-1646.22 L 7.19373,-1646.22 L 7.15603,-1646.13 L 7.1551,-1646.13 L 7.11655,-1646.04
 L 7.11561,-1646.04 L 7.07619,-1645.95 L 7.07522,-1645.95 L 7.03494,-1645.87 L 7.03396,-1645.87 L 6.99284,-1645.78
 L 6.99183,-1645.78 L 6.94985,-1645.7 L 6.94883,-1645.69 L 6.906,-1645.61 L 6.90496,-1645.61 L 6.86129,-1645.53
 L 6.86023,-1645.52 L 6.81574,-1645.44 L 6.81466,-1645.44 L 6.76932,-1645.36 L 6.76822,-1645.36 L 6.72206,-1645.27
 L 6.72094,-1645.27 L 6.67396,-1645.19 L 6.67282,-1645.19 L 6.62502,-1645.11 L 6.62386,-1645.11 L 6.57526,-1645.03
 L 6.57408,-1645.02 L 6.52466,-1644.94 L 6.52346,-1644.94 L 6.47324,-1644.86 L 6.47202,-1644.86 L 6.42101,-1644.78
 L 6.41978,-1644.78 L 6.36797,-1644.7 L 6.36672,-1644.7 L 6.31412,-1644.62 L 6.31285,-1644.62 L 6.25947,-1644.54
 L 6.25819,-1644.54 L 6.20403,-1644.47 L 6.20273,-1644.46 L 6.1478,-1644.39 L 6.14648,-1644.39 L 6.09079,-1644.31
 L 6.08945,-1644.31 L 6.033,-1644.23 L 6.03165,-1644.23 L 5.97445,-1644.16 L 5.97308,-1644.16 L 5.91512,-1644.08
 L 5.91373,-1644.08 L 5.85503,-1644.01 L 5.85362,-1644.01 L 5.79419,-1643.93 L 5.79277,-1643.93 L 5.73261,-1643.86
 L 5.73118,-1643.86 L 5.67028,-1643.79 L 5.66883,-1643.79 L 5.60723,-1643.72 L 5.60576,-1643.71 L 5.54344,-1643.64
 L 5.54196,-1643.64 L 5.47893,-1643.57 L 5.47744,-1643.57 L 5.41372,-1643.5 L 5.41221,-1643.5 L 5.34779,-1643.43
 L 5.34626,-1643.43 L 5.28115,-1643.36 L 5.27961,-1643.36 L 5.21384,-1643.3 L 5.21229,-1643.29 L 5.14583,-1643.23
 L 5.14426,-1643.23 L 5.07712,-1643.16 L 5.07554,-1643.16 L 5.00777,-1643.09 L 5.00617,-1643.09 L 4.93774,-1643.03
 L 4.93613,-1643.03 L 4.86704,-1642.96 L 4.86542,-1642.96 L 4.79569,-1642.9 L 4.79406,-1642.9 L 4.72372,-1642.84
 L 4.72207,-1642.83 L 4.65109,-1642.77 L 4.64943,-1642.77 L 4.57784,-1642.71 L 4.57616,-1642.71 L 4.50395,-1642.65
 L 4.50226,-1642.65 L 4.42946,-1642.59 L 4.42776,-1642.59 L 4.35436,-1642.53 L 4.35265,-1642.53 L 4.27867,-1642.47
 L 4.27695,-1642.47 L 4.20237,-1642.41 L 4.20064,-1642.41 L 4.1255,-1642.36 L 4.12375,-1642.35 L 4.04804,-1642.3
 L 4.04629,-1642.3 L 3.97002,-1642.24 L 3.96826,-1642.24 L 3.89145,-1642.19 L 3.88967,-1642.19 L 3.81232,-1642.13
 L 3.81053,-1642.13 L 3.73264,-1642.08 L 3.73085,-1642.08 L 3.65243,-1642.03 L 3.65062,-1642.03 L 3.57168,-1641.98
 L 3.56986,-1641.97 L 3.49042,-1641.92 L 3.4886,-1641.92 L 3.40865,-1641.87 L 3.40682,-1641.87 L 3.32637,-1641.82
 L 3.32453,-1641.82 L 3.2436,-1641.78 L 3.24175,-1641.77 L 3.16035,-1641.73 L 3.15849,-1641.73 L 3.0766,-1641.68
 L 3.07473,-1641.68 L 2.9924,-1641.64 L 2.99053,-1641.63 L 2.90774,-1641.59 L 2.90586,-1641.59 L 2.82261,-1641.55
 L 2.82072,-1641.54 L 2.73706,-1641.5 L 2.73516,-1641.5 L 2.65106,-1641.46 L 2.64915,-1641.46 L 2.56465,-1641.42
 L 2.56274,-1641.42 L 2.4778,-1641.38 L 2.47588,-1641.38 L 2.39056,-1641.34 L 2.38863,-1641.34 L 2.3029,-1641.3
 L 2.30097,-1641.3 L 2.21487,-1641.26 L 2.21294,-1641.26 L 2.12646,-1641.22 L 2.12452,-1641.22 L 2.03767,-1641.19
 L 2.03573,-1641.19 L 1.94852,-1641.15 L 1.94657,-1641.15 L 1.85901,-1641.12 L 1.85705,-1641.12 L 1.76916,-1641.08
 L 1.7672,-1641.08 L 1.67897,-1641.05 L 1.677,-1641.05 L 1.58846,-1641.02 L 1.58649,-1641.02 L 1.49762,-1640.99
 L 1.49564,-1640.99 L 1.40648,-1640.96 L 1.4045,-1640.96 L 1.31504,-1640.93 L 1.31305,-1640.93 L 1.22331,-1640.9
 L 1.22132,-1640.9 L 1.1313,-1640.87 L 1.12931,-1640.87 L 1.03902,-1640.85 L 1.03702,-1640.85 L 0.946486,-1640.82
 L 0.944487,-1640.82 L 0.853697,-1640.8 L 0.851695,-1640.8 L 0.760655,-1640.77 L 0.75865,-1640.77 L 0.667389,-1640.75
 L 0.665383,-1640.75 L 0.573901,-1640.73 L 0.571892,-1640.73 L 0.480191,-1640.71 L 0.47818,-1640.71 L 0.386288,-1640.69
 L 0.384275,-1640.69 L 0.292177,-1640.67 L 0.290163,-1640.67 L 0.197891,-1640.65 L 0.195876,-1640.65 L 0.103428,-1640.63
 L 0.101412,-1640.63 L 0.00878749,-1640.62 L 0.00677115,-1640.62 L -0.0859977,-1640.6 L -0.0880145,-1640.6 L -0.180929,-1640.59
 L -0.182946,-1640.59 L -0.276005,-1640.58 L -0.278022,-1640.58 L -0.371197,-1640.56 L -0.373214,-1640.56 L -0.466517,-1640.55
 L -0.468534,-1640.55 L -0.561938,-1640.54 L -0.563954,-1640.54 L -0.657459,-1640.53 L -0.659475,-1640.53 L -0.753079,-1640.53
 L -0.755093,-1640.52 L -0.848768,-1640.52 L -0.850781,-1640.52 L -0.944525,-1640.51 L -0.946536,-1640.51 L -1.04034,-1640.51
 L -1.04235,-1640.51 L -1.1362,-1640.5 L -1.13821,-1640.5 L -1.2321,-1640.5 L -1.23411,-1640.5 L -1.24504,-1640.5
 L -19.8039,-1641.53 L -19.8643,-1641.5 L -19.8655,-1641.5 L -19.9573,-1641.46 L -19.9585,-1641.46 L -20.05,-1641.42
 L -20.0512,-1641.42 L -20.1423,-1641.38 L -20.1435,-1641.38 L -20.2341,-1641.34 L -20.2353,-1641.34 L -20.3255,-1641.29
 L -20.3267,-1641.29 L -20.4165,-1641.25 L -20.4177,-1641.25 L -20.507,-1641.21 L -20.5082,-1641.21 L -20.5971,-1641.16
 L -20.5983,-1641.16 L -20.6867,-1641.11 L -20.6879,-1641.11 L -20.7758,-1641.07 L -20.777,-1641.07 L -20.8645,-1641.02
 L -20.8656,-1641.02 L -20.9526,-1640.97 L -20.9538,-1640.97 L -21.0403,-1640.92 L -21.0414,-1640.92 L -21.1274,-1640.87
 L -21.1285,-1640.87 L -21.214,-1640.82 L -21.2151,-1640.81 L -21.3001,-1640.76 L -21.3012,-1640.76 L -21.3857,-1640.71
 L -21.3867,-1640.71 L -21.4707,-1640.65 L -21.4717,-1640.65 L -21.5551,-1640.6 L -21.5562,-1640.6 L -21.639,-1640.54
 L -21.64,-1640.54 L -21.7223,-1640.49 L -21.7233,-1640.48 L -21.805,-1640.43 L -21.8061,-1640.43 L -21.8872,-1640.37
 L -21.8882,-1640.37 L -21.9687,-1640.31 L -21.9697,-1640.31 L -22.0496,-1640.25 L -22.0506,-1640.25 L -22.13,-1640.19
 L -22.1309,-1640.19 L -22.2096,-1640.12 L -22.2106,-1640.12 L -22.2887,-1640.06 L -22.2897,-1640.06 L -22.3671,-1640
 L -22.3681,-1640 L -22.4449,-1639.93 L -22.4458,-1639.93 L -22.522,-1639.87 L -22.523,-1639.87 L -22.5985,-1639.8
 L -22.5994,-1639.8 L -22.6743,-1639.74 L -22.6752,-1639.74 L -22.7494,-1639.67 L -22.7503,-1639.67 L -22.8238,-1639.6
 L -22.8247,-1639.6 L -22.8975,-1639.53 L -22.8984,-1639.53 L -22.9706,-1639.46 L -22.9714,-1639.46 L -23.0429,-1639.39
 L -23.0437,-1639.39 L -23.1145,-1639.32 L -23.1153,-1639.32 L -23.1854,-1639.25 L -23.1862,-1639.25 L -23.2555,-1639.17
 L -23.2563,-1639.17 L -23.3249,-1639.1 L -23.3257,-1639.1 L -23.3936,-1639.03 L -23.3944,-1639.03 L -23.4615,-1638.95
 L -23.4623,-1638.95 L -23.5286,-1638.88 L -23.5294,-1638.88 L -23.595,-1638.8 L -23.5958,-1638.8 L -23.6606,-1638.72
 L -23.6614,-1638.72 L -23.7255,-1638.65 L -23.7262,-1638.65 L -23.7895,-1638.57 L -23.7903,-1638.57 L -23.8528,-1638.49
 L -23.8535,-1638.49 L -23.9152,-1638.41 L -23.916,-1638.41 L -23.9769,-1638.33 L -23.9776,-1638.33 L -24.0377,-1638.25
 L -24.0384,-1638.25 L -24.0978,-1638.17 L -24.0985,-1638.17 L -24.1569,-1638.09 L -24.1576,-1638.09 L -24.2153,-1638
 L -24.216,-1638 L -24.2729,-1637.92 L -24.2735,-1637.92 L -24.3296,-1637.84 L -24.3302,-1637.84 L -24.3854,-1637.75
 L -24.386,-1637.75 L -24.4404,-1637.67 L -24.441,-1637.67 L -24.4945,-1637.58 L -24.4951,-1637.58 L -24.5478,-1637.5
 L -24.5484,-1637.5 L -24.6002,-1637.41 L -24.6008,-1637.41 L -24.6517,-1637.32 L -24.6523,-1637.32 L -24.7024,-1637.24
 L -24.7029,-1637.24 L -24.7521,-1637.15 L -24.7527,-1637.15 L -24.801,-1637.06 L -24.8015,-1637.06 L -24.8489,-1636.97
 L -24.8495,-1636.97 L -24.896,-1636.88 L -24.8966,-1636.88 L -24.9422,-1636.79 L -24.9427,-1636.79 L -24.9874,-1636.7
 L -24.988,-1636.7 L -25,-1636.68 z
" stroke="black" fill="lightgray" stroke-width="0.5"/>
</svg>
