<?xml version="1.0" standalone="no"?>
<!DOCTYPE svg PUBLIC "-//W3C//DTD SVG 1.1//EN" "http://www.w3.org/Graphics/SVG/1.1/DTD/svg11.dtd">
<svg width="84mm" height="507mm" viewBox="-25 -2121 84 507" xmlns="http://www.w3.org/2000/svg" version="1.1">
<title>OpenSCAD Model</title>
<path d="
M -25,-1624.98 L -24.9999,-1624.98 L -24.9999,-1624.93 L -24.9992,-1624.86 L -24.9988,-1624.83 L -24.9975,-1624.76
 L -24.9968,-1624.73 L -24.9948,-1624.66 L -24.9937,-1624.63 L -24.991,-1624.56 L -24.9897,-1624.53 L -24.9863,-1624.46
 L -24.9846,-1624.43 L -24.9805,-1624.36 L -24.9784,-1624.33 L -24.9737,-1624.26 L -24.9713,-1624.22 L -24.9659,-1624.16
 L -24.9632,-1624.12 L -24.957,-1624.06 L -24.954,-1624.02 L -24.9472,-1623.96 L -24.9438,-1623.92 L -24.9363,-1623.86
 L -24.9326,-1623.82 L -24.9244,-1623.76 L -24.9204,-1623.72 L -24.9116,-1623.66 L -24.9072,-1623.62 L -24.8977,-1623.56
 L -24.8929,-1623.52 L -24.8828,-1623.46 L -24.8777,-1623.42 L -24.8668,-1623.36 L -24.8614,-1623.32 L -24.8499,-1623.26
 L -24.8441,-1623.22 L -24.832,-1623.16 L -24.8259,-1623.12 L -24.813,-1623.06 L -24.8066,-1623.02 L -24.7931,-1622.96
 L -24.7863,-1622.93 L -24.7722,-1622.86 L -24.7651,-1622.83 L -24.7502,-1622.76 L -24.7428,-1622.73 L -24.7273,-1622.66
 L -24.7195,-1622.63 L -24.7034,-1622.56 L -24.6953,-1622.53 L -24.6785,-1622.47 L -24.6701,-1622.43 L -24.6526,-1622.37
 L -24.6438,-1622.34 L -24.6257,-1622.27 L -24.6166,-1622.24 L -24.5978,-1622.17 L -24.5884,-1622.14 L -24.569,-1622.08
 L -24.5593,-1622.05 L -24.5392,-1621.98 L -24.5291,-1621.95 L -24.5084,-1621.89 L -24.498,-1621.85 L -24.4766,-1621.79
 L -24.4659,-1621.76 L -24.4439,-1621.69 L -24.4328,-1621.66 L -24.4102,-1621.6 L -24.3988,-1621.57 L -24.3755,-1621.5
 L -24.3639,-1621.47 L -24.3399,-1621.41 L -24.3279,-1621.38 L -24.3033,-1621.31 L -24.291,-1621.28 L -24.2658,-1621.22
 L -24.2532,-1621.19 L -24.2274,-1621.13 L -24.2144,-1621.1 L -24.188,-1621.03 L -24.1747,-1621 L -24.1476,-1620.94
 L -24.1341,-1620.91 L -24.1064,-1620.85 L -24.0925,-1620.82 L -24.0642,-1620.76 L -24.05,-1620.73 L -24.021,-1620.67
 L -24.0065,-1620.64 L -23.977,-1620.58 L -23.9622,-1620.55 L -23.932,-1620.49 L -23.9169,-1620.46 L -23.8861,-1620.4
 L -23.8707,-1620.37 L -23.8394,-1620.31 L -23.8237,-1620.28 L -23.7917,-1620.22 L -23.7757,-1620.19 L -23.7431,-1620.13
 L -23.7268,-1620.1 L -23.6936,-1620.04 L -23.677,-1620.01 L -23.6433,-1619.95 L -23.6264,-1619.92 L -23.592,-1619.87
 L -23.5748,-1619.84 L -23.5399,-1619.78 L -23.5224,-1619.75 L -23.4869,-1619.69 L -23.4691,-1619.66 L -23.4331,-1619.61
 L -23.415,-1619.58 L -23.3783,-1619.52 L -23.36,-1619.49 L -23.3228,-1619.44 L -23.3042,-1619.41 L -23.2664,-1619.35
 L -23.2475,-1619.33 L -23.2091,-1619.27 L -23.1899,-1619.24 L -23.151,-1619.19 L -23.1315,-1619.16 L -23.092,-1619.11
 L -23.0723,-1619.08 L -23.0323,-1619.03 L -23.0123,-1619 L -22.9717,-1618.94 L -22.9514,-1618.92 L -22.9103,-1618.86
 L -22.8898,-1618.84 L -22.8481,-1618.78 L -22.8273,-1618.76 L -22.7851,-1618.71 L -22.764,-1618.68 L -22.7213,-1618.63
 L -22.7,-1618.6 L -22.6567,-1618.55 L -22.6351,-1618.52 L -22.5914,-1618.47 L -22.5695,-1618.45 L -22.5252,-1618.4
 L -22.5031,-1618.37 L -22.4583,-1618.32 L -22.4359,-1618.3 L -22.3907,-1618.25 L -22.368,-1618.22 L -22.3222,-1618.17
 L -22.2993,-1618.15 L -22.2531,-1618.1 L -22.2299,-1618.07 L -22.1832,-1618.02 L -22.1598,-1618 L -22.1125,-1617.95
 L -22.0889,-1617.93 L -22.0412,-1617.88 L -22.0173,-1617.86 L -21.9691,-1617.81 L -21.945,-1617.79 L -21.8963,-1617.74
 L -21.8719,-1617.72 L -21.8228,-1617.67 L -21.7982,-1617.65 L -21.7486,-1617.6 L -21.7238,-1617.58 L -21.6737,-1617.53
 L -21.6487,-1617.51 L -21.5981,-1617.47 L -21.5729,-1617.45 L -21.5219,-1617.4 L -21.4964,-1617.38 L -21.445,-1617.34
 L -21.4193,-1617.31 L -21.3674,-1617.27 L -21.3415,-1617.25 L -21.2892,-1617.21 L -21.2631,-1617.19 L -21.2103,-1617.14
 L -21.184,-1617.12 L -21.1309,-1617.08 L -21.1043,-1617.06 L -21.0507,-1617.02 L -21.024,-1617 L -20.97,-1616.96
 L -20.943,-1616.94 L -20.8887,-1616.9 L -20.8615,-1616.88 L -20.8067,-1616.84 L -20.7793,-1616.82 L -20.7242,-1616.78
 L -20.6966,-1616.76 L -20.6411,-1616.72 L -20.6133,-1616.71 L -20.5574,-1616.67 L -20.5294,-1616.65 L -20.4731,-1616.61
 L -20.445,-1616.59 L -20.3883,-1616.56 L -20.36,-1616.54 L -20.3029,-1616.5 L -20.2744,-1616.49 L -20.217,-1616.45
 L -20.1883,-1616.43 L -20.1306,-1616.4 L -20.1017,-1616.38 L -20.0436,-1616.35 L -20.0146,-1616.33 L -19.9561,-1616.3
 L -19.9269,-1616.28 L -19.8681,-1616.25 L -19.8388,-1616.23 L -19.7797,-1616.2 L -19.7501,-1616.18 L -19.6907,-1616.15
 L -19.661,-1616.13 L -19.6012,-1616.1 L -19.5714,-1616.09 L -19.5113,-1616.06 L -19.4813,-1616.04 L -19.4209,-1616.01
 L -19.3908,-1616 L -19.3301,-1615.97 L -19.2998,-1615.95 L -19.2388,-1615.92 L -19.2084,-1615.91 L -19.1471,-1615.88
 L -19.1165,-1615.87 L -19.055,-1615.84 L -19.0242,-1615.83 L -18.9625,-1615.8 L -18.9316,-1615.79 L -18.8695,-1615.76
 L -18.8385,-1615.75 L -18.7762,-1615.72 L -18.745,-1615.71 L -18.6824,-1615.68 L -18.6512,-1615.67 L -18.5883,-1615.65
 L -18.5569,-1615.64 L -18.4939,-1615.61 L -18.4623,-1615.6 L -18.399,-1615.58 L -18.3674,-1615.57 L -18.3039,-1615.54
 L -18.2721,-1615.53 L -18.2084,-1615.51 L -18.1765,-1615.5 L -18.1125,-1615.48 L -18.0806,-1615.47 L -18.0164,-1615.45
 L -17.9843,-1615.44 L -17.9199,-1615.42 L -17.8877,-1615.41 L -17.8232,-1615.39 L -17.7909,-1615.38 L -17.7261,-1615.36
 L -17.6937,-1615.35 L -17.6288,-1615.33 L -17.5963,-1615.32 L -17.5312,-1615.31 L -17.4986,-1615.3 L -17.4333,-1615.28
 L -17.4007,-1615.27 L -17.3352,-1615.26 L -17.3025,-1615.25 L -17.2369,-1615.24 L -17.2041,-1615.23 L -17.1383,-1615.21
 L -17.1055,-1615.21 L -17.0395,-1615.19 L -17.0066,-1615.19 L -16.9406,-1615.17 L -16.9075,-1615.17 L -16.8414,-1615.15
 L -16.8083,-1615.15 L -16.742,-1615.13 L -16.7088,-1615.13 L -16.6424,-1615.12 L -16.6092,-1615.11 L -16.5427,-1615.1
 L -16.5094,-1615.1 L -16.4428,-1615.09 L -16.4095,-1615.08 L -16.3428,-1615.07 L -16.3094,-1615.07 L -16.2426,-1615.06
 L -16.2092,-1615.06 L -16.1423,-1615.05 L -16.1089,-1615.04 L -16.0419,-1615.04 L -16.0084,-1615.03 L -15.9414,-1615.03
 L -15.9079,-1615.02 L -15.8408,-1615.02 L -15.8072,-1615.01 L -15.7401,-1615.01 L -15.7065,-1615.01 L -15.6393,-1615
 L -15.6057,-1615 L -15.5929,-1615 L -7.94316,-1615 L -3.42415,-1616.84 L -1.09364,-1617.96 L 3.0495,-1619.88
 L 5.22391,-1621.08 L 8.66455,-1622.92 L 10.673,-1624.19 L 13.5212,-1625.95 L 15.3731,-1627.31 L 17.7258,-1628.99
 L 19.4444,-1630.45 L 21.3868,-1632.07 L 23.0031,-1633.67 L 24.6083,-1635.22 L 26.1554,-1637 L 27.4825,-1638.49
 L 28.9904,-1640.51 L 30.0837,-1641.95 L 31.5755,-1644.28 L 32.466,-1645.64 L 33.9555,-1648.35 L 34.6639,-1649.61
 L 36.1558,-1652.78 L 36.6966,-1653.91 L 38.1872,-1657.6 L 38.5727,-1658.54 L 40.052,-1662.84 L 40.2949,-1663.53
 L 41.7488,-1668.49 L 41.8637,-1668.87 L 43.276,-1674.54 L 43.2798,-1674.55 L 43.326,-1674.77 L 44.5492,-1680.56
 L 44.6256,-1681 L 45.671,-1686.87 L 45.8088,-1687.82 L 46.6502,-1693.48 L 46.8313,-1694.98 L 47.4929,-1700.36
 L 47.7005,-1702.45 L 48.2068,-1707.48 L 48.425,-1710.21 L 48.7998,-1714.83 L 49.0144,-1718.23 L 49.2806,-1722.38
 L 49.479,-1726.48 L 49.6579,-1730.12 L 49.8292,-1734.94 L 49.9404,-1738.03 L 50.0754,-1743.59 L 50.1367,-1746.09
 L 50.2281,-1752.4 L 50.2553,-1754.28 L 50.2971,-1761.35 L 50.3041,-1762.59 L 50.292,-1770.42 L 50.2909,-1770.99
 L 50.2339,-1778.11 L 50.2238,-1779.48 L 50.2225,-1779.59 L 50.1135,-1788.03 L 50.0999,-1788.83 L 49.9619,-1796.63
 L 49.9305,-1798.14 L 49.7753,-1805.26 L 49.7219,-1807.48 L 49.5594,-1813.92 L 49.481,-1816.83 L 49.3196,-1822.59
 L 49.2144,-1826.19 L 49.0609,-1831.25 L 48.9281,-1835.54 L 48.7879,-1839.89 L 48.6279,-1844.84 L 48.5051,-1848.5
 L 48.3187,-1854.11 L 48.2163,-1857.07 L 48.0056,-1863.3 L 47.9254,-1865.59 L 47.6928,-1872.42 L 47.6358,-1874.04
 L 47.3845,-1881.45 L 47.3508,-1882.41 L 47.0845,-1890.37 L 47.0733,-1890.69 L 46.9338,-1894.96 L 46.8087,-1898.88
 L 46.8003,-1899.17 L 46.5599,-1906.97 L 46.5355,-1907.83 L 46.3263,-1914.94 L 46.2888,-1916.35 L 46.1104,-1922.79
 L 46.0628,-1924.72 L 45.9141,-1930.51 L 45.86,-1932.94 L 45.7397,-1938.09 L 45.6828,-1940.99 L 45.5889,-1945.53
 L 45.5335,-1948.87 L 45.4637,-1952.83 L 45.4141,-1956.57 L 45.3658,-1959.98 L 45.3267,-1964.09 L 45.297,-1966.97
 L 45.2734,-1971.42 L 45.2591,-1973.81 L 45.256,-1978.57 L 45.2537,-1980.49 L 45.2766,-1985.54 L 45.2826,-1987.01
 L 45.3372,-1992.31 L 45.3477,-1993.36 L 45.4397,-1998.91 L 45.4506,-1999.56 L 45.5864,-2005.32 L 45.5932,-2005.6
 L 45.7465,-2010.5 L 45.7783,-2011.49 L 45.7805,-2011.54 L 46.0106,-2017.22 L 46.0285,-2017.58 L 46.2887,-2022.8
 L 46.3272,-2023.46 L 46.6146,-2028.24 L 46.6791,-2029.17 L 46.9907,-2033.54 L 47.0868,-2034.72 L 47.4191,-2038.7
 L 47.5529,-2040.12 L 47.9024,-2043.73 L 48.0802,-2045.37 L 48.4428,-2048.64 L 48.6714,-2050.49 L 49.0426,-2053.43
 L 49.3292,-2055.48 L 49.7038,-2058.1 L 50.0559,-2060.35 L 50.4284,-2062.67 L 50.8535,-2065.09 L 51.2178,-2067.12
 L 51.7234,-2069.73 L 52.0727,-2071.48 L 52.6663,-2074.24 L 52.9935,-2075.73 L 53.6818,-2078.65 L 53.9792,-2079.88
 L 54.7683,-2082.95 L 55.0283,-2083.94 L 55.9229,-2087.14 L 56.1378,-2087.89 L 57.1409,-2091.22 L 57.3034,-2091.74
 L 58.416,-2095.18 L 58.5197,-2095.49 L 58.6006,-2095.72 L 58.6024,-2120 L 34.1305,-2120 L 8.05698,-1649.44
 L 8.05508,-1649.41 L 8.05118,-1649.35 L 8.04896,-1649.32 L 8.04441,-1649.25 L 8.04188,-1649.22 L 8.0367,-1649.16
 L 8.03385,-1649.12 L 8.028,-1649.06 L 8.02483,-1649.03 L 8.01835,-1648.96 L 8.01486,-1648.93 L 8.00772,-1648.87
 L 8.00392,-1648.84 L 7.99614,-1648.77 L 7.99203,-1648.74 L 7.98359,-1648.68 L 7.97916,-1648.65 L 7.97008,-1648.58
 L 7.96534,-1648.55 L 7.95562,-1648.49 L 7.95056,-1648.46 L 7.94019,-1648.39 L 7.93482,-1648.36 L 7.92381,-1648.3
 L 7.91813,-1648.27 L 7.90648,-1648.21 L 7.90049,-1648.17 L 7.88819,-1648.11 L 7.88189,-1648.08 L 7.86896,-1648.02
 L 7.86234,-1647.99 L 7.84876,-1647.92 L 7.84184,-1647.89 L 7.82764,-1647.83 L 7.8204,-1647.8 L 7.80556,-1647.74
 L 7.79801,-1647.71 L 7.78253,-1647.64 L 7.77469,-1647.61 L 7.75859,-1647.55 L 7.75042,-1647.52 L 7.73368,-1647.46
 L 7.72521,-1647.43 L 7.70785,-1647.36 L 7.69908,-1647.33 L 7.68109,-1647.27 L 7.67201,-1647.24 L 7.65339,-1647.18
 L 7.64401,-1647.15 L 7.62477,-1647.09 L 7.61509,-1647.06 L 7.59523,-1647 L 7.58525,-1646.97 L 7.56477,-1646.91
 L 7.55448,-1646.88 L 7.53338,-1646.82 L 7.5228,-1646.79 L 7.50108,-1646.73 L 7.4902,-1646.7 L 7.46788,-1646.64
 L 7.4567,-1646.61 L 7.43377,-1646.55 L 7.42229,-1646.52 L 7.39874,-1646.46 L 7.38697,-1646.43 L 7.36282,-1646.37
 L 7.35075,-1646.34 L 7.326,-1646.28 L 7.31365,-1646.25 L 7.2883,-1646.19 L 7.27565,-1646.16 L 7.24969,-1646.1
 L 7.23675,-1646.07 L 7.21021,-1646.02 L 7.19698,-1645.99 L 7.16984,-1645.93 L 7.15633,-1645.9 L 7.12859,-1645.84
 L 7.11479,-1645.81 L 7.08648,-1645.76 L 7.07239,-1645.73 L 7.04349,-1645.67 L 7.02912,-1645.64 L 6.99963,-1645.58
 L 6.98499,-1645.56 L 6.95492,-1645.5 L 6.94,-1645.47 L 6.90936,-1645.42 L 6.89416,-1645.39 L 6.86294,-1645.33
 L 6.84746,-1645.3 L 6.81567,-1645.25 L 6.79992,-1645.22 L 6.76756,-1645.16 L 6.75154,-1645.14 L 6.71862,-1645.08
 L 6.70233,-1645.06 L 6.66886,-1645 L 6.65229,-1644.97 L 6.61825,-1644.92 L 6.60141,-1644.89 L 6.56683,-1644.84
 L 6.54973,-1644.81 L 6.51459,-1644.76 L 6.49723,-1644.73 L 6.46155,-1644.68 L 6.44392,-1644.65 L 6.40769,-1644.6
 L 6.3898,-1644.57 L 6.35304,-1644.52 L 6.3349,-1644.49 L 6.2976,-1644.44 L 6.27919,-1644.41 L 6.24136,-1644.36
 L 6.2227,-1644.34 L 6.18435,-1644.29 L 6.16543,-1644.26 L 6.12655,-1644.21 L 6.10739,-1644.18 L 6.06799,-1644.13
 L 6.04858,-1644.11 L 6.00866,-1644.06 L 5.989,-1644.03 L 5.94857,-1643.98 L 5.92866,-1643.96 L 5.88773,-1643.91
 L 5.86758,-1643.88 L 5.82614,-1643.83 L 5.80575,-1643.81 L 5.76381,-1643.76 L 5.74318,-1643.74 L 5.70075,-1643.69
 L 5.67988,-1643.67 L 5.63696,-1643.62 L 5.61586,-1643.59 L 5.57245,-1643.55 L 5.55112,-1643.52 L 5.50724,-1643.48
 L 5.48567,-1643.45 L 5.4413,-1643.41 L 5.4195,-1643.38 L 5.37466,-1643.34 L 5.35264,-1643.32 L 5.30734,-1643.27
 L 5.2851,-1643.25 L 5.23933,-1643.2 L 5.21686,-1643.18 L 5.17062,-1643.13 L 5.14794,-1643.11 L 5.10126,-1643.07
 L 5.07836,-1643.05 L 5.03122,-1643 L 5.00811,-1642.98 L 4.96052,-1642.94 L 4.93719,-1642.92 L 4.88917,-1642.87
 L 4.86564,-1642.85 L 4.81719,-1642.81 L 4.79345,-1642.79 L 4.74457,-1642.75 L 4.72062,-1642.73 L 4.67131,-1642.69
 L 4.64715,-1642.67 L 4.59742,-1642.62 L 4.57307,-1642.6 L 4.52292,-1642.56 L 4.49838,-1642.54 L 4.44782,-1642.5
 L 4.42308,-1642.48 L 4.37213,-1642.44 L 4.34719,-1642.43 L 4.29582,-1642.39 L 4.2707,-1642.37 L 4.21895,-1642.33
 L 4.19364,-1642.31 L 4.14149,-1642.27 L 4.11599,-1642.25 L 4.06346,-1642.22 L 4.03779,-1642.2 L 3.98489,-1642.16
 L 3.95903,-1642.14 L 3.90576,-1642.11 L 3.87973,-1642.09 L 3.82608,-1642.05 L 3.79987,-1642.04 L 3.74586,-1642
 L 3.71948,-1641.98 L 3.66511,-1641.95 L 3.63857,-1641.93 L 3.58385,-1641.9 L 3.55714,-1641.88 L 3.50207,-1641.85
 L 3.4752,-1641.83 L 3.41979,-1641.8 L 3.39276,-1641.78 L 3.33702,-1641.75 L 3.30984,-1641.73 L 3.25376,-1641.7
 L 3.22642,-1641.69 L 3.17002,-1641.66 L 3.14252,-1641.64 L 3.08581,-1641.61 L 3.05817,-1641.59 L 3.00115,-1641.56
 L 2.97336,-1641.55 L 2.91602,-1641.52 L 2.88809,-1641.51 L 2.83046,-1641.48 L 2.80239,-1641.46 L 2.74446,-1641.43
 L 2.71626,-1641.42 L 2.65805,-1641.39 L 2.62971,-1641.38 L 2.5712,-1641.35 L 2.54273,-1641.34 L 2.48396,-1641.31
 L 2.45535,-1641.3 L 2.3963,-1641.27 L 2.36757,-1641.26 L 2.30827,-1641.23 L 2.27942,-1641.22 L 2.21986,-1641.2
 L 2.19089,-1641.18 L 2.13107,-1641.16 L 2.10198,-1641.15 L 2.04191,-1641.12 L 2.01271,-1641.11 L 1.9524,-1641.09
 L 1.92309,-1641.08 L 1.86255,-1641.06 L 1.83313,-1641.05 L 1.77235,-1641.02 L 1.74283,-1641.01 L 1.68184,-1640.99
 L 1.65222,-1640.98 L 1.591,-1640.96 L 1.56128,-1640.95 L 1.49986,-1640.93 L 1.47004,-1640.92 L 1.40842,-1640.9
 L 1.37851,-1640.89 L 1.31669,-1640.87 L 1.28669,-1640.86 L 1.22468,-1640.85 L 1.19459,-1640.84 L 1.13239,-1640.82
 L 1.10223,-1640.81 L 1.03986,-1640.79 L 1.00961,-1640.79 L 0.947068,-1640.77 L 0.916741,-1640.76 L 0.854024,-1640.75
 L 0.823627,-1640.74 L 0.760758,-1640.72 L 0.73029,-1640.72 L 0.667269,-1640.7 L 0.636731,-1640.7 L 0.573557,-1640.68
 L 0.542959,-1640.68 L 0.479653,-1640.66 L 0.448989,-1640.66 L 0.385542,-1640.64 L 0.354823,-1640.64 L 0.291255,-1640.63
 L 0.26048,-1640.62 L 0.196791,-1640.61 L 0.165961,-1640.6 L 0.10215,-1640.59 L 0.0712753,-1640.59 L 0.00736443,-1640.58
 L -0.0235558,-1640.57 L -0.0875671,-1640.56 L -0.118532,-1640.56 L -0.182643,-1640.55 L -0.213644,-1640.55 L -0.277836,-1640.54
 L -0.308876,-1640.53 L -0.373157,-1640.53 L -0.404228,-1640.52 L -0.468579,-1640.52 L -0.49968,-1640.51 L -0.5641,-1640.51
 L -0.595231,-1640.5 L -0.65972,-1640.5 L -0.690871,-1640.5 L -0.755409,-1640.49 L -0.78658,-1640.49 L -0.851166,-1640.49
 L -0.882352,-1640.48 L -0.946977,-1640.48 L -0.978178,-1640.48 L -1.04284,-1640.48 L -1.07405,-1640.47 L -1.07413,-1640.47
 L -19.6956,-1641.51 L -19.7422,-1641.49 L -19.772,-1641.48 L -19.8354,-1641.45 L -19.865,-1641.44 L -19.9282,-1641.41
 L -19.9577,-1641.4 L -20.0206,-1641.37 L -20.05,-1641.35 L -20.1126,-1641.33 L -20.1418,-1641.31 L -20.2041,-1641.28
 L -20.2332,-1641.27 L -20.2952,-1641.24 L -20.3242,-1641.23 L -20.3859,-1641.2 L -20.4147,-1641.18 L -20.4761,-1641.15
 L -20.5048,-1641.14 L -20.5659,-1641.1 L -20.5944,-1641.09 L -20.6551,-1641.06 L -20.6835,-1641.04 L -20.7439,-1641.01
 L -20.7722,-1640.99 L -20.8322,-1640.96 L -20.8603,-1640.94 L -20.92,-1640.91 L -20.9479,-1640.89 L -21.0073,-1640.86
 L -21.0351,-1640.84 L -21.0941,-1640.81 L -21.1217,-1640.79 L -21.1804,-1640.75 L -21.2078,-1640.74 L -21.2661,-1640.7
 L -21.2933,-1640.68 L -21.3512,-1640.65 L -21.3783,-1640.63 L -21.4359,-1640.59 L -21.4627,-1640.57 L -21.5199,-1640.53
 L -21.5466,-1640.52 L -21.6034,-1640.48 L -21.6299,-1640.46 L -21.6863,-1640.42 L -21.7126,-1640.4 L -21.7686,-1640.36
 L -21.7948,-1640.34 L -21.8504,-1640.3 L -21.8763,-1640.28 L -21.9315,-1640.24 L -21.9572,-1640.22 L -22.012,-1640.18
 L -22.0375,-1640.16 L -22.0919,-1640.12 L -22.1172,-1640.1 L -22.1711,-1640.06 L -22.1963,-1640.04 L -22.2497,-1639.99
 L -22.2747,-1639.97 L -22.3277,-1639.93 L -22.3524,-1639.91 L -22.405,-1639.86 L -22.4296,-1639.84 L -22.4817,-1639.8
 L -22.506,-1639.78 L -22.5577,-1639.73 L -22.5818,-1639.71 L -22.633,-1639.66 L -22.6569,-1639.64 L -22.7077,-1639.6
 L -22.7313,-1639.57 L -22.7816,-1639.53 L -22.805,-1639.51 L -22.8548,-1639.46 L -22.8781,-1639.44 L -22.9274,-1639.39
 L -22.9504,-1639.37 L -22.9992,-1639.32 L -23.022,-1639.29 L -23.0703,-1639.24 L -23.0928,-1639.22 L -23.1407,-1639.17
 L -23.163,-1639.15 L -23.2103,-1639.1 L -23.2324,-1639.08 L -23.2792,-1639.03 L -23.301,-1639 L -23.3474,-1638.95
 L -23.3689,-1638.93 L -23.4147,-1638.88 L -23.4361,-1638.85 L -23.4814,-1638.8 L -23.5025,-1638.78 L -23.5472,-1638.72
 L -23.5681,-1638.7 L -23.6123,-1638.65 L -23.6329,-1638.62 L -23.6766,-1638.57 L -23.6969,-1638.54 L -23.7401,-1638.49
 L -23.7602,-1638.46 L -23.8028,-1638.41 L -23.8226,-1638.38 L -23.8647,-1638.33 L -23.8843,-1638.3 L -23.9258,-1638.25
 L -23.9451,-1638.22 L -23.9861,-1638.17 L -24.0052,-1638.14 L -24.0455,-1638.09 L -24.0643,-1638.06 L -24.1042,-1638
 L -24.1227,-1637.98 L -24.162,-1637.92 L -24.1802,-1637.9 L -24.2189,-1637.84 L -24.2369,-1637.81 L -24.275,-1637.75
 L -24.2928,-1637.73 L -24.3303,-1637.67 L -24.3477,-1637.64 L -24.3847,-1637.58 L -24.4019,-1637.56 L -24.4382,-1637.5
 L -24.4551,-1637.47 L -24.4909,-1637.41 L -24.5075,-1637.39 L -24.5427,-1637.33 L -24.559,-1637.3 L -24.5936,-1637.24
 L -24.6097,-1637.21 L -24.6436,-1637.15 L -24.6594,-1637.12 L -24.6928,-1637.06 L -24.7083,-1637.03 L -24.741,-1636.97
 L -24.7563,-1636.95 L -24.7884,-1636.89 L -24.8033,-1636.86 L -24.8348,-1636.8 L -24.8495,-1636.77 L -24.8804,-1636.71
 L -24.8947,-1636.68 L -24.925,-1636.61 L -24.9391,-1636.59 L -24.9687,-1636.52 L -24.9825,-1636.49 L -25,-1636.46
 z
" stroke="black" fill="lightgray" stroke-width="0.5"/>
</svg>
